<?xml version="1.0" encoding="utf-8"?>
<!-- Generator: Adobe Illustrator 22.1.0, SVG Export Plug-In . SVG Version: 6.00 Build 0)  -->
<svg version="1.1" id="Layer_1" xmlns="http://www.w3.org/2000/svg" xmlns:xlink="http://www.w3.org/1999/xlink" x="0px" y="0px"
	 viewBox="0 0 100 125" style="enable-background:new 0 0 100 125;" xml:space="preserve">
<style type="text/css">
	.st0{fill:#FFFFFF;}
</style>
<path class="st0" d="M91.5,39h-0.6v-8c0-2.2-1.8-4-3.9-4H9c-2.2,0-4,1.8-4,4v38c0,2.2,1.8,4,4,4h78c2.2,0,3.9-1.8,3.9-4v-8h0.6
	c2,0,3.5-1.7,3.5-3.8V42.8C95,40.7,93.4,39,91.5,39z M91,57h-4.1L87,69H9V31h78v12h4V57z M13,34.5h15.8v31H13V34.5z M31.1,34.5h15.8
	v31H31.1V34.5z M49.1,34.5h15.8v31H49.1V34.5z M67.2,34.5H83v31H67.2V34.5z"/>
</svg>
