<?xml version="1.0" encoding="utf-8"?>
<!-- Generator: Adobe Illustrator 22.1.0, SVG Export Plug-In . SVG Version: 6.00 Build 0)  -->
<svg version="1.1" id="Layer_1" xmlns="http://www.w3.org/2000/svg" xmlns:xlink="http://www.w3.org/1999/xlink" x="0px" y="0px"
	 viewBox="0 0 847 1058.8" style="enable-background:new 0 0 847 1058.8;" xml:space="preserve">
<style type="text/css">
	.st0{fill:#FFFFFF;}
</style>
<g>
	<path class="st0" d="M632,409c0-9,7-17,17-17c9,0,17,8,17,17v256c0,10-8,17-17,17H199c-10,0-17-7-17-17V409c0-9,7-17,17-17
		c9,0,17,8,17,17v239h416V409z M70,446c-7,6-18,4-23-4c-6-8-4-18,4-23l363-252c6-4,14-3,19,1l363,250c7,5,9,16,4,23c-5,8-16,10-24,5
		L424,202L70,446z"/>
</g>
</svg>
