<?xml version="1.0" encoding="utf-8"?>
<!-- Generator: Adobe Illustrator 22.1.0, SVG Export Plug-In . SVG Version: 6.00 Build 0)  -->
<svg version="1.1" id="Layer_1" xmlns="http://www.w3.org/2000/svg" xmlns:xlink="http://www.w3.org/1999/xlink" x="0px" y="0px"
	 viewBox="0 0 100 125" style="enable-background:new 0 0 100 125;" xml:space="preserve">
<style type="text/css">
	.st0{fill:#FFFFFF;}
</style>
<g>
	<g>
		<path class="st0" d="M62.2,54.6l0-36.6c0-6.3-5.1-11.4-11.4-11.4c-6.3,0-11.4,5.1-11.4,11.4l0,36.6c-5.9,3.9-9.5,10.4-9.5,17.5
			c0,11.6,9.4,21,21,21c11.6,0,21-9.4,21-21C71.7,65,68,58.4,62.2,54.6z M50.7,88.8c-9.2,0-16.7-7.5-16.7-16.7
			c0-6,3.2-11.6,8.5-14.6l1.1-0.6v-1.2l0-37.7c0-4,3.2-7.2,7.2-7.2c4,0,7.2,3.2,7.2,7.2v0.9h-4.8c-0.9,0-1.6,0.7-1.6,1.6
			c0,0.9,0.7,1.6,1.6,1.6h4.8v4.3h-4.8c-0.9,0-1.6,0.7-1.6,1.6c0,0.9,0.7,1.6,1.6,1.6h4.8v4.3h-4.8c-0.9,0-1.6,0.7-1.6,1.6
			c0,0.9,0.7,1.6,1.6,1.6h4.8l0,18.5v1.2l1.1,0.6c5.2,3,8.5,8.6,8.5,14.6C67.5,81.3,60,88.8,50.7,88.8z"/>
		<path class="st0" d="M56.8,61.3c-2-1.2-3.3-3.3-3.3-5.6l0-12c0-1.6-1.3-2.8-2.8-2.8c-1.6,0-2.8,1.3-2.8,2.8l0,11.9
			c0,2.3-1.2,4.5-3.3,5.6c-3.9,2.2-6.2,6.3-6.2,10.7c0,6.8,5.5,12.4,12.4,12.4c6.8,0,12.4-5.5,12.4-12.4
			C63.1,67.7,60.7,63.5,56.8,61.3z"/>
	</g>
</g>
</svg>
