<?xml version="1.0" encoding="utf-8"?>
<!-- Generator: Adobe Illustrator 22.1.0, SVG Export Plug-In . SVG Version: 6.00 Build 0)  -->
<svg version="1.1"
	 id="Layer_1" xmlns:cc="http://creativecommons.org/ns#" xmlns:dc="http://purl.org/dc/elements/1.1/" xmlns:inkscape="http://www.inkscape.org/namespaces/inkscape" xmlns:rdf="http://www.w3.org/1999/02/22-rdf-syntax-ns#" xmlns:sodipodi="http://sodipodi.sourceforge.net/DTD/sodipodi-0.dtd" xmlns:svg="http://www.w3.org/2000/svg"
	 xmlns="http://www.w3.org/2000/svg" xmlns:xlink="http://www.w3.org/1999/xlink" x="0px" y="0px" viewBox="0 0 100 125"
	 style="enable-background:new 0 0 100 125;" xml:space="preserve">
<style type="text/css">
	.st0{fill:#FFFFFF;}
</style>
<g transform="translate(0,-952.36218)">
	<path class="st0" d="M59.6,986.3c-7.7,0-14.2,5.5-15.8,12.8h2.4c1.5-6,6.9-10.6,13.4-10.6c7.6,0,13.8,6.2,13.8,13.9
		s-6.1,13.8-13.8,13.8c-6.4,0-11.8-4.3-13.3-10.2h-2.4c1.6,7.2,8.1,12.5,15.8,12.5c8.9,0,16.1-7.1,16.1-16
		C75.7,993.6,68.5,986.3,59.6,986.3z M59.3,992.4c-4.4,0-8.1,2.8-9.4,6.7h2.5c1.2-2.6,3.8-4.5,6.9-4.5c4.3,0,7.7,3.5,7.7,7.7
		c0,4.3-3.4,7.7-7.7,7.7c-3,0-5.5-1.7-6.8-4.2H50c1.4,3.7,5.1,6.4,9.3,6.4c5.5,0,10-4.4,10-9.9C69.4,996.9,64.8,992.4,59.3,992.4z
		 M39.4,994.8c0,0-0.1,0-0.1,0c0,0-0.1,0-0.1,0c-0.3,0.1-0.6,0.3-0.8,0.7l-3.1,6.6l-2.4,5.1l-1.5-4.9c-0.1-0.5-0.6-0.8-1.1-0.8h-4.8
		c-0.6,0-1.1,0.5-1.1,1.1c0,0.6,0.5,1.1,1.1,1.1h4l2.2,6.9c0.3,0.9,1.7,1,2.1,0.2l3.7-7.8l2-4.2l1.7,4.2c0.2,0.4,0.6,0.7,1,0.7h1.5
		h2.4h3.5h2.3h4.1c0.6,1.6,2.1,2.8,3.9,2.8c2.3,0,4.1-1.8,4.1-4.1c0-2.3-1.9-4.1-4.1-4.1c-1.9,0-3.5,1.3-4,3.1h-4h-2.4h-3.5h-2.3
		h-0.8l-2.4-5.9C40.3,995.1,39.8,994.8,39.4,994.8L39.4,994.8z"/>
</g>
</svg>
