<?xml version="1.0" standalone="no"?>
<!DOCTYPE svg PUBLIC "-//W3C//DTD SVG 1.1//EN" "http://www.w3.org/Graphics/SVG/1.1/DTD/svg11.dtd" >
<svg>
<metadata>
Created by FontForge 20090622 at Fri Apr 19 18:07:22 2019
 By deploy user
Copyright &#194;&#169; 2017 by Stefano Giliberti (brumale). All rights reserved.
</metadata>
<defs>
<font id="Anodina-Light" horiz-adv-x="567" >
  <font-face 
    font-family="Anodina Light"
    font-weight="300"
    font-stretch="normal"
    units-per-em="1000"
    panose-1="0 0 4 0 0 0 0 0 0 0"
    ascent="800"
    descent="-200"
    x-height="518"
    cap-height="700"
    bbox="-34 -292 997 1071"
    underline-thickness="50"
    underline-position="-50"
    unicode-range="U+0020-U+25CA"
  />
<missing-glyph horiz-adv-x="500" 
d="M0 0v700h500v-700h-500zM250 395l170 255h-340zM280 350l170 -255v510zM80 50h340l-170 255zM50 605v-510l170 255z" />
    <glyph glyph-name=".notdef" horiz-adv-x="500" 
d="M0 0v700h500v-700h-500zM250 395l170 255h-340zM280 350l170 -255v510zM80 50h340l-170 255zM50 605v-510l170 255z" />
    <glyph glyph-name=".null" horiz-adv-x="0" 
 />
    <glyph glyph-name="nonmarkingreturn" horiz-adv-x="333" 
 />
    <glyph glyph-name="space" unicode=" " horiz-adv-x="260" 
 />
    <glyph glyph-name="exclam" unicode="!" horiz-adv-x="224" 
d="M144 216h-64v486h64v-486zM112 84q18 0 30 -12t12 -30t-12 -30t-30 -12t-30 12t-12 30t12 30t30 12z" />
    <glyph glyph-name="quotedbl" unicode="&#x22;" horiz-adv-x="338" 
d="M134 473h-64v227h64v-227zM268 473h-64v227h64v-227z" />
    <glyph glyph-name="numbersign" unicode="#" horiz-adv-x="730" 
d="M511 496h149v-64h-149v-163h149v-64h-149v-205h-64v205h-163v-205h-64v205h-150v64h150v163h-150v64h150v204h64v-204h163v204h64v-204zM284 432v-163h163v163h-163z" />
    <glyph glyph-name="dollar" unicode="$" horiz-adv-x="568" 
d="M316 806v-106q69 -6 115 -41q58 -43 66 -123l-63 -7q-6 52 -41 79q-28 22 -77 27v-254q78 -8 123 -48q59 -51 59 -143t-59 -142q-45 -40 -123 -48v-106h-64v106q-70 6 -116 41q-57 42 -66 123l64 7q4 -52 41 -79q28 -22 77 -28v255q-78 8 -124 48q-58 52 -58 143
q0 92 58 142q46 40 124 48v106h64zM252 384v252q-51 -6 -82 -32q-36 -32 -36 -94t36 -95q29 -25 82 -31zM316 316v-251q53 6 81 31q37 32 37 94q0 61 -37 95q-28 25 -81 31z" />
    <glyph glyph-name="percent" unicode="%" horiz-adv-x="749" 
d="M193 700q58 0 92 -42q31 -39 31 -104q0 -64 -31 -104q-33 -41 -92 -41q-60 0 -92 41q-31 38 -31 104q0 67 31 104q33 42 92 42zM164 0h-79l500 700h79zM193 636q-29 0 -42 -18q-17 -20 -17 -64q0 -42 17 -64q13 -17 42 -17t42 17q17 22 17 64q0 44 -17 64q-13 18 -42 18z
M556 291q60 0 92 -41q31 -38 31 -104q0 -67 -31 -104q-33 -42 -92 -42t-92 42q-31 37 -31 104q0 66 31 104q32 41 92 41zM556 227q-29 0 -42 -17q-17 -22 -17 -64q0 -44 17 -64q14 -18 42 -18t42 18q17 20 17 64q0 42 -17 64q-13 17 -42 17z" />
    <glyph glyph-name="ampersand" unicode="&#x26;" horiz-adv-x="701" 
d="M313 700q74 0 117 -53q41 -50 28 -122q-13 -69 -73 -112q-21 -15 -50 -31q35 -42 172 -193q18 31 29 64q17 51 17 97h64q0 -110 -65 -210l79 -86l-47 -44q-1 2 -10 11.5l-27.5 30l-34.5 37.5q-86 -89 -199 -89q-61 0 -114.5 25.5t-87.5 70.5q-60 78 -33 172q16 58 71 96
q27 18 82 43q-8 10 -12 14q-43 55 -54 108q-11 49 9 90q20 39 59.5 60t79.5 21zM313 636q-29 0 -51 -13.5t-30 -31.5q-10 -20 -5 -49q9 -38 43 -82q3 -5 11 -14t11 -13q44 20 69.5 43t33.5 61q7 41 -14 69q-25 30 -68 30zM274 355l-37.5 -16.5t-32 -16t-30 -19.5t-20.5 -23
t-15 -30q-17 -62 23 -116q27 -33 63 -50q42 -20 88 -20q51 0 98 26q31 17 57 47z" />
    <glyph glyph-name="quotesingle" unicode="'" horiz-adv-x="204" 
d="M134 473h-64v227h64v-227z" />
    <glyph glyph-name="parenleft" unicode="(" horiz-adv-x="291" 
d="M185 753l36 -53q-41 -28 -64 -77q-23 -52 -23 -123v-364q0 -69 23 -123q23 -49 64 -77l-36 -53q-115 78 -115 253v364q0 175 115 253z" />
    <glyph glyph-name="parenright" unicode=")" horiz-adv-x="291" 
d="M70 700l36 53q115 -78 115 -253v-364q0 -175 -115 -253l-36 53q41 28 64 77q23 54 23 123v364q0 71 -23 123q-23 49 -64 77z" />
    <glyph glyph-name="asterisk" unicode="*" horiz-adv-x="396" 
d="M223 610l78 45l25 -43l-78 -45l78 -45l-25 -43l-78 45v-90h-50v90l-78 -45l-25 43l78 45l-78 45l25 43l78 -45v90h50v-90z" />
    <glyph glyph-name="plus" unicode="+" horiz-adv-x="594" 
d="M329 291h195v-64h-195v-195h-64v195h-195v64h195v195h64v-195z" />
    <glyph glyph-name="comma" unicode="," horiz-adv-x="221" 
d="M87 64h64q0 -175 -115 -253l-36 53q43 29 64 77q23 54 23 123z" />
    <glyph glyph-name="hyphen" unicode="-" horiz-adv-x="458" 
d="M388 227h-318v64h318v-64z" />
    <glyph glyph-name="period" unicode="." horiz-adv-x="224" 
d="M112 84q18 0 30 -12t12 -30t-12 -30t-30 -12t-30 12t-12 30t12 30t30 12z" />
    <glyph glyph-name="slash" unicode="/" horiz-adv-x="437" 
d="M367 804l-227 -908h-66l227 908h66z" />
    <glyph glyph-name="zero" unicode="0" 
d="M283 700q47 0 89 -16q41 -16 70 -48q55 -63 55 -173v-227q0 -109 -55 -172q-31 -34 -70 -48q-38 -16 -89 -16t-89 16q-41 15 -69 48q-55 61 -55 172v227q0 112 55 173q26 31 69 48q42 16 89 16zM283 636q-73 0 -110 -43q-39 -43 -39 -130v-227q0 -86 39 -130
q36 -42 110 -42q73 0 111 42q39 44 39 130v227q0 87 -39 130q-38 43 -111 43z" />
    <glyph glyph-name="one" unicode="1" horiz-adv-x="376" 
d="M306 0h-64v591l-127 -127l-45 45l191 191h45v-700z" />
    <glyph glyph-name="two" unicode="2" 
d="M277 700h7q99 0 155 -50q58 -50 58 -141q0 -52 -14 -88q-14 -43 -42 -69q-30 -30 -69 -43q-40 -14 -88 -14q-74 0 -111 -42q-39 -43 -39 -130v-59h363v-64h-427v123q0 109 55 172q29 33 69 48q39 16 90 16q72 0 112 38q37 37 37 112q0 61 -36 93q-39 34 -113 34h-7
q-118 0 -144 -112l-62 14q16 77 70 120q54 42 136 42z" />
    <glyph glyph-name="three" unicode="3" horiz-adv-x="560" 
d="M276 700q98 0 156 -50t58 -141q0 -92 -58 -142q-19 -14 -24 -17q5 -3 24 -17q58 -50 58 -142t-58 -142q-58 -49 -156 -49q-82 0 -135 42q-54 42 -71 119l62 14q26 -111 144 -111q76 0 113 33q37 32 37 94t-37 94q-37 33 -113 33h-45v64h45q76 0 113 33q37 32 37 94
q0 61 -37 93q-39 34 -113 34q-118 0 -144 -112l-62 14q16 78 71 120q52 42 135 42z" />
    <glyph glyph-name="four" unicode="4" horiz-adv-x="550" 
d="M134 200h282v137h64v-337h-64v136h-346v78l221 486h70z" />
    <glyph glyph-name="five" unicode="5" 
d="M465 636h-331v-209h131q108 -2 169 -55q32 -29 47 -69q16 -38 16 -89q0 -53 -14 -89q-13 -41 -42 -69q-31 -29 -69 -42q-40 -14 -88 -14h-7q-82 0 -136 42q-54 43 -70 119l62 14q25 -111 144 -111h7q72 0 112 38q37 37 37 112q0 72 -42 110q-43 39 -130 39h-191v337h395
v-64z" />
    <glyph glyph-name="six" unicode="6" 
d="M284 700h6q82 0 136 -42q54 -43 70 -120l-62 -14q-24 112 -144 112h-6q-73 0 -111 -43q-39 -43 -39 -130v-85q26 23 61 35q36 14 89 14q52 0 88 -14q40 -13 69 -42t42 -69q14 -36 14 -88q0 -53 -14 -89q-13 -41 -42 -69q-31 -29 -69 -42q-40 -14 -88 -14q-51 0 -90 16
q-38 14 -69 48q-55 63 -55 172v227q0 110 55 173q29 32 69 48q43 16 90 16zM284 363q-75 0 -112 -37q-35 -37 -38 -102q3 -78 39 -118q37 -42 111 -42q72 0 112 38q37 37 37 112q0 74 -37 112q-38 37 -112 37z" />
    <glyph glyph-name="seven" unicode="7" horiz-adv-x="541" 
d="M471 623l-266 -623h-70l272 636h-337v64h401v-77z" />
    <glyph glyph-name="eight" unicode="8" horiz-adv-x="568" 
d="M284 700q100 0 156 -49q58 -50 58 -142q0 -90 -58 -142q-19 -14 -24 -17q5 -3 24 -17q58 -50 58 -142t-58 -142q-58 -49 -156 -49q-99 0 -156 49q-58 50 -58 142t58 142q11 10 23 17q-12 7 -23 17q-58 52 -58 142q0 92 58 142q55 49 156 49zM284 636q-76 0 -114 -33
q-36 -31 -36 -94t36 -94q37 -33 114 -33q76 0 113 33q37 32 37 94t-37 94q-37 33 -113 33zM284 318q-76 0 -114 -33q-36 -31 -36 -94t36 -94q38 -33 114 -33t113 33q37 32 37 94t-37 94q-37 33 -113 33z" />
    <glyph glyph-name="nine" unicode="9" 
d="M283 0h-6q-82 0 -136 42q-54 43 -70 120l62 14q24 -112 144 -112h6q73 0 111 43q39 43 39 130v85q-26 -23 -61 -35q-36 -14 -89 -14q-52 0 -88 14q-41 13 -69 42t-42 69q-14 36 -14 88q0 53 14 89q14 41 42 69q31 29 69 42q40 14 88 14q51 0 90 -16q38 -14 69 -48
q55 -63 55 -172v-227q0 -110 -55 -173q-28 -32 -69 -48q-43 -16 -90 -16zM283 337q75 0 112 37q35 37 38 102q-3 78 -39 118q-38 42 -111 42q-72 0 -112 -38q-37 -37 -37 -112q0 -74 37 -112q38 -37 112 -37z" />
    <glyph glyph-name="colon" unicode=":" horiz-adv-x="224" 
d="M112 392q18 0 30 -12t12 -30t-12 -30t-30 -12t-30 12t-12 30t12 30t30 12zM112 84q18 0 30 -12t12 -30t-12 -30t-30 -12t-30 12t-12 30t12 30t30 12z" />
    <glyph glyph-name="semicolon" unicode=";" horiz-adv-x="231" 
d="M119 392q18 0 30 -12t12 -30t-12 -30t-30 -12t-30 12t-12 30t12 30t30 12zM87 64h64q0 -175 -115 -253l-36 53q43 29 64 77q23 54 23 123z" />
    <glyph glyph-name="less" unicode="&#x3c;" horiz-adv-x="513" 
d="M443 446l-263 -188l263 -187v-79l-373 266l373 267v-79z" />
    <glyph glyph-name="equal" unicode="=" horiz-adv-x="594" 
d="M524 318h-454v64h454v-64zM524 136h-454v64h454v-64z" />
    <glyph glyph-name="greater" unicode="&#x3e;" horiz-adv-x="513" 
d="M443 258l-373 -266v79l263 187l-263 188v79z" />
    <glyph glyph-name="question" unicode="?" horiz-adv-x="522" 
d="M261 700q83 0 136 -55q55 -55 55 -136q0 -62 -32 -114q-16 -26 -63 -70q-22 -21 -33.5 -33t-21 -33t-9.5 -45h-64q0 37 14.5 69t29 48t41.5 41q26 25 38 38t24 40t12 59q0 55 -36 91q-38 36 -91 36q-127 0 -127 -127h-64q0 90 50 140q51 51 141 51zM261 84q18 0 30 -12
t12 -30t-12 -30t-30 -12t-30 12t-12 30t12 30t30 12z" />
    <glyph glyph-name="at" unicode="@" horiz-adv-x="1067" 
d="M533 813q94 0 178 -28q85 -27 148 -82q138 -121 138 -331q0 -125 -52 -200q-23 -35 -56 -55q-32 -19 -70 -19q-35 0 -67 18q-33 20 -54 51q-14 19 -23 41q-1 -1 -5 -6.5t-6 -7.5q-50 -58 -142 -58q-50 0 -88 13q-41 15 -69 43t-43 69q-14 40 -14 88t14 88q16 44 43 69
q30 30 69 43q40 14 88 14q78 0 127 -43v43h64v-214q0 -92 37 -146q30 -41 69 -41q42 0 74 46q40 60 40 164q0 93 -32 166q-30 71 -84 116q-53 47 -126 71q-72 24 -158 24q-80 0 -155 -32q-69 -29 -127 -85q-56 -56 -86 -127q-31 -76 -31 -156q0 -79 31 -155q29 -70 86 -127
t127 -86q76 -31 155 -31q95 0 179 42l28 -57q-95 -49 -207 -49q-95 0 -180 36q-86 38 -147 100q-62 61 -100 147q-36 85 -36 180t36 181q36 83 100 147q64 65 147 99q88 37 180 37zM522 499q-74 0 -112 -38t-38 -112t38 -112q37 -37 112 -37q62 0 94 36q33 38 33 113
q0 77 -33 114q-32 36 -94 36z" />
    <glyph glyph-name="A" unicode="A" horiz-adv-x="685" 
d="M615 0h-68l-49 136h-312l-48 -136h-68l250 700h45zM209 200h266l-133 373z" />
    <glyph glyph-name="B" unicode="B" horiz-adv-x="613" 
d="M70 700h259q98 0 156 -50t58 -141q0 -92 -58 -142q-19 -14 -24 -17q5 -3 24 -17q58 -50 58 -142t-58 -142q-58 -49 -156 -49h-259v700zM134 636v-254h195q75 0 113 33q37 32 37 94q0 61 -37 93q-39 34 -113 34h-195zM134 318v-254h195q75 0 113 33q37 32 37 94t-37 94
q-38 33 -113 33h-195z" />
    <glyph glyph-name="C" unicode="C" horiz-adv-x="600" 
d="M306 700q86 0 143.5 -41.5t80.5 -118.5l-62 -17q-32 113 -162 113q-83 0 -127 -49q-45 -49 -45 -146v-182q0 -98 45 -147q43 -48 127 -48q130 0 162 113l62 -18q-23 -77 -80.5 -118t-143.5 -41q-53 0 -99 17q-46 19 -76 52q-61 70 -61 190v182q0 120 61 189q32 35 76 52
q45 18 99 18z" />
    <glyph glyph-name="D" unicode="D" horiz-adv-x="613" 
d="M70 700h236q56 0 99 -18q45 -17 76 -52q62 -68 62 -189v-182q0 -120 -62 -190q-29 -33 -76 -52q-45 -17 -99 -17h-236v700zM134 636v-572h172q84 0 128 48q45 49 45 147v182q0 97 -45 146q-44 49 -128 49h-172z" />
    <glyph glyph-name="E" unicode="E" horiz-adv-x="558" 
d="M488 636h-354v-254h354v-64h-354v-254h354v-64h-418v700h418v-64z" />
    <glyph glyph-name="F" unicode="F" horiz-adv-x="558" 
d="M488 636h-354v-254h354v-64h-354v-318h-64v700h418v-64z" />
    <glyph glyph-name="G" unicode="G" horiz-adv-x="613" 
d="M306 700h12q86 0 143.5 -41.5t79.5 -118.5l-61 -17q-33 113 -162 113h-12q-83 0 -127 -49q-45 -49 -45 -146v-182q0 -98 45 -147q43 -48 127 -48t128 48q45 49 45 147v59h-173v64h237v-123q0 -120 -62 -190q-29 -33 -76 -52q-45 -17 -99 -17q-53 0 -99 17q-46 19 -76 52
q-61 70 -61 190v182q0 120 61 189q32 35 76 52q45 18 99 18z" />
    <glyph glyph-name="H" unicode="H" horiz-adv-x="613" 
d="M543 0h-64v318h-345v-318h-64v700h64v-318h345v318h64v-700z" />
    <glyph glyph-name="I" unicode="I" horiz-adv-x="204" 
d="M134 0h-64v700h64v-700z" />
    <glyph glyph-name="J" unicode="J" horiz-adv-x="354" 
d="M284 700v-441q0 -119 -54 -188q-57 -71 -160 -71v64q72 0 110 47q40 51 40 148v441h64z" />
    <glyph glyph-name="K" unicode="K" horiz-adv-x="623" 
d="M322 400l231 -400h-74l-200 345l-145 -188v-157h-64v700h64v-438l339 438h80z" />
    <glyph glyph-name="L" unicode="L" horiz-adv-x="558" 
d="M134 64h354v-64h-418v700h64v-636z" />
    <glyph glyph-name="M" unicode="M" horiz-adv-x="794" 
d="M724 0h-64v523l-243 -523h-40l-243 523v-523h-64v700h52l275 -592l275 592h52v-700z" />
    <glyph glyph-name="N" unicode="N" horiz-adv-x="613" 
d="M543 0h-50l-359 559v-559h-64v700h49l360 -559v559h64v-700z" />
    <glyph glyph-name="O" unicode="O" horiz-adv-x="613" 
d="M306 700q56 0 99 -18q45 -17 76 -52q62 -68 62 -189v-182q0 -120 -62 -190q-29 -33 -76 -52q-45 -17 -99 -17q-53 0 -99 17q-46 19 -76 52q-61 70 -61 190v182q0 120 61 189q32 35 76 52q45 18 99 18zM306 636q-83 0 -127 -49q-45 -49 -45 -146v-182q0 -98 45 -147
q43 -48 127 -48t128 48q45 49 45 147v182q0 97 -45 146q-44 49 -128 49z" />
    <glyph glyph-name="P" unicode="P" horiz-adv-x="613" 
d="M70 700h236q111 0 173 -56q31 -26 48 -69q16 -42 16 -89t-16 -89q-17 -43 -48 -69q-62 -56 -173 -56h-172v-272h-64v700zM134 636v-300h172q85 0 130 39q43 38 43 111t-43 111q-45 39 -130 39h-172z" />
    <glyph glyph-name="Q" unicode="Q" horiz-adv-x="613" 
d="M307 700q53 0 99 -17q46 -19 76 -52q61 -69 61 -190v-182q0 -120 -61 -190q-30 -33 -76 -52q-3 -1 -7 -2.5t-6 -1.5l136 -91l-36 -53l-196 131q-49 1 -89 17q-47 19 -77 52q-61 70 -61 190v182q0 121 61 190q30 33 77 52q45 17 99 17zM307 636q-85 0 -128 -48
q-45 -50 -45 -147v-182q0 -98 45 -147q43 -48 128 -48q83 0 127 48q45 49 45 147v182q0 97 -45 147q-44 48 -127 48z" />
    <glyph glyph-name="R" unicode="R" horiz-adv-x="613" 
d="M70 700h236q110 0 173 -55q31 -29 48 -69q16 -43 16 -90t-16 -89q-17 -41 -48 -69q-52 -48 -142 -54l206 -274h-80l-205 273h-124v-273h-64v700zM134 636v-299h172q86 0 130 39q43 37 43 110t-43 111q-44 39 -130 39h-172z" />
    <glyph glyph-name="S" unicode="S" horiz-adv-x="613" 
d="M306 700h12q86 0 143.5 -41.5t79.5 -118.5l-61 -17q-33 113 -162 113h-12q-87 0 -131 -35q-41 -32 -41 -92q0 -61 41 -93q45 -34 131 -34q110 0 171 -48q66 -51 66 -143t-66 -143q-61 -48 -171 -48h-11q-86 0 -143.5 41t-80.5 118l62 18q32 -113 162 -113h11q87 0 132 34
q41 32 41 93q0 60 -41 92q-44 35 -132 35q-110 0 -171 48q-65 51 -65 143q0 90 65 143q63 48 171 48z" />
    <glyph glyph-name="T" unicode="T" horiz-adv-x="571" 
d="M501 636h-183v-636h-64v636h-184v64h431v-64z" />
    <glyph glyph-name="U" unicode="U" horiz-adv-x="613" 
d="M543 700v-441q0 -120 -62 -190q-29 -33 -76 -52q-45 -17 -99 -17q-53 0 -99 17q-46 19 -76 52q-61 70 -61 190v441h64v-441q0 -98 45 -147q43 -48 127 -48t128 48q45 49 45 147v441h64z" />
    <glyph glyph-name="V" unicode="V" horiz-adv-x="637" 
d="M342 0h-47l-225 700h67l181 -563l181 563h68z" />
    <glyph glyph-name="W" unicode="W" horiz-adv-x="1045" 
d="M750 0h-46l-181 563l-181 -563h-47l-225 700h67l181 -563l181 563h47l181 -563l181 563h67z" />
    <glyph glyph-name="X" unicode="X" horiz-adv-x="640" 
d="M357 350l213 -350h-75l-175 288l-175 -288h-75l213 350l-213 350h75l175 -288l175 288h75z" />
    <glyph glyph-name="Y" unicode="Y" horiz-adv-x="652" 
d="M358 251v-251h-64v251l-224 449h72l184 -369l185 369h71z" />
    <glyph glyph-name="Z" unicode="Z" horiz-adv-x="594" 
d="M524 613l-392 -549h392v-64h-454v87l392 549h-392v64h454v-87z" />
    <glyph glyph-name="bracketleft" unicode="[" horiz-adv-x="308" 
d="M238 700h-104v-753h104v-64h-168v881h168v-64z" />
    <glyph glyph-name="backslash" unicode="\" horiz-adv-x="433" 
d="M363 -104h-66l-227 908h66z" />
    <glyph glyph-name="bracketright" unicode="]" horiz-adv-x="308" 
d="M238 764v-881h-168v64h104v753h-104v64h168z" />
    <glyph glyph-name="asciicircum" unicode="^" horiz-adv-x="667" 
d="M597 291h-73l-190 343l-191 -343h-73l227 409h73z" />
    <glyph glyph-name="underscore" unicode="_" horiz-adv-x="594" 
d="M524 -114h-454v64h454v-64z" />
    <glyph glyph-name="grave" unicode="`" horiz-adv-x="200" 
d="M200 795l-22 -45l-178 89l23 44z" />
    <glyph glyph-name="a" unicode="a" horiz-adv-x="568" 
d="M283 518h1q98 0 156 -49q58 -50 58 -142v-327h-64v44q-56 -44 -150 -44h-23q-86 0 -136 35q-55 40 -55 111q0 70 55 110q50 35 136 35h173v36q0 62 -37 94q-37 33 -113 33h-1q-70 0 -108 -29q-35 -26 -41 -79l-63 7q8 80 65 123q56 42 147 42zM434 227h-173
q-65 0 -99 -23q-28 -21 -28 -58q0 -38 28 -59q34 -23 99 -23h23q76 0 113 33q37 32 37 94v36z" />
    <glyph glyph-name="b" unicode="b" 
d="M134 700v-226q56 44 150 44q98 0 155 -49q58 -50 58 -142v-136q0 -92 -58 -142q-57 -49 -155 -49q-94 0 -150 44v-44h-64v700h64zM284 454q-76 0 -114 -33q-36 -31 -36 -94v-136q0 -63 36 -94q38 -33 114 -33t113 33q36 31 36 94v136q0 63 -36 94q-37 33 -113 33z" />
    <glyph glyph-name="c" unicode="c" horiz-adv-x="553" 
d="M284 518q74 0 123 -27q53 -28 76 -84l-60 -24q-13 34 -46 52q-38 19 -93 19q-76 0 -114 -33q-36 -31 -36 -94v-136q0 -63 36 -94q38 -33 114 -33q55 0 93 19q33 18 46 52l60 -24q-23 -56 -76 -84q-49 -27 -123 -27q-99 0 -156 49q-58 50 -58 142v136q0 92 58 142
q57 49 156 49z" />
    <glyph glyph-name="d" unicode="d" 
d="M497 700v-700h-64v44q-56 -44 -150 -44q-98 0 -155 49q-58 50 -58 142v136q0 92 58 142q57 49 155 49q94 0 150 -44v226h64zM283 454q-75 0 -113 -33q-36 -31 -36 -94v-136q0 -63 36 -94q38 -33 113 -33q77 0 114 33q36 31 36 94v136q0 63 -36 94q-37 33 -114 33z" />
    <glyph glyph-name="e" unicode="e" 
d="M284 518q98 0 155 -49q58 -50 58 -142v-100h-363v-36q0 -63 36 -94q38 -33 114 -33h12q55 0 93 19q32 17 47 52l59 -24q-23 -56 -76 -84q-49 -27 -123 -27h-12q-99 0 -156 49q-58 50 -58 142v136q0 92 58 142q57 49 156 49zM284 454q-76 0 -114 -33q-36 -31 -36 -94v-36
h299v36q0 63 -36 94q-37 33 -113 33z" />
    <glyph glyph-name="f" unicode="f" horiz-adv-x="435" 
d="M365 636h-45q-53 0 -81 -22q-23 -20 -23 -60v-36h149v-64h-149v-454h-64v454h-82v64h82v36q0 69 46 109q46 37 122 37h45v-64z" />
    <glyph glyph-name="g" unicode="g" 
d="M497 518v-509q0 -92 -58 -142q-57 -49 -155 -49h-12q-74 0 -124 27q-53 28 -76 84l60 24q13 -34 46 -52q38 -19 94 -19h12q76 0 113 33q36 32 36 94v35q-54 -44 -149 -44q-101 0 -156 49q-58 50 -58 142v136q0 91 58 141q56 50 156 50q94 0 149 -45v45h64zM284 454
q-75 0 -114 -34q-36 -32 -36 -93v-136q0 -63 36 -94q38 -33 114 -33t113 33q36 31 36 94v136q0 61 -36 93q-39 34 -113 34z" />
    <glyph glyph-name="h" unicode="h" 
d="M134 700v-226q56 44 150 44q98 0 155 -49q58 -50 58 -142v-327h-64v327q0 63 -36 94q-37 33 -113 33t-114 -33q-36 -31 -36 -94v-327h-64v700h64z" />
    <glyph glyph-name="i" unicode="i" horiz-adv-x="224" 
d="M112 700q18 0 30 -12t12 -30t-12 -30t-30 -12t-30 12t-12 30t12 30t30 12zM144 0h-64v518h64v-518z" />
    <glyph glyph-name="j" unicode="j" horiz-adv-x="271" 
d="M159 700q18 0 30 -12t12 -30t-12 -30t-30 -12t-30 12t-12 30t12 30t30 12zM191 518v-486q0 -99 -49 -156q-50 -58 -142 -58v64q62 0 94 36q33 37 33 114v486h64z" />
    <glyph glyph-name="k" unicode="k" horiz-adv-x="536" 
d="M134 251l245 267h87l-211 -230l211 -288h-80l-175 240l-77 -84v-156h-64v700h64v-449z" />
    <glyph glyph-name="l" unicode="l" horiz-adv-x="286" 
d="M134 700v-509q0 -67 23 -99q21 -28 59 -28v-64q-71 0 -111 55q-35 49 -35 136v509h64z" />
    <glyph glyph-name="m" unicode="m" horiz-adv-x="930" 
d="M647 518q98 0 155 -49q58 -50 58 -142v-327h-64v327q0 63 -36 94q-37 33 -113 33q-75 0 -114 -33q-36 -31 -36 -94v-327h-64v327q0 63 -36 94q-37 33 -113 33t-114 -33q-36 -31 -36 -94v-327h-64v518h64v-44q56 44 150 44q98 0 155 -49q15 -14 26 -29q16 20 26 29
q57 49 156 49z" />
    <glyph glyph-name="n" unicode="n" 
d="M284 518q98 0 155 -49q58 -50 58 -142v-327h-64v327q0 63 -36 94q-37 33 -113 33t-114 -33q-36 -31 -36 -94v-327h-64v518h64v-44q56 44 150 44z" />
    <glyph glyph-name="o" unicode="o" 
d="M284 518q98 0 155 -49q58 -50 58 -142v-136q0 -92 -58 -142q-57 -49 -155 -49q-99 0 -156 49q-58 50 -58 142v136q0 92 58 142q57 49 156 49zM284 454q-76 0 -114 -33q-36 -31 -36 -94v-136q0 -63 36 -94q38 -33 114 -33t113 33q36 31 36 94v136q0 63 -36 94
q-37 33 -113 33z" />
    <glyph glyph-name="p" unicode="p" 
d="M284 518q99 0 155 -50q58 -50 58 -141v-136q0 -92 -58 -142q-55 -49 -155 -49q-96 0 -150 44v-226h-64v700h64v-45q56 45 150 45zM284 454q-75 0 -114 -34q-36 -32 -36 -93v-136q0 -63 36 -94q38 -33 114 -33t113 33q36 31 36 94v136q0 61 -36 93q-39 34 -113 34z" />
    <glyph glyph-name="q" unicode="q" 
d="M283 518q95 0 150 -45v45h64v-700h-64v226q-54 -44 -150 -44q-100 0 -155 49q-58 50 -58 142v136q0 91 58 141q56 50 155 50zM283 454q-74 0 -113 -34q-36 -32 -36 -93v-136q0 -63 36 -94q38 -33 113 -33q77 0 114 33q36 31 36 94v136q0 61 -36 93q-39 34 -114 34z" />
    <glyph glyph-name="r" unicode="r" horiz-adv-x="399" 
d="M329 454h-45q-76 0 -114 -33q-36 -31 -36 -94v-327h-64v518h64v-44q56 44 150 44h45v-64z" />
    <glyph glyph-name="s" unicode="s" 
d="M284 518h12q74 0 123 -27q53 -28 76 -84l-59 -24q-15 35 -47 52q-38 19 -93 19h-12q-80 0 -118 -25q-32 -19 -32 -56q0 -38 32 -57q38 -25 118 -25q95 0 151 -34q62 -39 62 -111q0 -73 -62 -112q-56 -34 -151 -34h-12q-74 0 -124 27q-53 28 -76 84l60 24q13 -34 46 -52
q38 -19 94 -19h12q79 0 117 25q32 19 32 57q0 37 -32 56q-38 25 -117 25q-95 0 -152 34q-62 39 -62 112q0 72 62 111q57 34 152 34z" />
    <glyph glyph-name="t" unicode="t" horiz-adv-x="435" 
d="M216 518h149v-64h-149v-263q0 -63 36 -94q38 -33 113 -33v-64q-98 0 -156 49q-57 51 -57 142v263h-82v64h82v182h64v-182z" />
    <glyph glyph-name="u" unicode="u" horiz-adv-x="568" 
d="M498 0h-64v44q-56 -44 -150 -44q-98 0 -156 49q-58 50 -58 142v327h64v-327q0 -62 37 -94q37 -33 113 -33t113 33q37 32 37 94v327h64v-518z" />
    <glyph glyph-name="v" unicode="v" horiz-adv-x="598" 
d="M321 0h-44l-207 518h69l160 -400l160 400h69z" />
    <glyph glyph-name="w" unicode="w" horiz-adv-x="961" 
d="M684 0h-44l-160 400l-159 -400h-44l-207 518h69l160 -400l160 400h43l160 -400l160 400h69z" />
    <glyph glyph-name="x" unicode="x" horiz-adv-x="581" 
d="M329 259l182 -259h-78l-143 203l-142 -203h-78l181 259l-181 259h78l142 -203l143 203h78z" />
    <glyph glyph-name="y" unicode="y" 
d="M497 518v-509q0 -92 -58 -142q-57 -49 -155 -49h-12q-74 0 -124 27q-53 28 -76 84l60 24q13 -34 46 -52q38 -19 94 -19h12q76 0 113 33q36 32 36 94v35q-54 -44 -149 -44q-101 0 -156 49q-58 50 -58 142v327h64v-327q0 -63 36 -94q38 -33 114 -33t113 33q36 31 36 94v327
h64z" />
    <glyph glyph-name="z" unicode="z" horiz-adv-x="549" 
d="M479 438l-337 -374h337v-64h-409v80l337 374h-337v64h409v-80z" />
    <glyph glyph-name="braceleft" unicode="{" horiz-adv-x="322" 
d="M252 764v-64q-27 0 -41 -21q-18 -27 -18 -83v-136q0 -75 -29 -119q-6 -9 -14 -17q12 -14 14 -18q29 -44 29 -119v-136q0 -56 18 -83q15 -21 41 -21v-64q-62 0 -94 50q-29 43 -29 118v136q0 57 -18 84q-15 21 -41 21v64q27 0 41 21q18 25 18 83v136q0 75 29 119
q32 49 94 49z" />
    <glyph glyph-name="bar" unicode="|" horiz-adv-x="204" 
d="M134 -195h-64v908h64v-908z" />
    <glyph glyph-name="braceright" unicode="}" horiz-adv-x="317" 
d="M65 700v64q62 0 94 -49q29 -44 29 -119v-136q0 -58 18 -83q14 -21 41 -21v-64q-26 0 -41 -21q-18 -27 -18 -84v-136q0 -75 -29 -118q-32 -50 -94 -50v64q26 0 41 21q18 27 18 83v136q0 75 29 119q2 4 14 18q-8 8 -14 17q-29 44 -29 119v136q0 56 -18 83q-14 21 -41 21z
" />
    <glyph glyph-name="asciitilde" unicode="~" horiz-adv-x="613" 
d="M251 335q48 -14 81 -57q20 -27 49.5 -34.5t49.5 2.5q24 8 36 24.5t12 33.5h64q0 -41 -25 -73.5t-67 -45.5q-46 -15 -89 -2q-50 14 -81 57q-39 51 -99 32q-48 -16 -48 -59h-64q0 41 25 73.5t67 46.5q45 14 89 2z" />
    <glyph glyph-name="exclamdown" unicode="&#xa1;" horiz-adv-x="224" 
d="M112 434q-18 0 -30 12t-12 30t12 30t30 12t30 -12t12 -30t-12 -30t-30 -12zM80 -184v486h64v-486h-64z" />
    <glyph glyph-name="cent" unicode="&#xa2;" horiz-adv-x="550" 
d="M317 625v-107q48 -4 87 -26q52 -29 76 -83l-59 -26q-31 72 -136 72q-76 0 -113 -38q-38 -38 -38 -113v-91q0 -75 38 -113t113 -38q105 0 136 73l59 -27q-24 -54 -76 -83q-40 -21 -87 -25v-107h-64v107q-30 3 -57 12q-39 13 -69 43t-43 69q-14 40 -14 89v91q0 49 14 89
q14 41 43 70q28 28 69 43q27 9 57 12v107h64z" />
    <glyph glyph-name="sterling" unicode="&#xa3;" horiz-adv-x="629" 
d="M365 700q68 0 118 -28q52 -27 76 -82l-59 -26q-32 72 -135 72q-74 0 -112 -38q-37 -37 -37 -112q0 -34 16 -98q0 -1 0.5 -3t0.5 -3h223v-64h-209q23 -128 -18 -254h318v-64h-411l18 44q55 137 28 274h-112v64h98q-16 62 -16 104q0 50 13 88q15 41 43 69t69 43
q40 14 88 14z" />
    <glyph glyph-name="currency" unicode="&#xa4;" horiz-adv-x="570" 
d="M500 520l-75 -76q29 -42 29 -93.5t-29 -94.5l75 -76l-45 -45l-76 76q-43 -29 -94 -29t-94 29l-76 -76l-45 45l76 76q-28 43 -28 94.5t28 93.5l-76 76l45 45l76 -75q43 28 94.5 28t93.5 -28l76 75zM212 424q-31 -31 -31 -74t31 -73q30 -31 73 -31t74 31q31 30 31 73
t-31 74q-30 30 -73.5 30t-73.5 -30z" />
    <glyph glyph-name="yen" unicode="&#xa5;" horiz-adv-x="652" 
d="M378 291h141v-64h-161v-72h161v-64h-161v-91h-64v91h-161v64h161v72h-161v64h141l-204 409h72l184 -369l185 369h71z" />
    <glyph glyph-name="brokenbar" unicode="&#xa6;" horiz-adv-x="204" 
d="M134 350h-64v363h64v-363zM134 -195h-64v363h64v-363z" />
    <glyph glyph-name="section" unicode="&#xa7;" horiz-adv-x="566" 
d="M283 745q91 0 147 -42q57 -43 65 -123l-63 -7q-6 53 -41 79q-38 29 -108 29q-75 0 -113 -33q-36 -32 -36 -94t36 -94q37 -33 113 -33q98 0 155 -49q58 -50 58 -142q0 -84 -52 -136q52 -50 52 -136q0 -92 -58 -142q-58 -49 -156 -49q-92 0 -147 42q-57 43 -65 123l63 7
q6 -53 41 -79q38 -29 108 -29q76 0 113 33q37 32 37 94t-37 94q-37 33 -113 33q-97 0 -154 49q-58 50 -58 142q0 85 51 136q-51 49 -51 136q0 92 58 142q57 49 155 49zM178 382q-18 -12 -29 -33q-15 -27 -15 -67q0 -62 36 -94q38 -33 113 -33q58 0 104 -19q17 12 30 33
q15 27 15 67q0 62 -37 94q-38 33 -113 33q-58 0 -104 19z" />
    <glyph glyph-name="dieresis" unicode="&#xa8;" horiz-adv-x="180" 
d="M35 820q15 0 25 -10t10 -25t-10 -25t-25 -10t-25 10t-10 25t10 25t25 10zM145 820q15 0 25 -10t10 -25t-10 -25t-25 -10t-25 10t-10 25t10 25t25 10z" />
    <glyph glyph-name="copyright" unicode="&#xa9;" horiz-adv-x="840" 
d="M420 700q69 0 136 -28q63 -27 111 -75t75 -111q28 -67 28 -136t-28 -136q-27 -62 -75 -112q-49 -49 -111 -74q-63 -28 -136 -28t-136 28q-61 25 -112 74q-49 51 -74 112q-28 63 -28 136t28 136q25 62 74 111q50 48 112 75q67 28 136 28zM420 636q-118 0 -202 -84
t-84 -202t84 -202t202 -84t202 84t84 202t-84 202t-202 84zM429 511q43 0 82 -22q36 -21 58 -59l-44 -25q-32 56 -96 56q-46 0 -78.5 -32.5t-32.5 -78.5t32.5 -78.5t78.5 -32.5q29 0 55 15t41 40l44 -25q-21 -37 -58 -58q-37 -22 -82 -22q-67 0 -114 47t-47 114t47 114
t114 47z" />
    <glyph glyph-name="guillemotleft" unicode="&#xab;" horiz-adv-x="544" 
d="M154 259l136 -159h-84l-136 159l136 159h84zM338 259l136 -159h-84l-136 159l136 159h84z" />
    <glyph glyph-name="logicalnot" unicode="&#xac;" horiz-adv-x="626" 
d="M556 130h-64v195h-422v64h486v-259z" />
    <glyph glyph-name="registered" unicode="&#xae;" horiz-adv-x="840" 
d="M420 700q69 0 136 -28q63 -27 111 -75t75 -111q28 -67 28 -136t-28 -136q-27 -62 -75 -112q-49 -49 -111 -74q-63 -28 -136 -28t-136 28q-61 25 -112 74q-49 51 -74 112q-28 63 -28 136t28 136q25 62 74 111q50 48 112 75q67 28 136 28zM420 636q-118 0 -202 -84
t-84 -202t84 -202t202 -84t202 84t84 202t-84 202t-202 84zM327 511h115q39 0 66.5 -27.5t27.5 -65.5q0 -33 -21.5 -59t-54.5 -32l76 -113h-60l-75 111h-24v-111h-50v297zM377 461v-86h65q18 0 31 12.5t13 30.5t-13 30.5t-31 12.5h-65z" />
    <glyph glyph-name="macron" unicode="&#xaf;" horiz-adv-x="177" 
d="M177 750h-177v50h177v-50z" />
    <glyph glyph-name="degree" unicode="&#xb0;" horiz-adv-x="431" 
d="M216 700q60 0 102.5 -42.5t42.5 -102.5q0 -61 -42.5 -103.5t-102.5 -42.5q-61 0 -103.5 42.5t-42.5 103.5q0 60 42.5 102.5t103.5 42.5zM216 636q-34 0 -58 -24t-24 -57q0 -34 24 -58t58 -24q33 0 57 24t24 58q0 33 -24 57t-57 24z" />
    <glyph glyph-name="plusminus" unicode="&#xb1;" horiz-adv-x="594" 
d="M329 348h195v-64h-195v-195h-64v195h-195v64h195v195h64v-195zM524 -26h-454v64h454v-64z" />
    <glyph glyph-name="acute" unicode="&#xb4;" horiz-adv-x="200" 
d="M200 839l-178 -89l-22 45l177 88z" />
    <glyph glyph-name="paragraph" unicode="&#xb6;" 
d="M338 -195h-64v499q-85 0 -144.5 60t-59.5 145t59.5 144.5t144.5 59.5h64v-908zM497 -195h-64v908h64v-908z" />
    <glyph glyph-name="periodcentered" unicode="&#xb7;" horiz-adv-x="224" 
d="M112 392q18 0 30 -12t12 -30t-12 -30t-30 -12t-30 12t-12 30t12 30t30 12z" />
    <glyph glyph-name="cedilla" unicode="&#xb8;" horiz-adv-x="146" 
d="M78 0l-14 -57q38 -3 60 -27.5t22 -64.5q0 -42 -24.5 -66.5t-67.5 -24.5h-44v50h44q22 0 32 10t10 31q0 20 -10 32q-10 10 -32 10h-54l30 120z" />
    <glyph glyph-name="guillemotright" unicode="&#xbb;" horiz-adv-x="544" 
d="M154 418l136 -159l-136 -159h-84l136 159l-136 159h84zM338 418l136 -159l-136 -159h-84l136 159l-136 159h84z" />
    <glyph glyph-name="onequarter" unicode="&#xbc;" horiz-adv-x="719" 
d="M149 0h-79l500 700h79zM183 340h-50v360h50v-360zM480 116h113v67h50v-183h-50v66h-163v61l106 233h55z" />
    <glyph glyph-name="onehalf" unicode="&#xbd;" horiz-adv-x="783" 
d="M149 0h-79l500 700h79zM183 340h-50v360h50v-360zM600 360q53 0 83 -30t30 -83q0 -54 -30 -84t-83 -30q-31 0 -47 -19q-17 -22 -17 -64h177v-50h-227v47q0 64 30 100t84 36q32 0 48 16q15 15 15 48q0 32 -15 47q-16 16 -48 16q-33 0 -48 -16q-16 -15 -16 -47h-50
q0 53 30 83t84 30z" />
    <glyph glyph-name="threequarters" unicode="&#xbe;" horiz-adv-x="786" 
d="M184 700q51 0 82 -26q31 -28 31 -76q0 -49 -31 -77l-1 -1l1 -1q31 -28 31 -76q0 -49 -31 -77q-31 -26 -82 -26q-54 0 -84 30t-30 84h50q0 -33 16 -48q15 -16 48 -16q32 0 49 14q14 12 14 39q0 26 -14 38q-17 14 -49 14h-23v50h23q32 0 49 14q14 12 14 39q0 26 -14 38
q-17 14 -49 14q-33 0 -48 -16q-16 -15 -16 -47h-50q0 53 30 83t84 30zM216 0h-79l500 700h79zM547 116h113v67h50v-183h-50v66h-163v61l106 233h55z" />
    <glyph glyph-name="questiondown" unicode="&#xbf;" horiz-adv-x="530" 
d="M269 434q-18 0 -30 12t-12 30t12 30t30 12t30 -12t12 -30t-12 -30t-30 -12zM269 -182q-83 0 -136 55q-55 55 -55 136q0 62 32 114q16 26 63 70q22 21 33.5 33t21 33t9.5 45h64q0 -37 -14.5 -69t-29 -48t-41.5 -41q-26 -25 -38 -38t-24 -40t-12 -59q0 -55 36 -91
q38 -36 91 -36q127 0 127 127h64q0 -90 -50 -140q-51 -51 -141 -51z" />
    <glyph glyph-name="Agrave" unicode="&#xc0;" horiz-adv-x="685" 
d="M443 795l-22 -45l-178 89l23 44zM615 0h-68l-49 136h-312l-48 -136h-68l250 700h45zM209 200h266l-133 373z" />
    <glyph glyph-name="Aacute" unicode="&#xc1;" horiz-adv-x="685" 
d="M443 839l-178 -89l-22 45l177 88zM615 0h-68l-49 136h-312l-48 -136h-68l250 700h45zM209 200h266l-133 373z" />
    <glyph glyph-name="Acircumflex" unicode="&#xc2;" horiz-adv-x="685" 
d="M342 826l-95 -76l-31 39l126 101l127 -101l-31 -39zM615 0h-68l-49 136h-312l-48 -136h-68l250 700h45zM209 200h266l-133 373z" />
    <glyph glyph-name="Atilde" unicode="&#xc3;" horiz-adv-x="685" 
d="M252 842q27 11 56.5 4t51.5 -29q25 -25 54 -14q15 7 15 18h50q0 -33 -25 -52t-56 -19q-41 0 -73 32q-25 24 -53 13q-15 -6 -15 -18h-50q0 46 45 65zM615 0h-68l-49 136h-312l-48 -136h-68l250 700h45zM209 200h266l-133 373z" />
    <glyph glyph-name="Adieresis" unicode="&#xc4;" horiz-adv-x="685" 
d="M288 820q15 0 25 -10t10 -25t-10 -25t-25 -10t-25 10t-10 25t10 25t25 10zM398 820q15 0 25 -10t10 -25t-10 -25t-25 -10t-25 10t-10 25t10 25t25 10zM615 0h-68l-49 136h-312l-48 -136h-68l250 700h45zM209 200h266l-133 373z" />
    <glyph glyph-name="Aring" unicode="&#xc5;" horiz-adv-x="685" 
d="M342 933q43 0 67.5 -24.5t24.5 -67.5q0 -42 -24.5 -66.5t-67.5 -24.5q-42 0 -66.5 24.5t-24.5 66.5q0 43 24.5 67.5t66.5 24.5zM342 883q-22 0 -31 -10q-10 -10 -10 -32t10 -31q9 -10 31 -10t32 10q10 9 10 31t-10 32t-32 10zM615 0h-68l-49 136h-312l-48 -136h-68
l250 700h45zM209 200h266l-133 373z" />
    <glyph glyph-name="AE" unicode="&#xc6;" horiz-adv-x="958" 
d="M899 636h-354v-254h354v-64h-354v-254h354v-64h-418v136h-331q-14 -79 -14 -106l-2 -30h-64l2 34l1 10l2.5 21.5l4 32.5t6 41.5t9 48.5t12 54.5t16 58.5t19.5 60q51 144 130 229q102 110 241 110h386v-64zM481 200v434q-41 -6 -76 -22q-44 -21 -86 -65q-69 -73 -116 -207
q-21 -55 -40 -140h318z" />
    <glyph glyph-name="Ccedilla" unicode="&#xc7;" horiz-adv-x="600" 
d="M306 64q130 0 162 113l62 -18q-23 -77 -80.5 -118t-143.5 -41h-1l-14 -56q38 -3 60 -27.5t22 -64.5q0 -42 -24.5 -66.5t-67.5 -24.5h-44v50h44q22 0 32 10t10 31q0 20 -10 32q-10 10 -32 10h-54l28 110q-28 5 -48 13q-46 19 -76 52q-61 70 -61 190v182q0 120 61 189
q32 35 76 52q45 18 99 18q86 0 143.5 -41.5t80.5 -118.5l-62 -17q-32 113 -162 113q-83 0 -127 -49q-45 -49 -45 -146v-182q0 -98 45 -147q43 -48 127 -48z" />
    <glyph glyph-name="Egrave" unicode="&#xc8;" horiz-adv-x="558" 
d="M379 795l-22 -45l-178 89l23 44zM488 636h-354v-254h354v-64h-354v-254h354v-64h-418v700h418v-64z" />
    <glyph glyph-name="Eacute" unicode="&#xc9;" horiz-adv-x="558" 
d="M379 839l-178 -89l-22 45l177 88zM488 636h-354v-254h354v-64h-354v-254h354v-64h-418v700h418v-64z" />
    <glyph glyph-name="Ecircumflex" unicode="&#xca;" horiz-adv-x="558" 
d="M279 826l-95 -76l-31 39l126 101l127 -101l-31 -39zM488 636h-354v-254h354v-64h-354v-254h354v-64h-418v700h418v-64z" />
    <glyph glyph-name="Edieresis" unicode="&#xcb;" horiz-adv-x="558" 
d="M224 820q15 0 25 -10t10 -25t-10 -25t-25 -10t-25 10t-10 25t10 25t25 10zM334 820q15 0 25 -10t10 -25t-10 -25t-25 -10t-25 10t-10 25t10 25t25 10zM488 636h-354v-254h354v-64h-354v-254h354v-64h-418v700h418v-64z" />
    <glyph glyph-name="Igrave" unicode="&#xcc;" horiz-adv-x="204" 
d="M202 795l-22 -45l-178 89l23 44zM134 0h-64v700h64v-700z" />
    <glyph glyph-name="Iacute" unicode="&#xcd;" horiz-adv-x="204" 
d="M202 839l-178 -89l-22 45l177 88zM134 0h-64v700h64v-700z" />
    <glyph glyph-name="Icircumflex" unicode="&#xce;" horiz-adv-x="204" 
d="M101 826l-95 -76l-31 39l126 101l127 -101l-31 -39zM134 0h-64v700h64v-700z" />
    <glyph glyph-name="Idieresis" unicode="&#xcf;" horiz-adv-x="204" 
d="M47 820q15 0 25 -10t10 -25t-10 -25t-25 -10t-25 10t-10 25t10 25t25 10zM157 820q15 0 25 -10t10 -25t-10 -25t-25 -10t-25 10t-10 25t10 25t25 10zM134 0h-64v700h64v-700z" />
    <glyph glyph-name="Eth" unicode="&#xd0;" horiz-adv-x="613" 
d="M481 630q62 -68 62 -189v-182q0 -120 -62 -190q-29 -33 -76 -52q-45 -17 -99 -17h-236v325h-60v50h60v325h236q56 0 99 -18q45 -17 76 -52zM479 259v182q0 97 -45 146q-44 49 -128 49h-172v-261h164v-50h-164v-261h172q84 0 128 48q45 49 45 147z" />
    <glyph glyph-name="Ntilde" unicode="&#xd1;" horiz-adv-x="613" 
d="M216 842q27 11 56.5 4t51.5 -29q25 -25 54 -14q15 7 15 18h50q0 -33 -25 -52t-56 -19q-41 0 -73 32q-25 24 -53 13q-15 -6 -15 -18h-50q0 46 45 65zM543 0h-50l-359 559v-559h-64v700h49l360 -559v559h64v-700z" />
    <glyph glyph-name="Ograve" unicode="&#xd2;" horiz-adv-x="613" 
d="M407 795l-22 -45l-178 89l23 44zM306 700q56 0 99 -18q45 -17 76 -52q62 -68 62 -189v-182q0 -120 -62 -190q-29 -33 -76 -52q-45 -17 -99 -17q-53 0 -99 17q-46 19 -76 52q-61 70 -61 190v182q0 120 61 189q32 35 76 52q45 18 99 18zM306 636q-83 0 -127 -49
q-45 -49 -45 -146v-182q0 -98 45 -147q43 -48 127 -48t128 48q45 49 45 147v182q0 97 -45 146q-44 49 -128 49z" />
    <glyph glyph-name="Oacute" unicode="&#xd3;" horiz-adv-x="613" 
d="M407 839l-178 -89l-22 45l177 88zM306 700q56 0 99 -18q45 -17 76 -52q62 -68 62 -189v-182q0 -120 -62 -190q-29 -33 -76 -52q-45 -17 -99 -17q-53 0 -99 17q-46 19 -76 52q-61 70 -61 190v182q0 120 61 189q32 35 76 52q45 18 99 18zM306 636q-83 0 -127 -49
q-45 -49 -45 -146v-182q0 -98 45 -147q43 -48 127 -48t128 48q45 49 45 147v182q0 97 -45 146q-44 49 -128 49z" />
    <glyph glyph-name="Ocircumflex" unicode="&#xd4;" horiz-adv-x="613" 
d="M306 826l-95 -76l-31 39l126 101l127 -101l-31 -39zM306 700q56 0 99 -18q45 -17 76 -52q62 -68 62 -189v-182q0 -120 -62 -190q-29 -33 -76 -52q-45 -17 -99 -17q-53 0 -99 17q-46 19 -76 52q-61 70 -61 190v182q0 120 61 189q32 35 76 52q45 18 99 18zM306 636
q-83 0 -127 -49q-45 -49 -45 -146v-182q0 -98 45 -147q43 -48 127 -48t128 48q45 49 45 147v182q0 97 -45 146q-44 49 -128 49z" />
    <glyph glyph-name="Otilde" unicode="&#xd5;" horiz-adv-x="613" 
d="M216 842q27 11 56.5 4t51.5 -29q25 -25 54 -14q15 7 15 18h50q0 -33 -25 -52t-56 -19q-41 0 -73 32q-25 24 -53 13q-15 -6 -15 -18h-50q0 46 45 65zM306 700q56 0 99 -18q45 -17 76 -52q62 -68 62 -189v-182q0 -120 -62 -190q-29 -33 -76 -52q-45 -17 -99 -17
q-53 0 -99 17q-46 19 -76 52q-61 70 -61 190v182q0 120 61 189q32 35 76 52q45 18 99 18zM306 636q-83 0 -127 -49q-45 -49 -45 -146v-182q0 -98 45 -147q43 -48 127 -48t128 48q45 49 45 147v182q0 97 -45 146q-44 49 -128 49z" />
    <glyph glyph-name="Odieresis" unicode="&#xd6;" horiz-adv-x="613" 
d="M252 820q15 0 25 -10t10 -25t-10 -25t-25 -10t-25 10t-10 25t10 25t25 10zM362 820q15 0 25 -10t10 -25t-10 -25t-25 -10t-25 10t-10 25t10 25t25 10zM306 700q56 0 99 -18q45 -17 76 -52q62 -68 62 -189v-182q0 -120 -62 -190q-29 -33 -76 -52q-45 -17 -99 -17
q-53 0 -99 17q-46 19 -76 52q-61 70 -61 190v182q0 120 61 189q32 35 76 52q45 18 99 18zM306 636q-83 0 -127 -49q-45 -49 -45 -146v-182q0 -98 45 -147q43 -48 127 -48t128 48q45 49 45 147v182q0 97 -45 146q-44 49 -128 49z" />
    <glyph glyph-name="multiply" unicode="&#xd7;" horiz-adv-x="506" 
d="M436 397l-138 -138l138 -138l-45 -45l-138 138l-138 -138l-45 45l138 138l-138 138l45 45l138 -138l138 138z" />
    <glyph glyph-name="Oslash" unicode="&#xd8;" horiz-adv-x="624" 
d="M554 646l-39 -55q34 -62 34 -150v-182q0 -120 -62 -190q-29 -33 -76 -52q-45 -17 -99 -17q-53 0 -99 17q-42 17 -73 49l-29 -40l-41 29l39 55q-33 60 -33 149v182q0 120 61 189q32 35 76 52q45 18 99 18q56 0 99 -18q41 -15 73 -48l29 41zM140 441v-182q0 -50 12 -89
l294 411l-6 6q-44 49 -128 49q-83 0 -127 -49q-45 -49 -45 -146zM485 259v182q0 49 -13 90l-294 -411l7 -8q44 -48 127 -48q84 0 128 48q45 49 45 147z" />
    <glyph glyph-name="Ugrave" unicode="&#xd9;" horiz-adv-x="613" 
d="M407 795l-22 -45l-178 89l23 44zM543 700v-441q0 -120 -62 -190q-29 -33 -76 -52q-45 -17 -99 -17q-53 0 -99 17q-46 19 -76 52q-61 70 -61 190v441h64v-441q0 -98 45 -147q43 -48 127 -48t128 48q45 49 45 147v441h64z" />
    <glyph glyph-name="Uacute" unicode="&#xda;" horiz-adv-x="613" 
d="M407 839l-178 -89l-22 45l177 88zM543 700v-441q0 -120 -62 -190q-29 -33 -76 -52q-45 -17 -99 -17q-53 0 -99 17q-46 19 -76 52q-61 70 -61 190v441h64v-441q0 -98 45 -147q43 -48 127 -48t128 48q45 49 45 147v441h64z" />
    <glyph glyph-name="Ucircumflex" unicode="&#xdb;" horiz-adv-x="613" 
d="M306 826l-95 -76l-31 39l126 101l127 -101l-31 -39zM543 700v-441q0 -120 -62 -190q-29 -33 -76 -52q-45 -17 -99 -17q-53 0 -99 17q-46 19 -76 52q-61 70 -61 190v441h64v-441q0 -98 45 -147q43 -48 127 -48t128 48q45 49 45 147v441h64z" />
    <glyph glyph-name="Udieresis" unicode="&#xdc;" horiz-adv-x="613" 
d="M252 820q15 0 25 -10t10 -25t-10 -25t-25 -10t-25 10t-10 25t10 25t25 10zM362 820q15 0 25 -10t10 -25t-10 -25t-25 -10t-25 10t-10 25t10 25t25 10zM543 700v-441q0 -120 -62 -190q-29 -33 -76 -52q-45 -17 -99 -17q-53 0 -99 17q-46 19 -76 52q-61 70 -61 190v441h64
v-441q0 -98 45 -147q43 -48 127 -48t128 48q45 49 45 147v441h64z" />
    <glyph glyph-name="Yacute" unicode="&#xdd;" horiz-adv-x="652" 
d="M426 839l-178 -89l-22 45l177 88zM358 251v-251h-64v251l-224 449h72l184 -369l185 369h71z" />
    <glyph glyph-name="Thorn" unicode="&#xde;" horiz-adv-x="613" 
d="M134 564h150q119 0 188 -54q71 -59 71 -160t-71 -160q-69 -54 -188 -54h-150v-136h-64v700h64v-136zM134 500v-300h150q97 0 148 40q47 38 47 110t-47 110q-51 40 -148 40h-150z" />
    <glyph glyph-name="germandbls" unicode="&#xdf;" horiz-adv-x="590" 
d="M306 700q100 0 156 -50q58 -50 58 -141q0 -92 -58 -142q-11 -10 -23 -17q12 -7 23 -17q58 -50 58 -142t-58 -142q-57 -49 -156 -49h-45v64h45q76 0 114 33q36 31 36 94t-36 94q-38 33 -114 33h-45v64h45q76 0 114 33q36 31 36 94q0 61 -36 93q-39 34 -114 34
q-83 0 -127 -49q-45 -49 -45 -146v-441h-64v450q0 113 61 180q32 35 76 52q45 18 99 18z" />
    <glyph glyph-name="agrave" unicode="&#xe0;" horiz-adv-x="568" 
d="M384 613l-22 -45l-178 89l23 44zM283 518h1q98 0 156 -49q58 -50 58 -142v-327h-64v44q-56 -44 -150 -44h-23q-86 0 -136 35q-55 40 -55 111q0 70 55 110q50 35 136 35h173v36q0 62 -37 94q-37 33 -113 33h-1q-70 0 -108 -29q-35 -26 -41 -79l-63 7q8 80 65 123
q56 42 147 42zM434 227h-173q-65 0 -99 -23q-28 -21 -28 -58q0 -38 28 -59q34 -23 99 -23h23q76 0 113 33q37 32 37 94v36z" />
    <glyph glyph-name="aacute" unicode="&#xe1;" horiz-adv-x="568" 
d="M384 657l-178 -89l-22 45l177 88zM283 518h1q98 0 156 -49q58 -50 58 -142v-327h-64v44q-56 -44 -150 -44h-23q-86 0 -136 35q-55 40 -55 111q0 70 55 110q50 35 136 35h173v36q0 62 -37 94q-37 33 -113 33h-1q-70 0 -108 -29q-35 -26 -41 -79l-63 7q8 80 65 123
q56 42 147 42zM434 227h-173q-65 0 -99 -23q-28 -21 -28 -58q0 -38 28 -59q34 -23 99 -23h23q76 0 113 33q37 32 37 94v36z" />
    <glyph glyph-name="acircumflex" unicode="&#xe2;" horiz-adv-x="568" 
d="M284 644l-95 -76l-31 39l126 101l127 -101l-31 -39zM283 518h1q98 0 156 -49q58 -50 58 -142v-327h-64v44q-56 -44 -150 -44h-23q-86 0 -136 35q-55 40 -55 111q0 70 55 110q50 35 136 35h173v36q0 62 -37 94q-37 33 -113 33h-1q-70 0 -108 -29q-35 -26 -41 -79l-63 7
q8 80 65 123q56 42 147 42zM434 227h-173q-65 0 -99 -23q-28 -21 -28 -58q0 -38 28 -59q34 -23 99 -23h23q76 0 113 33q37 32 37 94v36z" />
    <glyph glyph-name="atilde" unicode="&#xe3;" horiz-adv-x="568" 
d="M193 660q27 11 56.5 4t51.5 -29q25 -25 54 -14q15 7 15 18h50q0 -33 -25 -52t-56 -19q-41 0 -73 32q-25 24 -53 13q-15 -6 -15 -18h-50q0 46 45 65zM283 518h1q98 0 156 -49q58 -50 58 -142v-327h-64v44q-56 -44 -150 -44h-23q-86 0 -136 35q-55 40 -55 111q0 70 55 110
q50 35 136 35h173v36q0 62 -37 94q-37 33 -113 33h-1q-70 0 -108 -29q-35 -26 -41 -79l-63 7q8 80 65 123q56 42 147 42zM434 227h-173q-65 0 -99 -23q-28 -21 -28 -58q0 -38 28 -59q34 -23 99 -23h23q76 0 113 33q37 32 37 94v36z" />
    <glyph glyph-name="adieresis" unicode="&#xe4;" horiz-adv-x="568" 
d="M229 638q15 0 25 -10t10 -25t-10 -25t-25 -10t-25 10t-10 25t10 25t25 10zM339 638q15 0 25 -10t10 -25t-10 -25t-25 -10t-25 10t-10 25t10 25t25 10zM283 518h1q98 0 156 -49q58 -50 58 -142v-327h-64v44q-56 -44 -150 -44h-23q-86 0 -136 35q-55 40 -55 111
q0 70 55 110q50 35 136 35h173v36q0 62 -37 94q-37 33 -113 33h-1q-70 0 -108 -29q-35 -26 -41 -79l-63 7q8 80 65 123q56 42 147 42zM434 227h-173q-65 0 -99 -23q-28 -21 -28 -58q0 -38 28 -59q34 -23 99 -23h23q76 0 113 33q37 32 37 94v36z" />
    <glyph glyph-name="aring" unicode="&#xe5;" horiz-adv-x="568" 
d="M284 751q43 0 67.5 -24.5t24.5 -67.5q0 -42 -24.5 -66.5t-67.5 -24.5q-42 0 -66.5 24.5t-24.5 66.5q0 43 24.5 67.5t66.5 24.5zM284 701q-22 0 -31 -10q-10 -10 -10 -32t10 -31q9 -10 31 -10t32 10q10 9 10 31t-10 32t-32 10zM283 518h1q98 0 156 -49q58 -50 58 -142
v-327h-64v44q-56 -44 -150 -44h-23q-86 0 -136 35q-55 40 -55 111q0 70 55 110q50 35 136 35h173v36q0 62 -37 94q-37 33 -113 33h-1q-70 0 -108 -29q-35 -26 -41 -79l-63 7q8 80 65 123q56 42 147 42zM434 227h-173q-65 0 -99 -23q-28 -21 -28 -58q0 -38 28 -59
q34 -23 99 -23h23q76 0 113 33q37 32 37 94v36z" />
    <glyph glyph-name="ae" unicode="&#xe6;" horiz-adv-x="930" 
d="M647 518q98 0 155 -49q58 -50 58 -142v-100h-363v-36q0 -63 36 -94q39 -33 114 -33h12q55 0 93 19q34 18 47 52l59 -24q-22 -55 -75 -84q-51 -27 -124 -27h-12q-99 0 -156 49q-10 9 -26 29q-11 -15 -26 -29q-57 -49 -155 -49h-23q-87 0 -136 35q-55 40 -55 111
q0 70 55 110q49 35 136 35h172v36q0 63 -36 94q-37 33 -113 33h-2q-69 0 -107 -29q-36 -26 -41 -79l-64 7q9 81 66 123q55 42 146 42h2q98 0 155 -49q15 -14 26 -29q16 20 26 29q57 49 156 49zM647 454q-75 0 -114 -33q-36 -31 -36 -94v-36h299v36q0 63 -36 94
q-37 33 -113 33zM433 227h-172q-67 0 -99 -23q-28 -21 -28 -58q0 -38 28 -59q32 -23 99 -23h23q76 0 113 33q36 31 36 94v36z" />
    <glyph glyph-name="ccedilla" unicode="&#xe7;" horiz-adv-x="553" 
d="M377 83q33 18 46 52l60 -24q-23 -56 -76 -84q-49 -27 -123 -27h-2l-14 -56q38 -3 60 -27.5t22 -64.5q0 -42 -24.5 -66.5t-67.5 -24.5h-44v50h44q22 0 32 10t10 31q0 20 -10 32q-10 10 -32 10h-54l27 110q-62 10 -103 45q-58 50 -58 142v136q0 92 58 142q57 49 156 49
q74 0 123 -27q53 -28 76 -84l-60 -24q-13 34 -46 52q-38 19 -93 19q-76 0 -114 -33q-36 -31 -36 -94v-136q0 -63 36 -94q38 -33 114 -33q55 0 93 19z" />
    <glyph glyph-name="egrave" unicode="&#xe8;" 
d="M384 613l-22 -45l-178 89l23 44zM284 518q98 0 155 -49q58 -50 58 -142v-100h-363v-36q0 -63 36 -94q38 -33 114 -33h12q55 0 93 19q32 17 47 52l59 -24q-23 -56 -76 -84q-49 -27 -123 -27h-12q-99 0 -156 49q-58 50 -58 142v136q0 92 58 142q57 49 156 49zM284 454
q-76 0 -114 -33q-36 -31 -36 -94v-36h299v36q0 63 -36 94q-37 33 -113 33z" />
    <glyph glyph-name="eacute" unicode="&#xe9;" 
d="M384 657l-178 -89l-22 45l177 88zM284 518q98 0 155 -49q58 -50 58 -142v-100h-363v-36q0 -63 36 -94q38 -33 114 -33h12q55 0 93 19q32 17 47 52l59 -24q-23 -56 -76 -84q-49 -27 -123 -27h-12q-99 0 -156 49q-58 50 -58 142v136q0 92 58 142q57 49 156 49zM284 454
q-76 0 -114 -33q-36 -31 -36 -94v-36h299v36q0 63 -36 94q-37 33 -113 33z" />
    <glyph glyph-name="ecircumflex" unicode="&#xea;" 
d="M283 644l-95 -76l-31 39l126 101l127 -101l-31 -39zM284 518q98 0 155 -49q58 -50 58 -142v-100h-363v-36q0 -63 36 -94q38 -33 114 -33h12q55 0 93 19q32 17 47 52l59 -24q-23 -56 -76 -84q-49 -27 -123 -27h-12q-99 0 -156 49q-58 50 -58 142v136q0 92 58 142
q57 49 156 49zM284 454q-76 0 -114 -33q-36 -31 -36 -94v-36h299v36q0 63 -36 94q-37 33 -113 33z" />
    <glyph glyph-name="edieresis" unicode="&#xeb;" 
d="M229 638q15 0 25 -10t10 -25t-10 -25t-25 -10t-25 10t-10 25t10 25t25 10zM339 638q15 0 25 -10t10 -25t-10 -25t-25 -10t-25 10t-10 25t10 25t25 10zM284 518q98 0 155 -49q58 -50 58 -142v-100h-363v-36q0 -63 36 -94q38 -33 114 -33h12q55 0 93 19q32 17 47 52l59 -24
q-23 -56 -76 -84q-49 -27 -123 -27h-12q-99 0 -156 49q-58 50 -58 142v136q0 92 58 142q57 49 156 49zM284 454q-76 0 -114 -33q-36 -31 -36 -94v-36h299v36q0 63 -36 94q-37 33 -113 33z" />
    <glyph glyph-name="igrave" unicode="&#xec;" horiz-adv-x="204" 
d="M202 613l-22 -45l-178 89l23 44zM134 0h-64v518h64v-518z" />
    <glyph glyph-name="iacute" unicode="&#xed;" horiz-adv-x="204" 
d="M202 657l-178 -89l-22 45l177 88zM134 0h-64v518h64v-518z" />
    <glyph glyph-name="icircumflex" unicode="&#xee;" horiz-adv-x="253" 
d="M126 644l-95 -76l-31 39l126 101l127 -101l-31 -39zM159 0h-64v518h64v-518z" />
    <glyph glyph-name="idieresis" unicode="&#xef;" horiz-adv-x="204" 
d="M47 638q15 0 25 -10t10 -25t-10 -25t-25 -10t-25 10t-10 25t10 25t25 10zM157 638q15 0 25 -10t10 -25t-10 -25t-25 -10t-25 10t-10 25t10 25t25 10zM134 0h-64v518h64v-518z" />
    <glyph glyph-name="eth" unicode="&#xf0;" horiz-adv-x="571" 
d="M204 636v64q79 0 145 -57l94 47l22 -45l-78 -39q21 -25 36 -50q37 -60 58 -134q20 -74 20 -145q0 -117 -52 -190q-50 -71 -143 -85q-20 -2 -36 -2q-49 0 -87 19q-37 17 -63 49q-50 61 -50 145q0 85 50 146q56 68 153 68q96 0 153 -51q-17 82 -58 147q-18 30 -41 53
l-134 -67l-22 45l114 57q-38 25 -81 25zM273 363q-67 0 -104 -45q-35 -43 -35 -105q0 -61 35 -104q37 -45 101 -45q73 0 117 51q41 47 41 111q0 57 -36 95q-40 42 -119 42z" />
    <glyph glyph-name="ntilde" unicode="&#xf1;" 
d="M193 660q27 11 56.5 4t51.5 -29q25 -25 54 -14q15 7 15 18h50q0 -33 -25 -52t-56 -19q-41 0 -73 32q-25 24 -53 13q-15 -6 -15 -18h-50q0 46 45 65zM284 518q98 0 155 -49q58 -50 58 -142v-327h-64v327q0 63 -36 94q-37 33 -113 33t-114 -33q-36 -31 -36 -94v-327h-64
v518h64v-44q56 44 150 44z" />
    <glyph glyph-name="ograve" unicode="&#xf2;" 
d="M384 613l-22 -45l-178 89l23 44zM284 518q98 0 155 -49q58 -50 58 -142v-136q0 -92 -58 -142q-57 -49 -155 -49q-99 0 -156 49q-58 50 -58 142v136q0 92 58 142q57 49 156 49zM284 454q-76 0 -114 -33q-36 -31 -36 -94v-136q0 -63 36 -94q38 -33 114 -33t113 33
q36 31 36 94v136q0 63 -36 94q-37 33 -113 33z" />
    <glyph glyph-name="oacute" unicode="&#xf3;" 
d="M384 657l-178 -89l-22 45l177 88zM284 518q98 0 155 -49q58 -50 58 -142v-136q0 -92 -58 -142q-57 -49 -155 -49q-99 0 -156 49q-58 50 -58 142v136q0 92 58 142q57 49 156 49zM284 454q-76 0 -114 -33q-36 -31 -36 -94v-136q0 -63 36 -94q38 -33 114 -33t113 33
q36 31 36 94v136q0 63 -36 94q-37 33 -113 33z" />
    <glyph glyph-name="ocircumflex" unicode="&#xf4;" 
d="M283 644l-95 -76l-31 39l126 101l127 -101l-31 -39zM284 518q98 0 155 -49q58 -50 58 -142v-136q0 -92 -58 -142q-57 -49 -155 -49q-99 0 -156 49q-58 50 -58 142v136q0 92 58 142q57 49 156 49zM284 454q-76 0 -114 -33q-36 -31 -36 -94v-136q0 -63 36 -94
q38 -33 114 -33t113 33q36 31 36 94v136q0 63 -36 94q-37 33 -113 33z" />
    <glyph glyph-name="otilde" unicode="&#xf5;" 
d="M193 660q27 11 56.5 4t51.5 -29q25 -25 54 -14q15 7 15 18h50q0 -33 -25 -52t-56 -19q-41 0 -73 32q-25 24 -53 13q-15 -6 -15 -18h-50q0 46 45 65zM284 518q98 0 155 -49q58 -50 58 -142v-136q0 -92 -58 -142q-57 -49 -155 -49q-99 0 -156 49q-58 50 -58 142v136
q0 92 58 142q57 49 156 49zM284 454q-76 0 -114 -33q-36 -31 -36 -94v-136q0 -63 36 -94q38 -33 114 -33t113 33q36 31 36 94v136q0 63 -36 94q-37 33 -113 33z" />
    <glyph glyph-name="odieresis" unicode="&#xf6;" 
d="M229 638q15 0 25 -10t10 -25t-10 -25t-25 -10t-25 10t-10 25t10 25t25 10zM339 638q15 0 25 -10t10 -25t-10 -25t-25 -10t-25 10t-10 25t10 25t25 10zM284 518q98 0 155 -49q58 -50 58 -142v-136q0 -92 -58 -142q-57 -49 -155 -49q-99 0 -156 49q-58 50 -58 142v136
q0 92 58 142q57 49 156 49zM284 454q-76 0 -114 -33q-36 -31 -36 -94v-136q0 -63 36 -94q38 -33 114 -33t113 33q36 31 36 94v136q0 63 -36 94q-37 33 -113 33z" />
    <glyph glyph-name="divide" unicode="&#xf7;" horiz-adv-x="594" 
d="M297 518q18 0 30 -12t12 -30t-12 -30t-30 -12t-30 12t-12 30t12 30t30 12zM524 227h-454v64h454v-64zM297 84q18 0 30 -12t12 -30t-12 -30t-30 -12t-30 12t-12 30t12 30t30 12z" />
    <glyph glyph-name="oslash" unicode="&#xf8;" horiz-adv-x="576" 
d="M506 464l-30 -33q26 -44 26 -104v-136q0 -92 -58 -142q-57 -49 -155 -49q-99 0 -156 49l-26 -28l-37 34l30 34q-25 44 -25 102v136q0 92 58 142q57 49 156 49q97 0 154 -48l26 28zM139 327v-136q0 -27 8 -51l254 282q-38 32 -112 32q-77 0 -114 -33q-36 -31 -36 -94z
M438 191v136q0 28 -8 52l-255 -282q37 -33 114 -33q75 0 113 33q36 31 36 94z" />
    <glyph glyph-name="ugrave" unicode="&#xf9;" horiz-adv-x="568" 
d="M384 613l-22 -45l-178 89l23 44zM498 0h-64v44q-56 -44 -150 -44q-98 0 -156 49q-58 50 -58 142v327h64v-327q0 -62 37 -94q37 -33 113 -33t113 33q37 32 37 94v327h64v-518z" />
    <glyph glyph-name="uacute" unicode="&#xfa;" horiz-adv-x="568" 
d="M384 657l-178 -89l-22 45l177 88zM498 0h-64v44q-56 -44 -150 -44q-98 0 -156 49q-58 50 -58 142v327h64v-327q0 -62 37 -94q37 -33 113 -33t113 33q37 32 37 94v327h64v-518z" />
    <glyph glyph-name="ucircumflex" unicode="&#xfb;" horiz-adv-x="568" 
d="M284 644l-95 -76l-31 39l126 101l127 -101l-31 -39zM498 0h-64v44q-56 -44 -150 -44q-98 0 -156 49q-58 50 -58 142v327h64v-327q0 -62 37 -94q37 -33 113 -33t113 33q37 32 37 94v327h64v-518z" />
    <glyph glyph-name="udieresis" unicode="&#xfc;" horiz-adv-x="568" 
d="M229 638q15 0 25 -10t10 -25t-10 -25t-25 -10t-25 10t-10 25t10 25t25 10zM339 638q15 0 25 -10t10 -25t-10 -25t-25 -10t-25 10t-10 25t10 25t25 10zM498 0h-64v44q-56 -44 -150 -44q-98 0 -156 49q-58 50 -58 142v327h64v-327q0 -62 37 -94q37 -33 113 -33t113 33
q37 32 37 94v327h64v-518z" />
    <glyph glyph-name="yacute" unicode="&#xfd;" 
d="M384 657l-178 -89l-22 45l177 88zM497 518v-509q0 -92 -58 -142q-57 -49 -155 -49h-12q-74 0 -124 27q-53 28 -76 84l60 24q13 -34 46 -52q38 -19 94 -19h12q76 0 113 33q36 32 36 94v35q-54 -44 -149 -44q-101 0 -156 49q-58 50 -58 142v327h64v-327q0 -63 36 -94
q38 -33 114 -33t113 33q36 31 36 94v327h64z" />
    <glyph glyph-name="thorn" unicode="&#xfe;" 
d="M442 454q55 -61 55 -173v-45q0 -112 -55 -173q-28 -31 -69 -48q-39 -15 -89 -15t-90 15q-34 13 -60 39v-236h-64v882h64v-237q26 25 60 39q43 16 90 16t89 -16q41 -16 69 -48zM433 236v45q0 87 -39 130q-38 43 -110 43q-73 0 -111 -43q-39 -43 -39 -130v-45
q0 -86 39 -130q37 -42 111 -42q72 0 110 42q39 44 39 130z" />
    <glyph glyph-name="ydieresis" unicode="&#xff;" 
d="M229 638q15 0 25 -10t10 -25t-10 -25t-25 -10t-25 10t-10 25t10 25t25 10zM339 638q15 0 25 -10t10 -25t-10 -25t-25 -10t-25 10t-10 25t10 25t25 10zM497 518v-509q0 -92 -58 -142q-57 -49 -155 -49h-12q-74 0 -124 27q-53 28 -76 84l60 24q13 -34 46 -52q38 -19 94 -19
h12q76 0 113 33q36 32 36 94v35q-54 -44 -149 -44q-101 0 -156 49q-58 50 -58 142v327h64v-327q0 -63 36 -94q38 -33 114 -33t113 33q36 31 36 94v327h64z" />
    <glyph glyph-name="Amacron" unicode="&#x100;" horiz-adv-x="685" 
d="M431 750h-177v50h177v-50zM615 0h-68l-49 136h-312l-48 -136h-68l250 700h45zM209 200h266l-133 373z" />
    <glyph glyph-name="amacron" unicode="&#x101;" horiz-adv-x="568" 
d="M373 568h-177v50h177v-50zM283 518h1q98 0 156 -49q58 -50 58 -142v-327h-64v44q-56 -44 -150 -44h-23q-86 0 -136 35q-55 40 -55 111q0 70 55 110q50 35 136 35h173v36q0 62 -37 94q-37 33 -113 33h-1q-70 0 -108 -29q-35 -26 -41 -79l-63 7q8 80 65 123q56 42 147 42z
M434 227h-173q-65 0 -99 -23q-28 -21 -28 -58q0 -38 28 -59q34 -23 99 -23h23q76 0 113 33q37 32 37 94v36z" />
    <glyph glyph-name="Abreve" unicode="&#x102;" horiz-adv-x="685" 
d="M406 864h50q0 -54 -30 -84t-83 -30q-54 0 -84 30t-30 84h50q0 -33 16 -48q15 -16 48 -16q32 0 48 16q15 15 15 48zM615 0h-68l-49 136h-312l-48 -136h-68l250 700h45zM209 200h266l-133 373z" />
    <glyph glyph-name="abreve" unicode="&#x103;" horiz-adv-x="568" 
d="M348 682h50q0 -54 -30 -84t-83 -30q-54 0 -84 30t-30 84h50q0 -33 16 -48q15 -16 48 -16q32 0 48 16q15 15 15 48zM283 518h1q98 0 156 -49q58 -50 58 -142v-327h-64v44q-56 -44 -150 -44h-23q-86 0 -136 35q-55 40 -55 111q0 70 55 110q50 35 136 35h173v36q0 62 -37 94
q-37 33 -113 33h-1q-70 0 -108 -29q-35 -26 -41 -79l-63 7q8 80 65 123q56 42 147 42zM434 227h-173q-65 0 -99 -23q-28 -21 -28 -58q0 -38 28 -59q34 -23 99 -23h23q76 0 113 33q37 32 37 94v36z" />
    <glyph glyph-name="Aogonek" unicode="&#x104;" horiz-adv-x="685" 
d="M615 0h-18q-33 0 -48 -15q-16 -16 -16 -48q0 -33 16 -48q15 -16 48 -16v-50q-54 0 -84 30t-30 84q0 53 30 83q8 8 21 16l-36 100h-312l-48 -136h-68l250 700h45zM475 200l-133 373l-133 -373h266z" />
    <glyph glyph-name="aogonek" unicode="&#x105;" horiz-adv-x="568" 
d="M440 469q58 -50 58 -142v-327q-33 0 -48 -15q-16 -16 -16 -48q0 -33 16 -48q15 -16 48 -16v-50q-54 0 -84 30t-30 84q0 53 30 83q8 8 20 15v9q-56 -44 -150 -44h-23q-86 0 -136 35q-55 40 -55 111q0 70 55 110q50 35 136 35h173v36q0 62 -37 94q-37 33 -113 33h-1
q-70 0 -108 -29q-35 -26 -41 -79l-63 7q8 80 65 123q56 42 147 42h1q98 0 156 -49zM397 97q37 32 37 94v36h-173q-65 0 -99 -23q-28 -21 -28 -58q0 -38 28 -59q34 -23 99 -23h23q76 0 113 33z" />
    <glyph glyph-name="Cacute" unicode="&#x106;" horiz-adv-x="600" 
d="M400 839l-178 -89l-22 45l177 88zM306 700q86 0 143.5 -41.5t80.5 -118.5l-62 -17q-32 113 -162 113q-83 0 -127 -49q-45 -49 -45 -146v-182q0 -98 45 -147q43 -48 127 -48q130 0 162 113l62 -18q-23 -77 -80.5 -118t-143.5 -41q-53 0 -99 17q-46 19 -76 52
q-61 70 -61 190v182q0 120 61 189q32 35 76 52q45 18 99 18z" />
    <glyph glyph-name="cacute" unicode="&#x107;" horiz-adv-x="553" 
d="M377 657l-178 -89l-22 45l177 88zM284 518q74 0 123 -27q53 -28 76 -84l-60 -24q-13 34 -46 52q-38 19 -93 19q-76 0 -114 -33q-36 -31 -36 -94v-136q0 -63 36 -94q38 -33 114 -33q55 0 93 19q33 18 46 52l60 -24q-23 -56 -76 -84q-49 -27 -123 -27q-99 0 -156 49
q-58 50 -58 142v136q0 92 58 142q57 49 156 49z" />
    <glyph glyph-name="Cdotaccent" unicode="&#x10a;" horiz-adv-x="600" 
d="M300 820q15 0 25 -10t10 -25t-10 -25t-25 -10t-25 10t-10 25t10 25t25 10zM306 700q86 0 143.5 -41.5t80.5 -118.5l-62 -17q-32 113 -162 113q-83 0 -127 -49q-45 -49 -45 -146v-182q0 -98 45 -147q43 -48 127 -48q130 0 162 113l62 -18q-23 -77 -80.5 -118t-143.5 -41
q-53 0 -99 17q-46 19 -76 52q-61 70 -61 190v182q0 120 61 189q32 35 76 52q45 18 99 18z" />
    <glyph glyph-name="cdotaccent" unicode="&#x10b;" horiz-adv-x="553" 
d="M277 638q15 0 25 -10t10 -25t-10 -25t-25 -10t-25 10t-10 25t10 25t25 10zM284 518q74 0 123 -27q53 -28 76 -84l-60 -24q-13 34 -46 52q-38 19 -93 19q-76 0 -114 -33q-36 -31 -36 -94v-136q0 -63 36 -94q38 -33 114 -33q55 0 93 19q33 18 46 52l60 -24q-23 -56 -76 -84
q-49 -27 -123 -27q-99 0 -156 49q-58 50 -58 142v136q0 92 58 142q57 49 156 49z" />
    <glyph glyph-name="Ccaron" unicode="&#x10c;" horiz-adv-x="600" 
d="M427 851l-127 -101l-126 101l31 39l95 -76l96 76zM306 700q86 0 143.5 -41.5t80.5 -118.5l-62 -17q-32 113 -162 113q-83 0 -127 -49q-45 -49 -45 -146v-182q0 -98 45 -147q43 -48 127 -48q130 0 162 113l62 -18q-23 -77 -80.5 -118t-143.5 -41q-53 0 -99 17
q-46 19 -76 52q-61 70 -61 190v182q0 120 61 189q32 35 76 52q45 18 99 18z" />
    <glyph glyph-name="ccaron" unicode="&#x10d;" horiz-adv-x="553" 
d="M403 669l-127 -101l-126 101l31 39l95 -76l96 76zM284 518q74 0 123 -27q53 -28 76 -84l-60 -24q-13 34 -46 52q-38 19 -93 19q-76 0 -114 -33q-36 -31 -36 -94v-136q0 -63 36 -94q38 -33 114 -33q55 0 93 19q33 18 46 52l60 -24q-23 -56 -76 -84q-49 -27 -123 -27
q-99 0 -156 49q-58 50 -58 142v136q0 92 58 142q57 49 156 49z" />
    <glyph glyph-name="Dcaron" unicode="&#x10e;" horiz-adv-x="613" 
d="M433 851l-127 -101l-126 101l31 39l95 -76l96 76zM70 700h236q56 0 99 -18q45 -17 76 -52q62 -68 62 -189v-182q0 -120 -62 -190q-29 -33 -76 -52q-45 -17 -99 -17h-236v700zM134 636v-572h172q84 0 128 48q45 49 45 147v182q0 97 -45 146q-44 49 -128 49h-172z" />
    <glyph glyph-name="dcaron" unicode="&#x10f;" horiz-adv-x="597" 
d="M497 700v-700h-64v44q-56 -44 -150 -44q-98 0 -155 49q-58 50 -58 142v136q0 92 58 142q57 49 155 49q94 0 150 -44v226h64zM597 478h-50v222h50v-222zM283 454q-75 0 -113 -33q-36 -31 -36 -94v-136q0 -63 36 -94q38 -33 113 -33q77 0 114 33q36 31 36 94v136
q0 63 -36 94q-37 33 -114 33z" />
    <glyph glyph-name="Dcroat" unicode="&#x110;" horiz-adv-x="613" 
d="M481 630q62 -68 62 -189v-182q0 -120 -62 -190q-29 -33 -76 -52q-45 -17 -99 -17h-236v325h-60v50h60v325h236q56 0 99 -18q45 -17 76 -52zM479 259v182q0 97 -45 146q-44 49 -128 49h-172v-261h164v-50h-164v-261h172q84 0 128 48q45 49 45 147z" />
    <glyph glyph-name="dcroat" unicode="&#x111;" 
d="M557 594h-60v-594h-64v44q-56 -44 -150 -44q-98 0 -155 49q-58 50 -58 142v136q0 92 58 142q57 49 155 49q94 0 150 -44v120h-164v50h164v56h64v-56h60v-50zM433 191v136q0 63 -36 94q-37 33 -114 33q-75 0 -113 -33q-36 -31 -36 -94v-136q0 -63 36 -94q38 -33 113 -33
q77 0 114 33q36 31 36 94z" />
    <glyph glyph-name="Emacron" unicode="&#x112;" horiz-adv-x="558" 
d="M368 750h-177v50h177v-50zM488 636h-354v-254h354v-64h-354v-254h354v-64h-418v700h418v-64z" />
    <glyph glyph-name="emacron" unicode="&#x113;" 
d="M372 568h-177v50h177v-50zM284 518q98 0 155 -49q58 -50 58 -142v-100h-363v-36q0 -63 36 -94q38 -33 114 -33h12q55 0 93 19q32 17 47 52l59 -24q-23 -56 -76 -84q-49 -27 -123 -27h-12q-99 0 -156 49q-58 50 -58 142v136q0 92 58 142q57 49 156 49zM284 454
q-76 0 -114 -33q-36 -31 -36 -94v-36h299v36q0 63 -36 94q-37 33 -113 33z" />
    <glyph glyph-name="Edotaccent" unicode="&#x116;" horiz-adv-x="558" 
d="M279 820q15 0 25 -10t10 -25t-10 -25t-25 -10t-25 10t-10 25t10 25t25 10zM488 636h-354v-254h354v-64h-354v-254h354v-64h-418v700h418v-64z" />
    <glyph glyph-name="edotaccent" unicode="&#x117;" 
d="M284 638q15 0 25 -10t10 -25t-10 -25t-25 -10t-25 10t-10 25t10 25t25 10zM284 518q98 0 155 -49q58 -50 58 -142v-100h-363v-36q0 -63 36 -94q38 -33 114 -33h12q55 0 93 19q32 17 47 52l59 -24q-23 -56 -76 -84q-49 -27 -123 -27h-12q-99 0 -156 49q-58 50 -58 142v136
q0 92 58 142q57 49 156 49zM284 454q-76 0 -114 -33q-36 -31 -36 -94v-36h299v36q0 63 -36 94q-37 33 -113 33z" />
    <glyph glyph-name="Eogonek" unicode="&#x118;" horiz-adv-x="558" 
d="M134 636v-254h354v-64h-354v-254h354v-64q-33 0 -48 -15q-16 -16 -16 -48q0 -33 16 -48q15 -16 48 -16v-50q-54 0 -84 30t-30 84q0 36 15 63h-319v700h418v-64h-354z" />
    <glyph glyph-name="eogonek" unicode="&#x119;" 
d="M134 227v-36q0 -63 36 -94q38 -33 114 -33h12q55 0 93 19q32 17 47 52l59 -24q-23 -56 -76 -84q-43 -23 -101 -26q-16 -5 -25 -13q-16 -16 -16 -48q0 -33 16 -48q15 -16 48 -16v-50q-54 0 -84 30t-30 84q0 36 15 63q-69 7 -114 46q-58 50 -58 142v136q0 92 58 142
q57 49 156 49q98 0 155 -49q58 -50 58 -142v-100h-363zM134 291h299v36q0 63 -36 94q-37 33 -113 33t-114 -33q-36 -31 -36 -94v-36z" />
    <glyph glyph-name="Ecaron" unicode="&#x11a;" horiz-adv-x="558" 
d="M406 851l-127 -101l-126 101l31 39l95 -76l96 76zM488 636h-354v-254h354v-64h-354v-254h354v-64h-418v700h418v-64z" />
    <glyph glyph-name="ecaron" unicode="&#x11b;" 
d="M410 669l-127 -101l-126 101l31 39l95 -76l96 76zM284 518q98 0 155 -49q58 -50 58 -142v-100h-363v-36q0 -63 36 -94q38 -33 114 -33h12q55 0 93 19q32 17 47 52l59 -24q-23 -56 -76 -84q-49 -27 -123 -27h-12q-99 0 -156 49q-58 50 -58 142v136q0 92 58 142
q57 49 156 49zM284 454q-76 0 -114 -33q-36 -31 -36 -94v-36h299v36q0 63 -36 94q-37 33 -113 33z" />
    <glyph glyph-name="Gbreve" unicode="&#x11e;" horiz-adv-x="613" 
d="M370 864h50q0 -54 -30 -84t-83 -30q-54 0 -84 30t-30 84h50q0 -33 16 -48q15 -16 48 -16q32 0 48 16q15 15 15 48zM306 700h12q86 0 143.5 -41.5t79.5 -118.5l-61 -17q-33 113 -162 113h-12q-83 0 -127 -49q-45 -49 -45 -146v-182q0 -98 45 -147q43 -48 127 -48t128 48
q45 49 45 147v59h-173v64h237v-123q0 -120 -62 -190q-29 -33 -76 -52q-45 -17 -99 -17q-53 0 -99 17q-46 19 -76 52q-61 70 -61 190v182q0 120 61 189q32 35 76 52q45 18 99 18z" />
    <glyph glyph-name="gbreve" unicode="&#x11f;" 
d="M347 682h50q0 -54 -30 -84t-83 -30q-54 0 -84 30t-30 84h50q0 -33 16 -48q15 -16 48 -16q32 0 48 16q15 15 15 48zM497 518v-509q0 -92 -58 -142q-57 -49 -155 -49h-12q-74 0 -124 27q-53 28 -76 84l60 24q13 -34 46 -52q38 -19 94 -19h12q76 0 113 33q36 32 36 94v35
q-54 -44 -149 -44q-101 0 -156 49q-58 50 -58 142v136q0 91 58 141q56 50 156 50q94 0 149 -45v45h64zM284 454q-75 0 -114 -34q-36 -32 -36 -93v-136q0 -63 36 -94q38 -33 114 -33t113 33q36 31 36 94v136q0 61 -36 93q-39 34 -113 34z" />
    <glyph glyph-name="Gdotaccent" unicode="&#x120;" horiz-adv-x="613" 
d="M307 820q15 0 25 -10t10 -25t-10 -25t-25 -10t-25 10t-10 25t10 25t25 10zM306 700h12q86 0 143.5 -41.5t79.5 -118.5l-61 -17q-33 113 -162 113h-12q-83 0 -127 -49q-45 -49 -45 -146v-182q0 -98 45 -147q43 -48 127 -48t128 48q45 49 45 147v59h-173v64h237v-123
q0 -120 -62 -190q-29 -33 -76 -52q-45 -17 -99 -17q-53 0 -99 17q-46 19 -76 52q-61 70 -61 190v182q0 120 61 189q32 35 76 52q45 18 99 18z" />
    <glyph glyph-name="gdotaccent" unicode="&#x121;" 
d="M284 638q15 0 25 -10t10 -25t-10 -25t-25 -10t-25 10t-10 25t10 25t25 10zM497 518v-509q0 -92 -58 -142q-57 -49 -155 -49h-12q-74 0 -124 27q-53 28 -76 84l60 24q13 -34 46 -52q38 -19 94 -19h12q76 0 113 33q36 32 36 94v35q-54 -44 -149 -44q-101 0 -156 49
q-58 50 -58 142v136q0 91 58 141q56 50 156 50q94 0 149 -45v45h64zM284 454q-75 0 -114 -34q-36 -32 -36 -93v-136q0 -63 36 -94q38 -33 114 -33t113 33q36 31 36 94v136q0 61 -36 93q-39 34 -113 34z" />
    <glyph glyph-name="Gcommaaccent" unicode="&#x122;" horiz-adv-x="613" 
d="M306 700h12q86 0 143.5 -41.5t79.5 -118.5l-61 -17q-33 113 -162 113h-12q-83 0 -127 -49q-45 -49 -45 -146v-182q0 -98 45 -147q43 -48 127 -48t128 48q45 49 45 147v59h-173v64h237v-123q0 -120 -62 -190q-29 -33 -76 -52q-45 -17 -99 -17q-53 0 -99 17q-46 19 -76 52
q-61 70 -61 190v182q0 120 61 189q32 35 76 52q45 18 99 18zM238 -251l28 -41q55 38 82 99q28 64 28 143h-50q0 -70 -23 -122q-22 -48 -65 -79z" />
    <glyph glyph-name="gcommaaccent" unicode="&#x123;" 
d="M353 769l-28 41q-55 -38 -82 -99q-28 -64 -28 -143h50q0 70 23 122q22 48 65 79zM497 518v-509q0 -92 -58 -142q-57 -49 -155 -49h-12q-74 0 -124 27q-53 28 -76 84l60 24q13 -34 46 -52q38 -19 94 -19h12q76 0 113 33q36 32 36 94v35q-54 -44 -149 -44q-101 0 -156 49
q-58 50 -58 142v136q0 91 58 141q56 50 156 50q94 0 149 -45v45h64zM284 454q-75 0 -114 -34q-36 -32 -36 -93v-136q0 -63 36 -94q38 -33 114 -33t113 33q36 31 36 94v136q0 61 -36 93q-39 34 -113 34z" />
    <glyph glyph-name="Hbar" unicode="&#x126;" horiz-adv-x="613" 
d="M594 516h-51v-516h-64v318h-345v-318h-64v516h-52v50h52v134h64v-134h345v134h64v-134h51v-50zM479 516h-345v-134h345v134z" />
    <glyph glyph-name="hbar" unicode="&#x127;" 
d="M439 469q58 -50 58 -142v-327h-64v327q0 63 -36 94q-37 33 -113 33t-114 -33q-36 -31 -36 -94v-327h-64v584h-60v50h60v66h64v-66h164v-50h-164v-110q56 44 150 44q98 0 155 -49z" />
    <glyph glyph-name="Itilde" unicode="&#x128;" horiz-adv-x="204" 
d="M11 842q27 11 56.5 4t51.5 -29q25 -25 54 -14q15 7 15 18h50q0 -33 -25 -52t-56 -19q-41 0 -73 32q-25 24 -53 13q-15 -6 -15 -18h-50q0 46 45 65zM134 0h-64v700h64v-700z" />
    <glyph glyph-name="itilde" unicode="&#x129;" horiz-adv-x="272" 
d="M45 660q27 11 56.5 4t51.5 -29q25 -25 54 -14q15 7 15 18h50q0 -33 -25 -52t-56 -19q-41 0 -73 32q-25 24 -53 13q-15 -6 -15 -18h-50q0 46 45 65zM168 0h-64v518h64v-518z" />
    <glyph glyph-name="Imacron" unicode="&#x12a;" horiz-adv-x="204" 
d="M190 750h-177v50h177v-50zM134 0h-64v700h64v-700z" />
    <glyph glyph-name="imacron" unicode="&#x12b;" horiz-adv-x="204" 
d="M190 568h-177v50h177v-50zM134 0h-64v518h64v-518z" />
    <glyph glyph-name="Iogonek" unicode="&#x12e;" horiz-adv-x="204" 
d="M134 700v-700q-33 0 -48 -15q-16 -16 -16 -48q0 -33 16 -48q15 -16 48 -16v-50q-54 0 -84 30t-30 84q0 53 30 83q8 8 20 15v665h64z" />
    <glyph glyph-name="iogonek" unicode="&#x12f;" horiz-adv-x="224" 
d="M112 616q-18 0 -30 12t-12 30t12 30t30 12t30 -12t12 -30t-12 -30t-30 -12zM80 518h64v-518q-33 0 -48 -15q-16 -16 -16 -48q0 -33 16 -48q15 -16 48 -16v-50q-54 0 -84 30t-30 84q0 53 30 83q8 8 20 15v483z" />
    <glyph glyph-name="Idotaccent" unicode="&#x130;" horiz-adv-x="204" 
d="M102 820q15 0 25 -10t10 -25t-10 -25t-25 -10t-25 10t-10 25t10 25t25 10zM134 0h-64v700h64v-700z" />
    <glyph glyph-name="dotlessi" unicode="&#x131;" horiz-adv-x="204" 
d="M134 0h-64v518h64v-518z" />
    <glyph glyph-name="IJ" unicode="&#x132;" horiz-adv-x="488" 
d="M134 0h-64v700h64v-700zM418 700v-441q0 -119 -54 -188q-57 -71 -160 -71v64q72 0 110 47q40 51 40 148v441h64z" />
    <glyph glyph-name="ij" unicode="&#x133;" horiz-adv-x="418" 
d="M112 700q18 0 30 -12t12 -30t-12 -30t-30 -12t-30 12t-12 30t12 30t30 12zM306 700q18 0 30 -12t12 -30t-12 -30t-30 -12t-30 12t-12 30t12 30t30 12zM144 0h-64v518h64v-518zM338 518v-486q0 -99 -49 -156q-50 -58 -142 -58v64q63 0 94 36q33 37 33 114v486h64z" />
    <glyph glyph-name="Kcommaaccent" unicode="&#x136;" horiz-adv-x="623" 
d="M322 400l231 -400h-74l-200 345l-145 -188v-157h-64v700h64v-438l339 438h80zM243 -251l28 -41q55 38 82 99q28 64 28 143h-50q0 -70 -23 -122q-22 -48 -65 -79z" />
    <glyph glyph-name="kcommaaccent" unicode="&#x137;" horiz-adv-x="536" 
d="M134 251l245 267h87l-211 -230l211 -288h-80l-175 240l-77 -84v-156h-64v700h64v-449zM199 -251l28 -41q55 38 82 99q28 64 28 143h-50q0 -70 -23 -122q-22 -48 -65 -79z" />
    <glyph glyph-name="Lacute" unicode="&#x139;" horiz-adv-x="558" 
d="M270 839l-178 -89l-22 45l177 88zM134 64h354v-64h-418v700h64v-636z" />
    <glyph glyph-name="lacute" unicode="&#x13a;" horiz-adv-x="286" 
d="M202 839l-178 -89l-22 45l177 88zM134 700v-509q0 -67 23 -99q21 -28 59 -28v-64q-71 0 -111 55q-35 49 -35 136v509h64z" />
    <glyph glyph-name="Lcommaaccent" unicode="&#x13b;" horiz-adv-x="558" 
d="M134 64h354v-64h-418v700h64v-636zM210 -251l28 -41q55 38 82 99q28 64 28 143h-50q0 -70 -23 -122q-22 -48 -65 -79z" />
    <glyph glyph-name="lcommaaccent" unicode="&#x13c;" horiz-adv-x="286" 
d="M134 700v-509q0 -67 23 -99q21 -28 59 -28v-64q-71 0 -111 55q-35 49 -35 136v509h64zM78 -251l28 -41q55 38 82 99q28 64 28 143h-50q0 -70 -23 -122q-22 -48 -65 -79z" />
    <glyph glyph-name="Lcaron" unicode="&#x13d;" horiz-adv-x="558" 
d="M134 64h354v-64h-418v700h64v-636zM304 478h-50v222h50v-222z" />
    <glyph glyph-name="lcaron" unicode="&#x13e;" horiz-adv-x="286" 
d="M134 700v-509q0 -67 23 -99q21 -28 59 -28v-64q-71 0 -111 55q-35 49 -35 136v509h64zM234 478h-50v222h50v-222z" />
    <glyph glyph-name="Ldot" unicode="&#x13f;" horiz-adv-x="558" 
d="M134 64h354v-64h-418v700h64v-636zM279 385q15 0 25 -10t10 -25t-10 -25t-25 -10t-25 10t-10 25t10 25t25 10z" />
    <glyph glyph-name="ldot" unicode="&#x140;" horiz-adv-x="286" 
d="M134 700v-509q0 -67 23 -99q21 -28 59 -28v-64q-71 0 -111 55q-35 49 -35 136v509h64zM219 385q15 0 25 -10t10 -25t-10 -25t-25 -10t-25 10t-10 25t10 25t25 10z" />
    <glyph glyph-name="Lslash" unicode="&#x141;" horiz-adv-x="620" 
d="M550 64v-64h-418v306l-90 -45l-22 45l112 56v338h64v-306l90 45l22 -45l-112 -56v-274h354z" />
    <glyph glyph-name="lslash" unicode="&#x142;" horiz-adv-x="358" 
d="M199 92q21 -28 59 -28v-64q-71 0 -111 55q-35 49 -35 136v115l-90 -45l-22 45l112 56v338h64v-306l90 45l22 -45l-112 -56v-147q0 -67 23 -99z" />
    <glyph glyph-name="Nacute" unicode="&#x143;" horiz-adv-x="613" 
d="M407 839l-178 -89l-22 45l177 88zM543 0h-50l-359 559v-559h-64v700h49l360 -559v559h64v-700z" />
    <glyph glyph-name="nacute" unicode="&#x144;" 
d="M384 657l-178 -89l-22 45l177 88zM284 518q98 0 155 -49q58 -50 58 -142v-327h-64v327q0 63 -36 94q-37 33 -113 33t-114 -33q-36 -31 -36 -94v-327h-64v518h64v-44q56 44 150 44z" />
    <glyph glyph-name="Ncommaaccent" unicode="&#x145;" horiz-adv-x="613" 
d="M543 0h-50l-359 559v-559h-64v700h49l360 -559v559h64v-700zM238 -251l28 -41q55 38 82 99q28 64 28 143h-50q0 -70 -23 -122q-22 -48 -65 -79z" />
    <glyph glyph-name="ncommaaccent" unicode="&#x146;" 
d="M284 518q98 0 155 -49q58 -50 58 -142v-327h-64v327q0 63 -36 94q-37 33 -113 33t-114 -33q-36 -31 -36 -94v-327h-64v518h64v-44q56 44 150 44zM215 -251l28 -41q55 38 82 99q28 64 28 143h-50q0 -70 -23 -122q-22 -48 -65 -79z" />
    <glyph glyph-name="Ncaron" unicode="&#x147;" horiz-adv-x="613" 
d="M433 851l-127 -101l-126 101l31 39l95 -76l96 76zM543 0h-50l-359 559v-559h-64v700h49l360 -559v559h64v-700z" />
    <glyph glyph-name="ncaron" unicode="&#x148;" 
d="M410 669l-127 -101l-126 101l31 39l95 -76l96 76zM284 518q98 0 155 -49q58 -50 58 -142v-327h-64v327q0 63 -36 94q-37 33 -113 33t-114 -33q-36 -31 -36 -94v-327h-64v518h64v-44q56 44 150 44z" />
    <glyph glyph-name="Eng" unicode="&#x14a;" horiz-adv-x="613" 
d="M543 700v-668q0 -99 -49 -156q-50 -58 -142 -58v64q62 0 94 36q31 34 33 104l-345 537v-559h-64v700h49l360 -559v559h64z" />
    <glyph glyph-name="eng" unicode="&#x14b;" 
d="M284 518q98 0 155 -49q58 -50 58 -142v-340q0 -80 -52 -126q-52 -43 -139 -43v64q64 0 97 28q30 26 30 77v340q0 63 -36 94q-37 33 -113 33t-114 -33q-36 -31 -36 -94v-327h-64v518h64v-44q56 44 150 44z" />
    <glyph glyph-name="Omacron" unicode="&#x14c;" horiz-adv-x="613" 
d="M395 750h-177v50h177v-50zM306 700q56 0 99 -18q45 -17 76 -52q62 -68 62 -189v-182q0 -120 -62 -190q-29 -33 -76 -52q-45 -17 -99 -17q-53 0 -99 17q-46 19 -76 52q-61 70 -61 190v182q0 120 61 189q32 35 76 52q45 18 99 18zM306 636q-83 0 -127 -49q-45 -49 -45 -146
v-182q0 -98 45 -147q43 -48 127 -48t128 48q45 49 45 147v182q0 97 -45 146q-44 49 -128 49z" />
    <glyph glyph-name="omacron" unicode="&#x14d;" 
d="M372 568h-177v50h177v-50zM284 518q98 0 155 -49q58 -50 58 -142v-136q0 -92 -58 -142q-57 -49 -155 -49q-99 0 -156 49q-58 50 -58 142v136q0 92 58 142q57 49 156 49zM284 454q-76 0 -114 -33q-36 -31 -36 -94v-136q0 -63 36 -94q38 -33 114 -33t113 33q36 31 36 94
v136q0 63 -36 94q-37 33 -113 33z" />
    <glyph glyph-name="Ohungarumlaut" unicode="&#x150;" horiz-adv-x="613" 
d="M311 839l-111 -89l-31 39l111 89zM444 839l-111 -89l-31 39l111 89zM306 700q56 0 99 -18q45 -17 76 -52q62 -68 62 -189v-182q0 -120 -62 -190q-29 -33 -76 -52q-45 -17 -99 -17q-53 0 -99 17q-46 19 -76 52q-61 70 -61 190v182q0 120 61 189q32 35 76 52q45 18 99 18z
M306 636q-83 0 -127 -49q-45 -49 -45 -146v-182q0 -98 45 -147q43 -48 127 -48t128 48q45 49 45 147v182q0 97 -45 146q-44 49 -128 49z" />
    <glyph glyph-name="ohungarumlaut" unicode="&#x151;" 
d="M288 657l-111 -89l-31 39l111 89zM421 657l-111 -89l-31 39l111 89zM284 518q98 0 155 -49q58 -50 58 -142v-136q0 -92 -58 -142q-57 -49 -155 -49q-99 0 -156 49q-58 50 -58 142v136q0 92 58 142q57 49 156 49zM284 454q-76 0 -114 -33q-36 -31 -36 -94v-136
q0 -63 36 -94q38 -33 114 -33t113 33q36 31 36 94v136q0 63 -36 94q-37 33 -113 33z" />
    <glyph glyph-name="OE" unicode="&#x152;" horiz-adv-x="967" 
d="M543 382h354v-64h-354v-254h354v-64h-418v67q-28 -31 -74 -50q-45 -17 -99 -17q-53 0 -99 17q-46 19 -76 52q-61 70 -61 190v182q0 120 61 189q32 35 76 52q45 18 99 18q56 0 99 -18q44 -17 74 -50v68h418v-64h-354v-254zM434 112q45 49 45 147v182q0 97 -45 146
q-44 49 -128 49q-83 0 -127 -49q-45 -49 -45 -146v-182q0 -98 45 -147q43 -48 127 -48t128 48z" />
    <glyph glyph-name="oe" unicode="&#x153;" horiz-adv-x="930" 
d="M497 227v-36q0 -63 36 -94q38 -33 114 -33h12q55 0 93 19q32 17 47 52l59 -24q-23 -56 -76 -84q-50 -27 -123 -27h-12q-99 0 -156 49q-18 16 -26 29q-8 -13 -26 -29q-57 -49 -155 -49q-99 0 -156 49q-58 50 -58 142v136q0 92 58 142q57 49 156 49q98 0 155 -49
q18 -16 26 -29q8 13 26 29q57 49 156 49q98 0 155 -49q58 -50 58 -142v-100h-363zM397 97q36 31 36 94v136q0 63 -36 94q-37 33 -113 33t-114 -33q-36 -31 -36 -94v-136q0 -63 36 -94q38 -33 114 -33t113 33zM533 421q-36 -31 -36 -94v-36h299v36q0 63 -36 94
q-37 33 -113 33q-77 0 -114 -33z" />
    <glyph glyph-name="Racute" unicode="&#x154;" horiz-adv-x="613" 
d="M407 839l-178 -89l-22 45l177 88zM70 700h236q110 0 173 -55q31 -29 48 -69q16 -43 16 -90t-16 -89q-17 -41 -48 -69q-52 -48 -142 -54l206 -274h-80l-205 273h-124v-273h-64v700zM134 636v-299h172q86 0 130 39q43 37 43 110t-43 111q-44 39 -130 39h-172z" />
    <glyph glyph-name="racute" unicode="&#x155;" horiz-adv-x="399" 
d="M300 657l-178 -89l-22 45l177 88zM329 454h-45q-76 0 -114 -33q-36 -31 -36 -94v-327h-64v518h64v-44q56 44 150 44h45v-64z" />
    <glyph glyph-name="Rcommaaccent" unicode="&#x156;" horiz-adv-x="613" 
d="M70 700h236q110 0 173 -55q31 -29 48 -69q16 -43 16 -90t-16 -89q-17 -41 -48 -69q-52 -48 -142 -54l206 -274h-80l-205 273h-124v-273h-64v700zM134 636v-299h172q86 0 130 39q43 37 43 110t-43 111q-44 39 -130 39h-172zM238 -251l28 -41q55 38 82 99q28 64 28 143h-50
q0 -70 -23 -122q-22 -48 -65 -79z" />
    <glyph glyph-name="rcommaaccent" unicode="&#x157;" horiz-adv-x="399" 
d="M329 454h-45q-76 0 -114 -33q-36 -31 -36 -94v-327h-64v518h64v-44q56 44 150 44h45v-64zM-11 -251l28 -41q55 38 82 99q28 64 28 143h-50q0 -70 -23 -122q-22 -48 -65 -79z" />
    <glyph glyph-name="Rcaron" unicode="&#x158;" horiz-adv-x="613" 
d="M433 851l-127 -101l-126 101l31 39l95 -76l96 76zM70 700h236q110 0 173 -55q31 -29 48 -69q16 -43 16 -90t-16 -89q-17 -41 -48 -69q-52 -48 -142 -54l206 -274h-80l-205 273h-124v-273h-64v700zM134 636v-299h172q86 0 130 39q43 37 43 110t-43 111q-44 39 -130 39
h-172z" />
    <glyph glyph-name="rcaron" unicode="&#x159;" horiz-adv-x="399" 
d="M326 669l-127 -101l-126 101l31 39l95 -76l96 76zM329 454h-45q-76 0 -114 -33q-36 -31 -36 -94v-327h-64v518h64v-44q56 44 150 44h45v-64z" />
    <glyph glyph-name="Sacute" unicode="&#x15a;" horiz-adv-x="613" 
d="M407 839l-178 -89l-22 45l177 88zM306 700h12q86 0 143.5 -41.5t79.5 -118.5l-61 -17q-33 113 -162 113h-12q-87 0 -131 -35q-41 -32 -41 -92q0 -61 41 -93q45 -34 131 -34q110 0 171 -48q66 -51 66 -143t-66 -143q-61 -48 -171 -48h-11q-86 0 -143.5 41t-80.5 118l62 18
q32 -113 162 -113h11q87 0 132 34q41 32 41 93q0 60 -41 92q-44 35 -132 35q-110 0 -171 48q-65 51 -65 143q0 90 65 143q63 48 171 48z" />
    <glyph glyph-name="sacute" unicode="&#x15b;" 
d="M384 657l-178 -89l-22 45l177 88zM284 518h12q74 0 123 -27q53 -28 76 -84l-59 -24q-15 35 -47 52q-38 19 -93 19h-12q-80 0 -118 -25q-32 -19 -32 -56q0 -38 32 -57q38 -25 118 -25q95 0 151 -34q62 -39 62 -111q0 -73 -62 -112q-56 -34 -151 -34h-12q-74 0 -124 27
q-53 28 -76 84l60 24q13 -34 46 -52q38 -19 94 -19h12q79 0 117 25q32 19 32 57q0 37 -32 56q-38 25 -117 25q-95 0 -152 34q-62 39 -62 112q0 72 62 111q57 34 152 34z" />
    <glyph glyph-name="Scedilla" unicode="&#x15e;" horiz-adv-x="613" 
d="M477 334q66 -51 66 -143t-66 -143q-60 -46 -165 -48l-14 -56q38 -3 60 -27.5t22 -64.5q0 -42 -24.5 -66.5t-67.5 -24.5h-44v50h44q22 0 32 10t10 31q0 20 -10 32q-10 10 -32 10h-54l27 108q-148 15 -190 157l62 18q32 -113 162 -113h11q87 0 132 34q41 32 41 93
q0 60 -41 92q-44 35 -132 35q-110 0 -171 48q-65 51 -65 143q0 90 65 143q63 48 171 48h12q86 0 143.5 -41.5t79.5 -118.5l-61 -17q-33 113 -162 113h-12q-87 0 -131 -35q-41 -32 -41 -92q0 -61 41 -93q45 -34 131 -34q110 0 171 -48z" />
    <glyph glyph-name="scedilla" unicode="&#x15f;" 
d="M435 257q62 -39 62 -111q0 -73 -62 -112q-54 -33 -146 -34l-14 -56q38 -3 60 -27.5t22 -64.5q0 -42 -24.5 -66.5t-67.5 -24.5h-44v50h44q22 0 32 10t10 31q0 20 -10 32q-10 10 -32 10h-54l27 108q-54 5 -90 25q-53 28 -76 84l60 24q13 -34 46 -52q38 -19 94 -19h12
q79 0 117 25q32 19 32 57q0 37 -32 56q-38 25 -117 25q-95 0 -152 34q-62 39 -62 112q0 72 62 111q57 34 152 34h12q74 0 123 -27q53 -28 76 -84l-59 -24q-15 35 -47 52q-38 19 -93 19h-12q-80 0 -118 -25q-32 -19 -32 -56q0 -38 32 -57q38 -25 118 -25q95 0 151 -34z" />
    <glyph glyph-name="Scaron" unicode="&#x160;" horiz-adv-x="613" 
d="M433 851l-127 -101l-126 101l31 39l95 -76l96 76zM306 700h12q86 0 143.5 -41.5t79.5 -118.5l-61 -17q-33 113 -162 113h-12q-87 0 -131 -35q-41 -32 -41 -92q0 -61 41 -93q45 -34 131 -34q110 0 171 -48q66 -51 66 -143t-66 -143q-61 -48 -171 -48h-11q-86 0 -143.5 41
t-80.5 118l62 18q32 -113 162 -113h11q87 0 132 34q41 32 41 93q0 60 -41 92q-44 35 -132 35q-110 0 -171 48q-65 51 -65 143q0 90 65 143q63 48 171 48z" />
    <glyph glyph-name="scaron" unicode="&#x161;" 
d="M410 669l-127 -101l-126 101l31 39l95 -76l96 76zM284 518h12q74 0 123 -27q53 -28 76 -84l-59 -24q-15 35 -47 52q-38 19 -93 19h-12q-80 0 -118 -25q-32 -19 -32 -56q0 -38 32 -57q38 -25 118 -25q95 0 151 -34q62 -39 62 -111q0 -73 -62 -112q-56 -34 -151 -34h-12
q-74 0 -124 27q-53 28 -76 84l60 24q13 -34 46 -52q38 -19 94 -19h12q79 0 117 25q32 19 32 57q0 37 -32 56q-38 25 -117 25q-95 0 -152 34q-62 39 -62 112q0 72 62 111q57 34 152 34z" />
    <glyph glyph-name="Tcedilla" unicode="&#x162;" horiz-adv-x="571" 
d="M312 0l-14 -57q38 -3 60 -27.5t22 -64.5q0 -42 -24.5 -66.5t-67.5 -24.5h-44v50h44q22 0 32 10t10 31q0 20 -10 32q-10 10 -32 10h-54l27 107h-7v636h-184v64h431v-64h-183v-636h-6z" />
    <glyph glyph-name="tcedilla" unicode="&#x163;" horiz-adv-x="435" 
d="M365 0l-14 -57q38 -3 60 -27.5t22 -64.5q0 -42 -24.5 -66.5t-67.5 -24.5h-44v50h44q22 0 32 10t10 31q0 20 -10 32q-10 10 -32 10h-54l28 111q-62 9 -106 45q-57 51 -57 142v263h-82v64h82v182h64v-182h149v-64h-149v-263q0 -63 36 -94q38 -33 113 -33v-64z" />
    <glyph glyph-name="Tcaron" unicode="&#x164;" horiz-adv-x="571" 
d="M412 851l-127 -101l-126 101l31 39l95 -76l96 76zM501 636h-183v-636h-64v636h-184v64h431v-64z" />
    <glyph glyph-name="tcaron" unicode="&#x165;" horiz-adv-x="435" 
d="M365 578h-50v222h50v-222zM216 518h149v-64h-149v-263q0 -63 36 -94q38 -33 113 -33v-64q-98 0 -156 49q-57 51 -57 142v263h-82v64h82v182h64v-182z" />
    <glyph glyph-name="Tbar" unicode="&#x166;" horiz-adv-x="571" 
d="M318 636v-261h112v-50h-112v-325h-64v325h-112v50h112v261h-184v64h431v-64h-183z" />
    <glyph glyph-name="tbar" unicode="&#x167;" horiz-adv-x="435" 
d="M216 454v-79h146v-50h-146v-134q0 -63 36 -94q38 -33 113 -33v-64q-98 0 -156 49q-57 51 -57 142v134h-78v50h78v79h-82v64h82v182h64v-182h149v-64h-149z" />
    <glyph glyph-name="Utilde" unicode="&#x168;" horiz-adv-x="613" 
d="M216 842q27 11 56.5 4t51.5 -29q25 -25 54 -14q15 7 15 18h50q0 -33 -25 -52t-56 -19q-41 0 -73 32q-25 24 -53 13q-15 -6 -15 -18h-50q0 46 45 65zM543 700v-441q0 -120 -62 -190q-29 -33 -76 -52q-45 -17 -99 -17q-53 0 -99 17q-46 19 -76 52q-61 70 -61 190v441h64
v-441q0 -98 45 -147q43 -48 127 -48t128 48q45 49 45 147v441h64z" />
    <glyph glyph-name="utilde" unicode="&#x169;" horiz-adv-x="568" 
d="M193 660q27 11 56.5 4t51.5 -29q25 -25 54 -14q15 7 15 18h50q0 -33 -25 -52t-56 -19q-41 0 -73 32q-25 24 -53 13q-15 -6 -15 -18h-50q0 46 45 65zM498 0h-64v44q-56 -44 -150 -44q-98 0 -156 49q-58 50 -58 142v327h64v-327q0 -62 37 -94q37 -33 113 -33t113 33
q37 32 37 94v327h64v-518z" />
    <glyph glyph-name="Umacron" unicode="&#x16a;" horiz-adv-x="613" 
d="M395 750h-177v50h177v-50zM543 700v-441q0 -120 -62 -190q-29 -33 -76 -52q-45 -17 -99 -17q-53 0 -99 17q-46 19 -76 52q-61 70 -61 190v441h64v-441q0 -98 45 -147q43 -48 127 -48t128 48q45 49 45 147v441h64z" />
    <glyph glyph-name="umacron" unicode="&#x16b;" horiz-adv-x="568" 
d="M373 568h-177v50h177v-50zM498 0h-64v44q-56 -44 -150 -44q-98 0 -156 49q-58 50 -58 142v327h64v-327q0 -62 37 -94q37 -33 113 -33t113 33q37 32 37 94v327h64v-518z" />
    <glyph glyph-name="Uring" unicode="&#x16e;" horiz-adv-x="613" 
d="M306 933q43 0 67.5 -24.5t24.5 -67.5q0 -42 -24.5 -66.5t-67.5 -24.5q-42 0 -66.5 24.5t-24.5 66.5q0 43 24.5 67.5t66.5 24.5zM306 883q-22 0 -31 -10q-10 -10 -10 -32t10 -31q9 -10 31 -10t32 10q10 9 10 31t-10 32t-32 10zM543 700v-441q0 -120 -62 -190
q-29 -33 -76 -52q-45 -17 -99 -17q-53 0 -99 17q-46 19 -76 52q-61 70 -61 190v441h64v-441q0 -98 45 -147q43 -48 127 -48t128 48q45 49 45 147v441h64z" />
    <glyph glyph-name="uring" unicode="&#x16f;" horiz-adv-x="568" 
d="M284 751q43 0 67.5 -24.5t24.5 -67.5q0 -42 -24.5 -66.5t-67.5 -24.5q-42 0 -66.5 24.5t-24.5 66.5q0 43 24.5 67.5t66.5 24.5zM284 701q-22 0 -31 -10q-10 -10 -10 -32t10 -31q9 -10 31 -10t32 10q10 9 10 31t-10 32t-32 10zM498 0h-64v44q-56 -44 -150 -44
q-98 0 -156 49q-58 50 -58 142v327h64v-327q0 -62 37 -94q37 -33 113 -33t113 33q37 32 37 94v327h64v-518z" />
    <glyph glyph-name="Uhungarumlaut" unicode="&#x170;" horiz-adv-x="613" 
d="M311 839l-111 -89l-31 39l111 89zM444 839l-111 -89l-31 39l111 89zM543 700v-441q0 -120 -62 -190q-29 -33 -76 -52q-45 -17 -99 -17q-53 0 -99 17q-46 19 -76 52q-61 70 -61 190v441h64v-441q0 -98 45 -147q43 -48 127 -48t128 48q45 49 45 147v441h64z" />
    <glyph glyph-name="uhungarumlaut" unicode="&#x171;" horiz-adv-x="568" 
d="M289 657l-111 -89l-31 39l111 89zM422 657l-111 -89l-31 39l111 89zM498 0h-64v44q-56 -44 -150 -44q-98 0 -156 49q-58 50 -58 142v327h64v-327q0 -62 37 -94q37 -33 113 -33t113 33q37 32 37 94v327h64v-518z" />
    <glyph glyph-name="Uogonek" unicode="&#x172;" horiz-adv-x="613" 
d="M543 700v-441q0 -120 -62 -190q-29 -33 -76 -52q-37 -13 -73 -16q-9 -3 -16 -10q-16 -16 -16 -48q0 -33 16 -48q15 -16 48 -16v-50q-54 0 -84 30t-30 84q0 35 13 60q-25 4 -56 14q-46 19 -76 52q-61 70 -61 190v441h64v-441q0 -98 45 -147q43 -48 127 -48t128 48
q45 49 45 147v441h64z" />
    <glyph glyph-name="uogonek" unicode="&#x173;" horiz-adv-x="568" 
d="M498 518v-518q-33 0 -48 -15q-16 -16 -16 -48q0 -33 16 -48q15 -16 48 -16v-50q-54 0 -84 30t-30 84q0 53 30 83q8 8 20 15v9q-56 -44 -150 -44q-98 0 -156 49q-58 50 -58 142v327h64v-327q0 -62 37 -94q37 -33 113 -33t113 33q37 32 37 94v327h64z" />
    <glyph glyph-name="Wcircumflex" unicode="&#x174;" horiz-adv-x="1045" 
d="M522 826l-95 -76l-31 39l126 101l127 -101l-31 -39zM750 0h-46l-181 563l-181 -563h-47l-225 700h67l181 -563l181 563h47l181 -563l181 563h67z" />
    <glyph glyph-name="wcircumflex" unicode="&#x175;" horiz-adv-x="961" 
d="M480 644l-95 -76l-31 39l126 101l127 -101l-31 -39zM684 0h-44l-160 400l-159 -400h-44l-207 518h69l160 -400l160 400h43l160 -400l160 400h69z" />
    <glyph glyph-name="Ycircumflex" unicode="&#x176;" horiz-adv-x="652" 
d="M326 826l-95 -76l-31 39l126 101l127 -101l-31 -39zM358 251v-251h-64v251l-224 449h72l184 -369l185 369h71z" />
    <glyph glyph-name="ycircumflex" unicode="&#x177;" 
d="M283 644l-95 -76l-31 39l126 101l127 -101l-31 -39zM497 518v-509q0 -92 -58 -142q-57 -49 -155 -49h-12q-74 0 -124 27q-53 28 -76 84l60 24q13 -34 46 -52q38 -19 94 -19h12q76 0 113 33q36 32 36 94v35q-54 -44 -149 -44q-101 0 -156 49q-58 50 -58 142v327h64v-327
q0 -63 36 -94q38 -33 114 -33t113 33q36 31 36 94v327h64z" />
    <glyph glyph-name="Ydieresis" unicode="&#x178;" horiz-adv-x="652" 
d="M271 820q15 0 25 -10t10 -25t-10 -25t-25 -10t-25 10t-10 25t10 25t25 10zM381 820q15 0 25 -10t10 -25t-10 -25t-25 -10t-25 10t-10 25t10 25t25 10zM358 251v-251h-64v251l-224 449h72l184 -369l185 369h71z" />
    <glyph glyph-name="Zacute" unicode="&#x179;" horiz-adv-x="594" 
d="M397 839l-178 -89l-22 45l177 88zM524 613l-392 -549h392v-64h-454v87l392 549h-392v64h454v-87z" />
    <glyph glyph-name="zacute" unicode="&#x17a;" horiz-adv-x="549" 
d="M375 657l-178 -89l-22 45l177 88zM479 438l-337 -374h337v-64h-409v80l337 374h-337v64h409v-80z" />
    <glyph glyph-name="Zdotaccent" unicode="&#x17b;" horiz-adv-x="594" 
d="M297 820q15 0 25 -10t10 -25t-10 -25t-25 -10t-25 10t-10 25t10 25t25 10zM524 613l-392 -549h392v-64h-454v87l392 549h-392v64h454v-87z" />
    <glyph glyph-name="zdotaccent" unicode="&#x17c;" horiz-adv-x="549" 
d="M275 638q15 0 25 -10t10 -25t-10 -25t-25 -10t-25 10t-10 25t10 25t25 10zM479 438l-337 -374h337v-64h-409v80l337 374h-337v64h409v-80z" />
    <glyph glyph-name="Zcaron" unicode="&#x17d;" horiz-adv-x="594" 
d="M424 851l-127 -101l-126 101l31 39l95 -76l96 76zM524 613l-392 -549h392v-64h-454v87l392 549h-392v64h454v-87z" />
    <glyph glyph-name="zcaron" unicode="&#x17e;" horiz-adv-x="549" 
d="M401 669l-127 -101l-126 101l31 39l95 -76l96 76zM479 438l-337 -374h337v-64h-409v80l337 374h-337v64h409v-80z" />
    <glyph glyph-name="Ohorn" unicode="&#x1a0;" horiz-adv-x="677" 
d="M637 700v-88q0 -50 -22 -81q-24 -33 -70 -33h-6q4 -24 4 -57v-182q0 -120 -62 -190q-29 -33 -76 -52q-45 -17 -99 -17q-53 0 -99 17q-46 19 -76 52q-61 70 -61 190v182q0 120 61 189q32 35 76 52q45 18 99 18q56 0 99 -18q45 -17 76 -52q30 -33 47 -82h17q21 0 30 13
q12 17 12 51v88h50zM479 259v182q0 97 -45 146q-44 49 -128 49q-83 0 -127 -49q-45 -49 -45 -146v-182q0 -98 45 -147q43 -48 127 -48t128 48q45 49 45 147z" />
    <glyph glyph-name="ohorn" unicode="&#x1a1;" horiz-adv-x="621" 
d="M591 518v-88q0 -50 -22 -81q-24 -33 -70 -33h-2v-125q0 -92 -58 -142q-57 -49 -155 -49q-99 0 -156 49q-58 50 -58 142v136q0 92 58 142q57 49 156 49q98 0 155 -49q44 -40 55 -103h5q21 0 30 13q12 17 12 51v88h50zM433 191v136q0 63 -36 94q-37 33 -113 33t-114 -33
q-36 -31 -36 -94v-136q0 -63 36 -94q38 -33 114 -33t113 33q36 31 36 94z" />
    <glyph glyph-name="Uhorn" unicode="&#x1af;" horiz-adv-x="679" 
d="M669 700v-88q0 -50 -22 -81q-24 -33 -70 -33h-34v-239q0 -120 -62 -190q-29 -33 -76 -52q-45 -17 -99 -17q-53 0 -99 17q-46 19 -76 52q-61 70 -61 190v441h64v-441q0 -98 45 -147q43 -48 127 -48t128 48q45 49 45 147v441h64v-152h34q21 0 30 13q12 17 12 51v88h50z" />
    <glyph glyph-name="uhorn" unicode="&#x1b0;" horiz-adv-x="634" 
d="M624 518v-88q0 -50 -22 -81q-24 -33 -70 -33h-34v-316h-64v44q-56 -44 -150 -44q-98 0 -156 49q-58 50 -58 142v327h64v-327q0 -62 37 -94q37 -33 113 -33t113 33q37 32 37 94v327h64v-152h34q21 0 30 13q12 17 12 51v88h50z" />
    <glyph glyph-name="Acaron" unicode="&#x1cd;" horiz-adv-x="685" 
d="M469 851l-127 -101l-126 101l31 39l95 -76l96 76zM615 0h-68l-49 136h-312l-48 -136h-68l250 700h45zM209 200h266l-133 373z" />
    <glyph glyph-name="acaron" unicode="&#x1ce;" horiz-adv-x="568" 
d="M411 669l-127 -101l-126 101l31 39l95 -76l96 76zM283 518h1q98 0 156 -49q58 -50 58 -142v-327h-64v44q-56 -44 -150 -44h-23q-86 0 -136 35q-55 40 -55 111q0 70 55 110q50 35 136 35h173v36q0 62 -37 94q-37 33 -113 33h-1q-70 0 -108 -29q-35 -26 -41 -79l-63 7
q8 80 65 123q56 42 147 42zM434 227h-173q-65 0 -99 -23q-28 -21 -28 -58q0 -38 28 -59q34 -23 99 -23h23q76 0 113 33q37 32 37 94v36z" />
    <glyph glyph-name="Icaron" unicode="&#x1cf;" horiz-adv-x="204" 
d="M228 851l-127 -101l-126 101l31 39l95 -76l96 76zM134 0h-64v700h64v-700z" />
    <glyph glyph-name="icaron" unicode="&#x1d0;" horiz-adv-x="253" 
d="M253 669l-127 -101l-126 101l31 39l95 -76l96 76zM159 0h-64v518h64v-518z" />
    <glyph glyph-name="Ocaron" unicode="&#x1d1;" horiz-adv-x="613" 
d="M433 851l-127 -101l-126 101l31 39l95 -76l96 76zM306 700q56 0 99 -18q45 -17 76 -52q62 -68 62 -189v-182q0 -120 -62 -190q-29 -33 -76 -52q-45 -17 -99 -17q-53 0 -99 17q-46 19 -76 52q-61 70 -61 190v182q0 120 61 189q32 35 76 52q45 18 99 18zM306 636
q-83 0 -127 -49q-45 -49 -45 -146v-182q0 -98 45 -147q43 -48 127 -48t128 48q45 49 45 147v182q0 97 -45 146q-44 49 -128 49z" />
    <glyph glyph-name="ocaron" unicode="&#x1d2;" 
d="M410 669l-127 -101l-126 101l31 39l95 -76l96 76zM284 518q98 0 155 -49q58 -50 58 -142v-136q0 -92 -58 -142q-57 -49 -155 -49q-99 0 -156 49q-58 50 -58 142v136q0 92 58 142q57 49 156 49zM284 454q-76 0 -114 -33q-36 -31 -36 -94v-136q0 -63 36 -94q38 -33 114 -33
t113 33q36 31 36 94v136q0 63 -36 94q-37 33 -113 33z" />
    <glyph glyph-name="Ucaron" unicode="&#x1d3;" horiz-adv-x="613" 
d="M433 851l-127 -101l-126 101l31 39l95 -76l96 76zM543 700v-441q0 -120 -62 -190q-29 -33 -76 -52q-45 -17 -99 -17q-53 0 -99 17q-46 19 -76 52q-61 70 -61 190v441h64v-441q0 -98 45 -147q43 -48 127 -48t128 48q45 49 45 147v441h64z" />
    <glyph glyph-name="ucaron" unicode="&#x1d4;" horiz-adv-x="568" 
d="M411 669l-127 -101l-126 101l31 39l95 -76l96 76zM498 0h-64v44q-56 -44 -150 -44q-98 0 -156 49q-58 50 -58 142v327h64v-327q0 -62 37 -94q37 -33 113 -33t113 33q37 32 37 94v327h64v-518z" />
    <glyph glyph-name="Udieresismacron" unicode="&#x1d5;" horiz-adv-x="613" 
d="M396 850h-177v50h177v-50zM252 820q15 0 25 -10t10 -25t-10 -25t-25 -10t-25 10t-10 25t10 25t25 10zM362 820q15 0 25 -10t10 -25t-10 -25t-25 -10t-25 10t-10 25t10 25t25 10zM543 700v-441q0 -120 -62 -190q-29 -33 -76 -52q-45 -17 -99 -17q-53 0 -99 17
q-46 19 -76 52q-61 70 -61 190v441h64v-441q0 -98 45 -147q43 -48 127 -48t128 48q45 49 45 147v441h64z" />
    <glyph glyph-name="udieresismacron" unicode="&#x1d6;" horiz-adv-x="568" 
d="M373 668h-177v50h177v-50zM229 638q15 0 25 -10t10 -25t-10 -25t-25 -10t-25 10t-10 25t10 25t25 10zM339 638q15 0 25 -10t10 -25t-10 -25t-25 -10t-25 10t-10 25t10 25t25 10zM498 0h-64v44q-56 -44 -150 -44q-98 0 -156 49q-58 50 -58 142v327h64v-327q0 -62 37 -94
q37 -33 113 -33t113 33q37 32 37 94v327h64v-518z" />
    <glyph glyph-name="Udieresisacute" unicode="&#x1d7;" horiz-adv-x="613" 
d="M407 929l-178 -89l-22 45l177 88zM252 820q15 0 25 -10t10 -25t-10 -25t-25 -10t-25 10t-10 25t10 25t25 10zM362 820q15 0 25 -10t10 -25t-10 -25t-25 -10t-25 10t-10 25t10 25t25 10zM543 700v-441q0 -120 -62 -190q-29 -33 -76 -52q-45 -17 -99 -17q-53 0 -99 17
q-46 19 -76 52q-61 70 -61 190v441h64v-441q0 -98 45 -147q43 -48 127 -48t128 48q45 49 45 147v441h64z" />
    <glyph glyph-name="udieresisacute" unicode="&#x1d8;" horiz-adv-x="568" 
d="M384 747l-178 -89l-22 45l177 88zM229 638q15 0 25 -10t10 -25t-10 -25t-25 -10t-25 10t-10 25t10 25t25 10zM339 638q15 0 25 -10t10 -25t-10 -25t-25 -10t-25 10t-10 25t10 25t25 10zM498 0h-64v44q-56 -44 -150 -44q-98 0 -156 49q-58 50 -58 142v327h64v-327
q0 -62 37 -94q37 -33 113 -33t113 33q37 32 37 94v327h64v-518z" />
    <glyph glyph-name="Udieresiscaron" unicode="&#x1d9;" horiz-adv-x="613" 
d="M433 931l-127 -101l-126 101l31 39l95 -76l96 76zM252 820q15 0 25 -10t10 -25t-10 -25t-25 -10t-25 10t-10 25t10 25t25 10zM362 820q15 0 25 -10t10 -25t-10 -25t-25 -10t-25 10t-10 25t10 25t25 10zM543 700v-441q0 -120 -62 -190q-29 -33 -76 -52q-45 -17 -99 -17
q-53 0 -99 17q-46 19 -76 52q-61 70 -61 190v441h64v-441q0 -98 45 -147q43 -48 127 -48t128 48q45 49 45 147v441h64z" />
    <glyph glyph-name="udieresiscaron" unicode="&#x1da;" horiz-adv-x="568" 
d="M411 749l-127 -101l-126 101l31 39l95 -76l96 76zM230 638q15 0 25 -10t10 -25t-10 -25t-25 -10t-25 10t-10 25t10 25t25 10zM340 638q15 0 25 -10t10 -25t-10 -25t-25 -10t-25 10t-10 25t10 25t25 10zM498 0h-64v44q-56 -44 -150 -44q-98 0 -156 49q-58 50 -58 142v327
h64v-327q0 -62 37 -94q37 -33 113 -33t113 33q37 32 37 94v327h64v-518z" />
    <glyph glyph-name="Udieresisgrave" unicode="&#x1db;" horiz-adv-x="613" 
d="M407 885l-22 -45l-178 89l23 44zM252 820q15 0 25 -10t10 -25t-10 -25t-25 -10t-25 10t-10 25t10 25t25 10zM362 820q15 0 25 -10t10 -25t-10 -25t-25 -10t-25 10t-10 25t10 25t25 10zM543 700v-441q0 -120 -62 -190q-29 -33 -76 -52q-45 -17 -99 -17q-53 0 -99 17
q-46 19 -76 52q-61 70 -61 190v441h64v-441q0 -98 45 -147q43 -48 127 -48t128 48q45 49 45 147v441h64z" />
    <glyph glyph-name="udieresisgrave" unicode="&#x1dc;" horiz-adv-x="568" 
d="M384 703l-22 -45l-178 89l23 44zM229 638q15 0 25 -10t10 -25t-10 -25t-25 -10t-25 10t-10 25t10 25t25 10zM339 638q15 0 25 -10t10 -25t-10 -25t-25 -10t-25 10t-10 25t10 25t25 10zM498 0h-64v44q-56 -44 -150 -44q-98 0 -156 49q-58 50 -58 142v327h64v-327
q0 -62 37 -94q37 -33 113 -33t113 33q37 32 37 94v327h64v-518z" />
    <glyph glyph-name="Scommaaccent" unicode="&#x218;" horiz-adv-x="613" 
d="M306 700h12q86 0 143.5 -41.5t79.5 -118.5l-61 -17q-33 113 -162 113h-12q-87 0 -131 -35q-41 -32 -41 -92q0 -61 41 -93q45 -34 131 -34q110 0 171 -48q66 -51 66 -143t-66 -143q-61 -48 -171 -48h-11q-86 0 -143.5 41t-80.5 118l62 18q32 -113 162 -113h11q87 0 132 34
q41 32 41 93q0 60 -41 92q-44 35 -132 35q-110 0 -171 48q-65 51 -65 143q0 90 65 143q63 48 171 48zM238 -251l28 -41q55 38 82 99q28 64 28 143h-50q0 -70 -23 -122q-22 -48 -65 -79z" />
    <glyph glyph-name="scommaaccent" unicode="&#x219;" 
d="M284 518h12q74 0 123 -27q53 -28 76 -84l-59 -24q-15 35 -47 52q-38 19 -93 19h-12q-80 0 -118 -25q-32 -19 -32 -56q0 -38 32 -57q38 -25 118 -25q95 0 151 -34q62 -39 62 -111q0 -73 -62 -112q-56 -34 -151 -34h-12q-74 0 -124 27q-53 28 -76 84l60 24q13 -34 46 -52
q38 -19 94 -19h12q79 0 117 25q32 19 32 57q0 37 -32 56q-38 25 -117 25q-95 0 -152 34q-62 39 -62 112q0 72 62 111q57 34 152 34zM215 -251l28 -41q55 38 82 99q28 64 28 143h-50q0 -70 -23 -122q-22 -48 -65 -79z" />
    <glyph glyph-name="uni021A" unicode="&#x21a;" horiz-adv-x="571" 
d="M501 636h-183v-636h-64v636h-184v64h431v-64zM173 -251l28 -41q55 38 82 99q28 64 28 143h-50q0 -70 -23 -122q-22 -48 -65 -79z" />
    <glyph glyph-name="uni021B" unicode="&#x21b;" horiz-adv-x="435" 
d="M216 518h149v-64h-149v-263q0 -63 36 -94q38 -33 113 -33v-64q-98 0 -156 49q-57 51 -57 142v263h-82v64h82v182h64v-182zM149 -251l28 -41q55 38 82 99q28 64 28 143h-50q0 -70 -23 -122q-22 -48 -65 -79z" />
    <glyph glyph-name="circumflex" unicode="&#x2c6;" horiz-adv-x="253" 
d="M126 826l-95 -76l-31 39l126 101l127 -101l-31 -39z" />
    <glyph glyph-name="caron" unicode="&#x2c7;" horiz-adv-x="253" 
d="M253 851l-127 -101l-126 101l31 39l95 -76l96 76z" />
    <glyph glyph-name="breve" unicode="&#x2d8;" horiz-adv-x="227" 
d="M177 864h50q0 -54 -30 -84t-83 -30q-54 0 -84 30t-30 84h50q0 -33 16 -48q15 -16 48 -16q32 0 48 16q15 15 15 48z" />
    <glyph glyph-name="dotaccent" unicode="&#x2d9;" horiz-adv-x="70" 
d="M35 820q15 0 25 -10t10 -25t-10 -25t-25 -10t-25 10t-10 25t10 25t25 10z" />
    <glyph glyph-name="ring" unicode="&#x2da;" horiz-adv-x="183" 
d="M91 933q43 0 67.5 -24.5t24.5 -67.5q0 -42 -24.5 -66.5t-67.5 -24.5q-42 0 -66.5 24.5t-24.5 66.5q0 43 24.5 67.5t66.5 24.5zM91 883q-22 0 -31 -10q-10 -10 -10 -32t10 -31q9 -10 31 -10t32 10q10 9 10 31t-10 32t-32 10z" />
    <glyph glyph-name="ogonek" unicode="&#x2db;" horiz-adv-x="114" 
d="M114 50v-50q-33 0 -48 -15q-16 -16 -16 -48q0 -33 16 -48q15 -16 48 -16v-50q-54 0 -84 30t-30 84q0 53 30 83t84 30z" />
    <glyph glyph-name="tilde" unicode="&#x2dc;" horiz-adv-x="272" 
d="M45 842q27 11 56.5 4t51.5 -29q25 -25 54 -14q15 7 15 18h50q0 -33 -25 -52t-56 -19q-41 0 -73 32q-25 24 -53 13q-15 -6 -15 -18h-50q0 46 45 65z" />
    <glyph glyph-name="hungarumlaut" unicode="&#x2dd;" horiz-adv-x="275" 
d="M142 839l-111 -89l-31 39l111 89zM275 839l-111 -89l-31 39l111 89z" />
    <glyph glyph-name="hookabovecomb" unicode="&#x309;" horiz-adv-x="0" 
d="M0 861v50q37 0 59 -22q21 -21 21 -59q0 -37 -21 -58q-22 -22 -59 -22v50q30 0 30 30q0 31 -30 31z" />
    <glyph glyph-name="uni0312" unicode="&#x312;" horiz-adv-x="0" 
d="M138 769l-28 41q-55 -38 -82 -99q-28 -64 -28 -143h50q0 70 23 122q22 48 65 79z" />
    <glyph glyph-name="uni031B" unicode="&#x31b;" horiz-adv-x="0" 
d="M158 700v-88q0 -50 -22 -81q-24 -33 -70 -33h-66v50h66q21 0 30 13q12 17 12 51v88h50z" />
    <glyph glyph-name="dotbelowcomb" unicode="&#x323;" horiz-adv-x="0" 
d="M35 -50q15 0 25 -10t10 -25t-10 -25t-25 -10t-25 10t-10 25t10 25t25 10z" />
    <glyph glyph-name="uni0326" unicode="&#x326;" horiz-adv-x="0" 
d="M0 -251l28 -41q55 38 82 99q28 64 28 143h-50q0 -70 -23 -122q-22 -48 -65 -79z" />
    <glyph glyph-name="Wgrave" unicode="&#x1e80;" horiz-adv-x="1045" 
d="M623 795l-22 -45l-178 89l23 44zM750 0h-46l-181 563l-181 -563h-47l-225 700h67l181 -563l181 563h47l181 -563l181 563h67z" />
    <glyph glyph-name="wgrave" unicode="&#x1e81;" horiz-adv-x="961" 
d="M581 613l-22 -45l-178 89l23 44zM684 0h-44l-160 400l-159 -400h-44l-207 518h69l160 -400l160 400h43l160 -400l160 400h69z" />
    <glyph glyph-name="Wacute" unicode="&#x1e82;" horiz-adv-x="1045" 
d="M623 839l-178 -89l-22 45l177 88zM750 0h-46l-181 563l-181 -563h-47l-225 700h67l181 -563l181 563h47l181 -563l181 563h67z" />
    <glyph glyph-name="wacute" unicode="&#x1e83;" horiz-adv-x="961" 
d="M581 657l-178 -89l-22 45l177 88zM684 0h-44l-160 400l-159 -400h-44l-207 518h69l160 -400l160 400h43l160 -400l160 400h69z" />
    <glyph glyph-name="Wdieresis" unicode="&#x1e84;" horiz-adv-x="1045" 
d="M468 820q15 0 25 -10t10 -25t-10 -25t-25 -10t-25 10t-10 25t10 25t25 10zM578 820q15 0 25 -10t10 -25t-10 -25t-25 -10t-25 10t-10 25t10 25t25 10zM750 0h-46l-181 563l-181 -563h-47l-225 700h67l181 -563l181 563h47l181 -563l181 563h67z" />
    <glyph glyph-name="wdieresis" unicode="&#x1e85;" horiz-adv-x="961" 
d="M426 638q15 0 25 -10t10 -25t-10 -25t-25 -10t-25 10t-10 25t10 25t25 10zM536 638q15 0 25 -10t10 -25t-10 -25t-25 -10t-25 10t-10 25t10 25t25 10zM684 0h-44l-160 400l-159 -400h-44l-207 518h69l160 -400l160 400h43l160 -400l160 400h69z" />
    <glyph glyph-name="Adotbelow" unicode="&#x1ea0;" horiz-adv-x="685" 
d="M615 0h-68l-49 136h-312l-48 -136h-68l250 700h45zM209 200h266l-133 373zM343 -50q15 0 25 -10t10 -25t-10 -25t-25 -10t-25 10t-10 25t10 25t25 10z" />
    <glyph glyph-name="adotbelow" unicode="&#x1ea1;" horiz-adv-x="568" 
d="M283 518h1q98 0 156 -49q58 -50 58 -142v-327h-64v44q-56 -44 -150 -44h-23q-86 0 -136 35q-55 40 -55 111q0 70 55 110q50 35 136 35h173v36q0 62 -37 94q-37 33 -113 33h-1q-70 0 -108 -29q-35 -26 -41 -79l-63 7q8 80 65 123q56 42 147 42zM434 227h-173
q-65 0 -99 -23q-28 -21 -28 -58q0 -38 28 -59q34 -23 99 -23h23q76 0 113 33q37 32 37 94v36zM284 -50q15 0 25 -10t10 -25t-10 -25t-25 -10t-25 10t-10 25t10 25t25 10z" />
    <glyph glyph-name="Ahookabove" unicode="&#x1ea2;" horiz-adv-x="685" 
d="M303 861v50q37 0 59 -22q21 -21 21 -59q0 -37 -21 -58q-22 -22 -59 -22v50q30 0 30 30q0 31 -30 31zM615 0h-68l-49 136h-312l-48 -136h-68l250 700h45zM209 200h266l-133 373z" />
    <glyph glyph-name="ahookabove" unicode="&#x1ea3;" horiz-adv-x="568" 
d="M244 679v50q37 0 59 -22q21 -21 21 -59q0 -37 -21 -58q-22 -22 -59 -22v50q30 0 30 30q0 31 -30 31zM283 518h1q98 0 156 -49q58 -50 58 -142v-327h-64v44q-56 -44 -150 -44h-23q-86 0 -136 35q-55 40 -55 111q0 70 55 110q50 35 136 35h173v36q0 62 -37 94
q-37 33 -113 33h-1q-70 0 -108 -29q-35 -26 -41 -79l-63 7q8 80 65 123q56 42 147 42zM434 227h-173q-65 0 -99 -23q-28 -21 -28 -58q0 -38 28 -59q34 -23 99 -23h23q76 0 113 33q37 32 37 94v36z" />
    <glyph glyph-name="Acircumflexacute" unicode="&#x1ea4;" horiz-adv-x="685" 
d="M444 979l-178 -89l-22 45l177 88zM342 826l-95 -76l-31 39l126 101l127 -101l-31 -39zM615 0h-68l-49 136h-312l-48 -136h-68l250 700h45zM209 200h266l-133 373z" />
    <glyph glyph-name="acircumflexacute" unicode="&#x1ea5;" horiz-adv-x="568" 
d="M386 797l-178 -89l-22 45l177 88zM284 644l-95 -76l-31 39l126 101l127 -101l-31 -39zM283 518h1q98 0 156 -49q58 -50 58 -142v-327h-64v44q-56 -44 -150 -44h-23q-86 0 -136 35q-55 40 -55 111q0 70 55 110q50 35 136 35h173v36q0 62 -37 94q-37 33 -113 33h-1
q-70 0 -108 -29q-35 -26 -41 -79l-63 7q8 80 65 123q56 42 147 42zM434 227h-173q-65 0 -99 -23q-28 -21 -28 -58q0 -38 28 -59q34 -23 99 -23h23q76 0 113 33q37 32 37 94v36z" />
    <glyph glyph-name="Acircumflexgrave" unicode="&#x1ea6;" horiz-adv-x="685" 
d="M443 935l-22 -45l-178 89l23 44zM342 826l-95 -76l-31 39l126 101l127 -101l-31 -39zM615 0h-68l-49 136h-312l-48 -136h-68l250 700h45zM209 200h266l-133 373z" />
    <glyph glyph-name="acircumflexgrave" unicode="&#x1ea7;" horiz-adv-x="568" 
d="M385 753l-22 -45l-178 89l23 44zM284 644l-95 -76l-31 39l126 101l127 -101l-31 -39zM283 518h1q98 0 156 -49q58 -50 58 -142v-327h-64v44q-56 -44 -150 -44h-23q-86 0 -136 35q-55 40 -55 111q0 70 55 110q50 35 136 35h173v36q0 62 -37 94q-37 33 -113 33h-1
q-70 0 -108 -29q-35 -26 -41 -79l-63 7q8 80 65 123q56 42 147 42zM434 227h-173q-65 0 -99 -23q-28 -21 -28 -58q0 -38 28 -59q34 -23 99 -23h23q76 0 113 33q37 32 37 94v36z" />
    <glyph glyph-name="Acircumflexhookabove" unicode="&#x1ea8;" horiz-adv-x="685" 
d="M342 1021v50q37 0 59 -22q21 -21 21 -59q0 -37 -21 -58q-22 -22 -59 -22v50q30 0 30 30q0 31 -30 31zM342 826l-95 -76l-31 39l126 101l127 -101l-31 -39zM615 0h-68l-49 136h-312l-48 -136h-68l250 700h45zM209 200h266l-133 373z" />
    <glyph glyph-name="acircumflexhookabove" unicode="&#x1ea9;" horiz-adv-x="568" 
d="M284 839v50q37 0 59 -22q21 -21 21 -59q0 -37 -21 -58q-22 -22 -59 -22v50q30 0 30 30q0 31 -30 31zM284 644l-95 -76l-31 39l126 101l127 -101l-31 -39zM283 518h1q98 0 156 -49q58 -50 58 -142v-327h-64v44q-56 -44 -150 -44h-23q-86 0 -136 35q-55 40 -55 111
q0 70 55 110q50 35 136 35h173v36q0 62 -37 94q-37 33 -113 33h-1q-70 0 -108 -29q-35 -26 -41 -79l-63 7q8 80 65 123q56 42 147 42zM434 227h-173q-65 0 -99 -23q-28 -21 -28 -58q0 -38 28 -59q34 -23 99 -23h23q76 0 113 33q37 32 37 94v36z" />
    <glyph glyph-name="Acircumflextilde" unicode="&#x1eaa;" horiz-adv-x="685" 
d="M252 992q27 11 56.5 4t51.5 -29q25 -25 54 -14q15 7 15 18h50q0 -33 -25 -52t-56 -19q-41 0 -73 32q-25 24 -53 13q-15 -6 -15 -18h-50q0 46 45 65zM342 826l-95 -76l-31 39l126 101l127 -101l-31 -39zM615 0h-68l-49 136h-312l-48 -136h-68l250 700h45zM209 200h266
l-133 373z" />
    <glyph glyph-name="acircumflextilde" unicode="&#x1eab;" horiz-adv-x="568" 
d="M193 810q27 11 56.5 4t51.5 -29q25 -25 54 -14q15 7 15 18h50q0 -33 -25 -52t-56 -19q-41 0 -73 32q-25 24 -53 13q-15 -6 -15 -18h-50q0 46 45 65zM283 644l-95 -76l-31 39l126 101l127 -101l-31 -39zM283 518h1q98 0 156 -49q58 -50 58 -142v-327h-64v44
q-56 -44 -150 -44h-23q-86 0 -136 35q-55 40 -55 111q0 70 55 110q50 35 136 35h173v36q0 62 -37 94q-37 33 -113 33h-1q-70 0 -108 -29q-35 -26 -41 -79l-63 7q8 80 65 123q56 42 147 42zM434 227h-173q-65 0 -99 -23q-28 -21 -28 -58q0 -38 28 -59q34 -23 99 -23h23
q76 0 113 33q37 32 37 94v36z" />
    <glyph glyph-name="Acircumflexdotbelow" unicode="&#x1eac;" horiz-adv-x="685" 
d="M342 826l-95 -76l-31 39l126 101l127 -101l-31 -39zM615 0h-68l-49 136h-312l-48 -136h-68l250 700h45zM209 200h266l-133 373zM343 -50q15 0 25 -10t10 -25t-10 -25t-25 -10t-25 10t-10 25t10 25t25 10z" />
    <glyph glyph-name="acircumflexdotbelow" unicode="&#x1ead;" horiz-adv-x="568" 
d="M284 644l-95 -76l-31 39l126 101l127 -101l-31 -39zM283 518h1q98 0 156 -49q58 -50 58 -142v-327h-64v44q-56 -44 -150 -44h-23q-86 0 -136 35q-55 40 -55 111q0 70 55 110q50 35 136 35h173v36q0 62 -37 94q-37 33 -113 33h-1q-70 0 -108 -29q-35 -26 -41 -79l-63 7
q8 80 65 123q56 42 147 42zM434 227h-173q-65 0 -99 -23q-28 -21 -28 -58q0 -38 28 -59q34 -23 99 -23h23q76 0 113 33q37 32 37 94v36zM284 -50q15 0 25 -10t10 -25t-10 -25t-25 -10t-25 10t-10 25t10 25t25 10z" />
    <glyph glyph-name="Abreveacute" unicode="&#x1eae;" horiz-adv-x="685" 
d="M494 953l-178 -89l-22 45l177 88zM406 864h50q0 -54 -30 -84t-83 -30q-54 0 -84 30t-30 84h50q0 -33 16 -48q15 -16 48 -16q32 0 48 16q15 15 15 48zM615 0h-68l-49 136h-312l-48 -136h-68l250 700h45zM209 200h266l-133 373z" />
    <glyph glyph-name="abreveacute" unicode="&#x1eaf;" horiz-adv-x="568" 
d="M436 771l-178 -89l-22 45l177 88zM348 682h50q0 -54 -30 -84t-83 -30q-54 0 -84 30t-30 84h50q0 -33 16 -48q15 -16 48 -16q32 0 48 16q15 15 15 48zM283 518h1q98 0 156 -49q58 -50 58 -142v-327h-64v44q-56 -44 -150 -44h-23q-86 0 -136 35q-55 40 -55 111q0 70 55 110
q50 35 136 35h173v36q0 62 -37 94q-37 33 -113 33h-1q-70 0 -108 -29q-35 -26 -41 -79l-63 7q8 80 65 123q56 42 147 42zM434 227h-173q-65 0 -99 -23q-28 -21 -28 -58q0 -38 28 -59q34 -23 99 -23h23q76 0 113 33q37 32 37 94v36z" />
    <glyph glyph-name="Abrevegrave" unicode="&#x1eb0;" horiz-adv-x="685" 
d="M391 909l-22 -45l-178 89l23 44zM406 864h50q0 -54 -30 -84t-83 -30q-54 0 -84 30t-30 84h50q0 -33 16 -48q15 -16 48 -16q32 0 48 16q15 15 15 48zM615 0h-68l-49 136h-312l-48 -136h-68l250 700h45zM209 200h266l-133 373z" />
    <glyph glyph-name="abrevegrave" unicode="&#x1eb1;" horiz-adv-x="568" 
d="M333 727l-22 -45l-178 89l23 44zM348 682h50q0 -54 -30 -84t-83 -30q-54 0 -84 30t-30 84h50q0 -33 16 -48q15 -16 48 -16q32 0 48 16q15 15 15 48zM283 518h1q98 0 156 -49q58 -50 58 -142v-327h-64v44q-56 -44 -150 -44h-23q-86 0 -136 35q-55 40 -55 111q0 70 55 110
q50 35 136 35h173v36q0 62 -37 94q-37 33 -113 33h-1q-70 0 -108 -29q-35 -26 -41 -79l-63 7q8 80 65 123q56 42 147 42zM434 227h-173q-65 0 -99 -23q-28 -21 -28 -58q0 -38 28 -59q34 -23 99 -23h23q76 0 113 33q37 32 37 94v36z" />
    <glyph glyph-name="Abrevehookabove" unicode="&#x1eb2;" horiz-adv-x="685" 
d="M323 975v50q37 0 59 -22q21 -21 21 -59q0 -37 -21 -58q-22 -22 -59 -22v50q30 0 30 30q0 31 -30 31zM406 864h50q0 -54 -30 -84t-83 -30q-54 0 -84 30t-30 84h50q0 -33 16 -48q15 -16 48 -16q32 0 48 16q15 15 15 48zM615 0h-68l-49 136h-312l-48 -136h-68l250 700h45z
M209 200h266l-133 373z" />
    <glyph glyph-name="abrevehookabove" unicode="&#x1eb3;" horiz-adv-x="568" 
d="M265 793v50q37 0 59 -22q21 -21 21 -59q0 -37 -21 -58q-22 -22 -59 -22v50q30 0 30 30q0 31 -30 31zM348 682h50q0 -54 -30 -84t-83 -30q-54 0 -84 30t-30 84h50q0 -33 16 -48q15 -16 48 -16q32 0 48 16q15 15 15 48zM283 518h1q98 0 156 -49q58 -50 58 -142v-327h-64v44
q-56 -44 -150 -44h-23q-86 0 -136 35q-55 40 -55 111q0 70 55 110q50 35 136 35h173v36q0 62 -37 94q-37 33 -113 33h-1q-70 0 -108 -29q-35 -26 -41 -79l-63 7q8 80 65 123q56 42 147 42zM434 227h-173q-65 0 -99 -23q-28 -21 -28 -58q0 -38 28 -59q34 -23 99 -23h23
q76 0 113 33q37 32 37 94v36z" />
    <glyph glyph-name="Abrevetilde" unicode="&#x1eb4;" horiz-adv-x="685" 
d="M251 976q27 11 56.5 4t51.5 -29q25 -25 54 -14q15 7 15 18h50q0 -33 -25 -52t-56 -19q-41 0 -73 32q-25 24 -53 13q-15 -6 -15 -18h-50q0 46 45 65zM406 864h50q0 -54 -30 -84t-83 -30q-54 0 -84 30t-30 84h50q0 -33 16 -48q15 -16 48 -16q32 0 48 16q15 15 15 48zM615 0
h-68l-49 136h-312l-48 -136h-68l250 700h45zM209 200h266l-133 373z" />
    <glyph glyph-name="abrevetilde" unicode="&#x1eb5;" horiz-adv-x="568" 
d="M193 794q27 11 56.5 4t51.5 -29q25 -25 54 -14q15 7 15 18h50q0 -33 -25 -52t-56 -19q-41 0 -73 32q-25 24 -53 13q-15 -6 -15 -18h-50q0 46 45 65zM348 682h50q0 -54 -30 -84t-83 -30q-54 0 -84 30t-30 84h50q0 -33 16 -48q15 -16 48 -16q32 0 48 16q15 15 15 48z
M283 518h1q98 0 156 -49q58 -50 58 -142v-327h-64v44q-56 -44 -150 -44h-23q-86 0 -136 35q-55 40 -55 111q0 70 55 110q50 35 136 35h173v36q0 62 -37 94q-37 33 -113 33h-1q-70 0 -108 -29q-35 -26 -41 -79l-63 7q8 80 65 123q56 42 147 42zM434 227h-173q-65 0 -99 -23
q-28 -21 -28 -58q0 -38 28 -59q34 -23 99 -23h23q76 0 113 33q37 32 37 94v36z" />
    <glyph glyph-name="Abrevedotbelow" unicode="&#x1eb6;" horiz-adv-x="685" 
d="M406 864h50q0 -54 -30 -84t-83 -30q-54 0 -84 30t-30 84h50q0 -33 16 -48q15 -16 48 -16q32 0 48 16q15 15 15 48zM615 0h-68l-49 136h-312l-48 -136h-68l250 700h45zM209 200h266l-133 373zM343 -50q15 0 25 -10t10 -25t-10 -25t-25 -10t-25 10t-10 25t10 25t25 10z" />
    <glyph glyph-name="abrevedotbelow" unicode="&#x1eb7;" horiz-adv-x="568" 
d="M348 682h50q0 -54 -30 -84t-83 -30q-54 0 -84 30t-30 84h50q0 -33 16 -48q15 -16 48 -16q32 0 48 16q15 15 15 48zM283 518h1q98 0 156 -49q58 -50 58 -142v-327h-64v44q-56 -44 -150 -44h-23q-86 0 -136 35q-55 40 -55 111q0 70 55 110q50 35 136 35h173v36q0 62 -37 94
q-37 33 -113 33h-1q-70 0 -108 -29q-35 -26 -41 -79l-63 7q8 80 65 123q56 42 147 42zM434 227h-173q-65 0 -99 -23q-28 -21 -28 -58q0 -38 28 -59q34 -23 99 -23h23q76 0 113 33q37 32 37 94v36zM284 -50q15 0 25 -10t10 -25t-10 -25t-25 -10t-25 10t-10 25t10 25t25 10z
" />
    <glyph glyph-name="Edotbelow" unicode="&#x1eb8;" horiz-adv-x="558" 
d="M488 636h-354v-254h354v-64h-354v-254h354v-64h-418v700h418v-64zM279 -50q15 0 25 -10t10 -25t-10 -25t-25 -10t-25 10t-10 25t10 25t25 10z" />
    <glyph glyph-name="edotbelow" unicode="&#x1eb9;" 
d="M284 518q98 0 155 -49q58 -50 58 -142v-100h-363v-36q0 -63 36 -94q38 -33 114 -33h12q55 0 93 19q32 17 47 52l59 -24q-23 -56 -76 -84q-49 -27 -123 -27h-12q-99 0 -156 49q-58 50 -58 142v136q0 92 58 142q57 49 156 49zM284 454q-76 0 -114 -33q-36 -31 -36 -94v-36
h299v36q0 63 -36 94q-37 33 -113 33zM284 -50q15 0 25 -10t10 -25t-10 -25t-25 -10t-25 10t-10 25t10 25t25 10z" />
    <glyph glyph-name="Ehookabove" unicode="&#x1eba;" horiz-adv-x="558" 
d="M239 861v50q37 0 59 -22q21 -21 21 -59q0 -37 -21 -58q-22 -22 -59 -22v50q30 0 30 30q0 31 -30 31zM488 636h-354v-254h354v-64h-354v-254h354v-64h-418v700h418v-64z" />
    <glyph glyph-name="ehookabove" unicode="&#x1ebb;" 
d="M244 679v50q37 0 59 -22q21 -21 21 -59q0 -37 -21 -58q-22 -22 -59 -22v50q30 0 30 30q0 31 -30 31zM284 518q98 0 155 -49q58 -50 58 -142v-100h-363v-36q0 -63 36 -94q38 -33 114 -33h12q55 0 93 19q32 17 47 52l59 -24q-23 -56 -76 -84q-49 -27 -123 -27h-12
q-99 0 -156 49q-58 50 -58 142v136q0 92 58 142q57 49 156 49zM284 454q-76 0 -114 -33q-36 -31 -36 -94v-36h299v36q0 63 -36 94q-37 33 -113 33z" />
    <glyph glyph-name="Etilde" unicode="&#x1ebc;" horiz-adv-x="558" 
d="M188 842q27 11 56.5 4t51.5 -29q25 -25 54 -14q15 7 15 18h50q0 -33 -25 -52t-56 -19q-41 0 -73 32q-25 24 -53 13q-15 -6 -15 -18h-50q0 46 45 65zM488 636h-354v-254h354v-64h-354v-254h354v-64h-418v700h418v-64z" />
    <glyph glyph-name="etilde" unicode="&#x1ebd;" 
d="M193 660q27 11 56.5 4t51.5 -29q25 -25 54 -14q15 7 15 18h50q0 -33 -25 -52t-56 -19q-41 0 -73 32q-25 24 -53 13q-15 -6 -15 -18h-50q0 46 45 65zM284 518q98 0 155 -49q58 -50 58 -142v-100h-363v-36q0 -63 36 -94q38 -33 114 -33h12q55 0 93 19q32 17 47 52l59 -24
q-23 -56 -76 -84q-49 -27 -123 -27h-12q-99 0 -156 49q-58 50 -58 142v136q0 92 58 142q57 49 156 49zM284 454q-76 0 -114 -33q-36 -31 -36 -94v-36h299v36q0 63 -36 94q-37 33 -113 33z" />
    <glyph glyph-name="Ecircumflexacute" unicode="&#x1ebe;" horiz-adv-x="558" 
d="M381 979l-178 -89l-22 45l177 88zM279 826l-95 -76l-31 39l126 101l127 -101l-31 -39zM488 636h-354v-254h354v-64h-354v-254h354v-64h-418v700h418v-64z" />
    <glyph glyph-name="ecircumflexacute" unicode="&#x1ebf;" 
d="M385 797l-178 -89l-22 45l177 88zM283 644l-95 -76l-31 39l126 101l127 -101l-31 -39zM284 518q98 0 155 -49q58 -50 58 -142v-100h-363v-36q0 -63 36 -94q38 -33 114 -33h12q55 0 93 19q32 17 47 52l59 -24q-23 -56 -76 -84q-49 -27 -123 -27h-12q-99 0 -156 49
q-58 50 -58 142v136q0 92 58 142q57 49 156 49zM284 454q-76 0 -114 -33q-36 -31 -36 -94v-36h299v36q0 63 -36 94q-37 33 -113 33z" />
    <glyph glyph-name="Ecircumflexgrave" unicode="&#x1ec0;" horiz-adv-x="558" 
d="M380 935l-22 -45l-178 89l23 44zM279 826l-95 -76l-31 39l126 101l127 -101l-31 -39zM488 636h-354v-254h354v-64h-354v-254h354v-64h-418v700h418v-64z" />
    <glyph glyph-name="ecircumflexgrave" unicode="&#x1ec1;" 
d="M384 753l-22 -45l-178 89l23 44zM283 644l-95 -76l-31 39l126 101l127 -101l-31 -39zM284 518q98 0 155 -49q58 -50 58 -142v-100h-363v-36q0 -63 36 -94q38 -33 114 -33h12q55 0 93 19q32 17 47 52l59 -24q-23 -56 -76 -84q-49 -27 -123 -27h-12q-99 0 -156 49
q-58 50 -58 142v136q0 92 58 142q57 49 156 49zM284 454q-76 0 -114 -33q-36 -31 -36 -94v-36h299v36q0 63 -36 94q-37 33 -113 33z" />
    <glyph glyph-name="Ecircumflexhookabove" unicode="&#x1ec2;" horiz-adv-x="558" 
d="M279 1021v50q37 0 59 -22q21 -21 21 -59q0 -37 -21 -58q-22 -22 -59 -22v50q30 0 30 30q0 31 -30 31zM279 826l-95 -76l-31 39l126 101l127 -101l-31 -39zM488 636h-354v-254h354v-64h-354v-254h354v-64h-418v700h418v-64z" />
    <glyph glyph-name="ecircumflexhookabove" unicode="&#x1ec3;" 
d="M283 839v50q37 0 59 -22q21 -21 21 -59q0 -37 -21 -58q-22 -22 -59 -22v50q30 0 30 30q0 31 -30 31zM283 644l-95 -76l-31 39l126 101l127 -101l-31 -39zM284 518q98 0 155 -49q58 -50 58 -142v-100h-363v-36q0 -63 36 -94q38 -33 114 -33h12q55 0 93 19q32 17 47 52
l59 -24q-23 -56 -76 -84q-49 -27 -123 -27h-12q-99 0 -156 49q-58 50 -58 142v136q0 92 58 142q57 49 156 49zM284 454q-76 0 -114 -33q-36 -31 -36 -94v-36h299v36q0 63 -36 94q-37 33 -113 33z" />
    <glyph glyph-name="Ecircumflextilde" unicode="&#x1ec4;" horiz-adv-x="558" 
d="M188 992q27 11 56.5 4t51.5 -29q25 -25 54 -14q15 7 15 18h50q0 -33 -25 -52t-56 -19q-41 0 -73 32q-25 24 -53 13q-15 -6 -15 -18h-50q0 46 45 65zM278 826l-95 -76l-31 39l126 101l127 -101l-31 -39zM488 636h-354v-254h354v-64h-354v-254h354v-64h-418v700h418v-64z
" />
    <glyph glyph-name="ecircumflextilde" unicode="&#x1ec5;" 
d="M193 810q27 11 56.5 4t51.5 -29q25 -25 54 -14q15 7 15 18h50q0 -33 -25 -52t-56 -19q-41 0 -73 32q-25 24 -53 13q-15 -6 -15 -18h-50q0 46 45 65zM283 644l-95 -76l-31 39l126 101l127 -101l-31 -39zM284 518q98 0 155 -49q58 -50 58 -142v-100h-363v-36q0 -63 36 -94
q38 -33 114 -33h12q55 0 93 19q32 17 47 52l59 -24q-23 -56 -76 -84q-49 -27 -123 -27h-12q-99 0 -156 49q-58 50 -58 142v136q0 92 58 142q57 49 156 49zM284 454q-76 0 -114 -33q-36 -31 -36 -94v-36h299v36q0 63 -36 94q-37 33 -113 33z" />
    <glyph glyph-name="Ecircumflexdotbelow" unicode="&#x1ec6;" horiz-adv-x="558" 
d="M279 826l-95 -76l-31 39l126 101l127 -101l-31 -39zM488 636h-354v-254h354v-64h-354v-254h354v-64h-418v700h418v-64zM279 -50q15 0 25 -10t10 -25t-10 -25t-25 -10t-25 10t-10 25t10 25t25 10z" />
    <glyph glyph-name="ecircumflexdotbelow" unicode="&#x1ec7;" 
d="M283 644l-95 -76l-31 39l126 101l127 -101l-31 -39zM284 518q98 0 155 -49q58 -50 58 -142v-100h-363v-36q0 -63 36 -94q38 -33 114 -33h12q55 0 93 19q32 17 47 52l59 -24q-23 -56 -76 -84q-49 -27 -123 -27h-12q-99 0 -156 49q-58 50 -58 142v136q0 92 58 142
q57 49 156 49zM284 454q-76 0 -114 -33q-36 -31 -36 -94v-36h299v36q0 63 -36 94q-37 33 -113 33zM284 -50q15 0 25 -10t10 -25t-10 -25t-25 -10t-25 10t-10 25t10 25t25 10z" />
    <glyph glyph-name="Ihookabove" unicode="&#x1ec8;" horiz-adv-x="204" 
d="M62 861v50q37 0 59 -22q21 -21 21 -59q0 -37 -21 -58q-22 -22 -59 -22v50q30 0 30 30q0 31 -30 31zM134 0h-64v700h64v-700z" />
    <glyph glyph-name="ihookabove" unicode="&#x1ec9;" horiz-adv-x="204" 
d="M62 679v50q37 0 59 -22q21 -21 21 -59q0 -37 -21 -58q-22 -22 -59 -22v50q30 0 30 30q0 31 -30 31zM134 0h-64v518h64v-518z" />
    <glyph glyph-name="Idotbelow" unicode="&#x1eca;" horiz-adv-x="204" 
d="M134 0h-64v700h64v-700zM102 -50q15 0 25 -10t10 -25t-10 -25t-25 -10t-25 10t-10 25t10 25t25 10z" />
    <glyph glyph-name="idotbelow" unicode="&#x1ecb;" horiz-adv-x="224" 
d="M112 700q18 0 30 -12t12 -30t-12 -30t-30 -12t-30 12t-12 30t12 30t30 12zM144 0h-64v518h64v-518zM112 -50q15 0 25 -10t10 -25t-10 -25t-25 -10t-25 10t-10 25t10 25t25 10z" />
    <glyph glyph-name="Odotbelow" unicode="&#x1ecc;" horiz-adv-x="613" 
d="M306 700q56 0 99 -18q45 -17 76 -52q62 -68 62 -189v-182q0 -120 -62 -190q-29 -33 -76 -52q-45 -17 -99 -17q-53 0 -99 17q-46 19 -76 52q-61 70 -61 190v182q0 120 61 189q32 35 76 52q45 18 99 18zM306 636q-83 0 -127 -49q-45 -49 -45 -146v-182q0 -98 45 -147
q43 -48 127 -48t128 48q45 49 45 147v182q0 97 -45 146q-44 49 -128 49zM307 -50q15 0 25 -10t10 -25t-10 -25t-25 -10t-25 10t-10 25t10 25t25 10z" />
    <glyph glyph-name="odotbelow" unicode="&#x1ecd;" 
d="M284 518q98 0 155 -49q58 -50 58 -142v-136q0 -92 -58 -142q-57 -49 -155 -49q-99 0 -156 49q-58 50 -58 142v136q0 92 58 142q57 49 156 49zM284 454q-76 0 -114 -33q-36 -31 -36 -94v-136q0 -63 36 -94q38 -33 114 -33t113 33q36 31 36 94v136q0 63 -36 94
q-37 33 -113 33zM284 -50q15 0 25 -10t10 -25t-10 -25t-25 -10t-25 10t-10 25t10 25t25 10z" />
    <glyph glyph-name="Ohookabove" unicode="&#x1ece;" horiz-adv-x="613" 
d="M267 861v50q37 0 59 -22q21 -21 21 -59q0 -37 -21 -58q-22 -22 -59 -22v50q30 0 30 30q0 31 -30 31zM306 700q56 0 99 -18q45 -17 76 -52q62 -68 62 -189v-182q0 -120 -62 -190q-29 -33 -76 -52q-45 -17 -99 -17q-53 0 -99 17q-46 19 -76 52q-61 70 -61 190v182
q0 120 61 189q32 35 76 52q45 18 99 18zM306 636q-83 0 -127 -49q-45 -49 -45 -146v-182q0 -98 45 -147q43 -48 127 -48t128 48q45 49 45 147v182q0 97 -45 146q-44 49 -128 49z" />
    <glyph glyph-name="ohookabove" unicode="&#x1ecf;" 
d="M244 679v50q37 0 59 -22q21 -21 21 -59q0 -37 -21 -58q-22 -22 -59 -22v50q30 0 30 30q0 31 -30 31zM284 518q98 0 155 -49q58 -50 58 -142v-136q0 -92 -58 -142q-57 -49 -155 -49q-99 0 -156 49q-58 50 -58 142v136q0 92 58 142q57 49 156 49zM284 454q-76 0 -114 -33
q-36 -31 -36 -94v-136q0 -63 36 -94q38 -33 114 -33t113 33q36 31 36 94v136q0 63 -36 94q-37 33 -113 33z" />
    <glyph glyph-name="Ocircumflexacute" unicode="&#x1ed0;" horiz-adv-x="613" 
d="M408 979l-178 -89l-22 45l177 88zM306 826l-95 -76l-31 39l126 101l127 -101l-31 -39zM306 700q56 0 99 -18q45 -17 76 -52q62 -68 62 -189v-182q0 -120 -62 -190q-29 -33 -76 -52q-45 -17 -99 -17q-53 0 -99 17q-46 19 -76 52q-61 70 -61 190v182q0 120 61 189
q32 35 76 52q45 18 99 18zM306 636q-83 0 -127 -49q-45 -49 -45 -146v-182q0 -98 45 -147q43 -48 127 -48t128 48q45 49 45 147v182q0 97 -45 146q-44 49 -128 49z" />
    <glyph glyph-name="ocircumflexacute" unicode="&#x1ed1;" 
d="M385 797l-178 -89l-22 45l177 88zM283 644l-95 -76l-31 39l126 101l127 -101l-31 -39zM284 518q98 0 155 -49q58 -50 58 -142v-136q0 -92 -58 -142q-57 -49 -155 -49q-99 0 -156 49q-58 50 -58 142v136q0 92 58 142q57 49 156 49zM284 454q-76 0 -114 -33
q-36 -31 -36 -94v-136q0 -63 36 -94q38 -33 114 -33t113 33q36 31 36 94v136q0 63 -36 94q-37 33 -113 33z" />
    <glyph glyph-name="Ocircumflexgrave" unicode="&#x1ed2;" horiz-adv-x="613" 
d="M407 935l-22 -45l-178 89l23 44zM306 826l-95 -76l-31 39l126 101l127 -101l-31 -39zM306 700q56 0 99 -18q45 -17 76 -52q62 -68 62 -189v-182q0 -120 -62 -190q-29 -33 -76 -52q-45 -17 -99 -17q-53 0 -99 17q-46 19 -76 52q-61 70 -61 190v182q0 120 61 189
q32 35 76 52q45 18 99 18zM306 636q-83 0 -127 -49q-45 -49 -45 -146v-182q0 -98 45 -147q43 -48 127 -48t128 48q45 49 45 147v182q0 97 -45 146q-44 49 -128 49z" />
    <glyph glyph-name="ocircumflexgrave" unicode="&#x1ed3;" 
d="M384 753l-22 -45l-178 89l23 44zM283 644l-95 -76l-31 39l126 101l127 -101l-31 -39zM284 518q98 0 155 -49q58 -50 58 -142v-136q0 -92 -58 -142q-57 -49 -155 -49q-99 0 -156 49q-58 50 -58 142v136q0 92 58 142q57 49 156 49zM284 454q-76 0 -114 -33q-36 -31 -36 -94
v-136q0 -63 36 -94q38 -33 114 -33t113 33q36 31 36 94v136q0 63 -36 94q-37 33 -113 33z" />
    <glyph glyph-name="Ocircumflexhookabove" unicode="&#x1ed4;" horiz-adv-x="613" 
d="M306 1021v50q37 0 59 -22q21 -21 21 -59q0 -37 -21 -58q-22 -22 -59 -22v50q30 0 30 30q0 31 -30 31zM306 826l-95 -76l-31 39l126 101l127 -101l-31 -39zM306 700q56 0 99 -18q45 -17 76 -52q62 -68 62 -189v-182q0 -120 -62 -190q-29 -33 -76 -52q-45 -17 -99 -17
q-53 0 -99 17q-46 19 -76 52q-61 70 -61 190v182q0 120 61 189q32 35 76 52q45 18 99 18zM306 636q-83 0 -127 -49q-45 -49 -45 -146v-182q0 -98 45 -147q43 -48 127 -48t128 48q45 49 45 147v182q0 97 -45 146q-44 49 -128 49z" />
    <glyph glyph-name="ocircumflexhookabove" unicode="&#x1ed5;" 
d="M283 839v50q37 0 59 -22q21 -21 21 -59q0 -37 -21 -58q-22 -22 -59 -22v50q30 0 30 30q0 31 -30 31zM283 644l-95 -76l-31 39l126 101l127 -101l-31 -39zM284 518q98 0 155 -49q58 -50 58 -142v-136q0 -92 -58 -142q-57 -49 -155 -49q-99 0 -156 49q-58 50 -58 142v136
q0 92 58 142q57 49 156 49zM284 454q-76 0 -114 -33q-36 -31 -36 -94v-136q0 -63 36 -94q38 -33 114 -33t113 33q36 31 36 94v136q0 63 -36 94q-37 33 -113 33z" />
    <glyph glyph-name="Ocircumflextilde" unicode="&#x1ed6;" horiz-adv-x="613" 
d="M216 992q27 11 56.5 4t51.5 -29q25 -25 54 -14q15 7 15 18h50q0 -33 -25 -52t-56 -19q-41 0 -73 32q-25 24 -53 13q-15 -6 -15 -18h-50q0 46 45 65zM306 826l-95 -76l-31 39l126 101l127 -101l-31 -39zM306 700q56 0 99 -18q45 -17 76 -52q62 -68 62 -189v-182
q0 -120 -62 -190q-29 -33 -76 -52q-45 -17 -99 -17q-53 0 -99 17q-46 19 -76 52q-61 70 -61 190v182q0 120 61 189q32 35 76 52q45 18 99 18zM306 636q-83 0 -127 -49q-45 -49 -45 -146v-182q0 -98 45 -147q43 -48 127 -48t128 48q45 49 45 147v182q0 97 -45 146
q-44 49 -128 49z" />
    <glyph glyph-name="ocircumflextilde" unicode="&#x1ed7;" 
d="M193 810q27 11 56.5 4t51.5 -29q25 -25 54 -14q15 7 15 18h50q0 -33 -25 -52t-56 -19q-41 0 -73 32q-25 24 -53 13q-15 -6 -15 -18h-50q0 46 45 65zM283 644l-95 -76l-31 39l126 101l127 -101l-31 -39zM284 518q98 0 155 -49q58 -50 58 -142v-136q0 -92 -58 -142
q-57 -49 -155 -49q-99 0 -156 49q-58 50 -58 142v136q0 92 58 142q57 49 156 49zM284 454q-76 0 -114 -33q-36 -31 -36 -94v-136q0 -63 36 -94q38 -33 114 -33t113 33q36 31 36 94v136q0 63 -36 94q-37 33 -113 33z" />
    <glyph glyph-name="Ocircumflexdotbelow" unicode="&#x1ed8;" horiz-adv-x="613" 
d="M306 826l-95 -76l-31 39l126 101l127 -101l-31 -39zM306 700q56 0 99 -18q45 -17 76 -52q62 -68 62 -189v-182q0 -120 -62 -190q-29 -33 -76 -52q-45 -17 -99 -17q-53 0 -99 17q-46 19 -76 52q-61 70 -61 190v182q0 120 61 189q32 35 76 52q45 18 99 18zM306 636
q-83 0 -127 -49q-45 -49 -45 -146v-182q0 -98 45 -147q43 -48 127 -48t128 48q45 49 45 147v182q0 97 -45 146q-44 49 -128 49zM307 -50q15 0 25 -10t10 -25t-10 -25t-25 -10t-25 10t-10 25t10 25t25 10z" />
    <glyph glyph-name="ocircumflexdotbelow" unicode="&#x1ed9;" 
d="M283 644l-95 -76l-31 39l126 101l127 -101l-31 -39zM284 518q98 0 155 -49q58 -50 58 -142v-136q0 -92 -58 -142q-57 -49 -155 -49q-99 0 -156 49q-58 50 -58 142v136q0 92 58 142q57 49 156 49zM284 454q-76 0 -114 -33q-36 -31 -36 -94v-136q0 -63 36 -94
q38 -33 114 -33t113 33q36 31 36 94v136q0 63 -36 94q-37 33 -113 33zM284 -50q15 0 25 -10t10 -25t-10 -25t-25 -10t-25 10t-10 25t10 25t25 10z" />
    <glyph glyph-name="Ohornacute" unicode="&#x1eda;" horiz-adv-x="677" 
d="M229 750l-22 45l177 88l23 -44zM637 700v-88q0 -50 -22 -81q-24 -33 -70 -33h-6q4 -24 4 -57v-182q0 -120 -62 -190q-29 -33 -76 -52q-45 -17 -99 -17q-53 0 -99 17q-46 19 -76 52q-61 70 -61 190v182q0 120 61 189q32 35 76 52q45 18 99 18q56 0 99 -18q45 -17 76 -52
q30 -33 47 -82h17q21 0 30 13q12 17 12 51v88h50zM479 259v182q0 97 -45 146q-44 49 -128 49q-83 0 -127 -49q-45 -49 -45 -146v-182q0 -98 45 -147q43 -48 127 -48t128 48q45 49 45 147z" />
    <glyph glyph-name="ohornacute" unicode="&#x1edb;" horiz-adv-x="621" 
d="M206 568l-22 45l177 88l23 -44zM591 518v-88q0 -50 -22 -81q-24 -33 -70 -33h-2v-125q0 -92 -58 -142q-57 -49 -155 -49q-99 0 -156 49q-58 50 -58 142v136q0 92 58 142q57 49 156 49q98 0 155 -49q44 -40 55 -103h5q21 0 30 13q12 17 12 51v88h50zM433 191v136
q0 63 -36 94q-37 33 -113 33t-114 -33q-36 -31 -36 -94v-136q0 -63 36 -94q38 -33 114 -33t113 33q36 31 36 94z" />
    <glyph glyph-name="Ohorngrave" unicode="&#x1edc;" horiz-adv-x="677" 
d="M385 750l-178 89l23 44l177 -88zM637 700v-88q0 -50 -22 -81q-24 -33 -70 -33h-6q4 -24 4 -57v-182q0 -120 -62 -190q-29 -33 -76 -52q-45 -17 -99 -17q-53 0 -99 17q-46 19 -76 52q-61 70 -61 190v182q0 120 61 189q32 35 76 52q45 18 99 18q56 0 99 -18q45 -17 76 -52
q30 -33 47 -82h17q21 0 30 13q12 17 12 51v88h50zM479 259v182q0 97 -45 146q-44 49 -128 49q-83 0 -127 -49q-45 -49 -45 -146v-182q0 -98 45 -147q43 -48 127 -48t128 48q45 49 45 147z" />
    <glyph glyph-name="ohorngrave" unicode="&#x1edd;" horiz-adv-x="621" 
d="M362 568l-178 89l23 44l177 -88zM591 518v-88q0 -50 -22 -81q-24 -33 -70 -33h-2v-125q0 -92 -58 -142q-57 -49 -155 -49q-99 0 -156 49q-58 50 -58 142v136q0 92 58 142q57 49 156 49q98 0 155 -49q44 -40 55 -103h5q21 0 30 13q12 17 12 51v88h50zM433 191v136
q0 63 -36 94q-37 33 -113 33t-114 -33q-36 -31 -36 -94v-136q0 -63 36 -94q38 -33 114 -33t113 33q36 31 36 94z" />
    <glyph glyph-name="Ohornhookabove" unicode="&#x1ede;" horiz-adv-x="677" 
d="M347 830q0 -37 -21 -58q-22 -22 -59 -22v50q30 0 30 30q0 31 -30 31v50q37 0 59 -22q21 -21 21 -59zM637 700v-88q0 -50 -22 -81q-24 -33 -70 -33h-6q4 -24 4 -57v-182q0 -120 -62 -190q-29 -33 -76 -52q-45 -17 -99 -17q-53 0 -99 17q-46 19 -76 52q-61 70 -61 190v182
q0 120 61 189q32 35 76 52q45 18 99 18q56 0 99 -18q45 -17 76 -52q30 -33 47 -82h17q21 0 30 13q12 17 12 51v88h50zM479 259v182q0 97 -45 146q-44 49 -128 49q-83 0 -127 -49q-45 -49 -45 -146v-182q0 -98 45 -147q43 -48 127 -48t128 48q45 49 45 147z" />
    <glyph glyph-name="ohornhookabove" unicode="&#x1edf;" horiz-adv-x="621" 
d="M324 648q0 -37 -21 -58q-22 -22 -59 -22v50q30 0 30 30q0 31 -30 31v50q37 0 59 -22q21 -21 21 -59zM591 518v-88q0 -50 -22 -81q-24 -33 -70 -33h-2v-125q0 -92 -58 -142q-57 -49 -155 -49q-99 0 -156 49q-58 50 -58 142v136q0 92 58 142q57 49 156 49q98 0 155 -49
q44 -40 55 -103h5q21 0 30 13q12 17 12 51v88h50zM433 191v136q0 63 -36 94q-37 33 -113 33t-114 -33q-36 -31 -36 -94v-136q0 -63 36 -94q38 -33 114 -33t113 33q36 31 36 94z" />
    <glyph glyph-name="Ohorntilde" unicode="&#x1ee0;" horiz-adv-x="677" 
d="M236 795q-15 -6 -15 -18h-50q0 46 45 65q27 11 56.5 4t51.5 -29q25 -25 54 -14q15 7 15 18h50q0 -33 -25 -52t-56 -19q-41 0 -73 32q-25 24 -53 13zM637 700v-88q0 -50 -22 -81q-24 -33 -70 -33h-6q4 -24 4 -57v-182q0 -120 -62 -190q-29 -33 -76 -52q-45 -17 -99 -17
q-53 0 -99 17q-46 19 -76 52q-61 70 -61 190v182q0 120 61 189q32 35 76 52q45 18 99 18q56 0 99 -18q45 -17 76 -52q30 -33 47 -82h17q21 0 30 13q12 17 12 51v88h50zM479 259v182q0 97 -45 146q-44 49 -128 49q-83 0 -127 -49q-45 -49 -45 -146v-182q0 -98 45 -147
q43 -48 127 -48t128 48q45 49 45 147z" />
    <glyph glyph-name="ohorntilde" unicode="&#x1ee1;" horiz-adv-x="621" 
d="M213 613q-15 -6 -15 -18h-50q0 46 45 65q27 11 56.5 4t51.5 -29q25 -25 54 -14q15 7 15 18h50q0 -33 -25 -52t-56 -19q-41 0 -73 32q-25 24 -53 13zM591 518v-88q0 -50 -22 -81q-24 -33 -70 -33h-2v-125q0 -92 -58 -142q-57 -49 -155 -49q-99 0 -156 49q-58 50 -58 142
v136q0 92 58 142q57 49 156 49q98 0 155 -49q44 -40 55 -103h5q21 0 30 13q12 17 12 51v88h50zM433 191v136q0 63 -36 94q-37 33 -113 33t-114 -33q-36 -31 -36 -94v-136q0 -63 36 -94q38 -33 114 -33t113 33q36 31 36 94z" />
    <glyph glyph-name="Ohorndotbelow" unicode="&#x1ee2;" horiz-adv-x="677" 
d="M637 700v-88q0 -50 -22 -81q-24 -33 -70 -33h-6q4 -24 4 -57v-182q0 -120 -62 -190q-29 -33 -76 -52q-45 -17 -99 -17q-53 0 -99 17q-46 19 -76 52q-61 70 -61 190v182q0 120 61 189q32 35 76 52q45 18 99 18q56 0 99 -18q45 -17 76 -52q30 -33 47 -82h17q21 0 30 13
q12 17 12 51v88h50zM479 259v182q0 97 -45 146q-44 49 -128 49q-83 0 -127 -49q-45 -49 -45 -146v-182q0 -98 45 -147q43 -48 127 -48t128 48q45 49 45 147zM307 -50q15 0 25 -10t10 -25t-10 -25t-25 -10t-25 10t-10 25t10 25t25 10z" />
    <glyph glyph-name="ohorndotbelow" unicode="&#x1ee3;" horiz-adv-x="621" 
d="M591 518v-88q0 -50 -22 -81q-24 -33 -70 -33h-2v-125q0 -92 -58 -142q-57 -49 -155 -49q-99 0 -156 49q-58 50 -58 142v136q0 92 58 142q57 49 156 49q98 0 155 -49q44 -40 55 -103h5q21 0 30 13q12 17 12 51v88h50zM433 191v136q0 63 -36 94q-37 33 -113 33t-114 -33
q-36 -31 -36 -94v-136q0 -63 36 -94q38 -33 114 -33t113 33q36 31 36 94zM284 -50q15 0 25 -10t10 -25t-10 -25t-25 -10t-25 10t-10 25t10 25t25 10z" />
    <glyph glyph-name="Udotbelow" unicode="&#x1ee4;" horiz-adv-x="613" 
d="M543 700v-441q0 -120 -62 -190q-29 -33 -76 -52q-45 -17 -99 -17q-53 0 -99 17q-46 19 -76 52q-61 70 -61 190v441h64v-441q0 -98 45 -147q43 -48 127 -48t128 48q45 49 45 147v441h64zM307 -50q15 0 25 -10t10 -25t-10 -25t-25 -10t-25 10t-10 25t10 25t25 10z" />
    <glyph glyph-name="udotbelow" unicode="&#x1ee5;" horiz-adv-x="568" 
d="M498 0h-64v44q-56 -44 -150 -44q-98 0 -156 49q-58 50 -58 142v327h64v-327q0 -62 37 -94q37 -33 113 -33t113 33q37 32 37 94v327h64v-518zM284 -50q15 0 25 -10t10 -25t-10 -25t-25 -10t-25 10t-10 25t10 25t25 10z" />
    <glyph glyph-name="Uhookabove" unicode="&#x1ee6;" horiz-adv-x="613" 
d="M267 861v50q37 0 59 -22q21 -21 21 -59q0 -37 -21 -58q-22 -22 -59 -22v50q30 0 30 30q0 31 -30 31zM543 700v-441q0 -120 -62 -190q-29 -33 -76 -52q-45 -17 -99 -17q-53 0 -99 17q-46 19 -76 52q-61 70 -61 190v441h64v-441q0 -98 45 -147q43 -48 127 -48t128 48
q45 49 45 147v441h64z" />
    <glyph glyph-name="uhookabove" unicode="&#x1ee7;" horiz-adv-x="568" 
d="M244 679v50q37 0 59 -22q21 -21 21 -59q0 -37 -21 -58q-22 -22 -59 -22v50q30 0 30 30q0 31 -30 31zM498 0h-64v44q-56 -44 -150 -44q-98 0 -156 49q-58 50 -58 142v327h64v-327q0 -62 37 -94q37 -33 113 -33t113 33q37 32 37 94v327h64v-518z" />
    <glyph glyph-name="Uhornacute" unicode="&#x1ee8;" horiz-adv-x="679" 
d="M229 750l-22 45l177 88l23 -44zM669 700v-88q0 -50 -22 -81q-24 -33 -70 -33h-34v-239q0 -120 -62 -190q-29 -33 -76 -52q-45 -17 -99 -17q-53 0 -99 17q-46 19 -76 52q-61 70 -61 190v441h64v-441q0 -98 45 -147q43 -48 127 -48t128 48q45 49 45 147v441h64v-152h34
q21 0 30 13q12 17 12 51v88h50z" />
    <glyph glyph-name="uhornacute" unicode="&#x1ee9;" horiz-adv-x="634" 
d="M206 568l-22 45l177 88l23 -44zM624 518v-88q0 -50 -22 -81q-24 -33 -70 -33h-34v-316h-64v44q-56 -44 -150 -44q-98 0 -156 49q-58 50 -58 142v327h64v-327q0 -62 37 -94q37 -33 113 -33t113 33q37 32 37 94v327h64v-152h34q21 0 30 13q12 17 12 51v88h50z" />
    <glyph glyph-name="Uhorngrave" unicode="&#x1eea;" horiz-adv-x="679" 
d="M385 750l-178 89l23 44l177 -88zM669 700v-88q0 -50 -22 -81q-24 -33 -70 -33h-34v-239q0 -120 -62 -190q-29 -33 -76 -52q-45 -17 -99 -17q-53 0 -99 17q-46 19 -76 52q-61 70 -61 190v441h64v-441q0 -98 45 -147q43 -48 127 -48t128 48q45 49 45 147v441h64v-152h34
q21 0 30 13q12 17 12 51v88h50z" />
    <glyph glyph-name="uhorngrave" unicode="&#x1eeb;" horiz-adv-x="634" 
d="M362 568l-178 89l23 44l177 -88zM624 518v-88q0 -50 -22 -81q-24 -33 -70 -33h-34v-316h-64v44q-56 -44 -150 -44q-98 0 -156 49q-58 50 -58 142v327h64v-327q0 -62 37 -94q37 -33 113 -33t113 33q37 32 37 94v327h64v-152h34q21 0 30 13q12 17 12 51v88h50z" />
    <glyph glyph-name="Uhornhookabove" unicode="&#x1eec;" horiz-adv-x="679" 
d="M347 830q0 -37 -21 -58q-22 -22 -59 -22v50q30 0 30 30q0 31 -30 31v50q37 0 59 -22q21 -21 21 -59zM669 700v-88q0 -50 -22 -81q-24 -33 -70 -33h-34v-239q0 -120 -62 -190q-29 -33 -76 -52q-45 -17 -99 -17q-53 0 -99 17q-46 19 -76 52q-61 70 -61 190v441h64v-441
q0 -98 45 -147q43 -48 127 -48t128 48q45 49 45 147v441h64v-152h34q21 0 30 13q12 17 12 51v88h50z" />
    <glyph glyph-name="uhornhookabove" unicode="&#x1eed;" horiz-adv-x="634" 
d="M324 648q0 -37 -21 -58q-22 -22 -59 -22v50q30 0 30 30q0 31 -30 31v50q37 0 59 -22q21 -21 21 -59zM624 518v-88q0 -50 -22 -81q-24 -33 -70 -33h-34v-316h-64v44q-56 -44 -150 -44q-98 0 -156 49q-58 50 -58 142v327h64v-327q0 -62 37 -94q37 -33 113 -33t113 33
q37 32 37 94v327h64v-152h34q21 0 30 13q12 17 12 51v88h50z" />
    <glyph glyph-name="Uhorntilde" unicode="&#x1eee;" horiz-adv-x="679" 
d="M236 795q-15 -6 -15 -18h-50q0 46 45 65q27 11 56.5 4t51.5 -29q25 -25 54 -14q15 7 15 18h50q0 -33 -25 -52t-56 -19q-41 0 -73 32q-25 24 -53 13zM669 700v-88q0 -50 -22 -81q-24 -33 -70 -33h-34v-239q0 -120 -62 -190q-29 -33 -76 -52q-45 -17 -99 -17q-53 0 -99 17
q-46 19 -76 52q-61 70 -61 190v441h64v-441q0 -98 45 -147q43 -48 127 -48t128 48q45 49 45 147v441h64v-152h34q21 0 30 13q12 17 12 51v88h50z" />
    <glyph glyph-name="uhorntilde" unicode="&#x1eef;" horiz-adv-x="634" 
d="M213 613q-15 -6 -15 -18h-50q0 46 45 65q27 11 56.5 4t51.5 -29q25 -25 54 -14q15 7 15 18h50q0 -33 -25 -52t-56 -19q-41 0 -73 32q-25 24 -53 13zM624 518v-88q0 -50 -22 -81q-24 -33 -70 -33h-34v-316h-64v44q-56 -44 -150 -44q-98 0 -156 49q-58 50 -58 142v327h64
v-327q0 -62 37 -94q37 -33 113 -33t113 33q37 32 37 94v327h64v-152h34q21 0 30 13q12 17 12 51v88h50z" />
    <glyph glyph-name="Uhorndotbelow" unicode="&#x1ef0;" horiz-adv-x="679" 
d="M669 700v-88q0 -50 -22 -81q-24 -33 -70 -33h-34v-239q0 -120 -62 -190q-29 -33 -76 -52q-45 -17 -99 -17q-53 0 -99 17q-46 19 -76 52q-61 70 -61 190v441h64v-441q0 -98 45 -147q43 -48 127 -48t128 48q45 49 45 147v441h64v-152h34q21 0 30 13q12 17 12 51v88h50z
M307 -50q15 0 25 -10t10 -25t-10 -25t-25 -10t-25 10t-10 25t10 25t25 10z" />
    <glyph glyph-name="uhorndotbelow" unicode="&#x1ef1;" horiz-adv-x="634" 
d="M624 518v-88q0 -50 -22 -81q-24 -33 -70 -33h-34v-316h-64v44q-56 -44 -150 -44q-98 0 -156 49q-58 50 -58 142v327h64v-327q0 -62 37 -94q37 -33 113 -33t113 33q37 32 37 94v327h64v-152h34q21 0 30 13q12 17 12 51v88h50zM284 -50q15 0 25 -10t10 -25t-10 -25t-25 -10
t-25 10t-10 25t10 25t25 10z" />
    <glyph glyph-name="Ygrave" unicode="&#x1ef2;" horiz-adv-x="652" 
d="M426 795l-22 -45l-178 89l23 44zM358 251v-251h-64v251l-224 449h72l184 -369l185 369h71z" />
    <glyph glyph-name="ygrave" unicode="&#x1ef3;" 
d="M384 613l-22 -45l-178 89l23 44zM497 518v-509q0 -92 -58 -142q-57 -49 -155 -49h-12q-74 0 -124 27q-53 28 -76 84l60 24q13 -34 46 -52q38 -19 94 -19h12q76 0 113 33q36 32 36 94v35q-54 -44 -149 -44q-101 0 -156 49q-58 50 -58 142v327h64v-327q0 -63 36 -94
q38 -33 114 -33t113 33q36 31 36 94v327h64z" />
    <glyph glyph-name="Ydotbelow" unicode="&#x1ef4;" horiz-adv-x="652" 
d="M358 251v-251h-64v251l-224 449h72l184 -369l185 369h71zM326 -50q15 0 25 -10t10 -25t-10 -25t-25 -10t-25 10t-10 25t10 25t25 10z" />
    <glyph glyph-name="ydotbelow" unicode="&#x1ef5;" 
d="M497 518v-509q0 -92 -58 -142q-57 -49 -155 -49h-12q-74 0 -124 27q-53 28 -76 84l60 24q13 -34 46 -52q38 -19 94 -19h12q76 0 113 33q36 32 36 94v35q-54 -44 -149 -44q-101 0 -156 49q-58 50 -58 142v327h64v-327q0 -63 36 -94q38 -33 114 -33t113 33q36 31 36 94v327
h64zM284 -212q15 0 25 -10t10 -25t-10 -25t-25 -10t-25 10t-10 25t10 25t25 10z" />
    <glyph glyph-name="Yhookabove" unicode="&#x1ef6;" horiz-adv-x="652" 
d="M286 861v50q37 0 59 -22q21 -21 21 -59q0 -37 -21 -58q-22 -22 -59 -22v50q30 0 30 30q0 31 -30 31zM358 251v-251h-64v251l-224 449h72l184 -369l185 369h71z" />
    <glyph glyph-name="yhookabove" unicode="&#x1ef7;" 
d="M244 679v50q37 0 59 -22q21 -21 21 -59q0 -37 -21 -58q-22 -22 -59 -22v50q30 0 30 30q0 31 -30 31zM497 518v-509q0 -92 -58 -142q-57 -49 -155 -49h-12q-74 0 -124 27q-53 28 -76 84l60 24q13 -34 46 -52q38 -19 94 -19h12q76 0 113 33q36 32 36 94v35
q-54 -44 -149 -44q-101 0 -156 49q-58 50 -58 142v327h64v-327q0 -63 36 -94q38 -33 114 -33t113 33q36 31 36 94v327h64z" />
    <glyph glyph-name="Ytilde" unicode="&#x1ef8;" horiz-adv-x="652" 
d="M235 842q27 11 56.5 4t51.5 -29q25 -25 54 -14q15 7 15 18h50q0 -33 -25 -52t-56 -19q-41 0 -73 32q-25 24 -53 13q-15 -6 -15 -18h-50q0 46 45 65zM358 251v-251h-64v251l-224 449h72l184 -369l185 369h71z" />
    <glyph glyph-name="ytilde" unicode="&#x1ef9;" 
d="M193 660q27 11 56.5 4t51.5 -29q25 -25 54 -14q15 7 15 18h50q0 -33 -25 -52t-56 -19q-41 0 -73 32q-25 24 -53 13q-15 -6 -15 -18h-50q0 46 45 65zM497 518v-509q0 -92 -58 -142q-57 -49 -155 -49h-12q-74 0 -124 27q-53 28 -76 84l60 24q13 -34 46 -52q38 -19 94 -19
h12q76 0 113 33q36 32 36 94v35q-54 -44 -149 -44q-101 0 -156 49q-58 50 -58 142v327h64v-327q0 -63 36 -94q38 -33 114 -33t113 33q36 31 36 94v327h64z" />
    <glyph glyph-name="endash" unicode="&#x2013;" horiz-adv-x="594" 
d="M524 227h-454v64h454v-64z" />
    <glyph glyph-name="emdash" unicode="&#x2014;" horiz-adv-x="776" 
d="M706 227h-636v64h636v-64z" />
    <glyph glyph-name="quoteleft" unicode="&#x2018;" horiz-adv-x="291" 
d="M185 752l36 -52q-40 -27 -64 -78q-23 -52 -23 -123h-64q0 175 115 253z" />
    <glyph glyph-name="quoteright" unicode="&#x2019;" horiz-adv-x="291" 
d="M106 447l-36 52q40 27 64 78q23 52 23 123h64q0 -175 -115 -253z" />
    <glyph glyph-name="quotesinglbase" unicode="&#x201a;" horiz-adv-x="221" 
d="M87 64h64q0 -175 -115 -253l-36 53q43 29 64 77q23 54 23 123z" />
    <glyph glyph-name="quotedblleft" unicode="&#x201c;" horiz-adv-x="425" 
d="M185 752l36 -52q-40 -27 -64 -78q-23 -52 -23 -123h-64q0 175 115 253zM319 752l36 -52q-40 -27 -64 -78q-23 -52 -23 -123h-64q0 175 115 253z" />
    <glyph glyph-name="quotedblright" unicode="&#x201d;" horiz-adv-x="425" 
d="M106 447l-36 52q40 27 64 78q23 52 23 123h64q0 -175 -115 -253zM240 447l-36 52q40 27 64 78q23 52 23 123h64q0 -175 -115 -253z" />
    <glyph glyph-name="quotedblbase" unicode="&#x201e;" horiz-adv-x="355" 
d="M36 -189l-36 52q40 27 64 78q23 52 23 123h64q0 -175 -115 -253zM170 -189l-36 52q40 27 64 78q23 52 23 123h64q0 -175 -115 -253z" />
    <glyph glyph-name="dagger" unicode="&#x2020;" horiz-adv-x="549" 
d="M306 518h173v-64h-173v-649h-64v649h-172v64h172v195h64v-195z" />
    <glyph glyph-name="daggerdbl" unicode="&#x2021;" horiz-adv-x="549" 
d="M306 518h173v-64h-173v-390h173v-64h-173v-195h-64v195h-172v64h172v390h-172v64h172v195h64v-195z" />
    <glyph glyph-name="bullet" unicode="&#x2022;" horiz-adv-x="372" 
d="M186 466q49 0 82.5 -33.5t33.5 -82.5t-33.5 -82.5t-82.5 -33.5t-82.5 33.5t-33.5 82.5t33.5 82.5t82.5 33.5z" />
    <glyph glyph-name="ellipsis" unicode="&#x2026;" horiz-adv-x="532" 
d="M112 84q18 0 30 -12t12 -30t-12 -30t-30 -12t-30 12t-12 30t12 30t30 12zM266 84q18 0 30 -12t12 -30t-12 -30t-30 -12t-30 12t-12 30t12 30t30 12zM420 84q18 0 30 -12t12 -30t-12 -30t-30 -12t-30 12t-12 30t12 30t30 12z" />
    <glyph glyph-name="perthousand" unicode="&#x2030;" horiz-adv-x="1035" 
d="M193 700q58 0 92 -42q31 -39 31 -104q0 -64 -31 -104q-33 -41 -92 -41q-60 0 -92 41q-31 38 -31 104q0 67 31 104q33 42 92 42zM164 0h-79l500 700h79zM193 636q-29 0 -42 -18q-17 -20 -17 -64q0 -42 17 -64q13 -17 42 -17t42 17q17 22 17 64q0 44 -17 64q-13 18 -42 18z
M556 291q60 0 92 -41q31 -38 31 -104q0 -67 -31 -104q-33 -42 -92 -42t-92 42q-31 37 -31 104q0 66 31 104q32 41 92 41zM842 291q60 0 92 -41q31 -38 31 -104q0 -67 -31 -104q-33 -42 -92 -42t-92 42q-31 37 -31 104q0 66 31 104q32 41 92 41zM556 227q-29 0 -42 -17
q-17 -22 -17 -64q0 -44 17 -64q14 -18 42 -18t42 18q17 20 17 64q0 42 -17 64q-13 17 -42 17zM842 227q-29 0 -42 -17q-17 -22 -17 -64q0 -44 17 -64q14 -18 42 -18t42 18q17 20 17 64q0 42 -17 64q-13 17 -42 17z" />
    <glyph glyph-name="guilsinglleft" unicode="&#x2039;" horiz-adv-x="360" 
d="M154 259l136 -159h-84l-136 159l136 159h84z" />
    <glyph glyph-name="guilsinglright" unicode="&#x203a;" horiz-adv-x="360" 
d="M154 418l136 -159l-136 -159h-84l136 159l-136 159h84z" />
    <glyph glyph-name="fraction" unicode="&#x2044;" horiz-adv-x="719" 
d="M149 0h-79l500 700h79z" />
    <glyph glyph-name="Euro" unicode="&#x20ac;" horiz-adv-x="571" 
d="M501 700v-64q-138 0 -213 -73q-43 -45 -61 -113h274v-64h-284q-1 -12 -1 -36q0 -25 1 -36h284v-64h-274q18 -70 61 -113q75 -73 213 -73v-64q-80 0 -146 23q-65 22 -112 69q-44 44 -69 111q-5 15 -13 47h-91v64h83q-1 11 -1 36q0 24 1 36h-83v64h91q7 28 13 46
q24 65 69 112q47 45 112 69q66 23 146 23z" />
    <glyph glyph-name="trademark" unicode="&#x2122;" horiz-adv-x="830" 
d="M336 650h-108v-285h-50v285h-108v50h266v-50zM760 365h-50v204l-103 -204h-56l-102 204v-204h-50v335h41l139 -279l140 279h41v-335z" />
    <glyph glyph-name="oneeighth" unicode="&#x215b;" horiz-adv-x="786" 
d="M149 0h-79l500 700h79zM183 340h-50v360h50v-360zM603 360q51 0 82 -26q31 -28 31 -76q0 -49 -31 -77l-1 -1l1 -1q31 -28 31 -76q0 -49 -31 -77q-31 -26 -82 -26q-53 0 -82 26q-32 27 -32 77q0 49 32 76l1 1l-1 1q-32 27 -32 77q0 49 32 76q29 26 82 26zM603 310
q-33 0 -50 -14q-14 -12 -14 -38q0 -27 14 -39q17 -14 50 -14q32 0 49 14q14 12 14 39q0 26 -14 38q-17 14 -49 14zM603 155q-33 0 -50 -14q-14 -12 -14 -38q0 -27 14 -39q17 -14 50 -14q32 0 49 14q14 12 14 39q0 26 -14 38q-17 14 -49 14z" />
    <glyph glyph-name="threeeighths" unicode="&#x215c;" horiz-adv-x="853" 
d="M184 700q51 0 82 -26q31 -28 31 -76q0 -49 -31 -77l-1 -1l1 -1q31 -28 31 -76q0 -49 -31 -77q-31 -26 -82 -26q-54 0 -84 30t-30 84h50q0 -33 16 -48q15 -16 48 -16q32 0 49 14q14 12 14 39q0 26 -14 38q-17 14 -49 14h-23v50h23q32 0 49 14q14 12 14 39q0 26 -14 38
q-17 14 -49 14q-33 0 -48 -16q-16 -15 -16 -47h-50q0 53 30 83t84 30zM216 0h-79l500 700h79zM670 360q51 0 82 -26q31 -28 31 -76q0 -49 -31 -77l-1 -1l1 -1q31 -28 31 -76q0 -49 -31 -77q-31 -26 -82 -26q-53 0 -82 26q-32 27 -32 77q0 49 32 76l1 1l-1 1q-32 27 -32 77
q0 49 32 76q29 26 82 26zM670 310q-33 0 -50 -14q-14 -12 -14 -38q0 -27 14 -39q17 -14 50 -14q32 0 49 14q14 12 14 39q0 26 -14 38q-17 14 -49 14zM670 155q-33 0 -50 -14q-14 -12 -14 -38q0 -27 14 -39q17 -14 50 -14q32 0 49 14q14 12 14 39q0 26 -14 38q-17 14 -49 14z
" />
    <glyph glyph-name="fiveeighths" unicode="&#x215d;" horiz-adv-x="850" 
d="M272 650h-152v-83h67q50 0 80 -30t30 -83q0 -54 -30 -84t-83 -30q-54 0 -84 30t-30 84h50q0 -33 16 -48q15 -16 48 -16q32 0 48 16q15 15 15 48q0 32 -15 48q-16 15 -48 15h-114v183h202v-50zM213 0h-79l500 700h79zM667 360q51 0 82 -26q31 -28 31 -76q0 -49 -31 -77
l-1 -1l1 -1q31 -28 31 -76q0 -49 -31 -77q-31 -26 -82 -26q-53 0 -82 26q-32 27 -32 77q0 49 32 76l1 1l-1 1q-32 27 -32 77q0 49 32 76q29 26 82 26zM667 310q-33 0 -50 -14q-14 -12 -14 -38q0 -27 14 -39q17 -14 50 -14q32 0 49 14q14 12 14 39q0 26 -14 38q-17 14 -49 14
zM667 155q-33 0 -50 -14q-14 -12 -14 -38q0 -27 14 -39q17 -14 50 -14q32 0 49 14q14 12 14 39q0 26 -14 38q-17 14 -49 14z" />
    <glyph glyph-name="seveneighths" unicode="&#x215e;" horiz-adv-x="786" 
d="M149 0h-79l500 700h79zM311 640l-128 -300h-54l132 310h-161v50h211v-60zM603 360q51 0 82 -26q31 -28 31 -76q0 -49 -31 -77l-1 -1l1 -1q31 -28 31 -76q0 -49 -31 -77q-31 -26 -82 -26q-53 0 -82 26q-32 27 -32 77q0 49 32 76l1 1l-1 1q-32 27 -32 77q0 49 32 76
q29 26 82 26zM603 310q-33 0 -50 -14q-14 -12 -14 -38q0 -27 14 -39q17 -14 50 -14q32 0 49 14q14 12 14 39q0 26 -14 38q-17 14 -49 14zM603 155q-33 0 -50 -14q-14 -12 -14 -38q0 -27 14 -39q17 -14 50 -14q32 0 49 14q14 12 14 39q0 26 -14 38q-17 14 -49 14z" />
    <glyph glyph-name="arrowleft" unicode="&#x2190;" horiz-adv-x="818" 
d="M337 555l-153 -173h564v-64h-564l153 -172h-86l-181 204l181 205h86z" />
    <glyph glyph-name="arrowup" unicode="&#x2191;" horiz-adv-x="548" 
d="M478 508v-86l-172 153v-564h-64v564l-172 -153v86l204 181z" />
    <glyph glyph-name="arrowright" unicode="&#x2192;" horiz-adv-x="818" 
d="M748 350l-181 -204h-86l153 172h-564v64h564l-153 173h86z" />
    <glyph glyph-name="arrowdown" unicode="&#x2193;" horiz-adv-x="548" 
d="M70 192v86l172 -153v564h64v-564l172 153v-86l-204 -181z" />
    <glyph glyph-name="uni2194" unicode="&#x2194;" horiz-adv-x="861" 
d="M791 350l-181 -204h-86l153 172h-493l153 -172h-85l-182 204l182 205h85l-153 -173h493l-153 173h86z" />
    <glyph glyph-name="arrowupdn" unicode="&#x2195;" horiz-adv-x="549" 
d="M479 529v-86l-173 153v-493l173 153v-85l-205 -182l-204 182v85l172 -153v493l-172 -153v86l204 181z" />
    <glyph glyph-name="uni2196" unicode="&#x2196;" horiz-adv-x="649" 
d="M375 605v-64h-195l399 -400l-45 -45l-400 399v-195h-64v305h305z" />
    <glyph glyph-name="uni2197" unicode="&#x2197;" horiz-adv-x="649" 
d="M579 300h-64v195l-400 -399l-45 45l399 400h-195v64h305v-305z" />
    <glyph glyph-name="uni2198" unicode="&#x2198;" horiz-adv-x="649" 
d="M274 96v64h195l-399 400l45 45l400 -399v195h64v-305h-305z" />
    <glyph glyph-name="uni2199" unicode="&#x2199;" horiz-adv-x="649" 
d="M70 401h64v-195l400 399l45 -45l-399 -400h195v-64h-305v305z" />
    <glyph glyph-name="partialdiff" unicode="&#x2202;" horiz-adv-x="590" 
d="M106 636v64q89 0 165 -38q70 -35 119 -97q93 -117 93 -274q0 -119 -59 -200q-31 -44 -76 -66q-47 -25 -106 -25q-95 0 -152 68q-50 61 -50 146q0 84 50 145q56 68 152 68q107 0 166 -62l4 -4q-17 94 -72 164q-87 111 -234 111zM242 363q-66 0 -103 -45q-35 -43 -35 -104
q0 -62 35 -105q39 -45 103 -45h13q57 0 102 50q41 47 41 112q0 59 -36 95q-42 42 -120 42z" />
    <glyph glyph-name="emptyset" unicode="&#x2205;" horiz-adv-x="635" 
d="M565 552l-76 -75q42 -56 42 -127q0 -88 -63 -151q-62 -62 -151 -62q-71 0 -126 41l-76 -75l-45 45l75 76q-41 55 -41 126q0 89 62 151q63 63 151 63q71 0 127 -42l75 76zM212 456q-38 -37 -43.5 -90t22.5 -96l207 206q-40 29 -93.5 24t-92.5 -44zM443 431l-206 -207
q39 -27 94 -22t92 43q38 37 43 90t-23 96z" />
    <glyph glyph-name="product" unicode="&#x220f;" horiz-adv-x="658" 
d="M588 -211h-64v876h-390v-876h-64v940h518v-940z" />
    <glyph glyph-name="summation" unicode="&#x2211;" horiz-adv-x="594" 
d="M524 681h-397l253 -422l-253 -422h397v-64h-454v94l235 392l-235 392v94h454v-64z" />
    <glyph glyph-name="minus" unicode="&#x2212;" horiz-adv-x="594" 
d="M524 227h-454v64h454v-64z" />
    <glyph glyph-name="radical" unicode="&#x221a;" horiz-adv-x="810" 
d="M422 -195h-69l-168 422h-115v64h158l158 -395l286 817h68z" />
    <glyph glyph-name="infinity" unicode="&#x221e;" horiz-adv-x="749" 
d="M511 405q78 0 121 -37q47 -38 47 -108q0 -71 -47 -109q-43 -37 -121 -37t-122 37q-5 4 -15 14q-6 -8 -14 -14q-44 -37 -122 -37t-121 37q-47 38 -47 109q0 70 47 108q43 37 121 37t122 -37q8 -6 14 -14q10 10 15 14q44 37 122 37zM238 341q-53 0 -80 -22q-24 -19 -24 -59
t24 -60q27 -22 80 -22t81 22q23 19 23 60q0 40 -23 59q-28 22 -81 22zM511 341q-54 0 -81 -22q-24 -19 -24 -59t24 -60q27 -22 81 -22q53 0 80 22q24 20 24 60t-24 59q-27 22 -80 22z" />
    <glyph glyph-name="integral" unicode="&#x222b;" horiz-adv-x="412" 
d="M342 745v-64q-50 0 -75 -34q-29 -38 -29 -116v-544q0 -99 -42 -154q-45 -60 -126 -60v64q50 0 75 34q29 38 29 116v544q0 99 42 154q45 60 126 60z" />
    <glyph glyph-name="approxequal" unicode="&#x2248;" horiz-adv-x="613" 
d="M251 435q48 -14 81 -57q20 -27 49.5 -34.5t49.5 2.5q24 8 36 24.5t12 33.5h64q0 -41 -25 -73.5t-67 -45.5q-46 -15 -89 -2q-50 14 -81 57q-39 51 -99 32q-48 -16 -48 -59h-64q0 41 25 73.5t67 46.5q45 14 89 2zM251 235q48 -14 81 -57q20 -27 49.5 -34.5t49.5 2.5
q24 8 36 24.5t12 33.5h64q0 -41 -25 -73.5t-67 -45.5q-46 -15 -89 -2q-50 14 -81 57q-39 51 -99 32q-48 -16 -48 -59h-64q0 41 25 73.5t67 46.5q45 14 89 2z" />
    <glyph glyph-name="notequal" unicode="&#x2260;" horiz-adv-x="594" 
d="M448 540l-65 -158h141v-64h-168l-49 -118h217v-64h-243l-76 -183l-59 24l65 159h-141v64h168l49 118h-217v64h243l76 183z" />
    <glyph glyph-name="lessequal" unicode="&#x2264;" horiz-adv-x="513" 
d="M443 503l-263 -188l263 -187v-79l-373 266l373 267v-79zM443 -1v-64h-373v64h373z" />
    <glyph glyph-name="greaterequal" unicode="&#x2265;" horiz-adv-x="513" 
d="M443 315l-373 -266v79l263 187l-263 188v79zM443 -65h-373v64h373v-64z" />
    <glyph glyph-name="lozenge" unicode="&#x25ca;" horiz-adv-x="673" 
d="M603 350l-267 -373l-266 373l266 373zM149 350l187 -263l188 263l-188 263z" />
    <glyph glyph-name="i.loclTRK" horiz-adv-x="224" 
d="M112 700q18 0 30 -12t12 -30t-12 -30t-30 -12t-30 12t-12 30t12 30t30 12zM144 0h-64v518h64v-518z" />
    <glyph glyph-name="zero.dnom" horiz-adv-x="367" 
d="M183 360q53 0 83.5 -36t30.5 -100v-88q0 -64 -30.5 -100t-83.5 -36t-83 36t-30 100v88q0 64 30 100t83 36zM183 310q-30 0 -46 -19q-17 -23 -17 -67v-88q0 -44 17 -67q16 -19 46 -19q31 0 46 19q18 22 18 67v88q0 44 -18 67q-15 19 -46 19z" />
    <glyph glyph-name="one.dnom" horiz-adv-x="190" 
d="M120 0h-50v360h50v-360z" />
    <glyph glyph-name="two.dnom" horiz-adv-x="367" 
d="M184 360q53 0 83 -30t30 -83q0 -54 -30 -84t-83 -30q-31 0 -47 -19q-17 -22 -17 -64h177v-50h-227v47q0 64 30 100t84 36q32 0 48 16q15 15 15 48q0 32 -15 47q-16 16 -48 16q-33 0 -48 -16q-16 -15 -16 -47h-50q0 53 30 83t84 30z" />
    <glyph glyph-name="three.dnom" horiz-adv-x="367" 
d="M184 360q51 0 82 -26q31 -28 31 -76q0 -49 -31 -77l-1 -1l1 -1q31 -28 31 -76q0 -49 -31 -77q-31 -26 -82 -26q-54 0 -84 30t-30 84h50q0 -33 16 -48q15 -16 48 -16q32 0 49 14q14 12 14 39q0 26 -14 38q-17 14 -49 14h-23v50h23q32 0 49 14q14 12 14 39q0 26 -14 38
q-17 14 -49 14q-33 0 -48 -16q-16 -15 -16 -47h-50q0 53 30 83t84 30z" />
    <glyph glyph-name="four.dnom" horiz-adv-x="353" 
d="M120 116h113v67h50v-183h-50v66h-163v61l106 233h55z" />
    <glyph glyph-name="five.dnom" horiz-adv-x="367" 
d="M272 310h-152v-83h67q50 0 80 -30t30 -83q0 -54 -30 -84t-83 -30q-54 0 -84 30t-30 84h50q0 -33 16 -48q15 -16 48 -16q32 0 48 16q15 15 15 48q0 32 -15 48q-16 15 -48 15h-114v183h202v-50z" />
    <glyph glyph-name="six.dnom" horiz-adv-x="367" 
d="M272 310h-88q-31 0 -47 -19q-17 -23 -17 -67v-12q27 15 64 15q53 0 83 -30t30 -83q0 -54 -30 -84t-83 -30q-54 0 -84 36t-30 100v88q0 64 30 100t84 36h88v-50zM184 177q-33 0 -48 -15q-13 -13 -16 -39q3 -34 17 -54q16 -19 47 -19q32 0 48 16q15 15 15 48q0 32 -15 48
q-16 15 -48 15z" />
    <glyph glyph-name="seven.dnom" horiz-adv-x="351" 
d="M281 300l-128 -300h-54l132 310h-161v50h211v-60z" />
    <glyph glyph-name="eight.dnom" horiz-adv-x="367" 
d="M184 360q51 0 82 -26q31 -28 31 -76q0 -49 -31 -77l-1 -1l1 -1q31 -28 31 -76q0 -49 -31 -77q-31 -26 -82 -26q-53 0 -82 26q-32 27 -32 77q0 49 32 76l1 1l-1 1q-32 27 -32 77q0 49 32 76q29 26 82 26zM184 310q-33 0 -50 -14q-14 -12 -14 -38q0 -27 14 -39
q17 -14 50 -14q32 0 49 14q14 12 14 39q0 26 -14 38q-17 14 -49 14zM184 155q-33 0 -50 -14q-14 -12 -14 -38q0 -27 14 -39q17 -14 50 -14q32 0 49 14q14 12 14 39q0 26 -14 38q-17 14 -49 14z" />
    <glyph glyph-name="nine.dnom" horiz-adv-x="367" 
d="M184 360q53 0 83 -36t30 -100v-88q0 -64 -30 -100t-83 -36h-89v50h89q30 0 46 19q17 23 17 67v12q-25 -15 -63 -15q-54 0 -84 30t-30 84q0 53 30 83t84 30zM184 310q-33 0 -48 -16q-16 -15 -16 -47q0 -33 16 -48q15 -16 48 -16q32 0 48 16q12 12 15 38q-3 35 -17 54
q-16 19 -46 19z" />
    <glyph glyph-name="zero.numr" horiz-adv-x="367" 
d="M183 700q53 0 83.5 -36t30.5 -100v-88q0 -64 -30.5 -100t-83.5 -36t-83 36t-30 100v88q0 64 30 100t83 36zM183 650q-30 0 -46 -19q-17 -23 -17 -67v-88q0 -44 17 -67q16 -19 46 -19q31 0 46 19q18 23 18 67v88q0 44 -18 67q-15 19 -46 19z" />
    <glyph glyph-name="one.numr" horiz-adv-x="190" 
d="M120 340h-50v360h50v-360z" />
    <glyph glyph-name="two.numr" horiz-adv-x="367" 
d="M184 700q53 0 83 -30t30 -83q0 -54 -30 -84t-83 -30q-31 0 -47 -19q-17 -22 -17 -64h177v-50h-227v47q0 64 30 100t84 36q32 0 48 16q15 15 15 48q0 32 -15 47q-16 16 -48 16q-33 0 -48 -16q-16 -15 -16 -47h-50q0 53 30 83t84 30z" />
    <glyph glyph-name="three.numr" horiz-adv-x="367" 
d="M184 700q51 0 82 -26q31 -28 31 -76q0 -49 -31 -77l-1 -1l1 -1q31 -28 31 -76q0 -49 -31 -77q-31 -26 -82 -26q-54 0 -84 30t-30 84h50q0 -33 16 -48q15 -16 48 -16q32 0 49 14q14 12 14 39q0 26 -14 38q-17 14 -49 14h-23v50h23q32 0 49 14q14 12 14 39q0 26 -14 38
q-17 14 -49 14q-33 0 -48 -16q-16 -15 -16 -47h-50q0 53 30 83t84 30z" />
    <glyph glyph-name="four.numr" horiz-adv-x="353" 
d="M120 456h113v67h50v-183h-50v66h-163v61l106 233h55z" />
    <glyph glyph-name="five.numr" horiz-adv-x="367" 
d="M272 650h-152v-83h67q50 0 80 -30t30 -83q0 -54 -30 -84t-83 -30q-54 0 -84 30t-30 84h50q0 -33 16 -48q15 -16 48 -16q32 0 48 16q15 15 15 48q0 32 -15 48q-16 15 -48 15h-114v183h202v-50z" />
    <glyph glyph-name="six.numr" horiz-adv-x="367" 
d="M272 650h-88q-31 0 -47 -19q-17 -23 -17 -67v-12q27 15 64 15q53 0 83 -30t30 -83q0 -54 -30 -84t-83 -30q-54 0 -84 36t-30 100v88q0 64 30 100t84 36h88v-50zM184 517q-33 0 -48 -15q-13 -13 -16 -39q3 -34 17 -54q16 -19 47 -19q32 0 48 16q15 15 15 48q0 32 -15 48
q-16 15 -48 15z" />
    <glyph glyph-name="seven.numr" horiz-adv-x="351" 
d="M281 640l-128 -300h-54l132 310h-161v50h211v-60z" />
    <glyph glyph-name="eight.numr" horiz-adv-x="367" 
d="M184 700q51 0 82 -26q31 -28 31 -76q0 -49 -31 -77l-1 -1l1 -1q31 -28 31 -76q0 -49 -31 -77q-31 -26 -82 -26q-53 0 -82 26q-32 27 -32 77q0 49 32 76l1 1l-1 1q-32 27 -32 77q0 49 32 76q29 26 82 26zM184 650q-33 0 -50 -14q-14 -12 -14 -38q0 -27 14 -39
q17 -14 50 -14q32 0 49 14q14 12 14 39q0 26 -14 38q-17 14 -49 14zM184 495q-33 0 -50 -14q-14 -12 -14 -38q0 -27 14 -39q17 -14 50 -14q32 0 49 14q14 12 14 39q0 26 -14 38q-17 14 -49 14z" />
    <glyph glyph-name="nine.numr" horiz-adv-x="367" 
d="M184 700q53 0 83 -36t30 -100v-88q0 -64 -30 -100t-83 -36h-89v50h89q30 0 46 19q17 23 17 67v12q-25 -15 -63 -15q-54 0 -84 30t-30 84q0 53 30 83t84 30zM184 650q-33 0 -48 -16q-16 -15 -16 -47q0 -33 16 -48q15 -16 48 -16q32 0 48 16q12 12 15 38q-3 35 -17 54
q-16 19 -46 19z" />
    <glyph glyph-name="caronaccent" horiz-adv-x="50" 
d="M50 478h-50v222h50v-222z" />
    <glyph glyph-name="lowerslashaccent" horiz-adv-x="436" 
d="M436 464l-399 -443l-37 34l399 443z" />
    <glyph glyph-name="upperslashaccent" horiz-adv-x="484" 
d="M484 646l-443 -620l-41 29l443 620z" />
    <glyph glyph-name="slashaccent" horiz-adv-x="288" 
d="M288 394l-266 -133l-22 45l266 133z" />
    <glyph glyph-name="baraccent" horiz-adv-x="288" 
d="M288 325h-288v50h288v-50z" />
    <glyph glyph-name="longbaraccent" horiz-adv-x="576" 
d="M576 325h-576v50h576v-50z" />
    <glyph glyph-name="breveacuteaccent" horiz-adv-x="265" 
d="M265 953l-178 -89l-22 45l177 88zM177 864h50q0 -54 -30 -84t-83 -30q-54 0 -84 30t-30 84h50q0 -33 16 -48q15 -16 48 -16q32 0 48 16q15 15 15 48z" />
    <glyph glyph-name="brevegraveaccent" horiz-adv-x="265" 
d="M200 909l-22 -45l-178 89l23 44zM215 864h50q0 -54 -30 -84t-83 -30q-54 0 -84 30t-30 84h50q0 -33 16 -48q15 -16 48 -16q32 0 48 16q15 15 15 48z" />
    <glyph glyph-name="brevehookaccent" horiz-adv-x="227" 
d="M94 975v50q37 0 59 -22q21 -21 21 -59q0 -37 -21 -58q-22 -22 -59 -22v50q30 0 30 30q0 31 -30 31zM177 864h50q0 -54 -30 -84t-83 -30q-54 0 -84 30t-30 84h50q0 -33 16 -48q15 -16 48 -16q32 0 48 16q15 15 15 48z" />
    <glyph glyph-name="brevetildeaccent" horiz-adv-x="272" 
d="M45 976q27 11 56.5 4t51.5 -29q25 -25 54 -14q15 7 15 18h50q0 -33 -25 -52t-56 -19q-41 0 -73 32q-25 24 -53 13q-15 -6 -15 -18h-50q0 46 45 65zM200 864h50q0 -54 -30 -84t-83 -30q-54 0 -84 30t-30 84h50q0 -33 16 -48q15 -16 48 -16q32 0 48 16q15 15 15 48z" />
    <glyph glyph-name="circumflexacuteaccent" horiz-adv-x="253" 
d="M228 979l-178 -89l-22 45l177 88zM126 826l-95 -76l-31 39l126 101l127 -101l-31 -39z" />
    <glyph glyph-name="circumflexgraveaccent" horiz-adv-x="253" 
d="M227 935l-22 -45l-178 89l23 44zM126 826l-95 -76l-31 39l126 101l127 -101l-31 -39z" />
    <glyph glyph-name="circumflexhookaccent" horiz-adv-x="253" 
d="M126 1021v50q37 0 59 -22q21 -21 21 -59q0 -37 -21 -58q-22 -22 -59 -22v50q30 0 30 30q0 31 -30 31zM126 826l-95 -76l-31 39l126 101l127 -101l-31 -39z" />
    <glyph glyph-name="circumflextildeaccent" horiz-adv-x="272" 
d="M45 992q27 11 56.5 4t51.5 -29q25 -25 54 -14q15 7 15 18h50q0 -33 -25 -52t-56 -19q-41 0 -73 32q-25 24 -53 13q-15 -6 -15 -18h-50q0 46 45 65zM135 826l-95 -76l-31 39l126 101l127 -101l-31 -39z" />
    <glyph glyph-name="dieresisacuteaccent" horiz-adv-x="200" 
d="M200 929l-178 -89l-22 45l177 88zM45 820q15 0 25 -10t10 -25t-10 -25t-25 -10t-25 10t-10 25t10 25t25 10zM155 820q15 0 25 -10t10 -25t-10 -25t-25 -10t-25 10t-10 25t10 25t25 10z" />
    <glyph glyph-name="dieresisgraveaccent" horiz-adv-x="200" 
d="M200 885l-22 -45l-178 89l23 44zM45 820q15 0 25 -10t10 -25t-10 -25t-25 -10t-25 10t-10 25t10 25t25 10zM155 820q15 0 25 -10t10 -25t-10 -25t-25 -10t-25 10t-10 25t10 25t25 10z" />
    <glyph glyph-name="dieresiscaronaccent" horiz-adv-x="253" 
d="M253 931l-127 -101l-126 101l31 39l95 -76l96 76zM72 820q15 0 25 -10t10 -25t-10 -25t-25 -10t-25 10t-10 25t10 25t25 10zM182 820q15 0 25 -10t10 -25t-10 -25t-25 -10t-25 10t-10 25t10 25t25 10z" />
    <glyph glyph-name="dieresismacronaccent" horiz-adv-x="180" 
d="M179 850h-177v50h177v-50zM35 820q15 0 25 -10t10 -25t-10 -25t-25 -10t-25 10t-10 25t10 25t25 10zM145 820q15 0 25 -10t10 -25t-10 -25t-25 -10t-25 10t-10 25t10 25t25 10z" />
    </font>
</defs>
</svg>
