<?xml version="1.0" standalone="no"?>
<!DOCTYPE svg PUBLIC "-//W3C//DTD SVG 1.1//EN" "http://www.w3.org/Graphics/SVG/1.1/DTD/svg11.dtd" >
<svg>
<metadata>
Created by FontForge 20090622 at Fri Apr 19 18:14:27 2019
 By deploy user
Copyright &#194;&#169; 2017 by Stefano Giliberti (brumale). All rights reserved.
</metadata>
<defs>
<font id="Anodina-Bold" horiz-adv-x="581" >
  <font-face 
    font-family="Anodina Bold"
    font-weight="700"
    font-stretch="normal"
    units-per-em="1000"
    panose-1="0 0 8 0 0 0 0 0 0 0"
    ascent="800"
    descent="-200"
    x-height="528"
    cap-height="700"
    bbox="-18 -292 995 1071"
    underline-thickness="50"
    underline-position="-50"
    unicode-range="U+0020-U+25CA"
  />
<missing-glyph horiz-adv-x="500" 
d="M0 0v700h500v-700h-500zM250 395l170 255h-340zM280 350l170 -255v510zM80 50h340l-170 255zM50 605v-510l170 255z" />
    <glyph glyph-name=".notdef" horiz-adv-x="500" 
d="M0 0v700h500v-700h-500zM250 395l170 255h-340zM280 350l170 -255v510zM80 50h340l-170 255zM50 605v-510l170 255z" />
    <glyph glyph-name=".null" horiz-adv-x="0" 
 />
    <glyph glyph-name="nonmarkingreturn" horiz-adv-x="333" 
 />
    <glyph glyph-name="space" unicode=" " horiz-adv-x="260" 
 />
    <glyph glyph-name="exclam" unicode="!" horiz-adv-x="256" 
d="M176 221h-96v479h96v-479zM128 116q24 0 41 -17t17 -41t-17 -41t-41 -17t-41 17t-17 41t17 41t41 17z" />
    <glyph glyph-name="quotedbl" unicode="&#x22;" horiz-adv-x="402" 
d="M166 484h-96v216h96v-216zM332 484h-96v216h96v-216z" />
    <glyph glyph-name="numbersign" unicode="#" horiz-adv-x="701" 
d="M506 506h125v-96h-125v-120h125v-96h-125v-194h-96v194h-119v-194h-96v194h-125v96h125v120h-125v96h125v194h96v-194h119v194h96v-194zM291 410v-120h119v120h-119z" />
    <glyph glyph-name="dollar" unicode="$" horiz-adv-x="584" 
d="M341 786v-86q62 -9 103 -40q61 -47 70 -131l-96 -10q-7 68 -77 84v-208q67 -11 111 -48q62 -54 62 -150q0 -95 -62 -149q-44 -38 -111 -48v-86h-96v86q-64 9 -105 40q-61 47 -70 131l96 10q7 -69 79 -84v208q-70 11 -113 48q-62 54 -62 150t62 149q45 39 113 48v86h96z
M245 403v199q-31 -6 -50 -22q-29 -26 -29 -77q0 -53 29 -77q19 -17 50 -23zM341 297v-199q29 6 48 23q29 24 29 76q0 53 -29 77q-16 15 -48 23z" />
    <glyph glyph-name="percent" unicode="%" horiz-adv-x="758" 
d="M188 0h-118l500 700h118zM206 700q65 0 102 -46q33 -41 33 -110q0 -68 -33 -110q-37 -46 -102 -46q-64 0 -101 46q-33 42 -33 110q0 69 33 110q37 46 101 46zM206 604q-18 0 -26 -10q-12 -14 -12 -50q0 -35 12 -50q10 -10 26 -10q17 0 27 10q12 17 12 50q0 35 -12 50
q-8 10 -27 10zM552 312q64 0 101 -46q33 -42 33 -110q0 -70 -33 -110q-37 -46 -101 -46q-65 0 -102 46q-33 40 -33 110q0 68 33 110q37 46 102 46zM552 216q-17 0 -27 -10q-12 -15 -12 -50q0 -36 12 -50q8 -10 27 -10q18 0 26 10q12 14 12 50q0 35 -12 50q-10 10 -26 10z
" />
    <glyph glyph-name="ampersand" unicode="&#x26;" horiz-adv-x="704" 
d="M318 700q79 0 125 -57q45 -53 30 -129q-13 -71 -75 -118q-7 -6 -31 -20l132 -148q30 62 30 122h96q0 -102 -57 -197q46 -52 66 -72l-70 -66q-1 2 -8 9.5l-21.5 23l-27.5 29.5q-83 -77 -189 -77q-61 0 -116 26t-90 72q-29 38 -38 83q-9 49 4 96q16 60 75 101q28 19 59 33
q-40 54 -51 106q-12 51 10 97q22 42 65 66q38 20 82 20zM318 604q-44 0 -61 -33q-19 -37 34 -105l12 -15q67 32 76 81q6 32 -10 50q-17 22 -51 22zM276 334q-47 -21 -68 -35q-29 -19 -38 -48q-14 -51 19 -95q20 -27 53 -43q37 -17 76 -17q70 0 124 52z" />
    <glyph glyph-name="quotesingle" unicode="'" horiz-adv-x="236" 
d="M166 484h-96v216h96v-216z" />
    <glyph glyph-name="parenleft" unicode="(" horiz-adv-x="311" 
d="M187 779l54 -79q-75 -52 -75 -176v-345q0 -124 75 -176l-54 -80q-117 80 -117 256v345q0 175 117 255z" />
    <glyph glyph-name="parenright" unicode=")" horiz-adv-x="311" 
d="M70 700l54 79q117 -80 117 -255v-345q0 -176 -117 -256l-54 80q75 52 75 176v345q0 124 -75 176z" />
    <glyph glyph-name="asterisk" unicode="*" horiz-adv-x="396" 
d="M223 610l78 45l25 -43l-78 -45l78 -45l-25 -43l-78 45v-90h-50v90l-78 -45l-25 43l78 45l-78 45l25 43l78 -45v90h50v-90z" />
    <glyph glyph-name="plus" unicode="+" horiz-adv-x="572" 
d="M334 312h168v-96h-168v-168h-96v168h-168v96h168v168h96v-168z" />
    <glyph glyph-name="comma" unicode="," horiz-adv-x="241" 
d="M75 96h96q0 -176 -117 -255l-54 79q75 51 75 176z" />
    <glyph glyph-name="hyphen" unicode="-" horiz-adv-x="442" 
d="M372 216h-302v96h302v-96z" />
    <glyph glyph-name="period" unicode="." horiz-adv-x="256" 
d="M128 116q24 0 41 -17t17 -41t-17 -41t-41 -17t-41 17t-17 41t17 41t41 17z" />
    <glyph glyph-name="slash" unicode="/" horiz-adv-x="455" 
d="M385 781l-216 -863h-99l216 863h99z" />
    <glyph glyph-name="zero" unicode="0" 
d="M290 700q104 0 164 -66q57 -64 57 -176v-216q0 -112 -57 -176q-60 -66 -164 -66t-164 66q-56 65 -56 176v216q0 111 56 176q60 66 164 66zM290 604q-62 0 -92 -34q-32 -37 -32 -112v-216q0 -75 32 -112q31 -34 92 -34t92 34q33 38 33 112v216q0 74 -33 112q-30 34 -92 34
z" />
    <glyph glyph-name="one" unicode="1" horiz-adv-x="395" 
d="M325 0h-96v536l-91 -90l-68 67l187 187h68v-700z" />
    <glyph glyph-name="two" unicode="2" 
d="M284 700h7q101 0 159 -51q61 -53 61 -148q0 -48 -14 -90q-15 -42 -45 -72q-31 -31 -72 -44q-39 -15 -89 -15q-62 0 -92 -34q-33 -36 -33 -112v-38h345v-96h-441v134q0 113 57 176q57 66 164 66q61 0 94 31q30 31 30 94q0 51 -28 76q-31 27 -96 27h-7q-51 0 -80 -23
q-28 -23 -39 -69l-94 21q18 80 73.5 123.5t139.5 43.5z" />
    <glyph glyph-name="three" unicode="3" horiz-adv-x="574" 
d="M283 700q102 0 159 -51q62 -54 62 -148t-62 -148l-3 -3l3 -3q62 -54 62 -148t-62 -148q-57 -51 -159 -51q-84 0 -139.5 43.5t-73.5 123.5l94 21q10 -46 39 -69t80 -23q66 0 96 27q29 26 29 76t-29 76q-30 27 -96 27h-43v96h43q66 0 96 27q29 26 29 76t-29 76
q-30 27 -96 27q-51 0 -80 -23t-39 -69l-94 21q18 80 73.5 123.5t139.5 43.5z" />
    <glyph glyph-name="four" unicode="4" horiz-adv-x="555" 
d="M166 225h223v130h96v-355h-96v129h-319v117l206 454h106z" />
    <glyph glyph-name="five" unicode="5" 
d="M463 604h-297v-163h107q109 -2 172 -57q66 -58 66 -163q0 -48 -14 -90q-15 -42 -45 -72q-28 -29 -72 -45q-40 -14 -89 -14h-7q-84 0 -139.5 43.5t-73.5 123.5l94 21q11 -46 39 -69q29 -23 80 -23h7q63 0 94 31q30 30 30 94q0 61 -34 92q-37 32 -112 32h-199v355h393v-96z
" />
    <glyph glyph-name="six" unicode="6" 
d="M291 700h6q84 0 140 -44t73 -123l-94 -21q-9 45 -39 69q-29 23 -80 23h-6q-62 0 -92 -34q-33 -36 -33 -112v-47q20 11 35 16q42 14 90 14q49 0 89 -14q44 -16 72 -45q29 -28 45 -72q14 -40 14 -89q0 -48 -14 -90q-15 -42 -45 -72q-28 -29 -72 -45q-40 -14 -89 -14
q-106 0 -164 66q-57 64 -57 176v216q0 112 57 176q58 66 164 66zM291 345q-64 0 -94 -30q-28 -28 -31 -84q3 -68 33 -101q31 -34 92 -34q63 0 94 31q30 30 30 94q0 63 -30 94q-32 30 -94 30z" />
    <glyph glyph-name="seven" unicode="7" horiz-adv-x="530" 
d="M460 584l-250 -584h-105l259 604h-294v96h390v-116z" />
    <glyph glyph-name="eight" unicode="8" 
d="M291 700q101 0 159 -51q61 -53 61 -148t-61 -148l-3 -3l3 -3q61 -53 61 -148t-61 -148q-58 -51 -159 -51t-160 51q-61 53 -61 148t61 148l3 3l-3 3q-61 53 -61 148t61 148q59 51 160 51zM291 604q-65 0 -97 -27q-28 -26 -28 -76t28 -76q31 -27 97 -27q65 0 96 27
q28 25 28 76t-28 76q-31 27 -96 27zM291 302q-65 0 -97 -27q-28 -26 -28 -76t28 -76q31 -27 97 -27q65 0 96 27q28 25 28 76t-28 76q-31 27 -96 27z" />
    <glyph glyph-name="nine" unicode="9" 
d="M290 700q106 0 164 -66q57 -64 57 -176v-216q0 -112 -57 -176q-58 -66 -164 -66h-6q-84 0 -140 44t-73 123l94 21q9 -45 39 -69q29 -23 80 -23h6q62 0 92 34q33 36 33 112v47q-20 -11 -35 -16q-42 -14 -90 -14q-49 0 -89 14q-44 16 -72 45q-29 28 -45 72q-14 40 -14 89
q0 48 14 90q15 42 45 72q28 29 72 45q40 14 89 14zM290 604q-63 0 -94 -31q-30 -30 -30 -94q0 -63 30 -94q32 -30 94 -30q64 0 94 30q28 28 31 84q-3 68 -33 101q-31 34 -92 34z" />
    <glyph glyph-name="colon" unicode=":" horiz-adv-x="256" 
d="M128 408q24 0 41 -17t17 -41t-17 -41t-41 -17t-41 17t-17 41t17 41t41 17zM128 116q24 0 41 -17t17 -41t-17 -41t-41 -17t-41 17t-17 41t17 41t41 17z" />
    <glyph glyph-name="semicolon" unicode=";" horiz-adv-x="251" 
d="M123 408q24 0 41 -17t17 -41t-17 -41t-41 -17t-41 17t-17 41t17 41t41 17zM75 96h96q0 -176 -117 -255l-54 79q75 51 75 176z" />
    <glyph glyph-name="less" unicode="&#x3c;" horiz-adv-x="525" 
d="M455 421l-219 -157l219 -157v-118l-385 275l385 274v-117z" />
    <glyph glyph-name="equal" unicode="=" horiz-adv-x="571" 
d="M501 302h-431v96h431v-96zM501 129h-431v96h431v-96z" />
    <glyph glyph-name="greater" unicode="&#x3e;" horiz-adv-x="525" 
d="M455 264l-385 -275v118l219 157l-219 157v117z" />
    <glyph glyph-name="question" unicode="?" horiz-adv-x="538" 
d="M269 700q85 0 142 -57t57 -142q0 -65 -33 -118q-13 -21 -62 -70q-32 -29 -44 -47t-12 -45h-96q0 38 15.5 72.5t29.5 49.5t41 41q34 30 47 51q18 28 18 66q0 45 -29 74t-74 29q-103 0 -103 -103h-96q0 93 53 146t146 53zM269 116q24 0 41 -17t17 -41t-17 -41t-41 -17
t-41 17t-17 41t17 41t41 17z" />
    <glyph glyph-name="at" unicode="@" horiz-adv-x="1056" 
d="M528 808q94 0 175 -27q83 -27 146 -82q137 -119 137 -327q0 -125 -52 -201q-54 -78 -134 -78q-78 0 -130 73q-8 12 -11 18q-53 -55 -142 -55q-48 0 -90 14q-42 15 -72 45q-29 31 -44 72q-14 38 -14 90t14 90q15 41 44 72q33 32 72 44q41 15 90 15q58 0 103 -25v25h96
v-221q0 -81 32 -129q24 -32 52 -32q30 0 55 36q35 53 35 147q0 84 -29 151q-26 61 -75 104q-48 42 -114 63q-69 22 -144 22q-150 0 -256 -106q-106 -108 -106 -256q0 -150 106 -256t256 -106q84 0 162 38l43 -86q-96 -48 -205 -48q-94 0 -178 36q-82 35 -146 98
q-64 64 -98 146q-36 84 -36 178t36 178q35 82 98 146q64 64 146 98q84 36 178 36zM517 475q-61 0 -94 -31q-30 -32 -30 -94q0 -64 30 -94q33 -31 94 -31q50 0 76 29q27 30 27 96t-27 96q-26 29 -76 29z" />
    <glyph glyph-name="A" unicode="A" horiz-adv-x="708" 
d="M638 0h-102l-46 129h-271l-47 -129h-102l250 700h68zM253 225h203l-102 284z" />
    <glyph glyph-name="B" unicode="B" horiz-adv-x="624" 
d="M70 700h264q102 0 159 -51q61 -53 61 -148t-61 -148l-3 -3l3 -3q61 -53 61 -148t-61 -148q-57 -51 -159 -51h-264v700zM166 604v-206h168q66 0 96 27q28 25 28 76t-28 76q-30 27 -96 27h-168zM166 302v-206h168q66 0 96 27q28 25 28 76t-28 76q-30 27 -96 27h-168z" />
    <glyph glyph-name="C" unicode="C" horiz-adv-x="611" 
d="M312 700q88 0 146 -42q60 -42 83 -122l-92 -27q-27 95 -137 95q-72 0 -108 -40q-38 -43 -38 -128v-172q0 -85 38 -128q36 -40 108 -40q110 0 137 95l92 -27q-23 -78 -83 -122q-58 -42 -146 -42q-115 0 -179 72q-63 69 -63 192v172q0 123 63 192q64 72 179 72z" />
    <glyph glyph-name="D" unicode="D" horiz-adv-x="624" 
d="M70 700h242q114 0 180 -72q62 -70 62 -192v-172q0 -122 -62 -192q-66 -72 -180 -72h-242v700zM166 604v-508h146q72 0 108 40q38 41 38 128v172q0 87 -38 128q-36 40 -108 40h-146z" />
    <glyph glyph-name="E" unicode="E" horiz-adv-x="555" 
d="M485 604h-319v-206h319v-96h-319v-206h319v-96h-415v700h415v-96z" />
    <glyph glyph-name="F" unicode="F" horiz-adv-x="555" 
d="M485 604h-319v-206h319v-96h-319v-302h-96v700h415v-96z" />
    <glyph glyph-name="G" unicode="G" horiz-adv-x="624" 
d="M312 700h11q87 0 146 -42q60 -42 83 -122l-92 -27q-27 95 -137 95h-11q-72 0 -108 -40q-38 -43 -38 -128v-172q0 -85 38 -128q36 -40 108 -40t108 40q38 41 38 128v38h-146v96h242v-134q0 -122 -62 -192q-66 -72 -180 -72q-115 0 -179 72q-63 69 -63 192v172
q0 123 63 192q64 72 179 72z" />
    <glyph glyph-name="H" unicode="H" horiz-adv-x="624" 
d="M554 0h-96v302h-292v-302h-96v700h96v-302h292v302h96v-700z" />
    <glyph glyph-name="I" unicode="I" horiz-adv-x="236" 
d="M166 0h-96v700h96v-700z" />
    <glyph glyph-name="J" unicode="J" horiz-adv-x="361" 
d="M291 700v-436q0 -120 -56 -190q-59 -74 -165 -74v96q61 0 90 38q35 43 35 130v436h96z" />
    <glyph glyph-name="K" unicode="K" horiz-adv-x="652" 
d="M350 400l232 -400h-111l-184 318l-121 -157v-161h-96v700h96v-382l295 382h121z" />
    <glyph glyph-name="L" unicode="L" horiz-adv-x="555" 
d="M166 96h319v-96h-415v700h96v-604z" />
    <glyph glyph-name="M" unicode="M" horiz-adv-x="797" 
d="M727 0h-96v435l-202 -435h-61l-202 435v-435h-96v700h79l249 -538l250 538h79v-700z" />
    <glyph glyph-name="N" unicode="N" horiz-adv-x="624" 
d="M554 0h-74l-314 489v-489h-96v700h74l314 -489v489h96v-700z" />
    <glyph glyph-name="O" unicode="O" horiz-adv-x="624" 
d="M312 700q114 0 180 -72q62 -70 62 -192v-172q0 -122 -62 -192q-66 -72 -180 -72q-115 0 -179 72q-63 69 -63 192v172q0 123 63 192q64 72 179 72zM312 604q-72 0 -108 -40q-38 -43 -38 -128v-172q0 -85 38 -128q36 -40 108 -40t108 40q38 41 38 128v172q0 87 -38 128
q-36 40 -108 40z" />
    <glyph glyph-name="P" unicode="P" horiz-adv-x="624" 
d="M70 700h242q112 0 175 -57q67 -58 67 -164q0 -89 -51 -148q-13 -13 -16 -15q-63 -57 -175 -57h-146v-259h-96v700zM166 604v-249h146q75 0 112 32q8 8 11 13q23 31 23 79q0 61 -34 92q-36 33 -112 33h-146z" />
    <glyph glyph-name="Q" unicode="Q" horiz-adv-x="624" 
d="M312 700q114 0 180 -72q62 -70 62 -192v-173q0 -122 -62 -192q-25 -28 -61 -45l102 -68l-53 -80l-183 122q-105 5 -164 71q-63 69 -63 192v173q0 123 63 192q64 72 179 72zM312 604q-71 0 -108 -40q-38 -43 -38 -128v-173q0 -85 38 -128q37 -40 108 -40t108 40
q38 43 38 128v173q0 85 -38 128q-37 40 -108 40z" />
    <glyph glyph-name="R" unicode="R" horiz-adv-x="624" 
d="M70 700h242q112 0 176 -57q66 -58 66 -164q0 -105 -66 -163q-49 -45 -130 -54l196 -262h-120l-194 259h-74v-259h-96v700zM166 604v-249h146q75 0 112 32q34 31 34 92q0 62 -34 92q-36 33 -112 33h-146z" />
    <glyph glyph-name="S" unicode="S" horiz-adv-x="624" 
d="M312 700h11q87 0 146 -42q60 -42 83 -122l-92 -27q-27 95 -137 95h-11q-77 0 -114 -29q-32 -25 -32 -74t32 -74q37 -29 114 -29q109 0 173 -49q69 -53 69 -150q0 -98 -69 -150q-64 -49 -173 -49h-11q-88 0 -146 42q-60 44 -83 122l92 27q27 -95 137 -95h11q77 0 115 29
q31 25 31 74t-31 74q-38 29 -115 29q-109 0 -173 49q-69 54 -69 150t69 150q62 49 173 49z" />
    <glyph glyph-name="T" unicode="T" horiz-adv-x="550" 
d="M480 604h-157v-604h-96v604h-157v96h410v-96z" />
    <glyph glyph-name="U" unicode="U" horiz-adv-x="625" 
d="M555 700v-436q0 -121 -63 -192q-64 -72 -180 -72q-115 0 -179 72q-63 69 -63 192v436h96v-436q0 -85 38 -128q36 -40 108 -40q73 0 109 40q38 43 38 128v436h96z" />
    <glyph glyph-name="V" unicode="V" horiz-adv-x="660" 
d="M365 0h-70l-225 700h101l159 -495l159 495h101z" />
    <glyph glyph-name="W" unicode="W" horiz-adv-x="1048" 
d="M753 0h-70l-159 495l-159 -495h-70l-225 700h101l159 -495l159 495h70l159 -495l160 495h100z" />
    <glyph glyph-name="X" unicode="X" horiz-adv-x="677" 
d="M395 350l212 -350h-112l-156 258l-157 -258h-112l213 350l-213 350h112l157 -258l156 258h112z" />
    <glyph glyph-name="Y" unicode="Y" horiz-adv-x="684" 
d="M390 252v-252h-96v252l-224 448h107l165 -329l164 329h108z" />
    <glyph glyph-name="Z" unicode="Z" horiz-adv-x="572" 
d="M502 570l-339 -474h339v-96h-432v131l338 473h-338v96h432v-130z" />
    <glyph glyph-name="bracketleft" unicode="[" horiz-adv-x="318" 
d="M248 700h-82v-681h82v-96h-178v873h178v-96z" />
    <glyph glyph-name="backslash" unicode="\" horiz-adv-x="455" 
d="M385 -82h-99l-216 863h99z" />
    <glyph glyph-name="bracketright" unicode="]" horiz-adv-x="318" 
d="M248 796v-873h-178v96h82v681h-82v96h178z" />
    <glyph glyph-name="asciicircum" unicode="^" horiz-adv-x="681" 
d="M611 312h-110l-161 289l-161 -289h-109l215 388h110z" />
    <glyph glyph-name="underscore" unicode="_" horiz-adv-x="571" 
d="M501 -146h-431v96h431v-96z" />
    <glyph glyph-name="grave" unicode="`" horiz-adv-x="200" 
d="M200 795l-22 -45l-178 89l23 44z" />
    <glyph glyph-name="a" unicode="a" horiz-adv-x="582" 
d="M290 528h1q101 0 159 -52q62 -54 62 -148v-328h-96v27q-51 -27 -125 -27h-22q-89 0 -139 37q-30 21 -45 52q-15 30 -15 67t15 67q15 31 45 52q52 37 139 37h147v16q0 52 -29 76q-31 28 -96 28h-1q-116 0 -124 -87l-95 10q8 83 69 129q58 44 150 44zM416 216h-147
q-56 0 -84 -19q-19 -17 -19 -41q0 -27 19 -41q27 -19 84 -19h22q66 0 96 27q29 26 29 76v17z" />
    <glyph glyph-name="b" unicode="b" 
d="M166 700v-200q53 28 125 28q99 0 159 -52q61 -53 61 -148v-129q0 -95 -61 -148q-58 -51 -159 -51q-74 0 -125 27v-27h-96v700h96zM291 432q-64 0 -97 -28q-28 -25 -28 -76v-129q0 -50 28 -76q31 -27 97 -27q65 0 96 27q28 25 28 76v129q0 52 -28 76q-33 28 -96 28z" />
    <glyph glyph-name="c" unicode="c" horiz-adv-x="566" 
d="M291 528q76 0 129 -30.5t76 -86.5l-89 -36q-23 57 -116 57q-64 0 -97 -28q-28 -25 -28 -76v-129q0 -50 28 -76q31 -27 97 -27q93 0 116 56l89 -36q-22 -56 -75 -86t-130 -30q-101 0 -160 51q-61 53 -61 148v129q0 95 61 148q60 52 160 52z" />
    <glyph glyph-name="d" unicode="d" 
d="M511 0h-96v27q-51 -27 -125 -27q-100 0 -159 51q-61 53 -61 148v129q0 95 61 148q60 52 159 52q72 0 125 -28v200h96v-700zM290 432q-63 0 -96 -28q-28 -24 -28 -76v-129q0 -51 28 -76q31 -27 96 -27q66 0 97 27q28 26 28 76v129q0 51 -28 76q-33 28 -97 28z" />
    <glyph glyph-name="e" unicode="e" 
d="M291 528q99 0 159 -52q61 -53 61 -148v-112h-345v-17q0 -50 28 -76q31 -27 97 -27h11q94 0 117 56l89 -36q-24 -58 -80 -88q-50 -28 -126 -28h-11q-101 0 -160 51q-61 53 -61 148v129q0 95 61 148q60 52 160 52zM291 432q-64 0 -97 -28q-28 -25 -28 -76v-16h249v16
q0 52 -28 76q-33 28 -96 28z" />
    <glyph glyph-name="f" unicode="f" horiz-adv-x="420" 
d="M350 604h-43q-45 0 -65 -17q-16 -12 -16 -43v-16h124v-96h-124v-432h-96v432h-60v96h60v16q0 75 51 117q47 39 126 39h43v-96z" />
    <glyph glyph-name="g" unicode="g" 
d="M511 528v-502q0 -95 -61 -148q-58 -51 -160 -51h-11q-77 0 -130.5 30t-75.5 86l89 36q23 -56 117 -56h11q66 0 97 27q28 25 28 76v1q-51 -27 -125 -27q-102 0 -159 51q-61 53 -61 148v129q0 96 61 149q59 51 159 51q75 0 125 -28v28h96zM290 432q-65 0 -96 -28
q-28 -24 -28 -76v-129q0 -52 28 -76q30 -27 96 -27t97 27q28 24 28 76v129q0 52 -28 76q-33 28 -97 28z" />
    <glyph glyph-name="h" unicode="h" 
d="M166 700v-199q51 27 124 27q102 0 160 -51q61 -53 61 -148v-329h-96v329q0 50 -28 76q-31 27 -97 27t-96 -27q-28 -25 -28 -76v-329h-96v700h96z" />
    <glyph glyph-name="i" unicode="i" horiz-adv-x="256" 
d="M128 700q24 0 41 -17t17 -41q0 -23 -17 -40.5t-41 -17.5q-23 0 -40.5 17.5t-17.5 40.5q0 24 17.5 41t40.5 17zM176 0h-96v528h96v-528z" />
    <glyph glyph-name="j" unicode="j" horiz-adv-x="279" 
d="M151 700q24 0 41 -17t17 -41q0 -23 -17 -40.5t-41 -17.5q-23 0 -40.5 17.5t-17.5 40.5q0 24 17.5 41t40.5 17zM199 528v-481q0 -101 -51 -159q-53 -61 -148 -61v96q51 0 75 28q28 31 28 96v481h96z" />
    <glyph glyph-name="k" unicode="k" horiz-adv-x="575" 
d="M166 301l208 227h131l-216 -235l216 -293h-119l-163 221l-57 -62v-159h-96v700h96v-399z" />
    <glyph glyph-name="l" unicode="l" horiz-adv-x="296" 
d="M166 700v-501q0 -58 19 -84q13 -19 41 -19v-96q-37 0 -67 15q-30 14 -52 44q-37 52 -37 140v501h96z" />
    <glyph glyph-name="m" unicode="m" horiz-adv-x="926" 
d="M636 528q101 0 159 -52q61 -53 61 -148v-328h-96v328q0 52 -28 76q-31 28 -96 28t-96 -28q-29 -24 -29 -76v-328h-96v328q0 52 -28 76q-33 28 -96 28q-64 0 -97 -28q-28 -25 -28 -76v-328h-96v528h96v-28q53 28 125 28q99 0 159 -52q5 -4 13 -12l13 12q60 52 160 52z" />
    <glyph glyph-name="n" unicode="n" 
d="M291 528q99 0 159 -52q61 -53 61 -148v-328h-96v328q0 52 -28 76q-33 28 -96 28q-64 0 -97 -28q-28 -25 -28 -76v-328h-96v528h96v-28q53 28 125 28z" />
    <glyph glyph-name="o" unicode="o" 
d="M291 528q99 0 159 -52q61 -53 61 -148v-129q0 -95 -61 -148q-58 -51 -159 -51t-160 51q-61 53 -61 148v129q0 95 61 148q60 52 160 52zM291 432q-64 0 -97 -28q-28 -25 -28 -76v-129q0 -50 28 -76q31 -27 97 -27q65 0 96 27q28 25 28 76v129q0 52 -28 76q-33 28 -96 28z
" />
    <glyph glyph-name="p" unicode="p" horiz-adv-x="582" 
d="M291 528q102 0 160 -51q61 -53 61 -148v-130q0 -95 -61 -148q-58 -51 -160 -51q-74 0 -125 27v-200h-96v701h96v-27q51 27 125 27zM291 432q-66 0 -96 -27q-29 -26 -29 -76v-130q0 -50 29 -76q32 -27 96 -27t96 27q29 26 29 76v130q0 50 -29 76q-30 27 -96 27z" />
    <glyph glyph-name="q" unicode="q" horiz-adv-x="582" 
d="M512 -173h-96v200q-51 -27 -125 -27q-101 0 -160 51q-61 53 -61 148v130q0 95 61 148q59 51 160 51q74 0 125 -27v27h96v-701zM291 432q-66 0 -96 -27q-29 -26 -29 -76v-130q0 -50 29 -76q32 -27 96 -27t96 27q29 26 29 76v130q0 50 -29 76q-30 27 -96 27z" />
    <glyph glyph-name="r" unicode="r" horiz-adv-x="404" 
d="M334 432h-43q-65 0 -97 -27q-28 -26 -28 -76v-329h-96v528h96v-27q51 27 125 27h43v-96z" />
    <glyph glyph-name="s" unicode="s" 
d="M291 528h11q73 0 126 -28q55 -30 80 -89l-89 -36q-23 57 -117 57h-11q-70 0 -103 -21q-22 -15 -22 -39q0 -25 22 -40q33 -20 103 -20q96 0 153 -36q67 -42 67 -120q0 -79 -67 -121q-58 -35 -153 -35h-12q-74 0 -126 28q-56 30 -80 88l90 36q23 -56 116 -56h12
q69 0 102 21q22 12 22 39q0 25 -22 39q-31 21 -102 21q-96 0 -154 35q-67 42 -67 121q0 78 67 120q57 36 154 36z" />
    <glyph glyph-name="t" unicode="t" horiz-adv-x="420" 
d="M226 528h124v-96h-124v-233q0 -51 28 -76q32 -27 96 -27v-96q-100 0 -159 51q-61 53 -61 148v233h-60v96h60v172h96v-172z" />
    <glyph glyph-name="u" unicode="u" horiz-adv-x="582" 
d="M512 0h-96v27q-51 -27 -125 -27q-102 0 -159 51q-62 54 -62 148v329h96v-329q0 -50 29 -76q30 -27 96 -27t96 27q29 26 29 76v329h96v-528z" />
    <glyph glyph-name="v" unicode="v" horiz-adv-x="627" 
d="M346 0h-65l-211 528h103l141 -351l140 351h103z" />
    <glyph glyph-name="w" unicode="w" horiz-adv-x="972" 
d="M691 0h-65l-140 351l-140 -351h-65l-211 528h103l141 -351l140 351h65l140 -351l140 351h103z" />
    <glyph glyph-name="x" unicode="x" horiz-adv-x="627" 
d="M372 264l185 -264h-117l-127 180l-126 -180h-117l185 264l-185 264h117l126 -180l127 180h117z" />
    <glyph glyph-name="y" unicode="y" horiz-adv-x="582" 
d="M512 528v-502q0 -95 -61 -148q-58 -51 -160 -51h-11q-73 0 -127 28q-56 31 -79 89l89 36q23 -57 117 -57h11q65 0 96 28q29 24 29 75v1q-51 -27 -125 -27q-101 0 -160 51q-61 53 -61 148v329h96v-329q0 -50 29 -76q30 -27 96 -27t96 27q29 26 29 76v329h96z" />
    <glyph glyph-name="z" unicode="z" horiz-adv-x="528" 
d="M458 408l-280 -312h280v-96h-388v120l281 312h-281v96h388v-120z" />
    <glyph glyph-name="braceleft" unicode="{" horiz-adv-x="313" 
d="M243 796v-96q-17 0 -24 -12q-15 -20 -15 -69v-130q0 -77 -30 -122q-4 -6 -5 -7q4 -6 5 -7q30 -47 30 -123v-129q0 -50 15 -70q7 -12 24 -12v-96q-68 0 -104 55q-31 46 -31 123v129q0 47 -14 69q-8 13 -24 13v96q15 0 24 12q14 22 14 69v130q0 78 31 122q36 55 104 55z
" />
    <glyph glyph-name="bar" unicode="|" horiz-adv-x="236" 
d="M166 -169h-96v865h96v-865z" />
    <glyph glyph-name="braceright" unicode="}" horiz-adv-x="313" 
d="M70 700v96q68 0 104 -55q31 -44 31 -122v-130q0 -47 14 -69q9 -12 24 -12v-96q-16 0 -24 -13q-14 -22 -14 -69v-129q0 -77 -31 -123q-36 -55 -104 -55v96q17 0 24 12q15 20 15 70v129q0 76 30 123q1 1 5 7q-1 1 -5 7q-30 45 -30 122v130q0 49 -15 69q-7 12 -24 12z" />
    <glyph glyph-name="asciitilde" unicode="~" horiz-adv-x="624" 
d="M264 353q53 -16 87 -60q29 -39 74 -25q33 12 33 39h96q0 -44 -27 -79.5t-72 -50.5q-49 -14 -95 -2q-54 16 -86 60q-30 40 -74 25q-34 -12 -34 -39h-96q0 44 27 79.5t72 50.5q48 16 95 2z" />
    <glyph glyph-name="exclamdown" unicode="&#xa1;" horiz-adv-x="256" 
d="M128 412q-24 0 -41 17t-17 41t17 41t41 17t41 -17t17 -41t-17 -41t-41 -17zM80 -172v479h96v-479h-96z" />
    <glyph glyph-name="cent" unicode="&#xa2;" horiz-adv-x="567" 
d="M342 615v-87q112 -18 155 -112l-88 -40q-12 28 -39 43q-29 17 -76 17q-64 0 -96 -32t-32 -96v-88q0 -64 32 -96q31 -31 96 -31q48 0 76 16q27 15 39 43l88 -39q-43 -95 -155 -113v-87h-96v87q-28 6 -43 11q-44 16 -73 45t-45 73q-15 40 -15 91v88q0 50 15 91q16 44 45 73
t73 45q24 8 43 11v87h96z" />
    <glyph glyph-name="sterling" unicode="&#xa3;" horiz-adv-x="620" 
d="M350 700q72 0 123.5 -29.5t76.5 -85.5l-87 -39q-11 26 -38 42q-28 16 -75 16q-63 0 -93 -31q-31 -30 -31 -93q0 -26 13 -82h198v-96h-178q5 -32 5 -62q2 -72 -19 -144h278v-96h-416l26 66q37 89 35 173q0 23 -6 63h-92v96h71q-11 42 -11 82q0 49 14 89q16 44 45 72
q28 29 72 45q40 14 89 14z" />
    <glyph glyph-name="currency" unicode="&#xa4;" horiz-adv-x="574" 
d="M504 499l-62 -62q22 -41 22 -87t-22 -87l62 -62l-68 -68l-62 62q-40 -23 -87 -23t-87 23l-62 -62l-68 68l62 62q-22 41 -22 87t22 87l-62 62l68 68l62 -62q40 23 86.5 23t87.5 -23l62 62zM229 408q-23 -24 -23 -58t23 -58q24 -23 58 -23t58 23q23 24 23 58t-23 58
q-24 22 -58 22t-58 -22z" />
    <glyph glyph-name="yen" unicode="&#xa5;" horiz-adv-x="684" 
d="M419 312h106v-96h-135v-34h135v-96h-135v-86h-96v86h-136v96h136v34h-136v96h106l-194 388h107l165 -329l164 329h108z" />
    <glyph glyph-name="brokenbar" unicode="&#xa6;" horiz-adv-x="236" 
d="M166 351h-96v345h96v-345zM166 -167h-96v345h96v-345z" />
    <glyph glyph-name="section" unicode="&#xa7;" 
d="M291 743q92 0 150 -43q61 -46 69 -129l-95 -10q-8 86 -124 86q-66 0 -96 -27q-29 -26 -29 -76t29 -76q30 -27 96 -27q101 0 158 -51q62 -54 62 -148q0 -75 -43 -130q43 -51 43 -129q0 -94 -62 -148q-57 -51 -159 -51q-92 0 -150 43q-61 46 -69 129l95 10q8 -86 124 -86
q66 0 96 27q29 26 29 76t-29 76q-30 27 -96 27q-101 0 -158 51q-62 54 -62 148q0 75 43 130q-43 51 -43 129q0 94 62 148q57 51 159 51zM194 360q-28 -26 -28 -75q0 -50 29 -76q30 -27 96 -27q54 0 96 -15q28 26 28 75q0 50 -29 76q-30 27 -96 27q-54 0 -96 15z" />
    <glyph glyph-name="dieresis" unicode="&#xa8;" horiz-adv-x="180" 
d="M35 820q14 0 24.5 -10.5t10.5 -24.5t-10.5 -24.5t-24.5 -10.5t-24.5 10.5t-10.5 24.5t10.5 24.5t24.5 10.5zM145 820q14 0 24.5 -10.5t10.5 -24.5t-10.5 -24.5t-24.5 -10.5t-24.5 10.5t-10.5 24.5t10.5 24.5t24.5 10.5z" />
    <glyph glyph-name="copyright" unicode="&#xa9;" horiz-adv-x="840" 
d="M420 700q72 0 136 -27q62 -27 112 -75q48 -50 75 -112q27 -65 27 -136q0 -72 -27 -136q-27 -63 -75 -111q-50 -50 -112 -75q-63 -28 -136 -28t-136 28q-63 26 -111 75q-49 48 -75 111q-28 63 -28 136t28 136q25 62 75 112q48 48 111 75q65 27 136 27zM420 604
q-106 0 -180 -74t-74 -180t74 -180t180 -74t180 74t74 180t-74 180t-180 74zM429 505q41 0 77 -21t56 -57l-43 -25q-30 53 -90 53q-43 0 -74 -30.5t-31 -74.5q0 -43 30.5 -73.5t74.5 -30.5q28 0 52.5 14t37.5 38l43 -25q-20 -36 -56 -56.5t-77 -20.5q-64 0 -109.5 45
t-45.5 109t45.5 109.5t109.5 45.5z" />
    <glyph glyph-name="guillemotleft" unicode="&#xab;" horiz-adv-x="623" 
d="M196 264l130 -151h-127l-129 151l129 151h127zM423 264l130 -151h-127l-129 151l129 151h127z" />
    <glyph glyph-name="logicalnot" unicode="&#xac;" horiz-adv-x="620" 
d="M550 132h-96v168h-384v96h480v-264z" />
    <glyph glyph-name="registered" unicode="&#xae;" horiz-adv-x="840" 
d="M420 700q72 0 136 -27q62 -27 112 -75q48 -50 75 -112q27 -65 27 -136q0 -72 -27 -136q-27 -63 -75 -111q-50 -50 -112 -75q-63 -28 -136 -28t-136 28q-63 26 -111 75q-49 48 -75 111q-28 63 -28 136t28 136q25 62 75 112q48 48 111 75q65 27 136 27zM420 604
q-106 0 -180 -74t-74 -180t74 -180t180 -74t180 74t74 180t-74 180t-180 74zM330 505h112q37 0 63 -26.5t26 -63.5q0 -32 -20 -56.5t-51 -31.5l71 -106h-60l-69 104h-22v-104h-50v284zM380 455v-80h62q16 0 27.5 11.5t11.5 28.5t-11.5 28.5t-27.5 11.5h-62z" />
    <glyph glyph-name="macron" unicode="&#xaf;" horiz-adv-x="177" 
d="M177 750h-177v50h177v-50z" />
    <glyph glyph-name="degree" unicode="&#xb0;" horiz-adv-x="452" 
d="M226 700q64 0 110 -46t46 -110t-46 -110t-110 -46t-110 46t-46 110t46 110t110 46zM226 604q-25 0 -42.5 -17.5t-17.5 -42.5t17.5 -42.5t42.5 -17.5t42.5 17.5t17.5 42.5t-17.5 42.5t-42.5 17.5z" />
    <glyph glyph-name="plusminus" unicode="&#xb1;" horiz-adv-x="572" 
d="M334 385h168v-96h-168v-168h-96v168h-168v96h168v168h96v-168zM502 -25h-432v96h432v-96z" />
    <glyph glyph-name="acute" unicode="&#xb4;" horiz-adv-x="200" 
d="M200 839l-178 -89l-22 45l177 88z" />
    <glyph glyph-name="paragraph" unicode="&#xb6;" 
d="M360 -169h-96v476q-80 0 -137 57t-57 137t57 137t137 57h96v-864zM511 -169h-96v864h96v-864z" />
    <glyph glyph-name="periodcentered" unicode="&#xb7;" horiz-adv-x="256" 
d="M128 408q24 0 41 -17t17 -41t-17 -41t-41 -17t-41 17t-17 41t17 41t41 17z" />
    <glyph glyph-name="cedilla" unicode="&#xb8;" horiz-adv-x="146" 
d="M78 0l-14 -57q38 -3 60 -27.5t22 -64.5q0 -42 -24.5 -66.5t-67.5 -24.5h-44v50h44q22 0 32 10t10 31q0 20 -10 32q-10 10 -32 10h-54l30 120z" />
    <glyph glyph-name="guillemotright" unicode="&#xbb;" horiz-adv-x="623" 
d="M197 415l129 -151l-129 -151h-127l130 151l-130 151h127zM424 415l129 -151l-129 -151h-127l130 151l-130 151h127z" />
    <glyph glyph-name="onequarter" unicode="&#xbc;" horiz-adv-x="758" 
d="M188 0h-118l500 700h118zM183 340h-50v360h50v-360zM519 116h113v67h50v-183h-50v66h-163v61l106 233h55z" />
    <glyph glyph-name="onehalf" unicode="&#xbd;" horiz-adv-x="823" 
d="M188 0h-118l500 700h118zM183 340h-50v360h50v-360zM640 360q53 0 83 -30t30 -83q0 -54 -30 -84t-83 -30q-31 0 -47 -19q-17 -22 -17 -64h177v-50h-227v47q0 64 30 100t84 36q32 0 48 16q15 15 15 48q0 32 -15 47q-16 16 -48 16q-33 0 -48 -16q-16 -15 -16 -47h-50
q0 53 30 83t84 30z" />
    <glyph glyph-name="threequarters" unicode="&#xbe;" horiz-adv-x="825" 
d="M184 700q51 0 82 -26q31 -28 31 -76q0 -49 -31 -77l-1 -1l1 -1q31 -28 31 -76q0 -49 -31 -77q-31 -26 -82 -26q-54 0 -84 30t-30 84h50q0 -33 16 -48q15 -16 48 -16q32 0 49 14q14 12 14 39q0 26 -14 38q-17 14 -49 14h-23v50h23q32 0 49 14q14 12 14 39q0 26 -14 38
q-17 14 -49 14q-33 0 -48 -16q-16 -15 -16 -47h-50q0 53 30 83t84 30zM255 0h-118l500 700h118zM586 116h113v67h50v-183h-50v66h-163v61l106 233h55z" />
    <glyph glyph-name="questiondown" unicode="&#xbf;" horiz-adv-x="538" 
d="M269 412q-24 0 -41 17t-17 41t17 41t41 17t41 -17t17 -41t-17 -41t-41 -17zM269 -172q-85 0 -142 57t-57 142q0 65 33 118q13 21 62 70q32 29 44 47t12 45h96q0 -38 -15.5 -72.5t-29.5 -49.5t-41 -41q-34 -30 -47 -51q-18 -29 -18 -66q0 -45 29 -74t74 -29q103 0 103 103
h96q0 -93 -53 -146t-146 -53z" />
    <glyph glyph-name="Agrave" unicode="&#xc0;" horiz-adv-x="708" 
d="M454 795l-22 -45l-178 89l23 44zM638 0h-102l-46 129h-271l-47 -129h-102l250 700h68zM253 225h203l-102 284z" />
    <glyph glyph-name="Aacute" unicode="&#xc1;" horiz-adv-x="708" 
d="M454 839l-178 -89l-22 45l177 88zM638 0h-102l-46 129h-271l-47 -129h-102l250 700h68zM253 225h203l-102 284z" />
    <glyph glyph-name="Acircumflex" unicode="&#xc2;" horiz-adv-x="708" 
d="M354 826l-95 -76l-31 39l126 101l127 -101l-31 -39zM638 0h-102l-46 129h-271l-47 -129h-102l250 700h68zM253 225h203l-102 284z" />
    <glyph glyph-name="Atilde" unicode="&#xc3;" horiz-adv-x="708" 
d="M263 842q27 11 56.5 4t51.5 -29q25 -25 54 -14q15 7 15 18h50q0 -46 -46 -64q-23 -12 -53.5 -5.5t-54.5 30.5q-25 24 -53 13q-15 -6 -15 -18h-50q0 46 45 65zM638 0h-102l-46 129h-271l-47 -129h-102l250 700h68zM253 225h203l-102 284z" />
    <glyph glyph-name="Adieresis" unicode="&#xc4;" horiz-adv-x="708" 
d="M299 820q14 0 24.5 -10.5t10.5 -24.5t-10.5 -24.5t-24.5 -10.5t-24.5 10.5t-10.5 24.5t10.5 24.5t24.5 10.5zM409 820q14 0 24.5 -10.5t10.5 -24.5t-10.5 -24.5t-24.5 -10.5t-24.5 10.5t-10.5 24.5t10.5 24.5t24.5 10.5zM638 0h-102l-46 129h-271l-47 -129h-102l250 700
h68zM253 225h203l-102 284z" />
    <glyph glyph-name="Aring" unicode="&#xc5;" horiz-adv-x="708" 
d="M354 933q43 0 67.5 -24.5t24.5 -67.5q0 -42 -24.5 -66.5t-67.5 -24.5q-42 0 -66.5 24.5t-24.5 66.5q0 43 24.5 67.5t66.5 24.5zM354 883q-22 0 -31 -10q-10 -10 -10 -32t10 -31q9 -10 31 -10t32 10q10 9 10 31t-10 32t-32 10zM638 0h-102l-46 129h-271l-47 -129h-102
l250 700h68zM253 225h203l-102 284z" />
    <glyph glyph-name="AE" unicode="&#xc6;" horiz-adv-x="946" 
d="M876 604h-318v-206h318v-96h-318v-206h318v-96h-414v129h-282l-11 -84l-3 -45h-96l3 51l1 9q1 9 2 21.5t4 31.5l6.5 40t9 47l11.5 52t15 56t19 58q49 140 127 224q102 110 242 110h366v-96zM462 225v374q-70 -15 -123 -74q-63 -66 -108 -191q-15 -42 -32 -109h263z" />
    <glyph glyph-name="Ccedilla" unicode="&#xc7;" horiz-adv-x="611" 
d="M312 96q110 0 137 95l92 -27q-23 -78 -83 -122q-58 -42 -146 -42h-1l-14 -56q38 -3 60 -27.5t22 -64.5q0 -42 -24.5 -66.5t-67.5 -24.5h-44v50h44q22 0 32 10t10 31q0 20 -10 32q-10 10 -32 10h-54l28 110q-80 14 -128 68q-63 69 -63 192v172q0 123 63 192q64 72 179 72
q88 0 146 -42q60 -42 83 -122l-92 -27q-27 95 -137 95q-72 0 -108 -40q-38 -43 -38 -128v-172q0 -85 38 -128q36 -40 108 -40z" />
    <glyph glyph-name="Egrave" unicode="&#xc8;" horiz-adv-x="555" 
d="M378 795l-22 -45l-178 89l23 44zM485 604h-319v-206h319v-96h-319v-206h319v-96h-415v700h415v-96z" />
    <glyph glyph-name="Eacute" unicode="&#xc9;" horiz-adv-x="555" 
d="M378 839l-178 -89l-22 45l177 88zM485 604h-319v-206h319v-96h-319v-206h319v-96h-415v700h415v-96z" />
    <glyph glyph-name="Ecircumflex" unicode="&#xca;" horiz-adv-x="555" 
d="M277 826l-95 -76l-31 39l126 101l127 -101l-31 -39zM485 604h-319v-206h319v-96h-319v-206h319v-96h-415v700h415v-96z" />
    <glyph glyph-name="Edieresis" unicode="&#xcb;" horiz-adv-x="555" 
d="M223 820q14 0 24.5 -10.5t10.5 -24.5t-10.5 -24.5t-24.5 -10.5t-24.5 10.5t-10.5 24.5t10.5 24.5t24.5 10.5zM333 820q14 0 24.5 -10.5t10.5 -24.5t-10.5 -24.5t-24.5 -10.5t-24.5 10.5t-10.5 24.5t10.5 24.5t24.5 10.5zM485 604h-319v-206h319v-96h-319v-206h319v-96
h-415v700h415v-96z" />
    <glyph glyph-name="Igrave" unicode="&#xcc;" horiz-adv-x="236" 
d="M218 795l-22 -45l-178 89l23 44zM166 0h-96v700h96v-700z" />
    <glyph glyph-name="Iacute" unicode="&#xcd;" horiz-adv-x="236" 
d="M218 839l-178 -89l-22 45l177 88zM166 0h-96v700h96v-700z" />
    <glyph glyph-name="Icircumflex" unicode="&#xce;" horiz-adv-x="236" 
d="M117 826l-95 -76l-31 39l126 101l127 -101l-31 -39zM166 0h-96v700h96v-700z" />
    <glyph glyph-name="Idieresis" unicode="&#xcf;" horiz-adv-x="236" 
d="M63 820q14 0 24.5 -10.5t10.5 -24.5t-10.5 -24.5t-24.5 -10.5t-24.5 10.5t-10.5 24.5t10.5 24.5t24.5 10.5zM173 820q14 0 24.5 -10.5t10.5 -24.5t-10.5 -24.5t-24.5 -10.5t-24.5 10.5t-10.5 24.5t10.5 24.5t24.5 10.5zM166 0h-96v700h96v-700z" />
    <glyph glyph-name="Eth" unicode="&#xd0;" horiz-adv-x="624" 
d="M492 628q62 -70 62 -192v-172q0 -122 -62 -192q-66 -72 -180 -72h-242v325h-60v50h60v325h242q114 0 180 -72zM458 264v172q0 87 -38 128q-36 40 -108 40h-146v-229h132v-50h-132v-229h146q72 0 108 40q38 41 38 128z" />
    <glyph glyph-name="Ntilde" unicode="&#xd1;" horiz-adv-x="624" 
d="M221 842q27 11 56.5 4t51.5 -29q25 -25 54 -14q15 7 15 18h50q0 -46 -46 -64q-23 -12 -53.5 -5.5t-54.5 30.5q-25 24 -53 13q-15 -6 -15 -18h-50q0 46 45 65zM554 0h-74l-314 489v-489h-96v700h74l314 -489v489h96v-700z" />
    <glyph glyph-name="Ograve" unicode="&#xd2;" horiz-adv-x="624" 
d="M412 795l-22 -45l-178 89l23 44zM312 700q114 0 180 -72q62 -70 62 -192v-172q0 -122 -62 -192q-66 -72 -180 -72q-115 0 -179 72q-63 69 -63 192v172q0 123 63 192q64 72 179 72zM312 604q-72 0 -108 -40q-38 -43 -38 -128v-172q0 -85 38 -128q36 -40 108 -40t108 40
q38 41 38 128v172q0 87 -38 128q-36 40 -108 40z" />
    <glyph glyph-name="Oacute" unicode="&#xd3;" horiz-adv-x="624" 
d="M412 839l-178 -89l-22 45l177 88zM312 700q114 0 180 -72q62 -70 62 -192v-172q0 -122 -62 -192q-66 -72 -180 -72q-115 0 -179 72q-63 69 -63 192v172q0 123 63 192q64 72 179 72zM312 604q-72 0 -108 -40q-38 -43 -38 -128v-172q0 -85 38 -128q36 -40 108 -40t108 40
q38 41 38 128v172q0 87 -38 128q-36 40 -108 40z" />
    <glyph glyph-name="Ocircumflex" unicode="&#xd4;" horiz-adv-x="624" 
d="M312 826l-95 -76l-31 39l126 101l127 -101l-31 -39zM312 700q114 0 180 -72q62 -70 62 -192v-172q0 -122 -62 -192q-66 -72 -180 -72q-115 0 -179 72q-63 69 -63 192v172q0 123 63 192q64 72 179 72zM312 604q-72 0 -108 -40q-38 -43 -38 -128v-172q0 -85 38 -128
q36 -40 108 -40t108 40q38 41 38 128v172q0 87 -38 128q-36 40 -108 40z" />
    <glyph glyph-name="Otilde" unicode="&#xd5;" horiz-adv-x="624" 
d="M221 842q27 11 56.5 4t51.5 -29q25 -25 54 -14q15 7 15 18h50q0 -46 -46 -64q-23 -12 -53.5 -5.5t-54.5 30.5q-25 24 -53 13q-15 -6 -15 -18h-50q0 46 45 65zM312 700q114 0 180 -72q62 -70 62 -192v-172q0 -122 -62 -192q-66 -72 -180 -72q-115 0 -179 72
q-63 69 -63 192v172q0 123 63 192q64 72 179 72zM312 604q-72 0 -108 -40q-38 -43 -38 -128v-172q0 -85 38 -128q36 -40 108 -40t108 40q38 41 38 128v172q0 87 -38 128q-36 40 -108 40z" />
    <glyph glyph-name="Odieresis" unicode="&#xd6;" horiz-adv-x="624" 
d="M257 820q14 0 24.5 -10.5t10.5 -24.5t-10.5 -24.5t-24.5 -10.5t-24.5 10.5t-10.5 24.5t10.5 24.5t24.5 10.5zM367 820q14 0 24.5 -10.5t10.5 -24.5t-10.5 -24.5t-24.5 -10.5t-24.5 10.5t-10.5 24.5t10.5 24.5t24.5 10.5zM312 700q114 0 180 -72q62 -70 62 -192v-172
q0 -122 -62 -192q-66 -72 -180 -72q-115 0 -179 72q-63 69 -63 192v172q0 123 63 192q64 72 179 72zM312 604q-72 0 -108 -40q-38 -43 -38 -128v-172q0 -85 38 -128q36 -40 108 -40t108 40q38 41 38 128v172q0 87 -38 128q-36 40 -108 40z" />
    <glyph glyph-name="multiply" unicode="&#xd7;" horiz-adv-x="513" 
d="M443 383l-119 -118l119 -119l-68 -68l-119 119l-118 -119l-68 68l119 119l-119 118l68 68l118 -119l119 119z" />
    <glyph glyph-name="Oslash" unicode="&#xd8;" horiz-adv-x="624" 
d="M554 646l-37 -52q37 -65 37 -158v-172q0 -122 -62 -192q-66 -72 -180 -72q-108 0 -173 65l-28 -39l-41 29l37 52q-37 62 -37 157v172q0 123 63 192q64 72 179 72q107 0 173 -64l28 39zM166 436v-172q0 -38 7 -65l254 356l-7 9q-36 40 -108 40t-108 -40q-38 -43 -38 -128z
M458 264v172q0 33 -7 66l-255 -356l8 -10q36 -40 108 -40t108 40q38 41 38 128z" />
    <glyph glyph-name="Ugrave" unicode="&#xd9;" horiz-adv-x="625" 
d="M413 795l-22 -45l-178 89l23 44zM555 700v-436q0 -121 -63 -192q-64 -72 -180 -72q-115 0 -179 72q-63 69 -63 192v436h96v-436q0 -85 38 -128q36 -40 108 -40q73 0 109 40q38 43 38 128v436h96z" />
    <glyph glyph-name="Uacute" unicode="&#xda;" horiz-adv-x="625" 
d="M413 839l-178 -89l-22 45l177 88zM555 700v-436q0 -121 -63 -192q-64 -72 -180 -72q-115 0 -179 72q-63 69 -63 192v436h96v-436q0 -85 38 -128q36 -40 108 -40q73 0 109 40q38 43 38 128v436h96z" />
    <glyph glyph-name="Ucircumflex" unicode="&#xdb;" horiz-adv-x="625" 
d="M312 826l-95 -76l-31 39l126 101l127 -101l-31 -39zM555 700v-436q0 -121 -63 -192q-64 -72 -180 -72q-115 0 -179 72q-63 69 -63 192v436h96v-436q0 -85 38 -128q36 -40 108 -40q73 0 109 40q38 43 38 128v436h96z" />
    <glyph glyph-name="Udieresis" unicode="&#xdc;" horiz-adv-x="625" 
d="M258 820q14 0 24.5 -10.5t10.5 -24.5t-10.5 -24.5t-24.5 -10.5t-24.5 10.5t-10.5 24.5t10.5 24.5t24.5 10.5zM368 820q14 0 24.5 -10.5t10.5 -24.5t-10.5 -24.5t-24.5 -10.5t-24.5 10.5t-10.5 24.5t10.5 24.5t24.5 10.5zM555 700v-436q0 -121 -63 -192q-64 -72 -180 -72
q-115 0 -179 72q-63 69 -63 192v436h96v-436q0 -85 38 -128q36 -40 108 -40q73 0 109 40q38 43 38 128v436h96z" />
    <glyph glyph-name="Yacute" unicode="&#xdd;" horiz-adv-x="684" 
d="M442 839l-178 -89l-22 45l177 88zM390 252v-252h-96v252l-224 448h107l165 -329l164 329h108z" />
    <glyph glyph-name="Thorn" unicode="&#xde;" horiz-adv-x="624" 
d="M166 571h125q121 0 189 -56q74 -57 74 -165t-74 -165q-68 -56 -189 -56h-125v-129h-96v700h96v-129zM166 475v-250h125q87 0 130 35q37 30 37 90t-37 90q-43 35 -130 35h-125z" />
    <glyph glyph-name="germandbls" unicode="&#xdf;" horiz-adv-x="603" 
d="M312 700q102 0 160 -51q61 -53 61 -148t-61 -148q-2 -1 -4 -3q2 -2 4 -3q61 -53 61 -148t-61 -148q-58 -51 -160 -51h-43v96h43q66 0 96 27q29 26 29 76t-29 76q-30 27 -96 27h-43v96h43q66 0 96 27q29 26 29 76t-29 76q-30 27 -96 27q-72 0 -108 -40q-38 -43 -38 -128
v-436h-96v445q0 114 63 183q64 72 179 72z" />
    <glyph glyph-name="agrave" unicode="&#xe0;" horiz-adv-x="582" 
d="M391 623l-22 -45l-178 89l23 44zM290 528h1q101 0 159 -52q62 -54 62 -148v-328h-96v27q-51 -27 -125 -27h-22q-89 0 -139 37q-30 21 -45 52q-15 30 -15 67t15 67q15 31 45 52q52 37 139 37h147v16q0 52 -29 76q-31 28 -96 28h-1q-116 0 -124 -87l-95 10q8 83 69 129
q58 44 150 44zM416 216h-147q-56 0 -84 -19q-19 -17 -19 -41q0 -27 19 -41q27 -19 84 -19h22q66 0 96 27q29 26 29 76v17z" />
    <glyph glyph-name="aacute" unicode="&#xe1;" horiz-adv-x="582" 
d="M391 667l-178 -89l-22 45l177 88zM290 528h1q101 0 159 -52q62 -54 62 -148v-328h-96v27q-51 -27 -125 -27h-22q-89 0 -139 37q-30 21 -45 52q-15 30 -15 67t15 67q15 31 45 52q52 37 139 37h147v16q0 52 -29 76q-31 28 -96 28h-1q-116 0 -124 -87l-95 10q8 83 69 129
q58 44 150 44zM416 216h-147q-56 0 -84 -19q-19 -17 -19 -41q0 -27 19 -41q27 -19 84 -19h22q66 0 96 27q29 26 29 76v17z" />
    <glyph glyph-name="acircumflex" unicode="&#xe2;" horiz-adv-x="582" 
d="M291 654l-95 -76l-31 39l126 101l127 -101l-31 -39zM290 528h1q101 0 159 -52q62 -54 62 -148v-328h-96v27q-51 -27 -125 -27h-22q-89 0 -139 37q-30 21 -45 52q-15 30 -15 67t15 67q15 31 45 52q52 37 139 37h147v16q0 52 -29 76q-31 28 -96 28h-1q-116 0 -124 -87
l-95 10q8 83 69 129q58 44 150 44zM416 216h-147q-56 0 -84 -19q-19 -17 -19 -41q0 -27 19 -41q27 -19 84 -19h22q66 0 96 27q29 26 29 76v17z" />
    <glyph glyph-name="atilde" unicode="&#xe3;" horiz-adv-x="582" 
d="M200 670q27 11 56.5 4t51.5 -29q25 -25 54 -14q15 7 15 18h50q0 -46 -46 -64q-23 -12 -53.5 -5.5t-54.5 30.5q-25 24 -53 13q-15 -6 -15 -18h-50q0 46 45 65zM290 528h1q101 0 159 -52q62 -54 62 -148v-328h-96v27q-51 -27 -125 -27h-22q-89 0 -139 37q-30 21 -45 52
q-15 30 -15 67t15 67q15 31 45 52q52 37 139 37h147v16q0 52 -29 76q-31 28 -96 28h-1q-116 0 -124 -87l-95 10q8 83 69 129q58 44 150 44zM416 216h-147q-56 0 -84 -19q-19 -17 -19 -41q0 -27 19 -41q27 -19 84 -19h22q66 0 96 27q29 26 29 76v17z" />
    <glyph glyph-name="adieresis" unicode="&#xe4;" horiz-adv-x="582" 
d="M236 648q14 0 24.5 -10.5t10.5 -24.5t-10.5 -24.5t-24.5 -10.5t-24.5 10.5t-10.5 24.5t10.5 24.5t24.5 10.5zM346 648q14 0 24.5 -10.5t10.5 -24.5t-10.5 -24.5t-24.5 -10.5t-24.5 10.5t-10.5 24.5t10.5 24.5t24.5 10.5zM290 528h1q101 0 159 -52q62 -54 62 -148v-328
h-96v27q-51 -27 -125 -27h-22q-89 0 -139 37q-30 21 -45 52q-15 30 -15 67t15 67q15 31 45 52q52 37 139 37h147v16q0 52 -29 76q-31 28 -96 28h-1q-116 0 -124 -87l-95 10q8 83 69 129q58 44 150 44zM416 216h-147q-56 0 -84 -19q-19 -17 -19 -41q0 -27 19 -41
q27 -19 84 -19h22q66 0 96 27q29 26 29 76v17z" />
    <glyph glyph-name="aring" unicode="&#xe5;" horiz-adv-x="582" 
d="M291 761q43 0 67.5 -24.5t24.5 -67.5q0 -42 -24.5 -66.5t-67.5 -24.5q-42 0 -66.5 24.5t-24.5 66.5q0 43 24.5 67.5t66.5 24.5zM291 711q-22 0 -31 -10q-10 -10 -10 -32t10 -31q9 -10 31 -10t32 10q10 9 10 31t-10 32t-32 10zM290 528h1q101 0 159 -52q62 -54 62 -148
v-328h-96v27q-51 -27 -125 -27h-22q-89 0 -139 37q-30 21 -45 52q-15 30 -15 67t15 67q15 31 45 52q52 37 139 37h147v16q0 52 -29 76q-31 28 -96 28h-1q-116 0 -124 -87l-95 10q8 83 69 129q58 44 150 44zM416 216h-147q-56 0 -84 -19q-19 -17 -19 -41q0 -27 19 -41
q27 -19 84 -19h22q66 0 96 27q29 26 29 76v17z" />
    <glyph glyph-name="ae" unicode="&#xe6;" horiz-adv-x="926" 
d="M636 528q101 0 159 -52q61 -53 61 -148v-112h-345v-17q0 -50 29 -76q30 -27 96 -27h11q94 0 117 56l89 -36q-22 -57 -80 -88q-50 -28 -126 -28h-11q-102 0 -160 51l-13 13q-6 -7 -13 -13q-58 -51 -159 -51h-22q-88 0 -140 37q-30 22 -44 52q-15 30 -15 67t15 67
q14 30 44 52q54 37 140 37h146v16q0 52 -28 76q-33 28 -96 28h-1q-116 0 -124 -87l-96 10q9 83 70 129q58 44 150 44h1q99 0 159 -52q5 -4 13 -12l13 12q60 52 160 52zM636 432q-65 0 -96 -28q-29 -24 -29 -76v-16h249v16q0 52 -28 76q-31 28 -96 28zM415 216h-146
q-56 0 -84 -19q-19 -15 -19 -41q0 -28 19 -41q25 -19 84 -19h22q65 0 96 27q28 25 28 76v17z" />
    <glyph glyph-name="ccedilla" unicode="&#xe7;" horiz-adv-x="566" 
d="M291 96q93 0 116 56l89 -36q-22 -56 -75 -86t-130 -30h-3l-14 -56q38 -3 60 -27.5t22 -64.5q0 -42 -24.5 -66.5t-67.5 -24.5h-44v50h44q22 0 32 10t10 31q0 20 -10 32q-10 10 -32 10h-54l27 110q-65 11 -106 47q-61 53 -61 148v129q0 95 61 148q60 52 160 52
q76 0 129 -30.5t76 -86.5l-89 -36q-23 57 -116 57q-64 0 -97 -28q-28 -25 -28 -76v-129q0 -50 28 -76q31 -27 97 -27z" />
    <glyph glyph-name="egrave" unicode="&#xe8;" 
d="M391 623l-22 -45l-178 89l23 44zM291 528q99 0 159 -52q61 -53 61 -148v-112h-345v-17q0 -50 28 -76q31 -27 97 -27h11q94 0 117 56l89 -36q-24 -58 -80 -88q-50 -28 -126 -28h-11q-101 0 -160 51q-61 53 -61 148v129q0 95 61 148q60 52 160 52zM291 432q-64 0 -97 -28
q-28 -25 -28 -76v-16h249v16q0 52 -28 76q-33 28 -96 28z" />
    <glyph glyph-name="eacute" unicode="&#xe9;" 
d="M391 667l-178 -89l-22 45l177 88zM291 528q99 0 159 -52q61 -53 61 -148v-112h-345v-17q0 -50 28 -76q31 -27 97 -27h11q94 0 117 56l89 -36q-24 -58 -80 -88q-50 -28 -126 -28h-11q-101 0 -160 51q-61 53 -61 148v129q0 95 61 148q60 52 160 52zM291 432q-64 0 -97 -28
q-28 -25 -28 -76v-16h249v16q0 52 -28 76q-33 28 -96 28z" />
    <glyph glyph-name="ecircumflex" unicode="&#xea;" 
d="M290 654l-95 -76l-31 39l126 101l127 -101l-31 -39zM291 528q99 0 159 -52q61 -53 61 -148v-112h-345v-17q0 -50 28 -76q31 -27 97 -27h11q94 0 117 56l89 -36q-24 -58 -80 -88q-50 -28 -126 -28h-11q-101 0 -160 51q-61 53 -61 148v129q0 95 61 148q60 52 160 52z
M291 432q-64 0 -97 -28q-28 -25 -28 -76v-16h249v16q0 52 -28 76q-33 28 -96 28z" />
    <glyph glyph-name="edieresis" unicode="&#xeb;" 
d="M236 648q14 0 24.5 -10.5t10.5 -24.5t-10.5 -24.5t-24.5 -10.5t-24.5 10.5t-10.5 24.5t10.5 24.5t24.5 10.5zM346 648q14 0 24.5 -10.5t10.5 -24.5t-10.5 -24.5t-24.5 -10.5t-24.5 10.5t-10.5 24.5t10.5 24.5t24.5 10.5zM291 528q99 0 159 -52q61 -53 61 -148v-112h-345
v-17q0 -50 28 -76q31 -27 97 -27h11q94 0 117 56l89 -36q-24 -58 -80 -88q-50 -28 -126 -28h-11q-101 0 -160 51q-61 53 -61 148v129q0 95 61 148q60 52 160 52zM291 432q-64 0 -97 -28q-28 -25 -28 -76v-16h249v16q0 52 -28 76q-33 28 -96 28z" />
    <glyph glyph-name="igrave" unicode="&#xec;" horiz-adv-x="236" 
d="M218 623l-22 -45l-178 89l23 44zM166 0h-96v528h96v-528z" />
    <glyph glyph-name="iacute" unicode="&#xed;" horiz-adv-x="236" 
d="M218 667l-178 -89l-22 45l177 88zM166 0h-96v528h96v-528z" />
    <glyph glyph-name="icircumflex" unicode="&#xee;" horiz-adv-x="253" 
d="M126 654l-95 -76l-31 39l126 101l127 -101l-31 -39zM175 0h-96v528h96v-528z" />
    <glyph glyph-name="idieresis" unicode="&#xef;" horiz-adv-x="236" 
d="M63 648q14 0 24.5 -10.5t10.5 -24.5t-10.5 -24.5t-24.5 -10.5t-24.5 10.5t-10.5 24.5t10.5 24.5t24.5 10.5zM173 648q14 0 24.5 -10.5t10.5 -24.5t-10.5 -24.5t-24.5 -10.5t-24.5 10.5t-10.5 24.5t10.5 24.5t24.5 10.5zM166 0h-96v528h96v-528z" />
    <glyph glyph-name="eth" unicode="&#xf0;" horiz-adv-x="585" 
d="M215 604v96q84 0 154 -62l72 37l23 -45l-58 -29q19 -24 32 -45q37 -60 57 -132t20 -143q0 -117 -53 -191q-56 -77 -153 -88q-20 -2 -31 -2q-47 0 -90 19q-37 17 -67 52q-51 62 -51 149q0 89 52 150q28 34 67 52q39 19 91 19q65 0 117 -25q-15 47 -41 89q-20 31 -39 51
l-112 -56l-22 45l89 45q-29 14 -57 14zM280 345q-54 0 -85 -37q-29 -35 -29 -88q0 -51 29 -88q30 -36 83 -36q62 0 97 42q35 38 35 94q0 49 -29 78q-33 35 -101 35z" />
    <glyph glyph-name="ntilde" unicode="&#xf1;" 
d="M200 670q27 11 56.5 4t51.5 -29q25 -25 54 -14q15 7 15 18h50q0 -46 -46 -64q-23 -12 -53.5 -5.5t-54.5 30.5q-25 24 -53 13q-15 -6 -15 -18h-50q0 46 45 65zM291 528q99 0 159 -52q61 -53 61 -148v-328h-96v328q0 52 -28 76q-33 28 -96 28q-64 0 -97 -28
q-28 -25 -28 -76v-328h-96v528h96v-28q53 28 125 28z" />
    <glyph glyph-name="ograve" unicode="&#xf2;" 
d="M391 623l-22 -45l-178 89l23 44zM291 528q99 0 159 -52q61 -53 61 -148v-129q0 -95 -61 -148q-58 -51 -159 -51t-160 51q-61 53 -61 148v129q0 95 61 148q60 52 160 52zM291 432q-64 0 -97 -28q-28 -25 -28 -76v-129q0 -50 28 -76q31 -27 97 -27q65 0 96 27q28 25 28 76
v129q0 52 -28 76q-33 28 -96 28z" />
    <glyph glyph-name="oacute" unicode="&#xf3;" 
d="M391 667l-178 -89l-22 45l177 88zM291 528q99 0 159 -52q61 -53 61 -148v-129q0 -95 -61 -148q-58 -51 -159 -51t-160 51q-61 53 -61 148v129q0 95 61 148q60 52 160 52zM291 432q-64 0 -97 -28q-28 -25 -28 -76v-129q0 -50 28 -76q31 -27 97 -27q65 0 96 27q28 25 28 76
v129q0 52 -28 76q-33 28 -96 28z" />
    <glyph glyph-name="ocircumflex" unicode="&#xf4;" 
d="M290 654l-95 -76l-31 39l126 101l127 -101l-31 -39zM291 528q99 0 159 -52q61 -53 61 -148v-129q0 -95 -61 -148q-58 -51 -159 -51t-160 51q-61 53 -61 148v129q0 95 61 148q60 52 160 52zM291 432q-64 0 -97 -28q-28 -25 -28 -76v-129q0 -50 28 -76q31 -27 97 -27
q65 0 96 27q28 25 28 76v129q0 52 -28 76q-33 28 -96 28z" />
    <glyph glyph-name="otilde" unicode="&#xf5;" 
d="M200 670q27 11 56.5 4t51.5 -29q25 -25 54 -14q15 7 15 18h50q0 -46 -46 -64q-23 -12 -53.5 -5.5t-54.5 30.5q-25 24 -53 13q-15 -6 -15 -18h-50q0 46 45 65zM291 528q99 0 159 -52q61 -53 61 -148v-129q0 -95 -61 -148q-58 -51 -159 -51t-160 51q-61 53 -61 148v129
q0 95 61 148q60 52 160 52zM291 432q-64 0 -97 -28q-28 -25 -28 -76v-129q0 -50 28 -76q31 -27 97 -27q65 0 96 27q28 25 28 76v129q0 52 -28 76q-33 28 -96 28z" />
    <glyph glyph-name="odieresis" unicode="&#xf6;" 
d="M236 648q14 0 24.5 -10.5t10.5 -24.5t-10.5 -24.5t-24.5 -10.5t-24.5 10.5t-10.5 24.5t10.5 24.5t24.5 10.5zM346 648q14 0 24.5 -10.5t10.5 -24.5t-10.5 -24.5t-24.5 -10.5t-24.5 10.5t-10.5 24.5t10.5 24.5t24.5 10.5zM291 528q99 0 159 -52q61 -53 61 -148v-129
q0 -95 -61 -148q-58 -51 -159 -51t-160 51q-61 53 -61 148v129q0 95 61 148q60 52 160 52zM291 432q-64 0 -97 -28q-28 -25 -28 -76v-129q0 -50 28 -76q31 -27 97 -27q65 0 96 27q28 25 28 76v129q0 52 -28 76q-33 28 -96 28z" />
    <glyph glyph-name="divide" unicode="&#xf7;" horiz-adv-x="571" 
d="M286 528q24 0 41 -17t17 -41t-17 -41t-41 -17t-41 17t-17 41t17 41t41 17zM501 216h-431v96h431v-96zM286 116q24 0 41 -17t17 -41t-17 -41t-41 -17t-41 17t-17 41t17 41t41 17z" />
    <glyph glyph-name="oslash" unicode="&#xf8;" 
d="M509 469l-27 -30q29 -47 29 -111v-129q0 -95 -61 -148q-58 -51 -159 -51q-100 0 -159 50l-22 -24l-37 34l26 29q-29 46 -29 110v129q0 95 61 148q60 52 160 52q98 0 158 -51l23 26zM166 328v-129q0 -17 3 -32l216 239q-32 26 -94 26q-64 0 -97 -28q-28 -25 -28 -76z
M415 199v129q0 18 -3 33l-216 -240q31 -25 95 -25q65 0 96 27q28 25 28 76z" />
    <glyph glyph-name="ugrave" unicode="&#xf9;" horiz-adv-x="582" 
d="M391 623l-22 -45l-178 89l23 44zM512 0h-96v27q-51 -27 -125 -27q-102 0 -159 51q-62 54 -62 148v329h96v-329q0 -50 29 -76q30 -27 96 -27t96 27q29 26 29 76v329h96v-528z" />
    <glyph glyph-name="uacute" unicode="&#xfa;" horiz-adv-x="582" 
d="M391 667l-178 -89l-22 45l177 88zM512 0h-96v27q-51 -27 -125 -27q-102 0 -159 51q-62 54 -62 148v329h96v-329q0 -50 29 -76q30 -27 96 -27t96 27q29 26 29 76v329h96v-528z" />
    <glyph glyph-name="ucircumflex" unicode="&#xfb;" horiz-adv-x="582" 
d="M291 654l-95 -76l-31 39l126 101l127 -101l-31 -39zM512 0h-96v27q-51 -27 -125 -27q-102 0 -159 51q-62 54 -62 148v329h96v-329q0 -50 29 -76q30 -27 96 -27t96 27q29 26 29 76v329h96v-528z" />
    <glyph glyph-name="udieresis" unicode="&#xfc;" horiz-adv-x="582" 
d="M236 648q14 0 24.5 -10.5t10.5 -24.5t-10.5 -24.5t-24.5 -10.5t-24.5 10.5t-10.5 24.5t10.5 24.5t24.5 10.5zM346 648q14 0 24.5 -10.5t10.5 -24.5t-10.5 -24.5t-24.5 -10.5t-24.5 10.5t-10.5 24.5t10.5 24.5t24.5 10.5zM512 0h-96v27q-51 -27 -125 -27q-102 0 -159 51
q-62 54 -62 148v329h96v-329q0 -50 29 -76q30 -27 96 -27t96 27q29 26 29 76v329h96v-528z" />
    <glyph glyph-name="yacute" unicode="&#xfd;" horiz-adv-x="582" 
d="M391 667l-178 -89l-22 45l177 88zM512 528v-502q0 -95 -61 -148q-58 -51 -160 -51h-11q-73 0 -127 28q-56 31 -79 89l89 36q23 -57 117 -57h11q65 0 96 28q29 24 29 75v1q-51 -27 -125 -27q-101 0 -160 51q-61 53 -61 148v329h96v-329q0 -50 29 -76q30 -27 96 -27t96 27
q29 26 29 76v329h96z" />
    <glyph glyph-name="thorn" unicode="&#xfe;" horiz-adv-x="582" 
d="M166 700v-205q53 33 125 33q105 0 164 -67q57 -65 57 -176v-43q0 -110 -57 -176q-60 -66 -164 -66q-74 0 -125 33v-206h-96v873h96zM291 432q-61 0 -92 -34q-33 -38 -33 -113v-43q0 -76 33 -112q30 -34 92 -34t92 34q33 38 33 112v43q0 74 -33 113q-31 34 -92 34z" />
    <glyph glyph-name="ydieresis" unicode="&#xff;" horiz-adv-x="582" 
d="M236 648q14 0 24.5 -10.5t10.5 -24.5t-10.5 -24.5t-24.5 -10.5t-24.5 10.5t-10.5 24.5t10.5 24.5t24.5 10.5zM346 648q14 0 24.5 -10.5t10.5 -24.5t-10.5 -24.5t-24.5 -10.5t-24.5 10.5t-10.5 24.5t10.5 24.5t24.5 10.5zM512 528v-502q0 -95 -61 -148q-58 -51 -160 -51
h-11q-73 0 -127 28q-56 31 -79 89l89 36q23 -57 117 -57h11q65 0 96 28q29 24 29 75v1q-51 -27 -125 -27q-101 0 -160 51q-61 53 -61 148v329h96v-329q0 -50 29 -76q30 -27 96 -27t96 27q29 26 29 76v329h96z" />
    <glyph glyph-name="Amacron" unicode="&#x100;" horiz-adv-x="708" 
d="M443 750h-177v50h177v-50zM638 0h-102l-46 129h-271l-47 -129h-102l250 700h68zM253 225h203l-102 284z" />
    <glyph glyph-name="amacron" unicode="&#x101;" horiz-adv-x="582" 
d="M380 578h-177v50h177v-50zM290 528h1q101 0 159 -52q62 -54 62 -148v-328h-96v27q-51 -27 -125 -27h-22q-89 0 -139 37q-30 21 -45 52q-15 30 -15 67t15 67q15 31 45 52q52 37 139 37h147v16q0 52 -29 76q-31 28 -96 28h-1q-116 0 -124 -87l-95 10q8 83 69 129
q58 44 150 44zM416 216h-147q-56 0 -84 -19q-19 -17 -19 -41q0 -27 19 -41q27 -19 84 -19h22q66 0 96 27q29 26 29 76v17z" />
    <glyph glyph-name="Abreve" unicode="&#x102;" horiz-adv-x="708" 
d="M418 864h50q0 -54 -30 -84t-83 -30q-54 0 -84 30t-30 84h50q0 -33 16 -48q15 -16 48 -16q32 0 48 16q15 15 15 48zM638 0h-102l-46 129h-271l-47 -129h-102l250 700h68zM253 225h203l-102 284z" />
    <glyph glyph-name="abreve" unicode="&#x103;" horiz-adv-x="582" 
d="M355 692h50q0 -54 -30 -84t-83 -30q-54 0 -84 30t-30 84h50q0 -33 16 -48q15 -16 48 -16q32 0 48 16q15 15 15 48zM290 528h1q101 0 159 -52q62 -54 62 -148v-328h-96v27q-51 -27 -125 -27h-22q-89 0 -139 37q-30 21 -45 52q-15 30 -15 67t15 67q15 31 45 52
q52 37 139 37h147v16q0 52 -29 76q-31 28 -96 28h-1q-116 0 -124 -87l-95 10q8 83 69 129q58 44 150 44zM416 216h-147q-56 0 -84 -19q-19 -17 -19 -41q0 -27 19 -41q27 -19 84 -19h22q66 0 96 27q29 26 29 76v17z" />
    <glyph glyph-name="Aogonek" unicode="&#x104;" horiz-adv-x="708" 
d="M638 0h-18q-33 0 -48 -15q-16 -16 -16 -48q0 -33 16 -48q15 -16 48 -16v-50q-54 0 -84 30t-30 84q0 49 25 77l-41 115h-271l-47 -129h-102l250 700h68zM456 225l-102 284l-101 -284h203z" />
    <glyph glyph-name="aogonek" unicode="&#x105;" horiz-adv-x="582" 
d="M450 476q62 -54 62 -148v-328q-33 0 -48 -15q-16 -16 -16 -48q0 -33 16 -48q15 -16 48 -16v-50q-54 0 -84 30t-30 84q0 41 18 68v22q-51 -27 -125 -27h-22q-89 0 -139 37q-30 21 -45 52q-15 30 -15 67t15 67q15 31 45 52q52 37 139 37h147v16q0 52 -29 76q-31 28 -96 28
h-1q-116 0 -124 -87l-95 10q8 83 69 129q58 44 150 44h1q101 0 159 -52zM387 123q29 26 29 76v17h-147q-56 0 -84 -19q-19 -17 -19 -41q0 -27 19 -41q27 -19 84 -19h22q66 0 96 27z" />
    <glyph glyph-name="Cacute" unicode="&#x106;" horiz-adv-x="611" 
d="M406 839l-178 -89l-22 45l177 88zM312 700q88 0 146 -42q60 -42 83 -122l-92 -27q-27 95 -137 95q-72 0 -108 -40q-38 -43 -38 -128v-172q0 -85 38 -128q36 -40 108 -40q110 0 137 95l92 -27q-23 -78 -83 -122q-58 -42 -146 -42q-115 0 -179 72q-63 69 -63 192v172
q0 123 63 192q64 72 179 72z" />
    <glyph glyph-name="cacute" unicode="&#x107;" horiz-adv-x="566" 
d="M383 667l-178 -89l-22 45l177 88zM291 528q76 0 129 -30.5t76 -86.5l-89 -36q-23 57 -116 57q-64 0 -97 -28q-28 -25 -28 -76v-129q0 -50 28 -76q31 -27 97 -27q93 0 116 56l89 -36q-22 -56 -75 -86t-130 -30q-101 0 -160 51q-61 53 -61 148v129q0 95 61 148
q60 52 160 52z" />
    <glyph glyph-name="Cdotaccent" unicode="&#x10a;" horiz-adv-x="611" 
d="M306 820q14 0 24.5 -10.5t10.5 -24.5t-10.5 -24.5t-24.5 -10.5t-24.5 10.5t-10.5 24.5t10.5 24.5t24.5 10.5zM312 700q88 0 146 -42q60 -42 83 -122l-92 -27q-27 95 -137 95q-72 0 -108 -40q-38 -43 -38 -128v-172q0 -85 38 -128q36 -40 108 -40q110 0 137 95l92 -27
q-23 -78 -83 -122q-58 -42 -146 -42q-115 0 -179 72q-63 69 -63 192v172q0 123 63 192q64 72 179 72z" />
    <glyph glyph-name="cdotaccent" unicode="&#x10b;" horiz-adv-x="566" 
d="M283 648q14 0 24.5 -10.5t10.5 -24.5t-10.5 -24.5t-24.5 -10.5t-24.5 10.5t-10.5 24.5t10.5 24.5t24.5 10.5zM291 528q76 0 129 -30.5t76 -86.5l-89 -36q-23 57 -116 57q-64 0 -97 -28q-28 -25 -28 -76v-129q0 -50 28 -76q31 -27 97 -27q93 0 116 56l89 -36
q-22 -56 -75 -86t-130 -30q-101 0 -160 51q-61 53 -61 148v129q0 95 61 148q60 52 160 52z" />
    <glyph glyph-name="Ccaron" unicode="&#x10c;" horiz-adv-x="611" 
d="M432 851l-127 -101l-126 101l31 39l95 -76l96 76zM312 700q88 0 146 -42q60 -42 83 -122l-92 -27q-27 95 -137 95q-72 0 -108 -40q-38 -43 -38 -128v-172q0 -85 38 -128q36 -40 108 -40q110 0 137 95l92 -27q-23 -78 -83 -122q-58 -42 -146 -42q-115 0 -179 72
q-63 69 -63 192v172q0 123 63 192q64 72 179 72z" />
    <glyph glyph-name="ccaron" unicode="&#x10d;" horiz-adv-x="566" 
d="M410 679l-127 -101l-126 101l31 39l95 -76l96 76zM291 528q76 0 129 -30.5t76 -86.5l-89 -36q-23 57 -116 57q-64 0 -97 -28q-28 -25 -28 -76v-129q0 -50 28 -76q31 -27 97 -27q93 0 116 56l89 -36q-22 -56 -75 -86t-130 -30q-101 0 -160 51q-61 53 -61 148v129
q0 95 61 148q60 52 160 52z" />
    <glyph glyph-name="Dcaron" unicode="&#x10e;" horiz-adv-x="624" 
d="M439 851l-127 -101l-126 101l31 39l95 -76l96 76zM70 700h242q114 0 180 -72q62 -70 62 -192v-172q0 -122 -62 -192q-66 -72 -180 -72h-242v700zM166 604v-508h146q72 0 108 40q38 41 38 128v172q0 87 -38 128q-36 40 -108 40h-146z" />
    <glyph glyph-name="dcaron" unicode="&#x10f;" horiz-adv-x="611" 
d="M511 0h-96v27q-51 -27 -125 -27q-100 0 -159 51q-61 53 -61 148v129q0 95 61 148q60 52 159 52q72 0 125 -28v200h96v-700zM611 478h-50v222h50v-222zM290 432q-63 0 -96 -28q-28 -24 -28 -76v-129q0 -51 28 -76q31 -27 96 -27q66 0 97 27q28 26 28 76v129q0 51 -28 76
q-33 28 -97 28z" />
    <glyph glyph-name="Dcroat" unicode="&#x110;" horiz-adv-x="624" 
d="M492 628q62 -70 62 -192v-172q0 -122 -62 -192q-66 -72 -180 -72h-242v325h-60v50h60v325h242q114 0 180 -72zM458 264v172q0 87 -38 128q-36 40 -108 40h-146v-229h132v-50h-132v-229h146q72 0 108 40q38 41 38 128z" />
    <glyph glyph-name="dcroat" unicode="&#x111;" 
d="M571 599h-60v-599h-96v27q-51 -27 -125 -27q-100 0 -159 51q-61 53 -61 148v129q0 95 61 148q60 52 159 52q72 0 125 -28v99h-132v50h132v51h96v-51h60v-50zM415 199v129q0 51 -28 76q-33 28 -97 28q-63 0 -96 -28q-28 -24 -28 -76v-129q0 -51 28 -76q31 -27 96 -27
q66 0 97 27q28 26 28 76z" />
    <glyph glyph-name="Emacron" unicode="&#x112;" horiz-adv-x="555" 
d="M366 750h-177v50h177v-50zM485 604h-319v-206h319v-96h-319v-206h319v-96h-415v700h415v-96z" />
    <glyph glyph-name="emacron" unicode="&#x113;" 
d="M379 578h-177v50h177v-50zM291 528q99 0 159 -52q61 -53 61 -148v-112h-345v-17q0 -50 28 -76q31 -27 97 -27h11q94 0 117 56l89 -36q-24 -58 -80 -88q-50 -28 -126 -28h-11q-101 0 -160 51q-61 53 -61 148v129q0 95 61 148q60 52 160 52zM291 432q-64 0 -97 -28
q-28 -25 -28 -76v-16h249v16q0 52 -28 76q-33 28 -96 28z" />
    <glyph glyph-name="Edotaccent" unicode="&#x116;" horiz-adv-x="555" 
d="M278 820q14 0 24.5 -10.5t10.5 -24.5t-10.5 -24.5t-24.5 -10.5t-24.5 10.5t-10.5 24.5t10.5 24.5t24.5 10.5zM485 604h-319v-206h319v-96h-319v-206h319v-96h-415v700h415v-96z" />
    <glyph glyph-name="edotaccent" unicode="&#x117;" 
d="M291 648q14 0 24.5 -10.5t10.5 -24.5t-10.5 -24.5t-24.5 -10.5t-24.5 10.5t-10.5 24.5t10.5 24.5t24.5 10.5zM291 528q99 0 159 -52q61 -53 61 -148v-112h-345v-17q0 -50 28 -76q31 -27 97 -27h11q94 0 117 56l89 -36q-24 -58 -80 -88q-50 -28 -126 -28h-11
q-101 0 -160 51q-61 53 -61 148v129q0 95 61 148q60 52 160 52zM291 432q-64 0 -97 -28q-28 -25 -28 -76v-16h249v16q0 52 -28 76q-33 28 -96 28z" />
    <glyph glyph-name="Eogonek" unicode="&#x118;" horiz-adv-x="555" 
d="M166 604v-206h319v-96h-319v-206h319v-96q-33 0 -48 -15q-16 -16 -16 -48q0 -33 16 -48q15 -16 48 -16v-50q-54 0 -84 30t-30 84q0 36 15 63h-316v700h415v-96h-319z" />
    <glyph glyph-name="eogonek" unicode="&#x119;" 
d="M166 216v-17q0 -50 28 -76q31 -27 97 -27h11q94 0 117 56l89 -36q-24 -58 -80 -88q-43 -24 -103 -27q-17 -5 -25 -13q-16 -16 -16 -48q0 -33 16 -48q15 -16 48 -16v-50q-54 0 -84 30t-30 84q0 37 15 62q-74 9 -118 49q-61 53 -61 148v129q0 95 61 148q60 52 160 52
q99 0 159 -52q61 -53 61 -148v-112h-345zM166 312h249v16q0 52 -28 76q-33 28 -96 28q-64 0 -97 -28q-28 -25 -28 -76v-16z" />
    <glyph glyph-name="Ecaron" unicode="&#x11a;" horiz-adv-x="555" 
d="M404 851l-127 -101l-126 101l31 39l95 -76l96 76zM485 604h-319v-206h319v-96h-319v-206h319v-96h-415v700h415v-96z" />
    <glyph glyph-name="ecaron" unicode="&#x11b;" 
d="M417 679l-127 -101l-126 101l31 39l95 -76l96 76zM291 528q99 0 159 -52q61 -53 61 -148v-112h-345v-17q0 -50 28 -76q31 -27 97 -27h11q94 0 117 56l89 -36q-24 -58 -80 -88q-50 -28 -126 -28h-11q-101 0 -160 51q-61 53 -61 148v129q0 95 61 148q60 52 160 52zM291 432
q-64 0 -97 -28q-28 -25 -28 -76v-16h249v16q0 52 -28 76q-33 28 -96 28z" />
    <glyph glyph-name="Gbreve" unicode="&#x11e;" horiz-adv-x="624" 
d="M376 864h50q0 -54 -30 -84t-83 -30q-54 0 -84 30t-30 84h50q0 -33 16 -48q15 -16 48 -16q32 0 48 16q15 15 15 48zM312 700h11q87 0 146 -42q60 -42 83 -122l-92 -27q-27 95 -137 95h-11q-72 0 -108 -40q-38 -43 -38 -128v-172q0 -85 38 -128q36 -40 108 -40t108 40
q38 41 38 128v38h-146v96h242v-134q0 -122 -62 -192q-66 -72 -180 -72q-115 0 -179 72q-63 69 -63 192v172q0 123 63 192q64 72 179 72z" />
    <glyph glyph-name="gbreve" unicode="&#x11f;" 
d="M354 692h50q0 -54 -30 -84t-83 -30q-54 0 -84 30t-30 84h50q0 -33 16 -48q15 -16 48 -16q32 0 48 16q15 15 15 48zM511 528v-502q0 -95 -61 -148q-58 -51 -160 -51h-11q-77 0 -130.5 30t-75.5 86l89 36q23 -56 117 -56h11q66 0 97 27q28 25 28 76v1q-51 -27 -125 -27
q-102 0 -159 51q-61 53 -61 148v129q0 96 61 149q59 51 159 51q75 0 125 -28v28h96zM290 432q-65 0 -96 -28q-28 -24 -28 -76v-129q0 -52 28 -76q30 -27 96 -27t97 27q28 24 28 76v129q0 52 -28 76q-33 28 -97 28z" />
    <glyph glyph-name="Gdotaccent" unicode="&#x120;" horiz-adv-x="624" 
d="M312 820q14 0 24.5 -10.5t10.5 -24.5t-10.5 -24.5t-24.5 -10.5t-24.5 10.5t-10.5 24.5t10.5 24.5t24.5 10.5zM312 700h11q87 0 146 -42q60 -42 83 -122l-92 -27q-27 95 -137 95h-11q-72 0 -108 -40q-38 -43 -38 -128v-172q0 -85 38 -128q36 -40 108 -40t108 40
q38 41 38 128v38h-146v96h242v-134q0 -122 -62 -192q-66 -72 -180 -72q-115 0 -179 72q-63 69 -63 192v172q0 123 63 192q64 72 179 72z" />
    <glyph glyph-name="gdotaccent" unicode="&#x121;" 
d="M291 648q14 0 24.5 -10.5t10.5 -24.5t-10.5 -24.5t-24.5 -10.5t-24.5 10.5t-10.5 24.5t10.5 24.5t24.5 10.5zM511 528v-502q0 -95 -61 -148q-58 -51 -160 -51h-11q-77 0 -130.5 30t-75.5 86l89 36q23 -56 117 -56h11q66 0 97 27q28 25 28 76v1q-51 -27 -125 -27
q-102 0 -159 51q-61 53 -61 148v129q0 96 61 149q59 51 159 51q75 0 125 -28v28h96zM290 432q-65 0 -96 -28q-28 -24 -28 -76v-129q0 -52 28 -76q30 -27 96 -27t97 27q28 24 28 76v129q0 52 -28 76q-33 28 -97 28z" />
    <glyph glyph-name="Gcommaaccent" unicode="&#x122;" horiz-adv-x="624" 
d="M312 700h11q87 0 146 -42q60 -42 83 -122l-92 -27q-27 95 -137 95h-11q-72 0 -108 -40q-38 -43 -38 -128v-172q0 -85 38 -128q36 -40 108 -40t108 40q38 41 38 128v38h-146v96h242v-134q0 -122 -62 -192q-66 -72 -180 -72q-115 0 -179 72q-63 69 -63 192v172
q0 123 63 192q64 72 179 72zM243 -251l28 -41q55 38 82 99q28 64 28 143h-50q0 -70 -23 -122q-22 -48 -65 -79z" />
    <glyph glyph-name="gcommaaccent" unicode="&#x123;" 
d="M360 779l-28 41q-55 -38 -82 -99q-28 -64 -28 -143h50q0 70 23 122q22 48 65 79zM511 528v-502q0 -95 -61 -148q-58 -51 -160 -51h-11q-77 0 -130.5 30t-75.5 86l89 36q23 -56 117 -56h11q66 0 97 27q28 25 28 76v1q-51 -27 -125 -27q-102 0 -159 51q-61 53 -61 148v129
q0 96 61 149q59 51 159 51q75 0 125 -28v28h96zM290 432q-65 0 -96 -28q-28 -24 -28 -76v-129q0 -52 28 -76q30 -27 96 -27t97 27q28 24 28 76v129q0 52 -28 76q-33 28 -97 28z" />
    <glyph glyph-name="Hbar" unicode="&#x126;" horiz-adv-x="624" 
d="M600 524h-46v-524h-96v302h-292v-302h-96v524h-46v50h46v126h96v-126h292v126h96v-126h46v-50zM458 524h-292v-126h292v126z" />
    <glyph glyph-name="hbar" unicode="&#x127;" 
d="M450 477q61 -53 61 -148v-329h-96v329q0 50 -28 76q-31 27 -97 27t-96 -27q-28 -25 -28 -76v-329h-96v589h-60v50h60v61h96v-61h132v-50h-132v-88q51 27 124 27q102 0 160 -51z" />
    <glyph glyph-name="Itilde" unicode="&#x128;" horiz-adv-x="236" 
d="M27 842q27 11 56.5 4t51.5 -29q25 -25 54 -14q15 7 15 18h50q0 -46 -46 -64q-23 -12 -53.5 -5.5t-54.5 30.5q-25 24 -53 13q-15 -6 -15 -18h-50q0 46 45 65zM166 0h-96v700h96v-700z" />
    <glyph glyph-name="itilde" unicode="&#x129;" horiz-adv-x="272" 
d="M45 670q27 11 56.5 4t51.5 -29q25 -25 54 -14q15 7 15 18h50q0 -46 -46 -64q-23 -12 -53.5 -5.5t-54.5 30.5q-25 24 -53 13q-15 -6 -15 -18h-50q0 46 45 65zM184 0h-96v528h96v-528z" />
    <glyph glyph-name="Imacron" unicode="&#x12a;" horiz-adv-x="236" 
d="M206 750h-177v50h177v-50zM166 0h-96v700h96v-700z" />
    <glyph glyph-name="imacron" unicode="&#x12b;" horiz-adv-x="236" 
d="M206 578h-177v50h177v-50zM166 0h-96v528h96v-528z" />
    <glyph glyph-name="Iogonek" unicode="&#x12e;" horiz-adv-x="236" 
d="M166 700v-700q-33 0 -48 -15q-16 -16 -16 -48q0 -33 16 -48q15 -16 48 -16v-50q-54 0 -84 30t-30 84q0 41 18 68v695h96z" />
    <glyph glyph-name="iogonek" unicode="&#x12f;" horiz-adv-x="256" 
d="M128 584q-23 0 -40.5 17.5t-17.5 40.5q0 24 17.5 41t40.5 17q24 0 41 -17t17 -41q0 -23 -17 -40.5t-41 -17.5zM80 528h96v-528q-33 0 -48 -15q-16 -16 -16 -48q0 -33 16 -48q15 -16 48 -16v-50q-54 0 -84 30t-30 84q0 41 18 68v523z" />
    <glyph glyph-name="Idotaccent" unicode="&#x130;" horiz-adv-x="236" 
d="M118 820q14 0 24.5 -10.5t10.5 -24.5t-10.5 -24.5t-24.5 -10.5t-24.5 10.5t-10.5 24.5t10.5 24.5t24.5 10.5zM166 0h-96v700h96v-700z" />
    <glyph glyph-name="dotlessi" unicode="&#x131;" horiz-adv-x="236" 
d="M166 0h-96v528h96v-528z" />
    <glyph glyph-name="IJ" unicode="&#x132;" horiz-adv-x="527" 
d="M166 0h-96v700h96v-700zM457 700v-436q0 -120 -56 -190q-59 -74 -165 -74v96q61 0 90 38q35 43 35 130v436h96z" />
    <glyph glyph-name="ij" unicode="&#x133;" horiz-adv-x="482" 
d="M128 700q24 0 41 -17t17 -41q0 -23 -17 -40.5t-41 -17.5q-23 0 -40.5 17.5t-17.5 40.5q0 24 17.5 41t40.5 17zM354 700q24 0 41 -17t17 -41q0 -23 -17 -40.5t-41 -17.5q-23 0 -40.5 17.5t-17.5 40.5q0 24 17.5 41t40.5 17zM176 0h-96v528h96v-528zM402 528v-481
q0 -101 -51 -159q-53 -61 -148 -61v96q51 0 75 28q28 31 28 96v481h96z" />
    <glyph glyph-name="Kcommaaccent" unicode="&#x136;" horiz-adv-x="652" 
d="M350 400l232 -400h-111l-184 318l-121 -157v-161h-96v700h96v-382l295 382h121zM257 -251l28 -41q55 38 82 99q28 64 28 143h-50q0 -70 -23 -122q-22 -48 -65 -79z" />
    <glyph glyph-name="kcommaaccent" unicode="&#x137;" horiz-adv-x="575" 
d="M166 301l208 227h131l-216 -235l216 -293h-119l-163 221l-57 -62v-159h-96v700h96v-399zM219 -251l28 -41q55 38 82 99q28 64 28 143h-50q0 -70 -23 -122q-22 -48 -65 -79z" />
    <glyph glyph-name="Lacute" unicode="&#x139;" horiz-adv-x="555" 
d="M270 839l-178 -89l-22 45l177 88zM166 96h319v-96h-415v700h96v-604z" />
    <glyph glyph-name="lacute" unicode="&#x13a;" horiz-adv-x="296" 
d="M218 839l-178 -89l-22 45l177 88zM166 700v-501q0 -58 19 -84q13 -19 41 -19v-96q-37 0 -67 15q-30 14 -52 44q-37 52 -37 140v501h96z" />
    <glyph glyph-name="Lcommaaccent" unicode="&#x13b;" horiz-adv-x="555" 
d="M166 96h319v-96h-415v700h96v-604zM209 -251l28 -41q55 38 82 99q28 64 28 143h-50q0 -70 -23 -122q-22 -48 -65 -79z" />
    <glyph glyph-name="lcommaaccent" unicode="&#x13c;" horiz-adv-x="296" 
d="M166 700v-501q0 -58 19 -84q13 -19 41 -19v-96q-37 0 -67 15q-30 14 -52 44q-37 52 -37 140v501h96zM88 -251l28 -41q55 38 82 99q28 64 28 143h-50q0 -70 -23 -122q-22 -48 -65 -79z" />
    <glyph glyph-name="Lcaron" unicode="&#x13d;" horiz-adv-x="555" 
d="M166 96h319v-96h-415v700h96v-604zM303 478h-50v222h50v-222z" />
    <glyph glyph-name="lcaron" unicode="&#x13e;" horiz-adv-x="296" 
d="M166 700v-501q0 -58 19 -84q13 -19 41 -19v-96q-37 0 -67 15q-30 14 -52 44q-37 52 -37 140v501h96zM266 478h-50v222h50v-222z" />
    <glyph glyph-name="Ldot" unicode="&#x13f;" horiz-adv-x="555" 
d="M166 96h319v-96h-415v700h96v-604zM278 385q14 0 24.5 -10.5t10.5 -24.5t-10.5 -24.5t-24.5 -10.5t-24.5 10.5t-10.5 24.5t10.5 24.5t24.5 10.5z" />
    <glyph glyph-name="ldot" unicode="&#x140;" horiz-adv-x="296" 
d="M166 700v-501q0 -58 19 -84q13 -19 41 -19v-96q-37 0 -67 15q-30 14 -52 44q-37 52 -37 140v501h96zM251 385q14 0 24.5 -10.5t10.5 -24.5t-10.5 -24.5t-24.5 -10.5t-24.5 10.5t-10.5 24.5t10.5 24.5t24.5 10.5z" />
    <glyph glyph-name="Lslash" unicode="&#x141;" horiz-adv-x="601" 
d="M531 96v-96h-415v298l-74 -37l-22 45l96 48v346h96v-298l74 37l22 -45l-96 -48v-250h319z" />
    <glyph glyph-name="lslash" unicode="&#x142;" horiz-adv-x="358" 
d="M211 115q13 -19 41 -19v-96q-37 0 -67 15q-30 14 -52 44q-37 52 -37 140v99l-74 -37l-22 45l96 48v346h96v-298l74 37l22 -45l-96 -48v-147q0 -58 19 -84z" />
    <glyph glyph-name="Nacute" unicode="&#x143;" horiz-adv-x="624" 
d="M412 839l-178 -89l-22 45l177 88zM554 0h-74l-314 489v-489h-96v700h74l314 -489v489h96v-700z" />
    <glyph glyph-name="nacute" unicode="&#x144;" 
d="M391 667l-178 -89l-22 45l177 88zM291 528q99 0 159 -52q61 -53 61 -148v-328h-96v328q0 52 -28 76q-33 28 -96 28q-64 0 -97 -28q-28 -25 -28 -76v-328h-96v528h96v-28q53 28 125 28z" />
    <glyph glyph-name="Ncommaaccent" unicode="&#x145;" horiz-adv-x="624" 
d="M554 0h-74l-314 489v-489h-96v700h74l314 -489v489h96v-700zM243 -251l28 -41q55 38 82 99q28 64 28 143h-50q0 -70 -23 -122q-22 -48 -65 -79z" />
    <glyph glyph-name="ncommaaccent" unicode="&#x146;" 
d="M291 528q99 0 159 -52q61 -53 61 -148v-328h-96v328q0 52 -28 76q-33 28 -96 28q-64 0 -97 -28q-28 -25 -28 -76v-328h-96v528h96v-28q53 28 125 28zM222 -251l28 -41q55 38 82 99q28 64 28 143h-50q0 -70 -23 -122q-22 -48 -65 -79z" />
    <glyph glyph-name="Ncaron" unicode="&#x147;" horiz-adv-x="624" 
d="M439 851l-127 -101l-126 101l31 39l95 -76l96 76zM554 0h-74l-314 489v-489h-96v700h74l314 -489v489h96v-700z" />
    <glyph glyph-name="ncaron" unicode="&#x148;" 
d="M417 679l-127 -101l-126 101l31 39l95 -76l96 76zM291 528q99 0 159 -52q61 -53 61 -148v-328h-96v328q0 52 -28 76q-33 28 -96 28q-64 0 -97 -28q-28 -25 -28 -76v-328h-96v528h96v-28q53 28 125 28z" />
    <glyph glyph-name="Eng" unicode="&#x14a;" horiz-adv-x="624" 
d="M554 700v-652q0 -102 -51 -160q-53 -61 -148 -61v96q50 0 76 28q24 29 27 84l-292 454v-489h-96v700h74l314 -489v489h96z" />
    <glyph glyph-name="eng" unicode="&#x14b;" 
d="M291 528q99 0 159 -52q61 -53 61 -148v-328q-2 -83 -56 -128q-53 -45 -143 -45v96q54 0 81 22q22 19 22 59v324q0 52 -28 76q-33 28 -96 28q-64 0 -97 -28q-28 -25 -28 -76v-328h-96v528h96v-28q53 28 125 28z" />
    <glyph glyph-name="Omacron" unicode="&#x14c;" horiz-adv-x="624" 
d="M401 750h-177v50h177v-50zM312 700q114 0 180 -72q62 -70 62 -192v-172q0 -122 -62 -192q-66 -72 -180 -72q-115 0 -179 72q-63 69 -63 192v172q0 123 63 192q64 72 179 72zM312 604q-72 0 -108 -40q-38 -43 -38 -128v-172q0 -85 38 -128q36 -40 108 -40t108 40
q38 41 38 128v172q0 87 -38 128q-36 40 -108 40z" />
    <glyph glyph-name="omacron" unicode="&#x14d;" 
d="M379 578h-177v50h177v-50zM291 528q99 0 159 -52q61 -53 61 -148v-129q0 -95 -61 -148q-58 -51 -159 -51t-160 51q-61 53 -61 148v129q0 95 61 148q60 52 160 52zM291 432q-64 0 -97 -28q-28 -25 -28 -76v-129q0 -50 28 -76q31 -27 97 -27q65 0 96 27q28 25 28 76v129
q0 52 -28 76q-33 28 -96 28z" />
    <glyph glyph-name="Ohungarumlaut" unicode="&#x150;" horiz-adv-x="624" 
d="M317 839l-111 -89l-31 39l111 89zM450 839l-111 -89l-31 39l111 89zM312 700q114 0 180 -72q62 -70 62 -192v-172q0 -122 -62 -192q-66 -72 -180 -72q-115 0 -179 72q-63 69 -63 192v172q0 123 63 192q64 72 179 72zM312 604q-72 0 -108 -40q-38 -43 -38 -128v-172
q0 -85 38 -128q36 -40 108 -40t108 40q38 41 38 128v172q0 87 -38 128q-36 40 -108 40z" />
    <glyph glyph-name="ohungarumlaut" unicode="&#x151;" 
d="M295 667l-111 -89l-31 39l111 89zM428 667l-111 -89l-31 39l111 89zM291 528q99 0 159 -52q61 -53 61 -148v-129q0 -95 -61 -148q-58 -51 -159 -51t-160 51q-61 53 -61 148v129q0 95 61 148q60 52 160 52zM291 432q-64 0 -97 -28q-28 -25 -28 -76v-129q0 -50 28 -76
q31 -27 97 -27q65 0 96 27q28 25 28 76v129q0 52 -28 76q-33 28 -96 28z" />
    <glyph glyph-name="OE" unicode="&#x152;" horiz-adv-x="943" 
d="M554 398h319v-96h-319v-206h319v-96h-415v42q-58 -42 -146 -42q-115 0 -179 72q-63 69 -63 192v172q0 123 63 192q64 72 179 72q88 0 146 -42v42h415v-96h-319v-206zM420 136q38 41 38 128v172q0 87 -38 128q-36 40 -108 40t-108 -40q-38 -43 -38 -128v-172
q0 -85 38 -128q36 -40 108 -40t108 40z" />
    <glyph glyph-name="oe" unicode="&#x153;" horiz-adv-x="926" 
d="M511 216v-17q0 -50 28 -76q31 -27 97 -27h11q94 0 117 56l89 -36q-24 -58 -80 -88q-50 -28 -126 -28h-11q-102 0 -160 51q-7 6 -13 13q-6 -7 -13 -13q-58 -51 -159 -51t-160 51q-61 53 -61 148v129q0 95 61 148q60 52 160 52q99 0 159 -52q7 -6 13 -13q6 7 13 13
q60 52 160 52q99 0 159 -52q61 -53 61 -148v-112h-345zM387 123q28 25 28 76v129q0 52 -28 76q-33 28 -96 28q-64 0 -97 -28q-28 -25 -28 -76v-129q0 -50 28 -76q31 -27 97 -27q65 0 96 27zM539 404q-28 -25 -28 -76v-16h249v16q0 52 -28 76q-33 28 -96 28q-64 0 -97 -28z
" />
    <glyph glyph-name="Racute" unicode="&#x154;" horiz-adv-x="624" 
d="M412 839l-178 -89l-22 45l177 88zM70 700h242q112 0 176 -57q66 -58 66 -164q0 -105 -66 -163q-49 -45 -130 -54l196 -262h-120l-194 259h-74v-259h-96v700zM166 604v-249h146q75 0 112 32q34 31 34 92q0 62 -34 92q-36 33 -112 33h-146z" />
    <glyph glyph-name="racute" unicode="&#x155;" horiz-adv-x="404" 
d="M302 667l-178 -89l-22 45l177 88zM334 432h-43q-65 0 -97 -27q-28 -26 -28 -76v-329h-96v528h96v-27q51 27 125 27h43v-96z" />
    <glyph glyph-name="Rcommaaccent" unicode="&#x156;" horiz-adv-x="624" 
d="M70 700h242q112 0 176 -57q66 -58 66 -164q0 -105 -66 -163q-49 -45 -130 -54l196 -262h-120l-194 259h-74v-259h-96v700zM166 604v-249h146q75 0 112 32q34 31 34 92q0 62 -34 92q-36 33 -112 33h-146zM243 -251l28 -41q55 38 82 99q28 64 28 143h-50q0 -70 -23 -122
q-22 -48 -65 -79z" />
    <glyph glyph-name="rcommaaccent" unicode="&#x157;" horiz-adv-x="404" 
d="M334 432h-43q-65 0 -97 -27q-28 -26 -28 -76v-329h-96v528h96v-27q51 27 125 27h43v-96zM5 -251l28 -41q55 38 82 99q28 64 28 143h-50q0 -70 -23 -122q-22 -48 -65 -79z" />
    <glyph glyph-name="Rcaron" unicode="&#x158;" horiz-adv-x="624" 
d="M439 851l-127 -101l-126 101l31 39l95 -76l96 76zM70 700h242q112 0 176 -57q66 -58 66 -164q0 -105 -66 -163q-49 -45 -130 -54l196 -262h-120l-194 259h-74v-259h-96v700zM166 604v-249h146q75 0 112 32q34 31 34 92q0 62 -34 92q-36 33 -112 33h-146z" />
    <glyph glyph-name="rcaron" unicode="&#x159;" horiz-adv-x="404" 
d="M329 679l-127 -101l-126 101l31 39l95 -76l96 76zM334 432h-43q-65 0 -97 -27q-28 -26 -28 -76v-329h-96v528h96v-27q51 27 125 27h43v-96z" />
    <glyph glyph-name="Sacute" unicode="&#x15a;" horiz-adv-x="624" 
d="M412 839l-178 -89l-22 45l177 88zM312 700h11q87 0 146 -42q60 -42 83 -122l-92 -27q-27 95 -137 95h-11q-77 0 -114 -29q-32 -25 -32 -74t32 -74q37 -29 114 -29q109 0 173 -49q69 -53 69 -150q0 -98 -69 -150q-64 -49 -173 -49h-11q-88 0 -146 42q-60 44 -83 122l92 27
q27 -95 137 -95h11q77 0 115 29q31 25 31 74t-31 74q-38 29 -115 29q-109 0 -173 49q-69 54 -69 150t69 150q62 49 173 49z" />
    <glyph glyph-name="sacute" unicode="&#x15b;" 
d="M391 667l-178 -89l-22 45l177 88zM291 528h11q73 0 126 -28q55 -30 80 -89l-89 -36q-23 57 -117 57h-11q-70 0 -103 -21q-22 -15 -22 -39q0 -25 22 -40q33 -20 103 -20q96 0 153 -36q67 -42 67 -120q0 -79 -67 -121q-58 -35 -153 -35h-12q-74 0 -126 28q-56 30 -80 88
l90 36q23 -56 116 -56h12q69 0 102 21q22 12 22 39q0 25 -22 39q-31 21 -102 21q-96 0 -154 35q-67 42 -67 121q0 78 67 120q57 36 154 36z" />
    <glyph glyph-name="Scedilla" unicode="&#x15e;" horiz-adv-x="624" 
d="M485 349q69 -53 69 -150q0 -98 -69 -150q-63 -48 -168 -49l-14 -56q38 -3 60 -27.5t22 -64.5q0 -42 -24.5 -66.5t-67.5 -24.5h-44v50h44q22 0 32 10t10 31q0 20 -10 32q-10 10 -32 10h-54l27 108q-63 6 -111 40q-60 44 -83 122l92 27q27 -95 137 -95h11q77 0 115 29
q31 25 31 74t-31 74q-38 29 -115 29q-109 0 -173 49q-69 54 -69 150t69 150q62 49 173 49h11q87 0 146 -42q60 -42 83 -122l-92 -27q-27 95 -137 95h-11q-77 0 -114 -29q-32 -25 -32 -74t32 -74q37 -29 114 -29q109 0 173 -49z" />
    <glyph glyph-name="scedilla" unicode="&#x15f;" 
d="M444 276q67 -42 67 -120q0 -79 -67 -121q-56 -34 -148 -35l-14 -56q38 -3 60 -27.5t22 -64.5q0 -42 -24.5 -66.5t-67.5 -24.5h-44v50h44q22 0 32 10t10 31q0 20 -10 32q-10 10 -32 10h-54l27 108q-50 4 -92 26q-56 30 -80 88l90 36q23 -56 116 -56h12q69 0 102 21
q22 12 22 39q0 25 -22 39q-31 21 -102 21q-96 0 -154 35q-67 42 -67 121q0 78 67 120q57 36 154 36h11q73 0 126 -28q55 -30 80 -89l-89 -36q-23 57 -117 57h-11q-70 0 -103 -21q-22 -15 -22 -39q0 -25 22 -40q33 -20 103 -20q96 0 153 -36z" />
    <glyph glyph-name="Scaron" unicode="&#x160;" horiz-adv-x="624" 
d="M439 851l-127 -101l-126 101l31 39l95 -76l96 76zM312 700h11q87 0 146 -42q60 -42 83 -122l-92 -27q-27 95 -137 95h-11q-77 0 -114 -29q-32 -25 -32 -74t32 -74q37 -29 114 -29q109 0 173 -49q69 -53 69 -150q0 -98 -69 -150q-64 -49 -173 -49h-11q-88 0 -146 42
q-60 44 -83 122l92 27q27 -95 137 -95h11q77 0 115 29q31 25 31 74t-31 74q-38 29 -115 29q-109 0 -173 49q-69 54 -69 150t69 150q62 49 173 49z" />
    <glyph glyph-name="scaron" unicode="&#x161;" 
d="M417 679l-127 -101l-126 101l31 39l95 -76l96 76zM291 528h11q73 0 126 -28q55 -30 80 -89l-89 -36q-23 57 -117 57h-11q-70 0 -103 -21q-22 -15 -22 -39q0 -25 22 -40q33 -20 103 -20q96 0 153 -36q67 -42 67 -120q0 -79 -67 -121q-58 -35 -153 -35h-12q-74 0 -126 28
q-56 30 -80 88l90 36q23 -56 116 -56h12q69 0 102 21q22 12 22 39q0 25 -22 39q-31 21 -102 21q-96 0 -154 35q-67 42 -67 121q0 78 67 120q57 36 154 36z" />
    <glyph glyph-name="Tcedilla" unicode="&#x162;" horiz-adv-x="550" 
d="M301 0l-14 -57q38 -3 60 -27.5t22 -64.5q0 -42 -24.5 -66.5t-67.5 -24.5h-44v50h44q22 0 32 10t10 31q0 20 -10 32q-10 10 -32 10h-54l27 107h-23v604h-157v96h410v-96h-157v-604h-22z" />
    <glyph glyph-name="tcedilla" unicode="&#x163;" horiz-adv-x="420" 
d="M350 0l-14 -57q38 -3 60 -27.5t22 -64.5q0 -42 -24.5 -66.5t-67.5 -24.5h-44v50h44q22 0 32 10t10 31q0 20 -10 32q-10 10 -32 10h-54l28 111q-65 9 -109 47q-61 53 -61 148v233h-60v96h60v172h96v-172h124v-96h-124v-233q0 -51 28 -76q32 -27 96 -27v-96z" />
    <glyph glyph-name="Tcaron" unicode="&#x164;" horiz-adv-x="550" 
d="M402 851l-127 -101l-126 101l31 39l95 -76l96 76zM480 604h-157v-604h-96v604h-157v96h410v-96z" />
    <glyph glyph-name="tcaron" unicode="&#x165;" horiz-adv-x="420" 
d="M350 588h-50v222h50v-222zM226 528h124v-96h-124v-233q0 -51 28 -76q32 -27 96 -27v-96q-100 0 -159 51q-61 53 -61 148v233h-60v96h60v172h96v-172z" />
    <glyph glyph-name="Tbar" unicode="&#x166;" horiz-adv-x="550" 
d="M323 604v-229h96v-50h-96v-325h-96v325h-96v50h96v229h-157v96h410v-96h-157z" />
    <glyph glyph-name="tbar" unicode="&#x167;" horiz-adv-x="420" 
d="M226 325v-126q0 -51 28 -76q32 -27 96 -27v-96q-100 0 -159 51q-61 53 -61 148v126h-60v50h60v57h-60v96h60v172h96v-172h124v-96h-124v-57h132v-50h-132z" />
    <glyph glyph-name="Utilde" unicode="&#x168;" horiz-adv-x="625" 
d="M222 842q27 11 56.5 4t51.5 -29q25 -25 54 -14q15 7 15 18h50q0 -46 -46 -64q-23 -12 -53.5 -5.5t-54.5 30.5q-25 24 -53 13q-15 -6 -15 -18h-50q0 46 45 65zM555 700v-436q0 -121 -63 -192q-64 -72 -180 -72q-115 0 -179 72q-63 69 -63 192v436h96v-436q0 -85 38 -128
q36 -40 108 -40q73 0 109 40q38 43 38 128v436h96z" />
    <glyph glyph-name="utilde" unicode="&#x169;" horiz-adv-x="582" 
d="M200 670q27 11 56.5 4t51.5 -29q25 -25 54 -14q15 7 15 18h50q0 -46 -46 -64q-23 -12 -53.5 -5.5t-54.5 30.5q-25 24 -53 13q-15 -6 -15 -18h-50q0 46 45 65zM512 0h-96v27q-51 -27 -125 -27q-102 0 -159 51q-62 54 -62 148v329h96v-329q0 -50 29 -76q30 -27 96 -27
t96 27q29 26 29 76v329h96v-528z" />
    <glyph glyph-name="Umacron" unicode="&#x16a;" horiz-adv-x="625" 
d="M401 750h-177v50h177v-50zM555 700v-436q0 -121 -63 -192q-64 -72 -180 -72q-115 0 -179 72q-63 69 -63 192v436h96v-436q0 -85 38 -128q36 -40 108 -40q73 0 109 40q38 43 38 128v436h96z" />
    <glyph glyph-name="umacron" unicode="&#x16b;" horiz-adv-x="582" 
d="M380 578h-177v50h177v-50zM512 0h-96v27q-51 -27 -125 -27q-102 0 -159 51q-62 54 -62 148v329h96v-329q0 -50 29 -76q30 -27 96 -27t96 27q29 26 29 76v329h96v-528z" />
    <glyph glyph-name="Uring" unicode="&#x16e;" horiz-adv-x="625" 
d="M312 933q43 0 67.5 -24.5t24.5 -67.5q0 -42 -24.5 -66.5t-67.5 -24.5q-42 0 -66.5 24.5t-24.5 66.5q0 43 24.5 67.5t66.5 24.5zM312 883q-22 0 -31 -10q-10 -10 -10 -32t10 -31q9 -10 31 -10t32 10q10 9 10 31t-10 32t-32 10zM555 700v-436q0 -121 -63 -192
q-64 -72 -180 -72q-115 0 -179 72q-63 69 -63 192v436h96v-436q0 -85 38 -128q36 -40 108 -40q73 0 109 40q38 43 38 128v436h96z" />
    <glyph glyph-name="uring" unicode="&#x16f;" horiz-adv-x="582" 
d="M291 761q43 0 67.5 -24.5t24.5 -67.5q0 -42 -24.5 -66.5t-67.5 -24.5q-42 0 -66.5 24.5t-24.5 66.5q0 43 24.5 67.5t66.5 24.5zM291 711q-22 0 -31 -10q-10 -10 -10 -32t10 -31q9 -10 31 -10t32 10q10 9 10 31t-10 32t-32 10zM512 0h-96v27q-51 -27 -125 -27
q-102 0 -159 51q-62 54 -62 148v329h96v-329q0 -50 29 -76q30 -27 96 -27t96 27q29 26 29 76v329h96v-528z" />
    <glyph glyph-name="Uhungarumlaut" unicode="&#x170;" horiz-adv-x="625" 
d="M317 839l-111 -89l-31 39l111 89zM450 839l-111 -89l-31 39l111 89zM555 700v-436q0 -121 -63 -192q-64 -72 -180 -72q-115 0 -179 72q-63 69 -63 192v436h96v-436q0 -85 38 -128q36 -40 108 -40q73 0 109 40q38 43 38 128v436h96z" />
    <glyph glyph-name="uhungarumlaut" unicode="&#x171;" horiz-adv-x="582" 
d="M296 667l-111 -89l-31 39l111 89zM429 667l-111 -89l-31 39l111 89zM512 0h-96v27q-51 -27 -125 -27q-102 0 -159 51q-62 54 -62 148v329h96v-329q0 -50 29 -76q30 -27 96 -27t96 27q29 26 29 76v329h96v-528z" />
    <glyph glyph-name="Uogonek" unicode="&#x172;" horiz-adv-x="625" 
d="M555 700v-436q0 -121 -63 -192q-56 -63 -154 -71q-9 -3 -16 -10q-16 -16 -16 -48q0 -33 16 -48q15 -16 48 -16v-50q-54 0 -84 30t-30 84q0 35 13 60q-85 12 -136 69q-63 69 -63 192v436h96v-436q0 -85 38 -128q36 -40 108 -40q73 0 109 40q38 43 38 128v436h96z" />
    <glyph glyph-name="uogonek" unicode="&#x173;" horiz-adv-x="582" 
d="M512 528v-528q-33 0 -48 -15q-16 -16 -16 -48q0 -33 16 -48q15 -16 48 -16v-50q-54 0 -84 30t-30 84q0 41 18 68v22q-51 -27 -125 -27q-102 0 -159 51q-62 54 -62 148v329h96v-329q0 -50 29 -76q30 -27 96 -27t96 27q29 26 29 76v329h96z" />
    <glyph glyph-name="Wcircumflex" unicode="&#x174;" horiz-adv-x="1048" 
d="M524 826l-95 -76l-31 39l126 101l127 -101l-31 -39zM753 0h-70l-159 495l-159 -495h-70l-225 700h101l159 -495l159 495h70l159 -495l160 495h100z" />
    <glyph glyph-name="wcircumflex" unicode="&#x175;" horiz-adv-x="972" 
d="M486 654l-95 -76l-31 39l126 101l127 -101l-31 -39zM691 0h-65l-140 351l-140 -351h-65l-211 528h103l141 -351l140 351h65l140 -351l140 351h103z" />
    <glyph glyph-name="Ycircumflex" unicode="&#x176;" horiz-adv-x="684" 
d="M342 826l-95 -76l-31 39l126 101l127 -101l-31 -39zM390 252v-252h-96v252l-224 448h107l165 -329l164 329h108z" />
    <glyph glyph-name="ycircumflex" unicode="&#x177;" horiz-adv-x="582" 
d="M291 654l-95 -76l-31 39l126 101l127 -101l-31 -39zM512 528v-502q0 -95 -61 -148q-58 -51 -160 -51h-11q-73 0 -127 28q-56 31 -79 89l89 36q23 -57 117 -57h11q65 0 96 28q29 24 29 75v1q-51 -27 -125 -27q-101 0 -160 51q-61 53 -61 148v329h96v-329q0 -50 29 -76
q30 -27 96 -27t96 27q29 26 29 76v329h96z" />
    <glyph glyph-name="Ydieresis" unicode="&#x178;" horiz-adv-x="684" 
d="M287 820q14 0 24.5 -10.5t10.5 -24.5t-10.5 -24.5t-24.5 -10.5t-24.5 10.5t-10.5 24.5t10.5 24.5t24.5 10.5zM397 820q14 0 24.5 -10.5t10.5 -24.5t-10.5 -24.5t-24.5 -10.5t-24.5 10.5t-10.5 24.5t10.5 24.5t24.5 10.5zM390 252v-252h-96v252l-224 448h107l165 -329
l164 329h108z" />
    <glyph glyph-name="Zacute" unicode="&#x179;" horiz-adv-x="572" 
d="M386 839l-178 -89l-22 45l177 88zM502 570l-339 -474h339v-96h-432v131l338 473h-338v96h432v-130z" />
    <glyph glyph-name="zacute" unicode="&#x17a;" horiz-adv-x="528" 
d="M364 667l-178 -89l-22 45l177 88zM458 408l-280 -312h280v-96h-388v120l281 312h-281v96h388v-120z" />
    <glyph glyph-name="Zdotaccent" unicode="&#x17b;" horiz-adv-x="572" 
d="M286 820q14 0 24.5 -10.5t10.5 -24.5t-10.5 -24.5t-24.5 -10.5t-24.5 10.5t-10.5 24.5t10.5 24.5t24.5 10.5zM502 570l-339 -474h339v-96h-432v131l338 473h-338v96h432v-130z" />
    <glyph glyph-name="zdotaccent" unicode="&#x17c;" horiz-adv-x="528" 
d="M264 648q14 0 24.5 -10.5t10.5 -24.5t-10.5 -24.5t-24.5 -10.5t-24.5 10.5t-10.5 24.5t10.5 24.5t24.5 10.5zM458 408l-280 -312h280v-96h-388v120l281 312h-281v96h388v-120z" />
    <glyph glyph-name="Zcaron" unicode="&#x17d;" horiz-adv-x="572" 
d="M413 851l-127 -101l-126 101l31 39l95 -76l96 76zM502 570l-339 -474h339v-96h-432v131l338 473h-338v96h432v-130z" />
    <glyph glyph-name="zcaron" unicode="&#x17e;" horiz-adv-x="528" 
d="M391 679l-127 -101l-126 101l31 39l95 -76l96 76zM458 408l-280 -312h280v-96h-388v120l281 312h-281v96h388v-120z" />
    <glyph glyph-name="Ohorn" unicode="&#x1a0;" horiz-adv-x="656" 
d="M616 700v-88q0 -50 -22 -81q-18 -24 -45 -30q5 -33 5 -65v-172q0 -122 -62 -192q-66 -72 -180 -72q-115 0 -179 72q-63 69 -63 192v172q0 123 63 192q64 72 179 72q114 0 180 -72q30 -33 45 -78q11 2 17 11q12 17 12 51v88h50zM458 264v172q0 87 -38 128q-36 40 -108 40
t-108 -40q-38 -43 -38 -128v-172q0 -85 38 -128q36 -40 108 -40t108 40q38 41 38 128z" />
    <glyph glyph-name="ohorn" unicode="&#x1a1;" horiz-adv-x="603" 
d="M573 528v-88q0 -50 -22 -81q-15 -21 -40 -29v-2v-129q0 -95 -61 -148q-58 -51 -159 -51t-160 51q-61 53 -61 148v129q0 95 61 148q60 52 160 52q99 0 159 -52q41 -35 55 -93q5 3 6 6q12 17 12 51v88h50zM415 199v129q0 52 -28 76q-33 28 -96 28q-64 0 -97 -28
q-28 -25 -28 -76v-129q0 -50 28 -76q31 -27 97 -27q65 0 96 27q28 25 28 76z" />
    <glyph glyph-name="Uhorn" unicode="&#x1af;" horiz-adv-x="675" 
d="M665 700v-88q0 -50 -22 -81q-24 -33 -70 -33h-18v-234q0 -121 -63 -192q-64 -72 -180 -72q-115 0 -179 72q-63 69 -63 192v436h96v-436q0 -85 38 -128q36 -40 108 -40q73 0 109 40q38 43 38 128v436h96v-152h18q21 0 30 13q12 17 12 51v88h50z" />
    <glyph glyph-name="uhorn" unicode="&#x1b0;" horiz-adv-x="632" 
d="M622 528v-88q0 -50 -22 -81q-24 -33 -70 -33h-18v-326h-96v27q-51 -27 -125 -27q-102 0 -159 51q-62 54 -62 148v329h96v-329q0 -50 29 -76q30 -27 96 -27t96 27q29 26 29 76v329h96v-152h18q21 0 30 13q12 17 12 51v88h50z" />
    <glyph glyph-name="Acaron" unicode="&#x1cd;" horiz-adv-x="708" 
d="M481 851l-127 -101l-126 101l31 39l95 -76l96 76zM638 0h-102l-46 129h-271l-47 -129h-102l250 700h68zM253 225h203l-102 284z" />
    <glyph glyph-name="acaron" unicode="&#x1ce;" horiz-adv-x="582" 
d="M418 679l-127 -101l-126 101l31 39l95 -76l96 76zM290 528h1q101 0 159 -52q62 -54 62 -148v-328h-96v27q-51 -27 -125 -27h-22q-89 0 -139 37q-30 21 -45 52q-15 30 -15 67t15 67q15 31 45 52q52 37 139 37h147v16q0 52 -29 76q-31 28 -96 28h-1q-116 0 -124 -87l-95 10
q8 83 69 129q58 44 150 44zM416 216h-147q-56 0 -84 -19q-19 -17 -19 -41q0 -27 19 -41q27 -19 84 -19h22q66 0 96 27q29 26 29 76v17z" />
    <glyph glyph-name="Icaron" unicode="&#x1cf;" horiz-adv-x="236" 
d="M244 851l-127 -101l-126 101l31 39l95 -76l96 76zM166 0h-96v700h96v-700z" />
    <glyph glyph-name="icaron" unicode="&#x1d0;" horiz-adv-x="253" 
d="M253 679l-127 -101l-126 101l31 39l95 -76l96 76zM175 0h-96v528h96v-528z" />
    <glyph glyph-name="Ocaron" unicode="&#x1d1;" horiz-adv-x="624" 
d="M439 851l-127 -101l-126 101l31 39l95 -76l96 76zM312 700q114 0 180 -72q62 -70 62 -192v-172q0 -122 -62 -192q-66 -72 -180 -72q-115 0 -179 72q-63 69 -63 192v172q0 123 63 192q64 72 179 72zM312 604q-72 0 -108 -40q-38 -43 -38 -128v-172q0 -85 38 -128
q36 -40 108 -40t108 40q38 41 38 128v172q0 87 -38 128q-36 40 -108 40z" />
    <glyph glyph-name="ocaron" unicode="&#x1d2;" 
d="M417 679l-127 -101l-126 101l31 39l95 -76l96 76zM291 528q99 0 159 -52q61 -53 61 -148v-129q0 -95 -61 -148q-58 -51 -159 -51t-160 51q-61 53 -61 148v129q0 95 61 148q60 52 160 52zM291 432q-64 0 -97 -28q-28 -25 -28 -76v-129q0 -50 28 -76q31 -27 97 -27
q65 0 96 27q28 25 28 76v129q0 52 -28 76q-33 28 -96 28z" />
    <glyph glyph-name="Ucaron" unicode="&#x1d3;" horiz-adv-x="625" 
d="M439 851l-127 -101l-126 101l31 39l95 -76l96 76zM555 700v-436q0 -121 -63 -192q-64 -72 -180 -72q-115 0 -179 72q-63 69 -63 192v436h96v-436q0 -85 38 -128q36 -40 108 -40q73 0 109 40q38 43 38 128v436h96z" />
    <glyph glyph-name="ucaron" unicode="&#x1d4;" horiz-adv-x="582" 
d="M418 679l-127 -101l-126 101l31 39l95 -76l96 76zM512 0h-96v27q-51 -27 -125 -27q-102 0 -159 51q-62 54 -62 148v329h96v-329q0 -50 29 -76q30 -27 96 -27t96 27q29 26 29 76v329h96v-528z" />
    <glyph glyph-name="Udieresismacron" unicode="&#x1d5;" horiz-adv-x="625" 
d="M402 850h-177v50h177v-50zM258 820q14 0 24.5 -10.5t10.5 -24.5t-10.5 -24.5t-24.5 -10.5t-24.5 10.5t-10.5 24.5t10.5 24.5t24.5 10.5zM368 820q14 0 24.5 -10.5t10.5 -24.5t-10.5 -24.5t-24.5 -10.5t-24.5 10.5t-10.5 24.5t10.5 24.5t24.5 10.5zM555 700v-436
q0 -121 -63 -192q-64 -72 -180 -72q-115 0 -179 72q-63 69 -63 192v436h96v-436q0 -85 38 -128q36 -40 108 -40q73 0 109 40q38 43 38 128v436h96z" />
    <glyph glyph-name="udieresismacron" unicode="&#x1d6;" horiz-adv-x="582" 
d="M380 678h-177v50h177v-50zM236 648q14 0 24.5 -10.5t10.5 -24.5t-10.5 -24.5t-24.5 -10.5t-24.5 10.5t-10.5 24.5t10.5 24.5t24.5 10.5zM346 648q14 0 24.5 -10.5t10.5 -24.5t-10.5 -24.5t-24.5 -10.5t-24.5 10.5t-10.5 24.5t10.5 24.5t24.5 10.5zM512 0h-96v27
q-51 -27 -125 -27q-102 0 -159 51q-62 54 -62 148v329h96v-329q0 -50 29 -76q30 -27 96 -27t96 27q29 26 29 76v329h96v-528z" />
    <glyph glyph-name="Udieresisacute" unicode="&#x1d7;" horiz-adv-x="625" 
d="M413 929l-178 -89l-22 45l177 88zM258 820q14 0 24.5 -10.5t10.5 -24.5t-10.5 -24.5t-24.5 -10.5t-24.5 10.5t-10.5 24.5t10.5 24.5t24.5 10.5zM368 820q14 0 24.5 -10.5t10.5 -24.5t-10.5 -24.5t-24.5 -10.5t-24.5 10.5t-10.5 24.5t10.5 24.5t24.5 10.5zM555 700v-436
q0 -121 -63 -192q-64 -72 -180 -72q-115 0 -179 72q-63 69 -63 192v436h96v-436q0 -85 38 -128q36 -40 108 -40q73 0 109 40q38 43 38 128v436h96z" />
    <glyph glyph-name="udieresisacute" unicode="&#x1d8;" horiz-adv-x="582" 
d="M391 757l-178 -89l-22 45l177 88zM236 648q14 0 24.5 -10.5t10.5 -24.5t-10.5 -24.5t-24.5 -10.5t-24.5 10.5t-10.5 24.5t10.5 24.5t24.5 10.5zM346 648q14 0 24.5 -10.5t10.5 -24.5t-10.5 -24.5t-24.5 -10.5t-24.5 10.5t-10.5 24.5t10.5 24.5t24.5 10.5zM512 0h-96v27
q-51 -27 -125 -27q-102 0 -159 51q-62 54 -62 148v329h96v-329q0 -50 29 -76q30 -27 96 -27t96 27q29 26 29 76v329h96v-528z" />
    <glyph glyph-name="Udieresiscaron" unicode="&#x1d9;" horiz-adv-x="625" 
d="M439 931l-127 -101l-126 101l31 39l95 -76l96 76zM258 820q14 0 24.5 -10.5t10.5 -24.5t-10.5 -24.5t-24.5 -10.5t-24.5 10.5t-10.5 24.5t10.5 24.5t24.5 10.5zM368 820q14 0 24.5 -10.5t10.5 -24.5t-10.5 -24.5t-24.5 -10.5t-24.5 10.5t-10.5 24.5t10.5 24.5t24.5 10.5z
M555 700v-436q0 -121 -63 -192q-64 -72 -180 -72q-115 0 -179 72q-63 69 -63 192v436h96v-436q0 -85 38 -128q36 -40 108 -40q73 0 109 40q38 43 38 128v436h96z" />
    <glyph glyph-name="udieresiscaron" unicode="&#x1da;" horiz-adv-x="582" 
d="M418 759l-127 -101l-126 101l31 39l95 -76l96 76zM237 648q14 0 24.5 -10.5t10.5 -24.5t-10.5 -24.5t-24.5 -10.5t-24.5 10.5t-10.5 24.5t10.5 24.5t24.5 10.5zM347 648q14 0 24.5 -10.5t10.5 -24.5t-10.5 -24.5t-24.5 -10.5t-24.5 10.5t-10.5 24.5t10.5 24.5t24.5 10.5z
M512 0h-96v27q-51 -27 -125 -27q-102 0 -159 51q-62 54 -62 148v329h96v-329q0 -50 29 -76q30 -27 96 -27t96 27q29 26 29 76v329h96v-528z" />
    <glyph glyph-name="Udieresisgrave" unicode="&#x1db;" horiz-adv-x="625" 
d="M413 885l-22 -45l-178 89l23 44zM258 820q14 0 24.5 -10.5t10.5 -24.5t-10.5 -24.5t-24.5 -10.5t-24.5 10.5t-10.5 24.5t10.5 24.5t24.5 10.5zM368 820q14 0 24.5 -10.5t10.5 -24.5t-10.5 -24.5t-24.5 -10.5t-24.5 10.5t-10.5 24.5t10.5 24.5t24.5 10.5zM555 700v-436
q0 -121 -63 -192q-64 -72 -180 -72q-115 0 -179 72q-63 69 -63 192v436h96v-436q0 -85 38 -128q36 -40 108 -40q73 0 109 40q38 43 38 128v436h96z" />
    <glyph glyph-name="udieresisgrave" unicode="&#x1dc;" horiz-adv-x="582" 
d="M391 713l-22 -45l-178 89l23 44zM236 648q14 0 24.5 -10.5t10.5 -24.5t-10.5 -24.5t-24.5 -10.5t-24.5 10.5t-10.5 24.5t10.5 24.5t24.5 10.5zM346 648q14 0 24.5 -10.5t10.5 -24.5t-10.5 -24.5t-24.5 -10.5t-24.5 10.5t-10.5 24.5t10.5 24.5t24.5 10.5zM512 0h-96v27
q-51 -27 -125 -27q-102 0 -159 51q-62 54 -62 148v329h96v-329q0 -50 29 -76q30 -27 96 -27t96 27q29 26 29 76v329h96v-528z" />
    <glyph glyph-name="Scommaaccent" unicode="&#x218;" horiz-adv-x="624" 
d="M312 700h11q87 0 146 -42q60 -42 83 -122l-92 -27q-27 95 -137 95h-11q-77 0 -114 -29q-32 -25 -32 -74t32 -74q37 -29 114 -29q109 0 173 -49q69 -53 69 -150q0 -98 -69 -150q-64 -49 -173 -49h-11q-88 0 -146 42q-60 44 -83 122l92 27q27 -95 137 -95h11q77 0 115 29
q31 25 31 74t-31 74q-38 29 -115 29q-109 0 -173 49q-69 54 -69 150t69 150q62 49 173 49zM243 -251l28 -41q55 38 82 99q28 64 28 143h-50q0 -70 -23 -122q-22 -48 -65 -79z" />
    <glyph glyph-name="scommaaccent" unicode="&#x219;" 
d="M291 528h11q73 0 126 -28q55 -30 80 -89l-89 -36q-23 57 -117 57h-11q-70 0 -103 -21q-22 -15 -22 -39q0 -25 22 -40q33 -20 103 -20q96 0 153 -36q67 -42 67 -120q0 -79 -67 -121q-58 -35 -153 -35h-12q-74 0 -126 28q-56 30 -80 88l90 36q23 -56 116 -56h12
q69 0 102 21q22 12 22 39q0 25 -22 39q-31 21 -102 21q-96 0 -154 35q-67 42 -67 121q0 78 67 120q57 36 154 36zM222 -251l28 -41q55 38 82 99q28 64 28 143h-50q0 -70 -23 -122q-22 -48 -65 -79z" />
    <glyph glyph-name="uni021A" unicode="&#x21a;" horiz-adv-x="550" 
d="M480 604h-157v-604h-96v604h-157v96h410v-96zM162 -251l28 -41q55 38 82 99q28 64 28 143h-50q0 -70 -23 -122q-22 -48 -65 -79z" />
    <glyph glyph-name="uni021B" unicode="&#x21b;" horiz-adv-x="420" 
d="M226 528h124v-96h-124v-233q0 -51 28 -76q32 -27 96 -27v-96q-100 0 -159 51q-61 53 -61 148v233h-60v96h60v172h96v-172zM141 -251l28 -41q55 38 82 99q28 64 28 143h-50q0 -70 -23 -122q-22 -48 -65 -79z" />
    <glyph glyph-name="circumflex" unicode="&#x2c6;" horiz-adv-x="253" 
d="M126 826l-95 -76l-31 39l126 101l127 -101l-31 -39z" />
    <glyph glyph-name="caron" unicode="&#x2c7;" horiz-adv-x="253" 
d="M253 851l-127 -101l-126 101l31 39l95 -76l96 76z" />
    <glyph glyph-name="breve" unicode="&#x2d8;" horiz-adv-x="227" 
d="M177 864h50q0 -54 -30 -84t-83 -30q-54 0 -84 30t-30 84h50q0 -33 16 -48q15 -16 48 -16q32 0 48 16q15 15 15 48z" />
    <glyph glyph-name="dotaccent" unicode="&#x2d9;" horiz-adv-x="70" 
d="M35 820q14 0 24.5 -10.5t10.5 -24.5t-10.5 -24.5t-24.5 -10.5t-24.5 10.5t-10.5 24.5t10.5 24.5t24.5 10.5z" />
    <glyph glyph-name="ring" unicode="&#x2da;" horiz-adv-x="183" 
d="M91 933q43 0 67.5 -24.5t24.5 -67.5q0 -42 -24.5 -66.5t-67.5 -24.5q-42 0 -66.5 24.5t-24.5 66.5q0 43 24.5 67.5t66.5 24.5zM91 883q-22 0 -31 -10q-10 -10 -10 -32t10 -31q9 -10 31 -10t32 10q10 9 10 31t-10 32t-32 10z" />
    <glyph glyph-name="ogonek" unicode="&#x2db;" horiz-adv-x="114" 
d="M114 50v-50q-33 0 -48 -15q-16 -16 -16 -48q0 -33 16 -48q15 -16 48 -16v-50q-54 0 -84 30t-30 84q0 53 30 83t84 30z" />
    <glyph glyph-name="tilde" unicode="&#x2dc;" horiz-adv-x="272" 
d="M45 842q27 11 56.5 4t51.5 -29q25 -25 54 -14q15 7 15 18h50q0 -46 -46 -64q-23 -12 -53.5 -5.5t-54.5 30.5q-25 24 -53 13q-15 -6 -15 -18h-50q0 46 45 65z" />
    <glyph glyph-name="hungarumlaut" unicode="&#x2dd;" horiz-adv-x="275" 
d="M142 839l-111 -89l-31 39l111 89zM275 839l-111 -89l-31 39l111 89z" />
    <glyph glyph-name="hookabovecomb" unicode="&#x309;" horiz-adv-x="0" 
d="M0 861v50q37 0 59 -22q21 -21 21 -59q0 -37 -21 -58q-22 -22 -59 -22v50q30 0 30 30q0 31 -30 31z" />
    <glyph glyph-name="uni0312" unicode="&#x312;" horiz-adv-x="0" 
d="M138 779l-28 41q-55 -38 -82 -99q-28 -64 -28 -143h50q0 70 23 122q22 48 65 79z" />
    <glyph glyph-name="uni031B" unicode="&#x31b;" horiz-adv-x="0" 
d="M158 700v-88q0 -50 -22 -81q-24 -33 -70 -33h-66v50h66q21 0 30 13q12 17 12 51v88h50z" />
    <glyph glyph-name="dotbelowcomb" unicode="&#x323;" horiz-adv-x="0" 
d="M35 -50q14 0 24.5 -10.5t10.5 -24.5t-10.5 -24.5t-24.5 -10.5t-24.5 10.5t-10.5 24.5t10.5 24.5t24.5 10.5z" />
    <glyph glyph-name="uni0326" unicode="&#x326;" horiz-adv-x="0" 
d="M0 -251l28 -41q55 38 82 99q28 64 28 143h-50q0 -70 -23 -122q-22 -48 -65 -79z" />
    <glyph glyph-name="Wgrave" unicode="&#x1e80;" horiz-adv-x="1048" 
d="M624 795l-22 -45l-178 89l23 44zM753 0h-70l-159 495l-159 -495h-70l-225 700h101l159 -495l159 495h70l159 -495l160 495h100z" />
    <glyph glyph-name="wgrave" unicode="&#x1e81;" horiz-adv-x="972" 
d="M586 623l-22 -45l-178 89l23 44zM691 0h-65l-140 351l-140 -351h-65l-211 528h103l141 -351l140 351h65l140 -351l140 351h103z" />
    <glyph glyph-name="Wacute" unicode="&#x1e82;" horiz-adv-x="1048" 
d="M624 839l-178 -89l-22 45l177 88zM753 0h-70l-159 495l-159 -495h-70l-225 700h101l159 -495l159 495h70l159 -495l160 495h100z" />
    <glyph glyph-name="wacute" unicode="&#x1e83;" horiz-adv-x="972" 
d="M586 667l-178 -89l-22 45l177 88zM691 0h-65l-140 351l-140 -351h-65l-211 528h103l141 -351l140 351h65l140 -351l140 351h103z" />
    <glyph glyph-name="Wdieresis" unicode="&#x1e84;" horiz-adv-x="1048" 
d="M469 820q14 0 24.5 -10.5t10.5 -24.5t-10.5 -24.5t-24.5 -10.5t-24.5 10.5t-10.5 24.5t10.5 24.5t24.5 10.5zM579 820q14 0 24.5 -10.5t10.5 -24.5t-10.5 -24.5t-24.5 -10.5t-24.5 10.5t-10.5 24.5t10.5 24.5t24.5 10.5zM753 0h-70l-159 495l-159 -495h-70l-225 700h101
l159 -495l159 495h70l159 -495l160 495h100z" />
    <glyph glyph-name="wdieresis" unicode="&#x1e85;" horiz-adv-x="972" 
d="M431 648q14 0 24.5 -10.5t10.5 -24.5t-10.5 -24.5t-24.5 -10.5t-24.5 10.5t-10.5 24.5t10.5 24.5t24.5 10.5zM541 648q14 0 24.5 -10.5t10.5 -24.5t-10.5 -24.5t-24.5 -10.5t-24.5 10.5t-10.5 24.5t10.5 24.5t24.5 10.5zM691 0h-65l-140 351l-140 -351h-65l-211 528h103
l141 -351l140 351h65l140 -351l140 351h103z" />
    <glyph glyph-name="Adotbelow" unicode="&#x1ea0;" horiz-adv-x="708" 
d="M638 0h-102l-46 129h-271l-47 -129h-102l250 700h68zM253 225h203l-102 284zM354 -50q14 0 24.5 -10.5t10.5 -24.5t-10.5 -24.5t-24.5 -10.5t-24.5 10.5t-10.5 24.5t10.5 24.5t24.5 10.5z" />
    <glyph glyph-name="adotbelow" unicode="&#x1ea1;" horiz-adv-x="582" 
d="M290 528h1q101 0 159 -52q62 -54 62 -148v-328h-96v27q-51 -27 -125 -27h-22q-89 0 -139 37q-30 21 -45 52q-15 30 -15 67t15 67q15 31 45 52q52 37 139 37h147v16q0 52 -29 76q-31 28 -96 28h-1q-116 0 -124 -87l-95 10q8 83 69 129q58 44 150 44zM416 216h-147
q-56 0 -84 -19q-19 -17 -19 -41q0 -27 19 -41q27 -19 84 -19h22q66 0 96 27q29 26 29 76v17zM291 -50q14 0 24.5 -10.5t10.5 -24.5t-10.5 -24.5t-24.5 -10.5t-24.5 10.5t-10.5 24.5t10.5 24.5t24.5 10.5z" />
    <glyph glyph-name="Ahookabove" unicode="&#x1ea2;" horiz-adv-x="708" 
d="M314 861v50q37 0 59 -22q21 -21 21 -59q0 -37 -21 -58q-22 -22 -59 -22v50q30 0 30 30q0 31 -30 31zM638 0h-102l-46 129h-271l-47 -129h-102l250 700h68zM253 225h203l-102 284z" />
    <glyph glyph-name="ahookabove" unicode="&#x1ea3;" horiz-adv-x="582" 
d="M251 689v50q37 0 59 -22q21 -21 21 -59q0 -37 -21 -58q-22 -22 -59 -22v50q30 0 30 30q0 31 -30 31zM290 528h1q101 0 159 -52q62 -54 62 -148v-328h-96v27q-51 -27 -125 -27h-22q-89 0 -139 37q-30 21 -45 52q-15 30 -15 67t15 67q15 31 45 52q52 37 139 37h147v16
q0 52 -29 76q-31 28 -96 28h-1q-116 0 -124 -87l-95 10q8 83 69 129q58 44 150 44zM416 216h-147q-56 0 -84 -19q-19 -17 -19 -41q0 -27 19 -41q27 -19 84 -19h22q66 0 96 27q29 26 29 76v17z" />
    <glyph glyph-name="Acircumflexacute" unicode="&#x1ea4;" horiz-adv-x="708" 
d="M456 979l-178 -89l-22 45l177 88zM354 826l-95 -76l-31 39l126 101l127 -101l-31 -39zM638 0h-102l-46 129h-271l-47 -129h-102l250 700h68zM253 225h203l-102 284z" />
    <glyph glyph-name="acircumflexacute" unicode="&#x1ea5;" horiz-adv-x="582" 
d="M393 807l-178 -89l-22 45l177 88zM291 654l-95 -76l-31 39l126 101l127 -101l-31 -39zM290 528h1q101 0 159 -52q62 -54 62 -148v-328h-96v27q-51 -27 -125 -27h-22q-89 0 -139 37q-30 21 -45 52q-15 30 -15 67t15 67q15 31 45 52q52 37 139 37h147v16q0 52 -29 76
q-31 28 -96 28h-1q-116 0 -124 -87l-95 10q8 83 69 129q58 44 150 44zM416 216h-147q-56 0 -84 -19q-19 -17 -19 -41q0 -27 19 -41q27 -19 84 -19h22q66 0 96 27q29 26 29 76v17z" />
    <glyph glyph-name="Acircumflexgrave" unicode="&#x1ea6;" horiz-adv-x="708" 
d="M455 935l-22 -45l-178 89l23 44zM354 826l-95 -76l-31 39l126 101l127 -101l-31 -39zM638 0h-102l-46 129h-271l-47 -129h-102l250 700h68zM253 225h203l-102 284z" />
    <glyph glyph-name="acircumflexgrave" unicode="&#x1ea7;" horiz-adv-x="582" 
d="M392 763l-22 -45l-178 89l23 44zM291 654l-95 -76l-31 39l126 101l127 -101l-31 -39zM290 528h1q101 0 159 -52q62 -54 62 -148v-328h-96v27q-51 -27 -125 -27h-22q-89 0 -139 37q-30 21 -45 52q-15 30 -15 67t15 67q15 31 45 52q52 37 139 37h147v16q0 52 -29 76
q-31 28 -96 28h-1q-116 0 -124 -87l-95 10q8 83 69 129q58 44 150 44zM416 216h-147q-56 0 -84 -19q-19 -17 -19 -41q0 -27 19 -41q27 -19 84 -19h22q66 0 96 27q29 26 29 76v17z" />
    <glyph glyph-name="Acircumflexhookabove" unicode="&#x1ea8;" horiz-adv-x="708" 
d="M354 1021v50q37 0 59 -22q21 -21 21 -59q0 -37 -21 -58q-22 -22 -59 -22v50q30 0 30 30q0 31 -30 31zM354 826l-95 -76l-31 39l126 101l127 -101l-31 -39zM638 0h-102l-46 129h-271l-47 -129h-102l250 700h68zM253 225h203l-102 284z" />
    <glyph glyph-name="acircumflexhookabove" unicode="&#x1ea9;" horiz-adv-x="582" 
d="M291 849v50q37 0 59 -22q21 -21 21 -59q0 -37 -21 -58q-22 -22 -59 -22v50q30 0 30 30q0 31 -30 31zM291 654l-95 -76l-31 39l126 101l127 -101l-31 -39zM290 528h1q101 0 159 -52q62 -54 62 -148v-328h-96v27q-51 -27 -125 -27h-22q-89 0 -139 37q-30 21 -45 52
q-15 30 -15 67t15 67q15 31 45 52q52 37 139 37h147v16q0 52 -29 76q-31 28 -96 28h-1q-116 0 -124 -87l-95 10q8 83 69 129q58 44 150 44zM416 216h-147q-56 0 -84 -19q-19 -17 -19 -41q0 -27 19 -41q27 -19 84 -19h22q66 0 96 27q29 26 29 76v17z" />
    <glyph glyph-name="Acircumflextilde" unicode="&#x1eaa;" horiz-adv-x="708" 
d="M263 992q27 11 56.5 4t51.5 -29q25 -25 54 -14q15 7 15 18h50q0 -46 -46 -64q-23 -12 -53.5 -5.5t-54.5 30.5q-25 24 -53 13q-15 -6 -15 -18h-50q0 46 45 65zM353 826l-95 -76l-31 39l126 101l127 -101l-31 -39zM638 0h-102l-46 129h-271l-47 -129h-102l250 700h68z
M253 225h203l-102 284z" />
    <glyph glyph-name="acircumflextilde" unicode="&#x1eab;" horiz-adv-x="582" 
d="M200 820q27 11 56.5 4t51.5 -29q25 -25 54 -14q15 7 15 18h50q0 -46 -46 -64q-23 -12 -53.5 -5.5t-54.5 30.5q-25 24 -53 13q-15 -6 -15 -18h-50q0 46 45 65zM290 654l-95 -76l-31 39l126 101l127 -101l-31 -39zM290 528h1q101 0 159 -52q62 -54 62 -148v-328h-96v27
q-51 -27 -125 -27h-22q-89 0 -139 37q-30 21 -45 52q-15 30 -15 67t15 67q15 31 45 52q52 37 139 37h147v16q0 52 -29 76q-31 28 -96 28h-1q-116 0 -124 -87l-95 10q8 83 69 129q58 44 150 44zM416 216h-147q-56 0 -84 -19q-19 -17 -19 -41q0 -27 19 -41q27 -19 84 -19h22
q66 0 96 27q29 26 29 76v17z" />
    <glyph glyph-name="Acircumflexdotbelow" unicode="&#x1eac;" horiz-adv-x="708" 
d="M354 826l-95 -76l-31 39l126 101l127 -101l-31 -39zM638 0h-102l-46 129h-271l-47 -129h-102l250 700h68zM253 225h203l-102 284zM354 -50q14 0 24.5 -10.5t10.5 -24.5t-10.5 -24.5t-24.5 -10.5t-24.5 10.5t-10.5 24.5t10.5 24.5t24.5 10.5z" />
    <glyph glyph-name="acircumflexdotbelow" unicode="&#x1ead;" horiz-adv-x="582" 
d="M291 654l-95 -76l-31 39l126 101l127 -101l-31 -39zM290 528h1q101 0 159 -52q62 -54 62 -148v-328h-96v27q-51 -27 -125 -27h-22q-89 0 -139 37q-30 21 -45 52q-15 30 -15 67t15 67q15 31 45 52q52 37 139 37h147v16q0 52 -29 76q-31 28 -96 28h-1q-116 0 -124 -87
l-95 10q8 83 69 129q58 44 150 44zM416 216h-147q-56 0 -84 -19q-19 -17 -19 -41q0 -27 19 -41q27 -19 84 -19h22q66 0 96 27q29 26 29 76v17zM291 -50q14 0 24.5 -10.5t10.5 -24.5t-10.5 -24.5t-24.5 -10.5t-24.5 10.5t-10.5 24.5t10.5 24.5t24.5 10.5z" />
    <glyph glyph-name="Abreveacute" unicode="&#x1eae;" horiz-adv-x="708" 
d="M506 953l-178 -89l-22 45l177 88zM418 864h50q0 -54 -30 -84t-83 -30q-54 0 -84 30t-30 84h50q0 -33 16 -48q15 -16 48 -16q32 0 48 16q15 15 15 48zM638 0h-102l-46 129h-271l-47 -129h-102l250 700h68zM253 225h203l-102 284z" />
    <glyph glyph-name="abreveacute" unicode="&#x1eaf;" horiz-adv-x="582" 
d="M443 781l-178 -89l-22 45l177 88zM355 692h50q0 -54 -30 -84t-83 -30q-54 0 -84 30t-30 84h50q0 -33 16 -48q15 -16 48 -16q32 0 48 16q15 15 15 48zM290 528h1q101 0 159 -52q62 -54 62 -148v-328h-96v27q-51 -27 -125 -27h-22q-89 0 -139 37q-30 21 -45 52
q-15 30 -15 67t15 67q15 31 45 52q52 37 139 37h147v16q0 52 -29 76q-31 28 -96 28h-1q-116 0 -124 -87l-95 10q8 83 69 129q58 44 150 44zM416 216h-147q-56 0 -84 -19q-19 -17 -19 -41q0 -27 19 -41q27 -19 84 -19h22q66 0 96 27q29 26 29 76v17z" />
    <glyph glyph-name="Abrevegrave" unicode="&#x1eb0;" horiz-adv-x="708" 
d="M403 909l-22 -45l-178 89l23 44zM418 864h50q0 -54 -30 -84t-83 -30q-54 0 -84 30t-30 84h50q0 -33 16 -48q15 -16 48 -16q32 0 48 16q15 15 15 48zM638 0h-102l-46 129h-271l-47 -129h-102l250 700h68zM253 225h203l-102 284z" />
    <glyph glyph-name="abrevegrave" unicode="&#x1eb1;" horiz-adv-x="582" 
d="M340 737l-22 -45l-178 89l23 44zM355 692h50q0 -54 -30 -84t-83 -30q-54 0 -84 30t-30 84h50q0 -33 16 -48q15 -16 48 -16q32 0 48 16q15 15 15 48zM290 528h1q101 0 159 -52q62 -54 62 -148v-328h-96v27q-51 -27 -125 -27h-22q-89 0 -139 37q-30 21 -45 52
q-15 30 -15 67t15 67q15 31 45 52q52 37 139 37h147v16q0 52 -29 76q-31 28 -96 28h-1q-116 0 -124 -87l-95 10q8 83 69 129q58 44 150 44zM416 216h-147q-56 0 -84 -19q-19 -17 -19 -41q0 -27 19 -41q27 -19 84 -19h22q66 0 96 27q29 26 29 76v17z" />
    <glyph glyph-name="Abrevehookabove" unicode="&#x1eb2;" horiz-adv-x="708" 
d="M335 975v50q37 0 59 -22q21 -21 21 -59q0 -37 -21 -58q-22 -22 -59 -22v50q30 0 30 30q0 31 -30 31zM418 864h50q0 -54 -30 -84t-83 -30q-54 0 -84 30t-30 84h50q0 -33 16 -48q15 -16 48 -16q32 0 48 16q15 15 15 48zM638 0h-102l-46 129h-271l-47 -129h-102l250 700h68z
M253 225h203l-102 284z" />
    <glyph glyph-name="abrevehookabove" unicode="&#x1eb3;" horiz-adv-x="582" 
d="M272 803v50q37 0 59 -22q21 -21 21 -59q0 -37 -21 -58q-22 -22 -59 -22v50q30 0 30 30q0 31 -30 31zM355 692h50q0 -54 -30 -84t-83 -30q-54 0 -84 30t-30 84h50q0 -33 16 -48q15 -16 48 -16q32 0 48 16q15 15 15 48zM290 528h1q101 0 159 -52q62 -54 62 -148v-328h-96
v27q-51 -27 -125 -27h-22q-89 0 -139 37q-30 21 -45 52q-15 30 -15 67t15 67q15 31 45 52q52 37 139 37h147v16q0 52 -29 76q-31 28 -96 28h-1q-116 0 -124 -87l-95 10q8 83 69 129q58 44 150 44zM416 216h-147q-56 0 -84 -19q-19 -17 -19 -41q0 -27 19 -41q27 -19 84 -19
h22q66 0 96 27q29 26 29 76v17z" />
    <glyph glyph-name="Abrevetilde" unicode="&#x1eb4;" horiz-adv-x="708" 
d="M263 976q27 11 56.5 4t51.5 -29q25 -25 54 -14q15 7 15 18h50q0 -46 -46 -64q-23 -12 -53.5 -5.5t-54.5 30.5q-25 24 -53 13q-15 -6 -15 -18h-50q0 46 45 65zM418 864h50q0 -54 -30 -84t-83 -30q-54 0 -84 30t-30 84h50q0 -33 16 -48q15 -16 48 -16q32 0 48 16
q15 15 15 48zM638 0h-102l-46 129h-271l-47 -129h-102l250 700h68zM253 225h203l-102 284z" />
    <glyph glyph-name="abrevetilde" unicode="&#x1eb5;" horiz-adv-x="582" 
d="M200 804q27 11 56.5 4t51.5 -29q25 -25 54 -14q15 7 15 18h50q0 -46 -46 -64q-23 -12 -53.5 -5.5t-54.5 30.5q-25 24 -53 13q-15 -6 -15 -18h-50q0 46 45 65zM355 692h50q0 -54 -30 -84t-83 -30q-54 0 -84 30t-30 84h50q0 -33 16 -48q15 -16 48 -16q32 0 48 16
q15 15 15 48zM290 528h1q101 0 159 -52q62 -54 62 -148v-328h-96v27q-51 -27 -125 -27h-22q-89 0 -139 37q-30 21 -45 52q-15 30 -15 67t15 67q15 31 45 52q52 37 139 37h147v16q0 52 -29 76q-31 28 -96 28h-1q-116 0 -124 -87l-95 10q8 83 69 129q58 44 150 44zM416 216
h-147q-56 0 -84 -19q-19 -17 -19 -41q0 -27 19 -41q27 -19 84 -19h22q66 0 96 27q29 26 29 76v17z" />
    <glyph glyph-name="Abrevedotbelow" unicode="&#x1eb6;" horiz-adv-x="708" 
d="M418 864h50q0 -54 -30 -84t-83 -30q-54 0 -84 30t-30 84h50q0 -33 16 -48q15 -16 48 -16q32 0 48 16q15 15 15 48zM638 0h-102l-46 129h-271l-47 -129h-102l250 700h68zM253 225h203l-102 284zM354 -50q14 0 24.5 -10.5t10.5 -24.5t-10.5 -24.5t-24.5 -10.5t-24.5 10.5
t-10.5 24.5t10.5 24.5t24.5 10.5z" />
    <glyph glyph-name="abrevedotbelow" unicode="&#x1eb7;" horiz-adv-x="582" 
d="M355 692h50q0 -54 -30 -84t-83 -30q-54 0 -84 30t-30 84h50q0 -33 16 -48q15 -16 48 -16q32 0 48 16q15 15 15 48zM290 528h1q101 0 159 -52q62 -54 62 -148v-328h-96v27q-51 -27 -125 -27h-22q-89 0 -139 37q-30 21 -45 52q-15 30 -15 67t15 67q15 31 45 52
q52 37 139 37h147v16q0 52 -29 76q-31 28 -96 28h-1q-116 0 -124 -87l-95 10q8 83 69 129q58 44 150 44zM416 216h-147q-56 0 -84 -19q-19 -17 -19 -41q0 -27 19 -41q27 -19 84 -19h22q66 0 96 27q29 26 29 76v17zM291 -50q14 0 24.5 -10.5t10.5 -24.5t-10.5 -24.5
t-24.5 -10.5t-24.5 10.5t-10.5 24.5t10.5 24.5t24.5 10.5z" />
    <glyph glyph-name="Edotbelow" unicode="&#x1eb8;" horiz-adv-x="555" 
d="M485 604h-319v-206h319v-96h-319v-206h319v-96h-415v700h415v-96zM278 -50q14 0 24.5 -10.5t10.5 -24.5t-10.5 -24.5t-24.5 -10.5t-24.5 10.5t-10.5 24.5t10.5 24.5t24.5 10.5z" />
    <glyph glyph-name="edotbelow" unicode="&#x1eb9;" 
d="M291 528q99 0 159 -52q61 -53 61 -148v-112h-345v-17q0 -50 28 -76q31 -27 97 -27h11q94 0 117 56l89 -36q-24 -58 -80 -88q-50 -28 -126 -28h-11q-101 0 -160 51q-61 53 -61 148v129q0 95 61 148q60 52 160 52zM291 432q-64 0 -97 -28q-28 -25 -28 -76v-16h249v16
q0 52 -28 76q-33 28 -96 28zM291 -50q14 0 24.5 -10.5t10.5 -24.5t-10.5 -24.5t-24.5 -10.5t-24.5 10.5t-10.5 24.5t10.5 24.5t24.5 10.5z" />
    <glyph glyph-name="Ehookabove" unicode="&#x1eba;" horiz-adv-x="555" 
d="M238 861v50q37 0 59 -22q21 -21 21 -59q0 -37 -21 -58q-22 -22 -59 -22v50q30 0 30 30q0 31 -30 31zM485 604h-319v-206h319v-96h-319v-206h319v-96h-415v700h415v-96z" />
    <glyph glyph-name="ehookabove" unicode="&#x1ebb;" 
d="M251 689v50q37 0 59 -22q21 -21 21 -59q0 -37 -21 -58q-22 -22 -59 -22v50q30 0 30 30q0 31 -30 31zM291 528q99 0 159 -52q61 -53 61 -148v-112h-345v-17q0 -50 28 -76q31 -27 97 -27h11q94 0 117 56l89 -36q-24 -58 -80 -88q-50 -28 -126 -28h-11q-101 0 -160 51
q-61 53 -61 148v129q0 95 61 148q60 52 160 52zM291 432q-64 0 -97 -28q-28 -25 -28 -76v-16h249v16q0 52 -28 76q-33 28 -96 28z" />
    <glyph glyph-name="Etilde" unicode="&#x1ebc;" horiz-adv-x="555" 
d="M187 842q27 11 56.5 4t51.5 -29q25 -25 54 -14q15 7 15 18h50q0 -46 -46 -64q-23 -12 -53.5 -5.5t-54.5 30.5q-25 24 -53 13q-15 -6 -15 -18h-50q0 46 45 65zM485 604h-319v-206h319v-96h-319v-206h319v-96h-415v700h415v-96z" />
    <glyph glyph-name="etilde" unicode="&#x1ebd;" 
d="M200 670q27 11 56.5 4t51.5 -29q25 -25 54 -14q15 7 15 18h50q0 -46 -46 -64q-23 -12 -53.5 -5.5t-54.5 30.5q-25 24 -53 13q-15 -6 -15 -18h-50q0 46 45 65zM291 528q99 0 159 -52q61 -53 61 -148v-112h-345v-17q0 -50 28 -76q31 -27 97 -27h11q94 0 117 56l89 -36
q-24 -58 -80 -88q-50 -28 -126 -28h-11q-101 0 -160 51q-61 53 -61 148v129q0 95 61 148q60 52 160 52zM291 432q-64 0 -97 -28q-28 -25 -28 -76v-16h249v16q0 52 -28 76q-33 28 -96 28z" />
    <glyph glyph-name="Ecircumflexacute" unicode="&#x1ebe;" horiz-adv-x="555" 
d="M379 979l-178 -89l-22 45l177 88zM277 826l-95 -76l-31 39l126 101l127 -101l-31 -39zM485 604h-319v-206h319v-96h-319v-206h319v-96h-415v700h415v-96z" />
    <glyph glyph-name="ecircumflexacute" unicode="&#x1ebf;" 
d="M392 807l-178 -89l-22 45l177 88zM290 654l-95 -76l-31 39l126 101l127 -101l-31 -39zM291 528q99 0 159 -52q61 -53 61 -148v-112h-345v-17q0 -50 28 -76q31 -27 97 -27h11q94 0 117 56l89 -36q-24 -58 -80 -88q-50 -28 -126 -28h-11q-101 0 -160 51q-61 53 -61 148v129
q0 95 61 148q60 52 160 52zM291 432q-64 0 -97 -28q-28 -25 -28 -76v-16h249v16q0 52 -28 76q-33 28 -96 28z" />
    <glyph glyph-name="Ecircumflexgrave" unicode="&#x1ec0;" horiz-adv-x="555" 
d="M378 935l-22 -45l-178 89l23 44zM277 826l-95 -76l-31 39l126 101l127 -101l-31 -39zM485 604h-319v-206h319v-96h-319v-206h319v-96h-415v700h415v-96z" />
    <glyph glyph-name="ecircumflexgrave" unicode="&#x1ec1;" 
d="M391 763l-22 -45l-178 89l23 44zM290 654l-95 -76l-31 39l126 101l127 -101l-31 -39zM291 528q99 0 159 -52q61 -53 61 -148v-112h-345v-17q0 -50 28 -76q31 -27 97 -27h11q94 0 117 56l89 -36q-24 -58 -80 -88q-50 -28 -126 -28h-11q-101 0 -160 51q-61 53 -61 148v129
q0 95 61 148q60 52 160 52zM291 432q-64 0 -97 -28q-28 -25 -28 -76v-16h249v16q0 52 -28 76q-33 28 -96 28z" />
    <glyph glyph-name="Ecircumflexhookabove" unicode="&#x1ec2;" horiz-adv-x="555" 
d="M277 1021v50q37 0 59 -22q21 -21 21 -59q0 -37 -21 -58q-22 -22 -59 -22v50q30 0 30 30q0 31 -30 31zM277 826l-95 -76l-31 39l126 101l127 -101l-31 -39zM485 604h-319v-206h319v-96h-319v-206h319v-96h-415v700h415v-96z" />
    <glyph glyph-name="ecircumflexhookabove" unicode="&#x1ec3;" 
d="M290 849v50q37 0 59 -22q21 -21 21 -59q0 -37 -21 -58q-22 -22 -59 -22v50q30 0 30 30q0 31 -30 31zM290 654l-95 -76l-31 39l126 101l127 -101l-31 -39zM291 528q99 0 159 -52q61 -53 61 -148v-112h-345v-17q0 -50 28 -76q31 -27 97 -27h11q94 0 117 56l89 -36
q-24 -58 -80 -88q-50 -28 -126 -28h-11q-101 0 -160 51q-61 53 -61 148v129q0 95 61 148q60 52 160 52zM291 432q-64 0 -97 -28q-28 -25 -28 -76v-16h249v16q0 52 -28 76q-33 28 -96 28z" />
    <glyph glyph-name="Ecircumflextilde" unicode="&#x1ec4;" horiz-adv-x="555" 
d="M187 992q27 11 56.5 4t51.5 -29q25 -25 54 -14q15 7 15 18h50q0 -46 -46 -64q-23 -12 -53.5 -5.5t-54.5 30.5q-25 24 -53 13q-15 -6 -15 -18h-50q0 46 45 65zM277 826l-95 -76l-31 39l126 101l127 -101l-31 -39zM485 604h-319v-206h319v-96h-319v-206h319v-96h-415v700
h415v-96z" />
    <glyph glyph-name="ecircumflextilde" unicode="&#x1ec5;" 
d="M200 820q27 11 56.5 4t51.5 -29q25 -25 54 -14q15 7 15 18h50q0 -46 -46 -64q-23 -12 -53.5 -5.5t-54.5 30.5q-25 24 -53 13q-15 -6 -15 -18h-50q0 46 45 65zM290 654l-95 -76l-31 39l126 101l127 -101l-31 -39zM291 528q99 0 159 -52q61 -53 61 -148v-112h-345v-17
q0 -50 28 -76q31 -27 97 -27h11q94 0 117 56l89 -36q-24 -58 -80 -88q-50 -28 -126 -28h-11q-101 0 -160 51q-61 53 -61 148v129q0 95 61 148q60 52 160 52zM291 432q-64 0 -97 -28q-28 -25 -28 -76v-16h249v16q0 52 -28 76q-33 28 -96 28z" />
    <glyph glyph-name="Ecircumflexdotbelow" unicode="&#x1ec6;" horiz-adv-x="555" 
d="M277 826l-95 -76l-31 39l126 101l127 -101l-31 -39zM485 604h-319v-206h319v-96h-319v-206h319v-96h-415v700h415v-96zM278 -50q14 0 24.5 -10.5t10.5 -24.5t-10.5 -24.5t-24.5 -10.5t-24.5 10.5t-10.5 24.5t10.5 24.5t24.5 10.5z" />
    <glyph glyph-name="ecircumflexdotbelow" unicode="&#x1ec7;" 
d="M290 654l-95 -76l-31 39l126 101l127 -101l-31 -39zM291 528q99 0 159 -52q61 -53 61 -148v-112h-345v-17q0 -50 28 -76q31 -27 97 -27h11q94 0 117 56l89 -36q-24 -58 -80 -88q-50 -28 -126 -28h-11q-101 0 -160 51q-61 53 -61 148v129q0 95 61 148q60 52 160 52z
M291 432q-64 0 -97 -28q-28 -25 -28 -76v-16h249v16q0 52 -28 76q-33 28 -96 28zM291 -50q14 0 24.5 -10.5t10.5 -24.5t-10.5 -24.5t-24.5 -10.5t-24.5 10.5t-10.5 24.5t10.5 24.5t24.5 10.5z" />
    <glyph glyph-name="Ihookabove" unicode="&#x1ec8;" horiz-adv-x="236" 
d="M78 861v50q37 0 59 -22q21 -21 21 -59q0 -37 -21 -58q-22 -22 -59 -22v50q30 0 30 30q0 31 -30 31zM166 0h-96v700h96v-700z" />
    <glyph glyph-name="ihookabove" unicode="&#x1ec9;" horiz-adv-x="236" 
d="M78 689v50q37 0 59 -22q21 -21 21 -59q0 -37 -21 -58q-22 -22 -59 -22v50q30 0 30 30q0 31 -30 31zM166 0h-96v528h96v-528z" />
    <glyph glyph-name="Idotbelow" unicode="&#x1eca;" horiz-adv-x="236" 
d="M166 0h-96v700h96v-700zM118 -50q14 0 24.5 -10.5t10.5 -24.5t-10.5 -24.5t-24.5 -10.5t-24.5 10.5t-10.5 24.5t10.5 24.5t24.5 10.5z" />
    <glyph glyph-name="idotbelow" unicode="&#x1ecb;" horiz-adv-x="256" 
d="M128 700q24 0 41 -17t17 -41q0 -23 -17 -40.5t-41 -17.5q-23 0 -40.5 17.5t-17.5 40.5q0 24 17.5 41t40.5 17zM176 0h-96v528h96v-528zM128 -50q14 0 24.5 -10.5t10.5 -24.5t-10.5 -24.5t-24.5 -10.5t-24.5 10.5t-10.5 24.5t10.5 24.5t24.5 10.5z" />
    <glyph glyph-name="Odotbelow" unicode="&#x1ecc;" horiz-adv-x="624" 
d="M312 700q114 0 180 -72q62 -70 62 -192v-172q0 -122 -62 -192q-66 -72 -180 -72q-115 0 -179 72q-63 69 -63 192v172q0 123 63 192q64 72 179 72zM312 604q-72 0 -108 -40q-38 -43 -38 -128v-172q0 -85 38 -128q36 -40 108 -40t108 40q38 41 38 128v172q0 87 -38 128
q-36 40 -108 40zM312 -50q14 0 24.5 -10.5t10.5 -24.5t-10.5 -24.5t-24.5 -10.5t-24.5 10.5t-10.5 24.5t10.5 24.5t24.5 10.5z" />
    <glyph glyph-name="odotbelow" unicode="&#x1ecd;" 
d="M291 528q99 0 159 -52q61 -53 61 -148v-129q0 -95 -61 -148q-58 -51 -159 -51t-160 51q-61 53 -61 148v129q0 95 61 148q60 52 160 52zM291 432q-64 0 -97 -28q-28 -25 -28 -76v-129q0 -50 28 -76q31 -27 97 -27q65 0 96 27q28 25 28 76v129q0 52 -28 76q-33 28 -96 28z
M291 -50q14 0 24.5 -10.5t10.5 -24.5t-10.5 -24.5t-24.5 -10.5t-24.5 10.5t-10.5 24.5t10.5 24.5t24.5 10.5z" />
    <glyph glyph-name="Ohookabove" unicode="&#x1ece;" horiz-adv-x="624" 
d="M272 861v50q37 0 59 -22q21 -21 21 -59q0 -37 -21 -58q-22 -22 -59 -22v50q30 0 30 30q0 31 -30 31zM312 700q114 0 180 -72q62 -70 62 -192v-172q0 -122 -62 -192q-66 -72 -180 -72q-115 0 -179 72q-63 69 -63 192v172q0 123 63 192q64 72 179 72zM312 604
q-72 0 -108 -40q-38 -43 -38 -128v-172q0 -85 38 -128q36 -40 108 -40t108 40q38 41 38 128v172q0 87 -38 128q-36 40 -108 40z" />
    <glyph glyph-name="ohookabove" unicode="&#x1ecf;" 
d="M251 689v50q37 0 59 -22q21 -21 21 -59q0 -37 -21 -58q-22 -22 -59 -22v50q30 0 30 30q0 31 -30 31zM291 528q99 0 159 -52q61 -53 61 -148v-129q0 -95 -61 -148q-58 -51 -159 -51t-160 51q-61 53 -61 148v129q0 95 61 148q60 52 160 52zM291 432q-64 0 -97 -28
q-28 -25 -28 -76v-129q0 -50 28 -76q31 -27 97 -27q65 0 96 27q28 25 28 76v129q0 52 -28 76q-33 28 -96 28z" />
    <glyph glyph-name="Ocircumflexacute" unicode="&#x1ed0;" horiz-adv-x="624" 
d="M414 979l-178 -89l-22 45l177 88zM312 826l-95 -76l-31 39l126 101l127 -101l-31 -39zM312 700q114 0 180 -72q62 -70 62 -192v-172q0 -122 -62 -192q-66 -72 -180 -72q-115 0 -179 72q-63 69 -63 192v172q0 123 63 192q64 72 179 72zM312 604q-72 0 -108 -40
q-38 -43 -38 -128v-172q0 -85 38 -128q36 -40 108 -40t108 40q38 41 38 128v172q0 87 -38 128q-36 40 -108 40z" />
    <glyph glyph-name="ocircumflexacute" unicode="&#x1ed1;" 
d="M392 807l-178 -89l-22 45l177 88zM290 654l-95 -76l-31 39l126 101l127 -101l-31 -39zM291 528q99 0 159 -52q61 -53 61 -148v-129q0 -95 -61 -148q-58 -51 -159 -51t-160 51q-61 53 -61 148v129q0 95 61 148q60 52 160 52zM291 432q-64 0 -97 -28q-28 -25 -28 -76v-129
q0 -50 28 -76q31 -27 97 -27q65 0 96 27q28 25 28 76v129q0 52 -28 76q-33 28 -96 28z" />
    <glyph glyph-name="Ocircumflexgrave" unicode="&#x1ed2;" horiz-adv-x="624" 
d="M413 935l-22 -45l-178 89l23 44zM312 826l-95 -76l-31 39l126 101l127 -101l-31 -39zM312 700q114 0 180 -72q62 -70 62 -192v-172q0 -122 -62 -192q-66 -72 -180 -72q-115 0 -179 72q-63 69 -63 192v172q0 123 63 192q64 72 179 72zM312 604q-72 0 -108 -40
q-38 -43 -38 -128v-172q0 -85 38 -128q36 -40 108 -40t108 40q38 41 38 128v172q0 87 -38 128q-36 40 -108 40z" />
    <glyph glyph-name="ocircumflexgrave" unicode="&#x1ed3;" 
d="M391 763l-22 -45l-178 89l23 44zM290 654l-95 -76l-31 39l126 101l127 -101l-31 -39zM291 528q99 0 159 -52q61 -53 61 -148v-129q0 -95 -61 -148q-58 -51 -159 -51t-160 51q-61 53 -61 148v129q0 95 61 148q60 52 160 52zM291 432q-64 0 -97 -28q-28 -25 -28 -76v-129
q0 -50 28 -76q31 -27 97 -27q65 0 96 27q28 25 28 76v129q0 52 -28 76q-33 28 -96 28z" />
    <glyph glyph-name="Ocircumflexhookabove" unicode="&#x1ed4;" horiz-adv-x="624" 
d="M312 1021v50q37 0 59 -22q21 -21 21 -59q0 -37 -21 -58q-22 -22 -59 -22v50q30 0 30 30q0 31 -30 31zM312 826l-95 -76l-31 39l126 101l127 -101l-31 -39zM312 700q114 0 180 -72q62 -70 62 -192v-172q0 -122 -62 -192q-66 -72 -180 -72q-115 0 -179 72q-63 69 -63 192
v172q0 123 63 192q64 72 179 72zM312 604q-72 0 -108 -40q-38 -43 -38 -128v-172q0 -85 38 -128q36 -40 108 -40t108 40q38 41 38 128v172q0 87 -38 128q-36 40 -108 40z" />
    <glyph glyph-name="ocircumflexhookabove" unicode="&#x1ed5;" 
d="M290 849v50q37 0 59 -22q21 -21 21 -59q0 -37 -21 -58q-22 -22 -59 -22v50q30 0 30 30q0 31 -30 31zM290 654l-95 -76l-31 39l126 101l127 -101l-31 -39zM291 528q99 0 159 -52q61 -53 61 -148v-129q0 -95 -61 -148q-58 -51 -159 -51t-160 51q-61 53 -61 148v129
q0 95 61 148q60 52 160 52zM291 432q-64 0 -97 -28q-28 -25 -28 -76v-129q0 -50 28 -76q31 -27 97 -27q65 0 96 27q28 25 28 76v129q0 52 -28 76q-33 28 -96 28z" />
    <glyph glyph-name="Ocircumflextilde" unicode="&#x1ed6;" horiz-adv-x="624" 
d="M221 992q27 11 56.5 4t51.5 -29q25 -25 54 -14q15 7 15 18h50q0 -46 -46 -64q-23 -12 -53.5 -5.5t-54.5 30.5q-25 24 -53 13q-15 -6 -15 -18h-50q0 46 45 65zM311 826l-95 -76l-31 39l126 101l127 -101l-31 -39zM312 700q114 0 180 -72q62 -70 62 -192v-172
q0 -122 -62 -192q-66 -72 -180 -72q-115 0 -179 72q-63 69 -63 192v172q0 123 63 192q64 72 179 72zM312 604q-72 0 -108 -40q-38 -43 -38 -128v-172q0 -85 38 -128q36 -40 108 -40t108 40q38 41 38 128v172q0 87 -38 128q-36 40 -108 40z" />
    <glyph glyph-name="ocircumflextilde" unicode="&#x1ed7;" 
d="M200 820q27 11 56.5 4t51.5 -29q25 -25 54 -14q15 7 15 18h50q0 -46 -46 -64q-23 -12 -53.5 -5.5t-54.5 30.5q-25 24 -53 13q-15 -6 -15 -18h-50q0 46 45 65zM290 654l-95 -76l-31 39l126 101l127 -101l-31 -39zM291 528q99 0 159 -52q61 -53 61 -148v-129
q0 -95 -61 -148q-58 -51 -159 -51t-160 51q-61 53 -61 148v129q0 95 61 148q60 52 160 52zM291 432q-64 0 -97 -28q-28 -25 -28 -76v-129q0 -50 28 -76q31 -27 97 -27q65 0 96 27q28 25 28 76v129q0 52 -28 76q-33 28 -96 28z" />
    <glyph glyph-name="Ocircumflexdotbelow" unicode="&#x1ed8;" horiz-adv-x="624" 
d="M312 826l-95 -76l-31 39l126 101l127 -101l-31 -39zM312 700q114 0 180 -72q62 -70 62 -192v-172q0 -122 -62 -192q-66 -72 -180 -72q-115 0 -179 72q-63 69 -63 192v172q0 123 63 192q64 72 179 72zM312 604q-72 0 -108 -40q-38 -43 -38 -128v-172q0 -85 38 -128
q36 -40 108 -40t108 40q38 41 38 128v172q0 87 -38 128q-36 40 -108 40zM312 -50q14 0 24.5 -10.5t10.5 -24.5t-10.5 -24.5t-24.5 -10.5t-24.5 10.5t-10.5 24.5t10.5 24.5t24.5 10.5z" />
    <glyph glyph-name="ocircumflexdotbelow" unicode="&#x1ed9;" 
d="M290 654l-95 -76l-31 39l126 101l127 -101l-31 -39zM291 528q99 0 159 -52q61 -53 61 -148v-129q0 -95 -61 -148q-58 -51 -159 -51t-160 51q-61 53 -61 148v129q0 95 61 148q60 52 160 52zM291 432q-64 0 -97 -28q-28 -25 -28 -76v-129q0 -50 28 -76q31 -27 97 -27
q65 0 96 27q28 25 28 76v129q0 52 -28 76q-33 28 -96 28zM291 -50q14 0 24.5 -10.5t10.5 -24.5t-10.5 -24.5t-24.5 -10.5t-24.5 10.5t-10.5 24.5t10.5 24.5t24.5 10.5z" />
    <glyph glyph-name="Ohornacute" unicode="&#x1eda;" horiz-adv-x="656" 
d="M234 750l-22 45l177 88l23 -44zM616 700v-88q0 -50 -22 -81q-18 -24 -45 -30q5 -33 5 -65v-172q0 -122 -62 -192q-66 -72 -180 -72q-115 0 -179 72q-63 69 -63 192v172q0 123 63 192q64 72 179 72q114 0 180 -72q30 -33 45 -78q11 2 17 11q12 17 12 51v88h50zM458 264
v172q0 87 -38 128q-36 40 -108 40t-108 -40q-38 -43 -38 -128v-172q0 -85 38 -128q36 -40 108 -40t108 40q38 41 38 128z" />
    <glyph glyph-name="ohornacute" unicode="&#x1edb;" horiz-adv-x="603" 
d="M213 578l-22 45l177 88l23 -44zM573 528v-88q0 -50 -22 -81q-15 -21 -40 -29v-2v-129q0 -95 -61 -148q-58 -51 -159 -51t-160 51q-61 53 -61 148v129q0 95 61 148q60 52 160 52q99 0 159 -52q41 -35 55 -93q5 3 6 6q12 17 12 51v88h50zM415 199v129q0 52 -28 76
q-33 28 -96 28q-64 0 -97 -28q-28 -25 -28 -76v-129q0 -50 28 -76q31 -27 97 -27q65 0 96 27q28 25 28 76z" />
    <glyph glyph-name="Ohorngrave" unicode="&#x1edc;" horiz-adv-x="656" 
d="M390 750l-178 89l23 44l177 -88zM616 700v-88q0 -50 -22 -81q-18 -24 -45 -30q5 -33 5 -65v-172q0 -122 -62 -192q-66 -72 -180 -72q-115 0 -179 72q-63 69 -63 192v172q0 123 63 192q64 72 179 72q114 0 180 -72q30 -33 45 -78q11 2 17 11q12 17 12 51v88h50zM458 264
v172q0 87 -38 128q-36 40 -108 40t-108 -40q-38 -43 -38 -128v-172q0 -85 38 -128q36 -40 108 -40t108 40q38 41 38 128z" />
    <glyph glyph-name="ohorngrave" unicode="&#x1edd;" horiz-adv-x="603" 
d="M369 578l-178 89l23 44l177 -88zM573 528v-88q0 -50 -22 -81q-15 -21 -40 -29v-2v-129q0 -95 -61 -148q-58 -51 -159 -51t-160 51q-61 53 -61 148v129q0 95 61 148q60 52 160 52q99 0 159 -52q41 -35 55 -93q5 3 6 6q12 17 12 51v88h50zM415 199v129q0 52 -28 76
q-33 28 -96 28q-64 0 -97 -28q-28 -25 -28 -76v-129q0 -50 28 -76q31 -27 97 -27q65 0 96 27q28 25 28 76z" />
    <glyph glyph-name="Ohornhookabove" unicode="&#x1ede;" horiz-adv-x="656" 
d="M352 830q0 -37 -21 -58q-22 -22 -59 -22v50q30 0 30 30q0 31 -30 31v50q37 0 59 -22q21 -21 21 -59zM616 700v-88q0 -50 -22 -81q-18 -24 -45 -30q5 -33 5 -65v-172q0 -122 -62 -192q-66 -72 -180 -72q-115 0 -179 72q-63 69 -63 192v172q0 123 63 192q64 72 179 72
q114 0 180 -72q30 -33 45 -78q11 2 17 11q12 17 12 51v88h50zM458 264v172q0 87 -38 128q-36 40 -108 40t-108 -40q-38 -43 -38 -128v-172q0 -85 38 -128q36 -40 108 -40t108 40q38 41 38 128z" />
    <glyph glyph-name="ohornhookabove" unicode="&#x1edf;" horiz-adv-x="603" 
d="M331 658q0 -37 -21 -58q-22 -22 -59 -22v50q30 0 30 30q0 31 -30 31v50q37 0 59 -22q21 -21 21 -59zM573 528v-88q0 -50 -22 -81q-15 -21 -40 -29v-2v-129q0 -95 -61 -148q-58 -51 -159 -51t-160 51q-61 53 -61 148v129q0 95 61 148q60 52 160 52q99 0 159 -52
q41 -35 55 -93q5 3 6 6q12 17 12 51v88h50zM415 199v129q0 52 -28 76q-33 28 -96 28q-64 0 -97 -28q-28 -25 -28 -76v-129q0 -50 28 -76q31 -27 97 -27q65 0 96 27q28 25 28 76z" />
    <glyph glyph-name="Ohorntilde" unicode="&#x1ee0;" horiz-adv-x="656" 
d="M241 795q-15 -6 -15 -18h-50q0 46 45 65q27 11 56.5 4t51.5 -29q25 -25 54 -14q15 7 15 18h50q0 -46 -46 -64q-23 -12 -53.5 -5.5t-54.5 30.5q-25 24 -53 13zM616 700v-88q0 -50 -22 -81q-18 -24 -45 -30q5 -33 5 -65v-172q0 -122 -62 -192q-66 -72 -180 -72
q-115 0 -179 72q-63 69 -63 192v172q0 123 63 192q64 72 179 72q114 0 180 -72q30 -33 45 -78q11 2 17 11q12 17 12 51v88h50zM458 264v172q0 87 -38 128q-36 40 -108 40t-108 -40q-38 -43 -38 -128v-172q0 -85 38 -128q36 -40 108 -40t108 40q38 41 38 128z" />
    <glyph glyph-name="ohorntilde" unicode="&#x1ee1;" horiz-adv-x="603" 
d="M220 623q-15 -6 -15 -18h-50q0 46 45 65q27 11 56.5 4t51.5 -29q25 -25 54 -14q15 7 15 18h50q0 -46 -46 -64q-23 -12 -53.5 -5.5t-54.5 30.5q-25 24 -53 13zM573 528v-88q0 -50 -22 -81q-15 -21 -40 -29v-2v-129q0 -95 -61 -148q-58 -51 -159 -51t-160 51
q-61 53 -61 148v129q0 95 61 148q60 52 160 52q99 0 159 -52q41 -35 55 -93q5 3 6 6q12 17 12 51v88h50zM415 199v129q0 52 -28 76q-33 28 -96 28q-64 0 -97 -28q-28 -25 -28 -76v-129q0 -50 28 -76q31 -27 97 -27q65 0 96 27q28 25 28 76z" />
    <glyph glyph-name="Ohorndotbelow" unicode="&#x1ee2;" horiz-adv-x="656" 
d="M616 700v-88q0 -50 -22 -81q-18 -24 -45 -30q5 -33 5 -65v-172q0 -122 -62 -192q-66 -72 -180 -72q-115 0 -179 72q-63 69 -63 192v172q0 123 63 192q64 72 179 72q114 0 180 -72q30 -33 45 -78q11 2 17 11q12 17 12 51v88h50zM458 264v172q0 87 -38 128q-36 40 -108 40
t-108 -40q-38 -43 -38 -128v-172q0 -85 38 -128q36 -40 108 -40t108 40q38 41 38 128zM312 -50q14 0 24.5 -10.5t10.5 -24.5t-10.5 -24.5t-24.5 -10.5t-24.5 10.5t-10.5 24.5t10.5 24.5t24.5 10.5z" />
    <glyph glyph-name="ohorndotbelow" unicode="&#x1ee3;" horiz-adv-x="603" 
d="M573 528v-88q0 -50 -22 -81q-15 -21 -40 -29v-2v-129q0 -95 -61 -148q-58 -51 -159 -51t-160 51q-61 53 -61 148v129q0 95 61 148q60 52 160 52q99 0 159 -52q41 -35 55 -93q5 3 6 6q12 17 12 51v88h50zM415 199v129q0 52 -28 76q-33 28 -96 28q-64 0 -97 -28
q-28 -25 -28 -76v-129q0 -50 28 -76q31 -27 97 -27q65 0 96 27q28 25 28 76zM291 -50q14 0 24.5 -10.5t10.5 -24.5t-10.5 -24.5t-24.5 -10.5t-24.5 10.5t-10.5 24.5t10.5 24.5t24.5 10.5z" />
    <glyph glyph-name="Udotbelow" unicode="&#x1ee4;" horiz-adv-x="625" 
d="M555 700v-436q0 -121 -63 -192q-64 -72 -180 -72q-115 0 -179 72q-63 69 -63 192v436h96v-436q0 -85 38 -128q36 -40 108 -40q73 0 109 40q38 43 38 128v436h96zM313 -50q14 0 24.5 -10.5t10.5 -24.5t-10.5 -24.5t-24.5 -10.5t-24.5 10.5t-10.5 24.5t10.5 24.5t24.5 10.5
z" />
    <glyph glyph-name="udotbelow" unicode="&#x1ee5;" horiz-adv-x="582" 
d="M512 0h-96v27q-51 -27 -125 -27q-102 0 -159 51q-62 54 -62 148v329h96v-329q0 -50 29 -76q30 -27 96 -27t96 27q29 26 29 76v329h96v-528zM291 -50q14 0 24.5 -10.5t10.5 -24.5t-10.5 -24.5t-24.5 -10.5t-24.5 10.5t-10.5 24.5t10.5 24.5t24.5 10.5z" />
    <glyph glyph-name="Uhookabove" unicode="&#x1ee6;" horiz-adv-x="625" 
d="M273 861v50q37 0 59 -22q21 -21 21 -59q0 -37 -21 -58q-22 -22 -59 -22v50q30 0 30 30q0 31 -30 31zM555 700v-436q0 -121 -63 -192q-64 -72 -180 -72q-115 0 -179 72q-63 69 -63 192v436h96v-436q0 -85 38 -128q36 -40 108 -40q73 0 109 40q38 43 38 128v436h96z" />
    <glyph glyph-name="uhookabove" unicode="&#x1ee7;" horiz-adv-x="582" 
d="M251 689v50q37 0 59 -22q21 -21 21 -59q0 -37 -21 -58q-22 -22 -59 -22v50q30 0 30 30q0 31 -30 31zM512 0h-96v27q-51 -27 -125 -27q-102 0 -159 51q-62 54 -62 148v329h96v-329q0 -50 29 -76q30 -27 96 -27t96 27q29 26 29 76v329h96v-528z" />
    <glyph glyph-name="Uhornacute" unicode="&#x1ee8;" horiz-adv-x="675" 
d="M235 750l-22 45l177 88l23 -44zM665 700v-88q0 -50 -22 -81q-24 -33 -70 -33h-18v-234q0 -121 -63 -192q-64 -72 -180 -72q-115 0 -179 72q-63 69 -63 192v436h96v-436q0 -85 38 -128q36 -40 108 -40q73 0 109 40q38 43 38 128v436h96v-152h18q21 0 30 13q12 17 12 51v88
h50z" />
    <glyph glyph-name="uhornacute" unicode="&#x1ee9;" horiz-adv-x="632" 
d="M213 578l-22 45l177 88l23 -44zM622 528v-88q0 -50 -22 -81q-24 -33 -70 -33h-18v-326h-96v27q-51 -27 -125 -27q-102 0 -159 51q-62 54 -62 148v329h96v-329q0 -50 29 -76q30 -27 96 -27t96 27q29 26 29 76v329h96v-152h18q21 0 30 13q12 17 12 51v88h50z" />
    <glyph glyph-name="Uhorngrave" unicode="&#x1eea;" horiz-adv-x="675" 
d="M391 750l-178 89l23 44l177 -88zM665 700v-88q0 -50 -22 -81q-24 -33 -70 -33h-18v-234q0 -121 -63 -192q-64 -72 -180 -72q-115 0 -179 72q-63 69 -63 192v436h96v-436q0 -85 38 -128q36 -40 108 -40q73 0 109 40q38 43 38 128v436h96v-152h18q21 0 30 13q12 17 12 51
v88h50z" />
    <glyph glyph-name="uhorngrave" unicode="&#x1eeb;" horiz-adv-x="632" 
d="M369 578l-178 89l23 44l177 -88zM622 528v-88q0 -50 -22 -81q-24 -33 -70 -33h-18v-326h-96v27q-51 -27 -125 -27q-102 0 -159 51q-62 54 -62 148v329h96v-329q0 -50 29 -76q30 -27 96 -27t96 27q29 26 29 76v329h96v-152h18q21 0 30 13q12 17 12 51v88h50z" />
    <glyph glyph-name="Uhornhookabove" unicode="&#x1eec;" horiz-adv-x="675" 
d="M353 830q0 -37 -21 -58q-22 -22 -59 -22v50q30 0 30 30q0 31 -30 31v50q37 0 59 -22q21 -21 21 -59zM665 700v-88q0 -50 -22 -81q-24 -33 -70 -33h-18v-234q0 -121 -63 -192q-64 -72 -180 -72q-115 0 -179 72q-63 69 -63 192v436h96v-436q0 -85 38 -128q36 -40 108 -40
q73 0 109 40q38 43 38 128v436h96v-152h18q21 0 30 13q12 17 12 51v88h50z" />
    <glyph glyph-name="uhornhookabove" unicode="&#x1eed;" horiz-adv-x="632" 
d="M331 658q0 -37 -21 -58q-22 -22 -59 -22v50q30 0 30 30q0 31 -30 31v50q37 0 59 -22q21 -21 21 -59zM622 528v-88q0 -50 -22 -81q-24 -33 -70 -33h-18v-326h-96v27q-51 -27 -125 -27q-102 0 -159 51q-62 54 -62 148v329h96v-329q0 -50 29 -76q30 -27 96 -27t96 27
q29 26 29 76v329h96v-152h18q21 0 30 13q12 17 12 51v88h50z" />
    <glyph glyph-name="Uhorntilde" unicode="&#x1eee;" horiz-adv-x="675" 
d="M242 795q-15 -6 -15 -18h-50q0 46 45 65q27 11 56.5 4t51.5 -29q25 -25 54 -14q15 7 15 18h50q0 -46 -46 -64q-23 -12 -53.5 -5.5t-54.5 30.5q-25 24 -53 13zM665 700v-88q0 -50 -22 -81q-24 -33 -70 -33h-18v-234q0 -121 -63 -192q-64 -72 -180 -72q-115 0 -179 72
q-63 69 -63 192v436h96v-436q0 -85 38 -128q36 -40 108 -40q73 0 109 40q38 43 38 128v436h96v-152h18q21 0 30 13q12 17 12 51v88h50z" />
    <glyph glyph-name="uhorntilde" unicode="&#x1eef;" horiz-adv-x="632" 
d="M220 623q-15 -6 -15 -18h-50q0 46 45 65q27 11 56.5 4t51.5 -29q25 -25 54 -14q15 7 15 18h50q0 -46 -46 -64q-23 -12 -53.5 -5.5t-54.5 30.5q-25 24 -53 13zM622 528v-88q0 -50 -22 -81q-24 -33 -70 -33h-18v-326h-96v27q-51 -27 -125 -27q-102 0 -159 51
q-62 54 -62 148v329h96v-329q0 -50 29 -76q30 -27 96 -27t96 27q29 26 29 76v329h96v-152h18q21 0 30 13q12 17 12 51v88h50z" />
    <glyph glyph-name="Uhorndotbelow" unicode="&#x1ef0;" horiz-adv-x="675" 
d="M665 700v-88q0 -50 -22 -81q-24 -33 -70 -33h-18v-234q0 -121 -63 -192q-64 -72 -180 -72q-115 0 -179 72q-63 69 -63 192v436h96v-436q0 -85 38 -128q36 -40 108 -40q73 0 109 40q38 43 38 128v436h96v-152h18q21 0 30 13q12 17 12 51v88h50zM313 -50q14 0 24.5 -10.5
t10.5 -24.5t-10.5 -24.5t-24.5 -10.5t-24.5 10.5t-10.5 24.5t10.5 24.5t24.5 10.5z" />
    <glyph glyph-name="uhorndotbelow" unicode="&#x1ef1;" horiz-adv-x="632" 
d="M622 528v-88q0 -50 -22 -81q-24 -33 -70 -33h-18v-326h-96v27q-51 -27 -125 -27q-102 0 -159 51q-62 54 -62 148v329h96v-329q0 -50 29 -76q30 -27 96 -27t96 27q29 26 29 76v329h96v-152h18q21 0 30 13q12 17 12 51v88h50zM291 -50q14 0 24.5 -10.5t10.5 -24.5
t-10.5 -24.5t-24.5 -10.5t-24.5 10.5t-10.5 24.5t10.5 24.5t24.5 10.5z" />
    <glyph glyph-name="Ygrave" unicode="&#x1ef2;" horiz-adv-x="684" 
d="M442 795l-22 -45l-178 89l23 44zM390 252v-252h-96v252l-224 448h107l165 -329l164 329h108z" />
    <glyph glyph-name="ygrave" unicode="&#x1ef3;" horiz-adv-x="582" 
d="M391 623l-22 -45l-178 89l23 44zM512 528v-502q0 -95 -61 -148q-58 -51 -160 -51h-11q-73 0 -127 28q-56 31 -79 89l89 36q23 -57 117 -57h11q65 0 96 28q29 24 29 75v1q-51 -27 -125 -27q-101 0 -160 51q-61 53 -61 148v329h96v-329q0 -50 29 -76q30 -27 96 -27t96 27
q29 26 29 76v329h96z" />
    <glyph glyph-name="Ydotbelow" unicode="&#x1ef4;" horiz-adv-x="684" 
d="M390 252v-252h-96v252l-224 448h107l165 -329l164 329h108zM342 -50q14 0 24.5 -10.5t10.5 -24.5t-10.5 -24.5t-24.5 -10.5t-24.5 10.5t-10.5 24.5t10.5 24.5t24.5 10.5z" />
    <glyph glyph-name="ydotbelow" unicode="&#x1ef5;" horiz-adv-x="582" 
d="M512 528v-502q0 -95 -61 -148q-58 -51 -160 -51h-11q-73 0 -127 28q-56 31 -79 89l89 36q23 -57 117 -57h11q65 0 96 28q29 24 29 75v1q-51 -27 -125 -27q-101 0 -160 51q-61 53 -61 148v329h96v-329q0 -50 29 -76q30 -27 96 -27t96 27q29 26 29 76v329h96zM291 -203
q14 0 24.5 -10.5t10.5 -24.5t-10.5 -24.5t-24.5 -10.5t-24.5 10.5t-10.5 24.5t10.5 24.5t24.5 10.5z" />
    <glyph glyph-name="Yhookabove" unicode="&#x1ef6;" horiz-adv-x="684" 
d="M302 861v50q37 0 59 -22q21 -21 21 -59q0 -37 -21 -58q-22 -22 -59 -22v50q30 0 30 30q0 31 -30 31zM390 252v-252h-96v252l-224 448h107l165 -329l164 329h108z" />
    <glyph glyph-name="yhookabove" unicode="&#x1ef7;" horiz-adv-x="582" 
d="M251 689v50q37 0 59 -22q21 -21 21 -59q0 -37 -21 -58q-22 -22 -59 -22v50q30 0 30 30q0 31 -30 31zM512 528v-502q0 -95 -61 -148q-58 -51 -160 -51h-11q-73 0 -127 28q-56 31 -79 89l89 36q23 -57 117 -57h11q65 0 96 28q29 24 29 75v1q-51 -27 -125 -27
q-101 0 -160 51q-61 53 -61 148v329h96v-329q0 -50 29 -76q30 -27 96 -27t96 27q29 26 29 76v329h96z" />
    <glyph glyph-name="Ytilde" unicode="&#x1ef8;" horiz-adv-x="684" 
d="M251 842q27 11 56.5 4t51.5 -29q25 -25 54 -14q15 7 15 18h50q0 -46 -46 -64q-23 -12 -53.5 -5.5t-54.5 30.5q-25 24 -53 13q-15 -6 -15 -18h-50q0 46 45 65zM390 252v-252h-96v252l-224 448h107l165 -329l164 329h108z" />
    <glyph glyph-name="ytilde" unicode="&#x1ef9;" horiz-adv-x="582" 
d="M200 670q27 11 56.5 4t51.5 -29q25 -25 54 -14q15 7 15 18h50q0 -46 -46 -64q-23 -12 -53.5 -5.5t-54.5 30.5q-25 24 -53 13q-15 -6 -15 -18h-50q0 46 45 65zM512 528v-502q0 -95 -61 -148q-58 -51 -160 -51h-11q-73 0 -127 28q-56 31 -79 89l89 36q23 -57 117 -57h11
q65 0 96 28q29 24 29 75v1q-51 -27 -125 -27q-101 0 -160 51q-61 53 -61 148v329h96v-329q0 -50 29 -76q30 -27 96 -27t96 27q29 26 29 76v329h96z" />
    <glyph glyph-name="endash" unicode="&#x2013;" horiz-adv-x="571" 
d="M501 216h-431v96h431v-96z" />
    <glyph glyph-name="emdash" unicode="&#x2014;" horiz-adv-x="744" 
d="M674 216h-604v96h604v-96z" />
    <glyph glyph-name="quoteleft" unicode="&#x2018;" horiz-adv-x="311" 
d="M187 779l54 -79q-75 -52 -75 -176h-96q0 175 117 255z" />
    <glyph glyph-name="quoteright" unicode="&#x2019;" horiz-adv-x="311" 
d="M124 445l-54 79q75 52 75 176h96q0 -175 -117 -255z" />
    <glyph glyph-name="quotesinglbase" unicode="&#x201a;" horiz-adv-x="241" 
d="M75 96h96q0 -176 -117 -255l-54 79q75 51 75 176z" />
    <glyph glyph-name="quotedblleft" unicode="&#x201c;" horiz-adv-x="477" 
d="M187 779l54 -79q-75 -52 -75 -176h-96q0 175 117 255zM353 779l54 -79q-75 -52 -75 -176h-96q0 175 117 255z" />
    <glyph glyph-name="quotedblright" unicode="&#x201d;" horiz-adv-x="477" 
d="M124 445l-54 79q75 52 75 176h96q0 -175 -117 -255zM290 445l-54 79q75 52 75 176h96q0 -175 -117 -255z" />
    <glyph glyph-name="quotedblbase" unicode="&#x201e;" horiz-adv-x="407" 
d="M54 -159l-54 79q75 52 75 176h96q0 -175 -117 -255zM220 -159l-54 79q75 52 75 176h96q0 -175 -117 -255z" />
    <glyph glyph-name="dagger" unicode="&#x2020;" horiz-adv-x="528" 
d="M312 527h146v-96h-146v-600h-96v600h-146v96h146v168h96v-168z" />
    <glyph glyph-name="daggerdbl" unicode="&#x2021;" horiz-adv-x="528" 
d="M312 527h146v-96h-146v-335h146v-96h-146v-169h-96v169h-146v96h146v335h-146v96h146v168h96v-168z" />
    <glyph glyph-name="bullet" unicode="&#x2022;" horiz-adv-x="372" 
d="M186 466q49 0 82.5 -33.5t33.5 -82.5t-33.5 -82.5t-82.5 -33.5t-82.5 33.5t-33.5 82.5t33.5 82.5t82.5 33.5z" />
    <glyph glyph-name="ellipsis" unicode="&#x2026;" horiz-adv-x="628" 
d="M128 116q24 0 41 -17t17 -41t-17 -41t-41 -17t-41 17t-17 41t17 41t41 17zM314 116q24 0 41 -17t17 -41t-17 -41t-41 -17t-41 17t-17 41t17 41t41 17zM500 116q24 0 41 -17t17 -41t-17 -41t-41 -17t-41 17t-17 41t17 41t41 17z" />
    <glyph glyph-name="perthousand" unicode="&#x2030;" horiz-adv-x="1065" 
d="M188 0h-118l500 700h118zM206 700q65 0 102 -46q33 -41 33 -110q0 -68 -33 -110q-37 -46 -102 -46q-64 0 -101 46q-33 42 -33 110q0 69 33 110q37 46 101 46zM206 604q-18 0 -26 -10q-12 -14 -12 -50q0 -35 12 -50q10 -10 26 -10q17 0 27 10q12 17 12 50q0 35 -12 50
q-8 10 -27 10zM552 312q64 0 101 -46q33 -42 33 -110q0 -70 -33 -110q-37 -46 -101 -46q-65 0 -102 46q-33 40 -33 110q0 68 33 110q37 46 102 46zM861 312q64 0 101 -46q33 -42 33 -110q0 -70 -33 -110q-37 -46 -101 -46q-65 0 -102 46q-33 41 -33 110q0 68 33 110
q37 46 102 46zM552 216q-17 0 -27 -10q-12 -15 -12 -50q0 -36 12 -50q8 -10 27 -10q18 0 26 10q12 14 12 50q0 35 -12 50q-10 10 -26 10zM861 216q-17 0 -27 -10q-12 -15 -12 -50q0 -36 12 -50q8 -10 27 -10q18 0 26 10q12 14 12 50q0 35 -12 50q-10 10 -26 10z" />
    <glyph glyph-name="guilsinglleft" unicode="&#x2039;" horiz-adv-x="396" 
d="M196 264l130 -151h-127l-129 151l129 151h127z" />
    <glyph glyph-name="guilsinglright" unicode="&#x203a;" horiz-adv-x="396" 
d="M197 415l129 -151l-129 -151h-127l130 151l-130 151h127z" />
    <glyph glyph-name="fraction" unicode="&#x2044;" horiz-adv-x="758" 
d="M188 0h-118l500 700h118z" />
    <glyph glyph-name="Euro" unicode="&#x20ac;" horiz-adv-x="550" 
d="M480 700v-96q-124 0 -190 -64q-30 -30 -47 -77h237v-96h-254v-34h254v-96h-237q17 -47 47 -77q66 -64 190 -64v-96q-79 0 -145 23q-64 22 -113 69q-46 46 -69 113q-4 10 -10 32h-73v96h60v34h-60v96h73q6 22 10 32q23 67 69 113t113 69q66 23 145 23z" />
    <glyph glyph-name="trademark" unicode="&#x2122;" horiz-adv-x="830" 
d="M336 650h-108v-285h-50v285h-108v50h266v-50zM760 365h-50v204l-103 -204h-56l-102 204v-204h-50v335h41l139 -279l140 279h41v-335z" />
    <glyph glyph-name="oneeighth" unicode="&#x215b;" horiz-adv-x="825" 
d="M188 0h-118l500 700h118zM183 340h-50v360h50v-360zM642 360q51 0 82 -26q31 -28 31 -76q0 -49 -31 -77l-1 -1l1 -1q31 -28 31 -76q0 -49 -31 -77q-31 -26 -82 -26q-53 0 -82 26q-32 27 -32 77q0 49 32 76l1 1l-1 1q-32 27 -32 77q0 49 32 76q29 26 82 26zM642 310
q-33 0 -50 -14q-14 -12 -14 -38q0 -27 14 -39q17 -14 50 -14q32 0 49 14q14 12 14 39q0 26 -14 38q-17 14 -49 14zM642 155q-33 0 -50 -14q-14 -12 -14 -38q0 -27 14 -39q17 -14 50 -14q32 0 49 14q14 12 14 39q0 26 -14 38q-17 14 -49 14z" />
    <glyph glyph-name="threeeighths" unicode="&#x215c;" horiz-adv-x="892" 
d="M184 700q51 0 82 -26q31 -28 31 -76q0 -49 -31 -77l-1 -1l1 -1q31 -28 31 -76q0 -49 -31 -77q-31 -26 -82 -26q-54 0 -84 30t-30 84h50q0 -33 16 -48q15 -16 48 -16q32 0 49 14q14 12 14 39q0 26 -14 38q-17 14 -49 14h-23v50h23q32 0 49 14q14 12 14 39q0 26 -14 38
q-17 14 -49 14q-33 0 -48 -16q-16 -15 -16 -47h-50q0 53 30 83t84 30zM255 0h-118l500 700h118zM709 360q51 0 82 -26q31 -28 31 -76q0 -49 -31 -77l-1 -1l1 -1q31 -28 31 -76q0 -49 -31 -77q-31 -26 -82 -26q-53 0 -82 26q-32 27 -32 77q0 49 32 76l1 1l-1 1q-32 27 -32 77
q0 49 32 76q29 26 82 26zM709 310q-33 0 -50 -14q-14 -12 -14 -38q0 -27 14 -39q17 -14 50 -14q32 0 49 14q14 12 14 39q0 26 -14 38q-17 14 -49 14zM709 155q-33 0 -50 -14q-14 -12 -14 -38q0 -27 14 -39q17 -14 50 -14q32 0 49 14q14 12 14 39q0 26 -14 38q-17 14 -49 14z
" />
    <glyph glyph-name="fiveeighths" unicode="&#x215d;" horiz-adv-x="889" 
d="M272 650h-152v-83h67q50 0 80 -30t30 -83q0 -54 -30 -84t-83 -30q-54 0 -84 30t-30 84h50q0 -33 16 -48q15 -16 48 -16q32 0 48 16q15 15 15 48q0 32 -15 48q-16 15 -48 15h-114v183h202v-50zM252 0h-118l500 700h118zM706 360q51 0 82 -26q31 -28 31 -76q0 -49 -31 -77
l-1 -1l1 -1q31 -28 31 -76q0 -49 -31 -77q-31 -26 -82 -26q-53 0 -82 26q-32 27 -32 77q0 49 32 76l1 1l-1 1q-32 27 -32 77q0 49 32 76q29 26 82 26zM706 310q-33 0 -50 -14q-14 -12 -14 -38q0 -27 14 -39q17 -14 50 -14q32 0 49 14q14 12 14 39q0 26 -14 38q-17 14 -49 14
zM706 155q-33 0 -50 -14q-14 -12 -14 -38q0 -27 14 -39q17 -14 50 -14q32 0 49 14q14 12 14 39q0 26 -14 38q-17 14 -49 14z" />
    <glyph glyph-name="seveneighths" unicode="&#x215e;" horiz-adv-x="825" 
d="M188 0h-118l500 700h118zM311 640l-128 -300h-54l132 310h-161v50h211v-60zM642 360q51 0 82 -26q31 -28 31 -76q0 -49 -31 -77l-1 -1l1 -1q31 -28 31 -76q0 -49 -31 -77q-31 -26 -82 -26q-53 0 -82 26q-32 27 -32 77q0 49 32 76l1 1l-1 1q-32 27 -32 77q0 49 32 76
q29 26 82 26zM642 310q-33 0 -50 -14q-14 -12 -14 -38q0 -27 14 -39q17 -14 50 -14q32 0 49 14q14 12 14 39q0 26 -14 38q-17 14 -49 14zM642 155q-33 0 -50 -14q-14 -12 -14 -38q0 -27 14 -39q17 -14 50 -14q32 0 49 14q14 12 14 39q0 26 -14 38q-17 14 -49 14z" />
    <glyph glyph-name="arrowleft" unicode="&#x2190;" horiz-adv-x="808" 
d="M371 544l-130 -146h497v-96h-497l130 -146h-129l-172 194l172 194h129z" />
    <glyph glyph-name="arrowup" unicode="&#x2191;" horiz-adv-x="528" 
d="M458 512v-129l-146 130v-497h-96v497l-146 -130v129l194 172z" />
    <glyph glyph-name="arrowright" unicode="&#x2192;" horiz-adv-x="808" 
d="M738 350l-172 -194h-129l130 146h-497v96h497l-130 146h129z" />
    <glyph glyph-name="arrowdown" unicode="&#x2193;" horiz-adv-x="528" 
d="M70 188v129l146 -130v497h96v-497l146 130v-129l-194 -172z" />
    <glyph glyph-name="uni2194" unicode="&#x2194;" horiz-adv-x="873" 
d="M803 350l-173 -194h-129l130 146h-390l130 -146h-128l-173 194l173 194h128l-130 -146h390l-129 146h128z" />
    <glyph glyph-name="arrowupdn" unicode="&#x2195;" horiz-adv-x="528" 
d="M458 543v-129l-146 130v-390l146 130v-128l-194 -173l-194 173v128l146 -130v390l-146 -129v128l194 173z" />
    <glyph glyph-name="uni2196" unicode="&#x2196;" horiz-adv-x="653" 
d="M376 607v-96h-143l350 -349l-68 -68l-349 350v-143h-96v306h306z" />
    <glyph glyph-name="uni2197" unicode="&#x2197;" horiz-adv-x="653" 
d="M583 301h-96v143l-349 -350l-68 68l350 349h-143v96h306v-306z" />
    <glyph glyph-name="uni2198" unicode="&#x2198;" horiz-adv-x="653" 
d="M277 94v96h143l-350 349l68 68l349 -350v143h96v-306h-306z" />
    <glyph glyph-name="uni2199" unicode="&#x2199;" horiz-adv-x="653" 
d="M70 400h96v-143l349 350l68 -68l-350 -349h143v-96h-306v306z" />
    <glyph glyph-name="partialdiff" unicode="&#x2202;" horiz-adv-x="596" 
d="M150 604v96q92 0 165 -37q68 -34 119 -97q92 -117 92 -272q0 -119 -59 -200q-31 -45 -78 -68q-49 -26 -109 -26q-48 0 -91 19q-41 21 -67 52q-52 61 -52 150q0 88 52 149q28 34 67 52q39 19 91 19q76 0 131 -33q-18 53 -52 98q-38 46 -87 71q-54 27 -122 27zM280 345
q-54 0 -85 -36q-29 -37 -29 -88q0 -53 29 -88q31 -37 85 -37h11q52 5 85 42q35 40 35 94q0 48 -30 78q-33 35 -101 35z" />
    <glyph glyph-name="emptyset" unicode="&#x2205;" horiz-adv-x="635" 
d="M565 530l-61 -61q34 -54 34 -118q0 -92 -64 -156q-65 -65 -156 -65q-65 0 -119 34l-61 -61l-68 68l61 61q-34 54 -34 119q0 91 65 156q64 64 156 64q64 0 118 -34l61 61zM229 439q-57 -60 -27 -136l163 163q-76 30 -136 -27zM433 398l-163 -163q33 -14 71 -7t65 34t34 65
t-7 71z" />
    <glyph glyph-name="product" unicode="&#x220f;" horiz-adv-x="668" 
d="M598 -192h-96v815h-336v-815h-96v911h528v-911z" />
    <glyph glyph-name="summation" unicode="&#x2211;" horiz-adv-x="572" 
d="M502 647h-347l230 -383l-230 -384h347v-96h-432v141l203 339l-203 338v141h432v-96z" />
    <glyph glyph-name="minus" unicode="&#x2212;" horiz-adv-x="571" 
d="M501 216h-431v96h431v-96z" />
    <glyph glyph-name="radical" unicode="&#x221a;" horiz-adv-x="795" 
d="M423 -169h-103l-153 385h-97v96h162l137 -344l254 727h102z" />
    <glyph glyph-name="infinity" unicode="&#x221e;" horiz-adv-x="754" 
d="M506 420q80 0 127 -39q51 -43 51 -117t-51 -117q-47 -39 -127 -39t-126 39l-3 3l-3 -3q-46 -39 -127 -39q-79 0 -126 39q-51 43 -51 117t51 117q47 39 126 39q81 0 127 -39l3 -3l3 3q46 39 126 39zM247 324q-45 0 -65 -17q-16 -12 -16 -43t16 -43q20 -17 65 -17
q44 0 66 17q16 12 16 43t-16 43q-22 17 -66 17zM506 324q-45 0 -65 -17q-16 -12 -16 -43t16 -43q20 -17 65 -17q44 0 66 17q16 12 16 43t-16 43q-22 17 -66 17z" />
    <glyph glyph-name="integral" unicode="&#x222b;" horiz-adv-x="399" 
d="M329 743v-96q-37 0 -58 -26q-24 -32 -24 -99v-517q0 -101 -43 -157q-47 -64 -134 -64v96q38 0 57 26q24 30 24 99v517q0 99 44 157q47 64 134 64z" />
    <glyph glyph-name="approxequal" unicode="&#x2248;" horiz-adv-x="624" 
d="M264 453q53 -16 87 -60q29 -39 74 -25q33 12 33 39h96q0 -44 -27 -79.5t-72 -50.5q-49 -14 -95 -2q-54 16 -86 60q-30 40 -74 25q-34 -12 -34 -39h-96q0 44 27 79.5t72 50.5q48 16 95 2zM264 253q53 -16 87 -60q29 -39 74 -25q33 12 33 39h96q0 -44 -27 -79.5t-72 -50.5
q-49 -14 -95 -2q-54 16 -86 60q-30 40 -74 25q-34 -12 -34 -39h-96q0 44 27 79.5t72 50.5q48 16 95 2z" />
    <glyph glyph-name="notequal" unicode="&#x2260;" horiz-adv-x="572" 
d="M446 524l-53 -126h109v-96h-148l-32 -77h180v-96h-220l-67 -163l-89 37l52 126h-108v96h148l32 77h-180v96h219l68 163z" />
    <glyph glyph-name="lessequal" unicode="&#x2264;" horiz-adv-x="525" 
d="M455 494l-219 -157l219 -157v-118l-385 275l385 274v-117zM455 12v-96h-385v96h385z" />
    <glyph glyph-name="greaterequal" unicode="&#x2265;" horiz-adv-x="525" 
d="M455 337l-385 -275v118l219 157l-219 157v117zM455 -84h-385v96h385v-96z" />
    <glyph glyph-name="lozenge" unicode="&#x25ca;" horiz-adv-x="689" 
d="M619 350l-274 -385l-275 385l275 384zM188 350l157 -220l157 220l-157 219z" />
    <glyph glyph-name="i.loclTRK" horiz-adv-x="256" 
d="M128 700q24 0 41 -17t17 -41q0 -23 -17 -40.5t-41 -17.5q-23 0 -40.5 17.5t-17.5 40.5q0 24 17.5 41t40.5 17zM176 0h-96v528h96v-528z" />
    <glyph glyph-name="zero.dnom" horiz-adv-x="367" 
d="M183 360q53 0 83.5 -36t30.5 -100v-88q0 -64 -30.5 -100t-83.5 -36t-83 36t-30 100v88q0 64 30 100t83 36zM183 310q-30 0 -46 -19q-17 -23 -17 -67v-88q0 -44 17 -67q16 -19 46 -19q31 0 46 19q18 22 18 67v88q0 44 -18 67q-15 19 -46 19z" />
    <glyph glyph-name="one.dnom" horiz-adv-x="190" 
d="M120 0h-50v360h50v-360z" />
    <glyph glyph-name="two.dnom" horiz-adv-x="367" 
d="M184 360q53 0 83 -30t30 -83q0 -54 -30 -84t-83 -30q-31 0 -47 -19q-17 -22 -17 -64h177v-50h-227v47q0 64 30 100t84 36q32 0 48 16q15 15 15 48q0 32 -15 47q-16 16 -48 16q-33 0 -48 -16q-16 -15 -16 -47h-50q0 53 30 83t84 30z" />
    <glyph glyph-name="three.dnom" horiz-adv-x="367" 
d="M184 360q51 0 82 -26q31 -28 31 -76q0 -49 -31 -77l-1 -1l1 -1q31 -28 31 -76q0 -49 -31 -77q-31 -26 -82 -26q-54 0 -84 30t-30 84h50q0 -33 16 -48q15 -16 48 -16q32 0 49 14q14 12 14 39q0 26 -14 38q-17 14 -49 14h-23v50h23q32 0 49 14q14 12 14 39q0 26 -14 38
q-17 14 -49 14q-33 0 -48 -16q-16 -15 -16 -47h-50q0 53 30 83t84 30z" />
    <glyph glyph-name="four.dnom" horiz-adv-x="353" 
d="M120 116h113v67h50v-183h-50v66h-163v61l106 233h55z" />
    <glyph glyph-name="five.dnom" horiz-adv-x="367" 
d="M272 310h-152v-83h67q50 0 80 -30t30 -83q0 -54 -30 -84t-83 -30q-54 0 -84 30t-30 84h50q0 -33 16 -48q15 -16 48 -16q32 0 48 16q15 15 15 48q0 32 -15 48q-16 15 -48 15h-114v183h202v-50z" />
    <glyph glyph-name="six.dnom" horiz-adv-x="367" 
d="M272 310h-88q-31 0 -47 -19q-17 -23 -17 -67v-12q27 15 64 15q53 0 83 -30t30 -83q0 -54 -30 -84t-83 -30q-54 0 -84 36t-30 100v88q0 64 30 100t84 36h88v-50zM184 177q-33 0 -48 -15q-13 -13 -16 -39q3 -34 17 -54q16 -19 47 -19q32 0 48 16q15 15 15 48q0 32 -15 48
q-16 15 -48 15z" />
    <glyph glyph-name="seven.dnom" horiz-adv-x="351" 
d="M281 300l-128 -300h-54l132 310h-161v50h211v-60z" />
    <glyph glyph-name="eight.dnom" horiz-adv-x="367" 
d="M184 360q51 0 82 -26q31 -28 31 -76q0 -49 -31 -77l-1 -1l1 -1q31 -28 31 -76q0 -49 -31 -77q-31 -26 -82 -26q-53 0 -82 26q-32 27 -32 77q0 49 32 76l1 1l-1 1q-32 27 -32 77q0 49 32 76q29 26 82 26zM184 310q-33 0 -50 -14q-14 -12 -14 -38q0 -27 14 -39
q17 -14 50 -14q32 0 49 14q14 12 14 39q0 26 -14 38q-17 14 -49 14zM184 155q-33 0 -50 -14q-14 -12 -14 -38q0 -27 14 -39q17 -14 50 -14q32 0 49 14q14 12 14 39q0 26 -14 38q-17 14 -49 14z" />
    <glyph glyph-name="nine.dnom" horiz-adv-x="367" 
d="M184 360q53 0 83 -36t30 -100v-88q0 -64 -30 -100t-83 -36h-89v50h89q30 0 46 19q17 23 17 67v12q-25 -15 -63 -15q-54 0 -84 30t-30 84q0 53 30 83t84 30zM184 310q-33 0 -48 -16q-16 -15 -16 -47q0 -33 16 -48q15 -16 48 -16q32 0 48 16q12 12 15 38q-3 35 -17 54
q-16 19 -46 19z" />
    <glyph glyph-name="zero.numr" horiz-adv-x="367" 
d="M183 700q53 0 83.5 -36t30.5 -100v-88q0 -64 -30.5 -100t-83.5 -36t-83 36t-30 100v88q0 64 30 100t83 36zM183 650q-30 0 -46 -19q-17 -23 -17 -67v-88q0 -44 17 -67q16 -19 46 -19q31 0 46 19q18 23 18 67v88q0 44 -18 67q-15 19 -46 19z" />
    <glyph glyph-name="one.numr" horiz-adv-x="190" 
d="M120 340h-50v360h50v-360z" />
    <glyph glyph-name="two.numr" horiz-adv-x="367" 
d="M184 700q53 0 83 -30t30 -83q0 -54 -30 -84t-83 -30q-31 0 -47 -19q-17 -22 -17 -64h177v-50h-227v47q0 64 30 100t84 36q32 0 48 16q15 15 15 48q0 32 -15 47q-16 16 -48 16q-33 0 -48 -16q-16 -15 -16 -47h-50q0 53 30 83t84 30z" />
    <glyph glyph-name="three.numr" horiz-adv-x="367" 
d="M184 700q51 0 82 -26q31 -28 31 -76q0 -49 -31 -77l-1 -1l1 -1q31 -28 31 -76q0 -49 -31 -77q-31 -26 -82 -26q-54 0 -84 30t-30 84h50q0 -33 16 -48q15 -16 48 -16q32 0 49 14q14 12 14 39q0 26 -14 38q-17 14 -49 14h-23v50h23q32 0 49 14q14 12 14 39q0 26 -14 38
q-17 14 -49 14q-33 0 -48 -16q-16 -15 -16 -47h-50q0 53 30 83t84 30z" />
    <glyph glyph-name="four.numr" horiz-adv-x="353" 
d="M120 456h113v67h50v-183h-50v66h-163v61l106 233h55z" />
    <glyph glyph-name="five.numr" horiz-adv-x="367" 
d="M272 650h-152v-83h67q50 0 80 -30t30 -83q0 -54 -30 -84t-83 -30q-54 0 -84 30t-30 84h50q0 -33 16 -48q15 -16 48 -16q32 0 48 16q15 15 15 48q0 32 -15 48q-16 15 -48 15h-114v183h202v-50z" />
    <glyph glyph-name="six.numr" horiz-adv-x="367" 
d="M272 650h-88q-31 0 -47 -19q-17 -23 -17 -67v-12q27 15 64 15q53 0 83 -30t30 -83q0 -54 -30 -84t-83 -30q-54 0 -84 36t-30 100v88q0 64 30 100t84 36h88v-50zM184 517q-33 0 -48 -15q-13 -13 -16 -39q3 -34 17 -54q16 -19 47 -19q32 0 48 16q15 15 15 48q0 32 -15 48
q-16 15 -48 15z" />
    <glyph glyph-name="seven.numr" horiz-adv-x="351" 
d="M281 640l-128 -300h-54l132 310h-161v50h211v-60z" />
    <glyph glyph-name="eight.numr" horiz-adv-x="367" 
d="M184 700q51 0 82 -26q31 -28 31 -76q0 -49 -31 -77l-1 -1l1 -1q31 -28 31 -76q0 -49 -31 -77q-31 -26 -82 -26q-53 0 -82 26q-32 27 -32 77q0 49 32 76l1 1l-1 1q-32 27 -32 77q0 49 32 76q29 26 82 26zM184 650q-33 0 -50 -14q-14 -12 -14 -38q0 -27 14 -39
q17 -14 50 -14q32 0 49 14q14 12 14 39q0 26 -14 38q-17 14 -49 14zM184 495q-33 0 -50 -14q-14 -12 -14 -38q0 -27 14 -39q17 -14 50 -14q32 0 49 14q14 12 14 39q0 26 -14 38q-17 14 -49 14z" />
    <glyph glyph-name="nine.numr" horiz-adv-x="367" 
d="M184 700q53 0 83 -36t30 -100v-88q0 -64 -30 -100t-83 -36h-89v50h89q30 0 46 19q17 23 17 67v12q-25 -15 -63 -15q-54 0 -84 30t-30 84q0 53 30 83t84 30zM184 650q-33 0 -48 -16q-16 -15 -16 -47q0 -33 16 -48q15 -16 48 -16q32 0 48 16q12 12 15 38q-3 35 -17 54
q-16 19 -46 19z" />
    <glyph glyph-name="caronaccent" horiz-adv-x="50" 
d="M50 478h-50v222h50v-222z" />
    <glyph glyph-name="lowerslashaccent" horiz-adv-x="436" 
d="M436 469l-399 -443l-37 34l399 443z" />
    <glyph glyph-name="upperslashaccent" horiz-adv-x="484" 
d="M484 646l-443 -620l-41 29l443 620z" />
    <glyph glyph-name="slashaccent" horiz-adv-x="288" 
d="M288 394l-266 -133l-22 45l266 133z" />
    <glyph glyph-name="baraccent" horiz-adv-x="288" 
d="M288 325h-288v50h288v-50z" />
    <glyph glyph-name="longbaraccent" horiz-adv-x="576" 
d="M576 325h-576v50h576v-50z" />
    <glyph glyph-name="breveacuteaccent" horiz-adv-x="265" 
d="M265 953l-178 -89l-22 45l177 88zM177 864h50q0 -54 -30 -84t-83 -30q-54 0 -84 30t-30 84h50q0 -33 16 -48q15 -16 48 -16q32 0 48 16q15 15 15 48z" />
    <glyph glyph-name="brevegraveaccent" horiz-adv-x="265" 
d="M200 909l-22 -45l-178 89l23 44zM215 864h50q0 -54 -30 -84t-83 -30q-54 0 -84 30t-30 84h50q0 -33 16 -48q15 -16 48 -16q32 0 48 16q15 15 15 48z" />
    <glyph glyph-name="brevehookaccent" horiz-adv-x="227" 
d="M94 975v50q37 0 59 -22q21 -21 21 -59q0 -37 -21 -58q-22 -22 -59 -22v50q30 0 30 30q0 31 -30 31zM177 864h50q0 -54 -30 -84t-83 -30q-54 0 -84 30t-30 84h50q0 -33 16 -48q15 -16 48 -16q32 0 48 16q15 15 15 48z" />
    <glyph glyph-name="brevetildeaccent" horiz-adv-x="272" 
d="M45 976q27 11 56.5 4t51.5 -29q25 -25 54 -14q15 7 15 18h50q0 -46 -46 -64q-23 -12 -53.5 -5.5t-54.5 30.5q-25 24 -53 13q-15 -6 -15 -18h-50q0 46 45 65zM200 864h50q0 -54 -30 -84t-83 -30q-54 0 -84 30t-30 84h50q0 -33 16 -48q15 -16 48 -16q32 0 48 16
q15 15 15 48z" />
    <glyph glyph-name="circumflexacuteaccent" horiz-adv-x="253" 
d="M228 979l-178 -89l-22 45l177 88zM126 826l-95 -76l-31 39l126 101l127 -101l-31 -39z" />
    <glyph glyph-name="circumflexgraveaccent" horiz-adv-x="253" 
d="M227 935l-22 -45l-178 89l23 44zM126 826l-95 -76l-31 39l126 101l127 -101l-31 -39z" />
    <glyph glyph-name="circumflexhookaccent" horiz-adv-x="253" 
d="M126 1021v50q37 0 59 -22q21 -21 21 -59q0 -37 -21 -58q-22 -22 -59 -22v50q30 0 30 30q0 31 -30 31zM126 826l-95 -76l-31 39l126 101l127 -101l-31 -39z" />
    <glyph glyph-name="circumflextildeaccent" horiz-adv-x="272" 
d="M45 992q27 11 56.5 4t51.5 -29q25 -25 54 -14q15 7 15 18h50q0 -46 -46 -64q-23 -12 -53.5 -5.5t-54.5 30.5q-25 24 -53 13q-15 -6 -15 -18h-50q0 46 45 65zM135 826l-95 -76l-31 39l126 101l127 -101l-31 -39z" />
    <glyph glyph-name="dieresisacuteaccent" horiz-adv-x="200" 
d="M200 929l-178 -89l-22 45l177 88zM45 820q14 0 24.5 -10.5t10.5 -24.5t-10.5 -24.5t-24.5 -10.5t-24.5 10.5t-10.5 24.5t10.5 24.5t24.5 10.5zM155 820q14 0 24.5 -10.5t10.5 -24.5t-10.5 -24.5t-24.5 -10.5t-24.5 10.5t-10.5 24.5t10.5 24.5t24.5 10.5z" />
    <glyph glyph-name="dieresisgraveaccent" horiz-adv-x="200" 
d="M200 885l-22 -45l-178 89l23 44zM45 820q14 0 24.5 -10.5t10.5 -24.5t-10.5 -24.5t-24.5 -10.5t-24.5 10.5t-10.5 24.5t10.5 24.5t24.5 10.5zM155 820q14 0 24.5 -10.5t10.5 -24.5t-10.5 -24.5t-24.5 -10.5t-24.5 10.5t-10.5 24.5t10.5 24.5t24.5 10.5z" />
    <glyph glyph-name="dieresiscaronaccent" horiz-adv-x="253" 
d="M253 931l-127 -101l-126 101l31 39l95 -76l96 76zM72 820q14 0 24.5 -10.5t10.5 -24.5t-10.5 -24.5t-24.5 -10.5t-24.5 10.5t-10.5 24.5t10.5 24.5t24.5 10.5zM182 820q14 0 24.5 -10.5t10.5 -24.5t-10.5 -24.5t-24.5 -10.5t-24.5 10.5t-10.5 24.5t10.5 24.5t24.5 10.5z
" />
    <glyph glyph-name="dieresismacronaccent" horiz-adv-x="180" 
d="M179 850h-177v50h177v-50zM35 820q14 0 24.5 -10.5t10.5 -24.5t-10.5 -24.5t-24.5 -10.5t-24.5 10.5t-10.5 24.5t10.5 24.5t24.5 10.5zM145 820q14 0 24.5 -10.5t10.5 -24.5t-10.5 -24.5t-24.5 -10.5t-24.5 10.5t-10.5 24.5t10.5 24.5t24.5 10.5z" />
    </font>
</defs>
</svg>
